<svg xmlns="http://www.w3.org/2000/svg" xmlns:xlink="http://www.w3.org/1999/xlink" viewBox="0 0 1976.61 575.4"><defs><style>.cls-1{isolation:isolate;}.cls-2{fill:url(#linear-gradient);}.cls-3{fill:url(#linear-gradient-2);}.cls-4{fill:#d5dce0;opacity:0.4;mix-blend-mode:multiply;}.cls-5{fill:#fff;opacity:0.47;}</style><linearGradient id="linear-gradient" x1="988.3" y1="85.56" x2="988.3" y2="573.91" gradientUnits="userSpaceOnUse"><stop offset="0" stop-color="#edf8fc"/><stop offset="1" stop-color="#cae0ee"/></linearGradient><linearGradient id="linear-gradient-2" x1="101.1" y1="94.31" x2="101.1" y2="632.56" gradientUnits="userSpaceOnUse"><stop offset="0" stop-color="#edf8fc"/><stop offset="1" stop-color="#caebf9"/></linearGradient></defs><title>ground-101</title><g class="cls-1"><g id="Calque_2" data-name="Calque 2"><g id="Calque_1-2" data-name="Calque 1"><path class="cls-2" d="M1857.37,1.17C1749-1.24,1720.66,2.38,1587.1,9.62c-319,6-737-14.47-1087.4-3.63C216.8,14.76,52.72,17.21,0,17.86V522.05H1976.61V0C1953.62,1.33,1915.41,2.45,1857.37,1.17Z"/><path class="cls-3" d="M0,410.62v41.31c42.22-7.67,95.36-15.5,148.49-22.72C300.05,408.64,92.16,409.42,0,410.62Z"/><path class="cls-4" d="M1711.25,514.94c-231,4-278.14,9.95-82.51,31.89s-287.57,23.92-575.13,19.93-924,2-693-19.93S398.35,501,82.5,495c-32.78-.62-60.1-1.55-82.5-2.72V575.4H1976.61V460.88c-31.77,2.13-73.81,3.64-128.64,4.22C1475.53,469.08,1942.25,511,1711.25,514.94Z"/><path class="cls-5" d="M559.74,432.53s-11-11.95-58.15-2S460,449.82,493,450.47,592.75,451.81,559.74,432.53Z"/></g></g></g></svg>