<svg xmlns="http://www.w3.org/2000/svg" viewBox="0 0 2242.72 275.07"><defs><style>.cls-1{fill:#154f72;}.cls-2{fill:#fff6a5;}.cls-3{fill:#fff;}.cls-4{fill:#303663;}.cls-5{fill:#dde6ec;}.cls-6{fill:#222342;}</style></defs><title>maisons-101</title><g id="Calque_2" data-name="Calque 2"><g id="Calque_1-2" data-name="Calque 1"><path class="cls-1" d="M2195.16,57.39V33.5l-38.59-5.31,1.81,32.66-20.9-.54-2.19-21.24H2115.1l5.42,30-7.59-.27-2.87-10.61-10.46.25V71.73h-50.15v-17H2061l-24.87-25.49h-97L1907,51.55h11.9V72.27l-33.55-.82-2.88-34.76h12.27l-50.5-34-40,31.33,14.07.79-1.07,37.45-48-.82-2.9-28.4L1726,42.53s-2.88,29.2-5,29.73-35.34-2.66-35.34-2.66.71-12.74-1.44-12.74c-.35,0-6.67.14-16.92.39v.14H1639V33.5l-38.61-5.31,1.82,32.66-20.92-.54-2.15-21.24h-20.21l5.41,30-7.57-.27-2.88-10.61-10.45.25V71.73h-50.14v-17h11.53l-24.87-25.49h-97l-32.1,22.3h11.91V72.27l-33.53-.82-2.91-34.76h12.27l-50.49-34L1248,34l14.06.79L1261,72.27l-48-.82-2.9-28.4-40.39-.52s-2.87,29.2-5,29.73c-2,.5-31-2.24-34.89-2.6V57.39h-1.24c-.17-.34-.4-.53-.65-.53s-6.67.14-17,.39v.14h-26.86V33.5l-38.57-5.31,1.81,32.66-20.94-.54-2.17-21.24H1004.1l5.4,30-7.58-.27-2.86-10.61-10.48.25V71.73H938.46v-17H950L925.1,29.25h-97L796,51.55h11.9V72.27l-33.53-.82-2.9-34.76h12.27l-50.49-34L693.22,34l14,.79L706.2,72.27l-48-.82-2.88-28.4L615,42.53s-2.88,29.2-5.06,29.73-35.32-2.66-35.32-2.66.7-12.74-1.44-12.74c-.38,0-6.67.14-17,.39v.14H528V33.5l-38.61-5.31,1.81,32.66-20.92-.54L468.1,39.07H447.91l5.41,30-7.58-.27-2.88-10.61-10.45.25V71.73H382.29v-17h11.54l-24.9-25.49h-97l-32.09,22.3h11.89V72.27l-33.55-.82L215.3,36.69h12.25l-50.47-34L137,34l14.07.79L150,72.27l-48-.82-2.88-28.4-40.4-.52s-2.88,29.2-5.05,29.73S18.38,69.6,18.38,69.6s.73-12.74-1.45-12.74c-.34,0-6.64.14-16.93.39V172.48l556.17-8.1v8.1L1111,164.4v8.08l556.2-8.1v8.1l573.66-8.37V57.39Z"/><rect class="cls-2" x="2182.54" y="52.09" width="7.02" height="5.98"/><rect class="cls-2" x="2177.13" y="66.02" width="5.41" height="3.58"/><rect class="cls-2" x="1732.82" y="47.57" width="6.14" height="6.1"/><rect class="cls-2" x="1753.01" y="55.52" width="5.77" height="4.27"/><rect class="cls-2" x="1742.54" y="62.44" width="5.04" height="5.31"/><rect class="cls-2" x="1758.41" y="73.31" width="3.26" height="3.18"/><rect class="cls-2" x="1766.34" y="77.84" width="4.33" height="3.18"/><rect class="cls-2" x="1783.67" y="78.89" width="3.95" height="3.98"/><rect class="cls-2" x="1729.94" y="105.72" width="7.56" height="3.97"/><rect class="cls-2" x="1823.34" y="68" width="5.04" height="2.67"/><rect class="cls-2" x="1825.49" y="39.6" width="15.53" height="10.62"/><rect class="cls-2" x="1849.31" y="57.91" width="9.38" height="5.86"/><rect class="cls-2" x="1869.13" y="50.75" width="6.86" height="5.31"/><rect class="cls-2" x="1850.37" y="87.92" width="7.23" height="5.57"/><rect class="cls-2" x="1898.34" y="96.15" width="4.7" height="4.78"/><rect class="cls-2" x="1810.36" y="112.88" width="9" height="6.37"/><rect class="cls-2" x="1932.27" y="61.37" width="17.29" height="12.22"/><rect class="cls-2" x="1960.37" y="51.28" width="8.66" height="7.43"/><rect class="cls-2" x="1987.79" y="63.5" width="8.65" height="6.89"/><rect class="cls-2" x="2013.05" y="55" width="7.92" height="4.25"/><rect class="cls-2" x="2022.78" y="73.58" width="10.84" height="9.02"/><rect class="cls-2" x="2044.78" y="105.17" width="6.48" height="5.31"/><rect class="cls-2" x="2066.77" y="97.48" width="6.86" height="4.25"/><rect class="cls-2" x="2095.99" y="90.31" width="9.73" height="6.76"/><rect class="cls-2" x="2123.58" y="71.59" width="7.57" height="8.37"/><rect class="cls-2" x="2123.03" y="53.29" width="3.8" height="2.78"/><rect class="cls-2" x="2122.5" y="44.9" width="4.33" height="3.2"/><rect class="cls-2" x="2155.49" y="76.37" width="7.04" height="8.37"/><rect class="cls-2" x="2162.53" y="60.46" width="3.79" height="5.16"/><rect class="cls-2" x="2165.24" y="35.35" width="6.5" height="8.77"/><path class="cls-3" d="M1768.53,42.34c-1.94-1.13-5.33-1.08-7.69-1.29a34.73,34.73,0,0,1-4.48-.33,7.17,7.17,0,0,1-1.37-.5c-.25-.15-.53-.27-.78-.42-1.12-1.55-3.56-1.94-5.73-1.35a5.15,5.15,0,0,1-.56.16,62.79,62.79,0,0,0-9.21,1c-3.88.67-7.88.87-11.8,1.3-2.79.33-4.56,3.72-1.48,4h0a8.74,8.74,0,0,1,1,2.59c.23.95,1.89.32,2-.33a13.66,13.66,0,0,0,.32-2.07c2.33.05,4.69-.06,7,0,1.67.05,3.36.21,5,.36,1.44.11,3.64-.11,4.9.42,2.17.89,5.09,0,6.68-1.18l.12-.09.41-.14a9.8,9.8,0,0,1,1.61-.53,18.24,18.24,0,0,1,4.79-.11c2.5.08,5.19.78,7.65.64C1768,44.44,1769.72,43.05,1768.53,42.34Z"/><path class="cls-3" d="M1883.83,27c-.89-1.62-2.78-2.88-4.46-4.07-1.87-1.31-3.7-2.62-5.58-3.92-3.5-2.39-5.62-5.89-8.77-8.54a11.8,11.8,0,0,0-6.33-2.54c-2.87-.38-4.19-.58-5.92-2.37-2.4-2.46-4.84-5.34-9.38-5.53s-8,2.83-10.59,5.22a5.38,5.38,0,0,1-2.92,1.71c-2.76.81-5.1,2.7-7.1,4.27-4,3.1-5.78,7-8.69,10.56s-6.25,6.94-9,10.56c-1.07,1.41.84,2.17,2.36,1.26a84.16,84.16,0,0,0,10.76-8c1.58-1.34,3-2.77,4.65-4.08s3.05-2.91,4.68-4.33c2.88-2.49,6.88-4.42,9-7.31.79-1,1.35-2,2.13-3,.51-.66,2.28-2.26,2.77-2.1,1.34.42,2.39,1.87,3.2,2.71a46.94,46.94,0,0,0,3.61,4.05,12.53,12.53,0,0,0,5.59,2.08c1.07.2,2.2.17,3.3.28a11.54,11.54,0,0,1,3.34,1.35c3.55,1.71,6.31,4.21,9.75,6.05,1.81,1,3.84,1.75,5.69,2.66,2.31,1.14,4,2.84,6.16,4C1882.93,28.41,1884.22,27.7,1883.83,27Z"/><path class="cls-3" d="M2009.25,28.6c-4.54-.44-9-.44-13.54-.64s-8.94-.5-13.41-.44c-2.23.05-4.43,0-6.65,0-1.85,0-4.85.44-6.56-.06-1.87-.56-3.52-1.4-5.33-2a11.72,11.72,0,0,0-7.13-.39c-5.77.65-11.5,1.28-17.35,1.64-3,.19-5.12.72-7.12,2.57a25.42,25.42,0,0,0-4,4.21,18.45,18.45,0,0,1-4.15,4.34c-2,1.51-4.15,2.88-6.28,4.28-4.16,2.71-8.21,5.53-11.16,9-1.32,1.55,1.47,2.3,2.68,1,5.71-6.33,15.28-9.84,21.8-15.59a26.11,26.11,0,0,1,3.45-3c.82.11,1.66.2.7.13,1,.07,2,.26,3,.33,2.72.22,5.49.27,8.24.25s5.38-.51,8.07-.68c4,.73,8.55-1.48,12.36-2.12,1.74-.31,4.39.49,6.11.72a58.46,58.46,0,0,0,7.37.3,111,111,0,0,0,14.11-1.22c4.73-.59,9.56-1,14.34-1.44C2009.52,29.74,2010.3,28.72,2009.25,28.6Z"/><path class="cls-3" d="M2060.27,49.32c-1-1.8-3.46-3.26-5.25-4.63a43.16,43.16,0,0,1-6-5.52c-3.19-3.58-5.15-7.57-8.81-10.92-.36-1.28-1.93-2-3.72-1.89-2.29.19-4.77.74-6,2.33-.65.82-1.22,2.52.54,2.95-.24-.19-.15-.15.21.16a5,5,0,0,0,1.34.62,7,7,0,0,0,2,.34c5,2.27,7.5,6,10.66,9.56a32.15,32.15,0,0,0,5.49,4.58,62.9,62.9,0,0,0,6.12,4.34h0C2058.1,52.52,2060.89,50.52,2060.27,49.32Z"/><path class="cls-3" d="M2130.21,35.13c-5.34-.5-10.84.38-16.07,1-2.45.26-2.65,2.57-1,2.81l0,0c4.19.44,8.46.1,12.65.48a16.66,16.66,0,0,1,5.56,1.09c1.52.65,1.09,2.13,2.37,3a3.78,3.78,0,0,0,4.47-.8C2141.89,38.46,2134.86,35.59,2130.21,35.13Z"/><path class="cls-3" d="M2140.06,43.59c-.89-1.48-4.27.23-3.37,1.56a2.59,2.59,0,0,1,.39,1.34,1.32,1.32,0,0,0,.43,1.18,2,2,0,0,0,1.89.09C2141.16,46.94,2140.81,44.82,2140.06,43.59Z"/><path class="cls-3" d="M2201.88,31.23a3.15,3.15,0,0,0-2.79-.22,1.11,1.11,0,0,0-.3-1.12c-1-1-3-1.25-4.58-1.52-2-.32-4-.63-6-.8-3.85-.35-7.71-.08-11.55-.08-7,0-16-1.26-21.37,3-2,1.55.25,3.16,2.48,1.87s6.17-.92,8.83-.67c3,.25,6.13.62,9.19.72a99.45,99.45,0,0,0,10.77-.35c1.9-.12,3.82-.18,5.76-.11,1.56.08,3,.55,4.62.55h.11a9,9,0,0,0-1.27,1.5c-.63.87-1,2.27.27,3a2.67,2.67,0,0,0,2.92-.25,5.32,5.32,0,0,0,1.06-1.06l.05-.06a3.09,3.09,0,0,0,.45-.68s0,0,0-.06l.26-.31.15-.12.35-.28C2202.27,33.38,2203,32.07,2201.88,31.23Z"/><path class="cls-3" d="M2198.79,41.43c-.4-1.58-3.63-.32-3,1.1.25.62.31,1.29.54,1.91s.44,1.05.64,1.58c.25.72,1.4.26,1.55-.26a17.74,17.74,0,0,0,.56-2A5.92,5.92,0,0,0,2198.79,41.43Z"/><path class="cls-3" d="M2206.57,56.29c-.15-.71-.72-1.09-1.66-1.26-2.93-.58-6,.45-9-.08-2.59-.45-5.89,3.22-2.87,4a23.59,23.59,0,0,0,8.17.42C2203.35,59.11,2207.1,58.49,2206.57,56.29Z"/><path class="cls-3" d="M2232.84,55.59c-3.46-.72-6.58-1.8-10.23-1.74-4.05.06-7.36,2.56-11.52,2.37-1.34-.06-3.36,1.59-1.62,2.19,4.63,1.65,9.09,0,13.81-.43,3-.26,10.92,2.85,11-1.33C2234.26,56.06,2233.51,55.72,2232.84,55.59Z"/><rect class="cls-2" x="1626.34" y="52.09" width="7.04" height="5.98"/><rect class="cls-2" x="1620.94" y="66.02" width="5.4" height="3.58"/><rect class="cls-2" x="1176.64" y="47.57" width="6.13" height="6.1"/><rect class="cls-2" x="1196.83" y="55.52" width="5.76" height="4.27"/><rect class="cls-2" x="1186.37" y="62.44" width="5.04" height="5.31"/><rect class="cls-2" x="1202.25" y="73.31" width="3.23" height="3.18"/><rect class="cls-2" x="1210.17" y="77.84" width="4.33" height="3.18"/><rect class="cls-2" x="1227.48" y="78.89" width="3.97" height="3.98"/><rect class="cls-2" x="1173.75" y="105.72" width="7.55" height="3.97"/><rect class="cls-2" x="1267.17" y="68" width="5.04" height="2.67"/><rect class="cls-2" x="1269.31" y="39.6" width="15.52" height="10.62"/><rect class="cls-2" x="1293.13" y="57.91" width="9.36" height="5.86"/><rect class="cls-2" x="1312.96" y="50.75" width="6.85" height="5.31"/><rect class="cls-2" x="1294.2" y="87.92" width="7.23" height="5.57"/><rect class="cls-2" x="1342.16" y="96.15" width="4.7" height="4.78"/><rect class="cls-2" x="1254.17" y="112.88" width="9.01" height="6.37"/><rect class="cls-2" x="1376.05" y="61.37" width="17.33" height="12.22"/><rect class="cls-2" x="1404.19" y="51.28" width="8.67" height="7.43"/><rect class="cls-2" x="1431.61" y="63.5" width="8.65" height="6.89"/><rect class="cls-2" x="1456.85" y="55" width="7.94" height="4.25"/><rect class="cls-2" x="1466.6" y="73.58" width="10.82" height="9.02"/><rect class="cls-2" x="1488.59" y="105.17" width="6.48" height="5.31"/><rect class="cls-2" x="1510.6" y="97.48" width="6.84" height="4.25"/><rect class="cls-2" x="1539.79" y="90.31" width="9.75" height="6.76"/><rect class="cls-2" x="1567.39" y="71.59" width="7.57" height="8.37"/><rect class="cls-2" x="1566.84" y="53.29" width="3.79" height="2.78"/><rect class="cls-2" x="1566.3" y="44.9" width="4.34" height="3.2"/><rect class="cls-2" x="1599.31" y="76.37" width="7.02" height="8.37"/><rect class="cls-2" x="1606.34" y="60.46" width="3.79" height="5.16"/><rect class="cls-2" x="1609.04" y="35.35" width="6.48" height="8.77"/><path class="cls-3" d="M1212.36,42.34c-1.92-1.13-5.34-1.08-7.7-1.29a34,34,0,0,1-4.45-.33,6.77,6.77,0,0,1-1.4-.5c-.26-.15-.52-.27-.77-.42-1.12-1.55-3.58-1.94-5.73-1.35a5.32,5.32,0,0,1-.57.16,62.51,62.51,0,0,0-9.2,1c-3.9.67-7.88.87-11.81,1.3-2.78.33-4.55,3.72-1.48,4h0a9.32,9.32,0,0,1,1,2.59c.23.95,1.9.32,2-.33a11.6,11.6,0,0,0,.34-2.07c2.33.05,4.69-.06,7,0,1.67.05,3.35.21,5,.36,1.44.11,3.65-.11,4.9.42,2.17.89,5.08,0,6.68-1.18a1.35,1.35,0,0,0,.11-.09c.09,0,.21-.07.41-.14a11.66,11.66,0,0,1,1.61-.53,18.31,18.31,0,0,1,4.8-.11c2.5.08,5.19.78,7.62.64C1211.84,44.44,1213.55,43.05,1212.36,42.34Z"/><path class="cls-3" d="M1327.65,27c-.9-1.62-2.78-2.88-4.47-4.07-1.85-1.31-3.68-2.62-5.56-3.92-3.51-2.39-5.65-5.89-8.78-8.54a11.71,11.71,0,0,0-6.35-2.54c-2.86-.38-4.17-.58-5.91-2.37-2.38-2.46-4.83-5.34-9.37-5.53s-8,2.83-10.58,5.22a5.52,5.52,0,0,1-2.93,1.71c-2.76.81-5.1,2.7-7.1,4.27-4,3.1-5.79,7-8.69,10.56s-6.27,6.94-9,10.56c-1.06,1.41.83,2.17,2.36,1.26a84.16,84.16,0,0,0,10.76-8c1.59-1.34,3-2.77,4.66-4.08s3.06-2.91,4.69-4.33c2.87-2.49,6.87-4.42,9.06-7.31.75-1,1.34-2,2.13-3,.5-.66,2.25-2.26,2.75-2.1,1.35.42,2.37,1.87,3.19,2.71a48.81,48.81,0,0,0,3.62,4.05,12.57,12.57,0,0,0,5.59,2.08c1.06.2,2.21.17,3.29.28a10.94,10.94,0,0,1,3.33,1.35c3.57,1.71,6.32,4.21,9.78,6.05,1.81,1,3.81,1.75,5.68,2.66,2.31,1.14,3.94,2.84,6.16,4C1326.75,28.41,1328,27.7,1327.65,27Z"/><path class="cls-3" d="M1453.06,28.6c-4.53-.44-9-.44-13.53-.64s-9-.5-13.42-.44c-2.23.05-4.43,0-6.64,0-1.84,0-4.84.44-6.57-.06s-3.51-1.4-5.33-2a11.66,11.66,0,0,0-7.11-.39c-5.77.65-11.53,1.28-17.36,1.64-3,.19-5.12.72-7.13,2.57a25.77,25.77,0,0,0-4,4.21,18.65,18.65,0,0,1-4.15,4.34c-2,1.51-4.15,2.88-6.31,4.28-4.13,2.71-8.19,5.53-11.13,9-1.31,1.55,1.46,2.3,2.67,1,5.73-6.33,15.27-9.84,21.8-15.59a26.87,26.87,0,0,1,3.46-3c.81.11,1.66.2.69.13,1,.07,2,.26,3,.33,2.74.22,5.49.27,8.24.25s5.37-.51,8.08-.68c4,.73,8.55-1.48,12.36-2.12,1.74-.31,4.38.49,6.12.72a57.91,57.91,0,0,0,7.34.3,110.84,110.84,0,0,0,14.13-1.22c4.73-.59,9.56-1,14.33-1.44C1453.34,29.74,1454.12,28.72,1453.06,28.6Z"/><path class="cls-3" d="M1504.07,49.32c-1-1.8-3.46-3.26-5.23-4.63a42.22,42.22,0,0,1-6-5.52c-3.17-3.58-5.15-7.57-8.79-10.92-.38-1.28-1.92-2-3.71-1.89-2.29.19-4.8.74-6,2.33-.66.82-1.23,2.52.52,2.95-.23-.19-.18-.15.23.16a4.24,4.24,0,0,0,1.34.62,6.83,6.83,0,0,0,2,.34c5,2.27,7.46,6,10.62,9.56a32.31,32.31,0,0,0,5.51,4.58,58.52,58.52,0,0,0,6.13,4.34h0C1501.91,52.52,1504.72,50.52,1504.07,49.32Z"/><path class="cls-3" d="M1574,35.13c-5.31-.5-10.81.38-16,1-2.47.26-2.66,2.57-1,2.81l0,0c4.2.44,8.46.1,12.67.48a16.7,16.7,0,0,1,5.55,1.09c1.52.65,1.08,2.13,2.37,3a3.76,3.76,0,0,0,4.46-.8C1585.68,38.46,1578.68,35.59,1574,35.13Z"/><path class="cls-3" d="M1583.89,43.59c-.92-1.48-4.27.23-3.4,1.56a2.21,2.21,0,0,1,.41,1.34c0,.43,0,.86.42,1.18a2,2,0,0,0,1.9.09C1585,46.94,1584.64,44.82,1583.89,43.59Z"/><path class="cls-3" d="M1645.7,31.23a3.17,3.17,0,0,0-2.8-.22,1.08,1.08,0,0,0-.28-1.12c-1-1-3-1.25-4.61-1.52-2-.32-4-.63-6-.8-3.86-.35-7.69-.08-11.55-.08-7,0-15.94-1.26-21.36,3-2,1.55.25,3.16,2.46,1.87s6.18-.92,8.84-.67c3.06.25,6.13.62,9.19.72a98.43,98.43,0,0,0,10.75-.35c1.92-.12,3.86-.18,5.78-.11,1.58.08,3,.55,4.62.55h.06a15.37,15.37,0,0,0-1.23,1.5c-.6.87-.93,2.27.27,3a2.69,2.69,0,0,0,2.93-.25,4.89,4.89,0,0,0,1.07-1.06q-.21.25,0-.06a4.05,4.05,0,0,0,.46-.68s0,0,0-.06a1.93,1.93,0,0,1,.27-.31.66.66,0,0,0,.12-.12c.13-.1.23-.19.36-.28C1646.1,33.38,1646.79,32.07,1645.7,31.23Z"/><path class="cls-3" d="M1642.6,41.43c-.38-1.58-3.61-.32-3,1.1.25.62.33,1.29.57,1.91s.42,1.05.6,1.58c.27.72,1.42.26,1.58-.26a20,20,0,0,0,.56-2A6.13,6.13,0,0,0,1642.6,41.43Z"/><path class="cls-3" d="M1650.39,56.29c-.17-.71-.75-1.09-1.67-1.26-2.94-.58-6,.45-9-.08-2.56-.45-5.86,3.22-2.86,4a23.71,23.71,0,0,0,8.19.42C1647.16,59.11,1650.89,58.49,1650.39,56.29Z"/><path class="cls-3" d="M1676.66,55.59c-3.45-.72-6.6-1.8-10.23-1.74-4.06.06-7.38,2.56-11.54,2.37-1.33-.06-3.35,1.59-1.6,2.19,4.64,1.65,9.06,0,13.79-.43,3.05-.26,10.94,2.85,11-1.33C1678.07,56.06,1677.33,55.72,1676.66,55.59Z"/><rect class="cls-2" x="1071.54" y="52.09" width="7.02" height="5.98"/><rect class="cls-2" x="1066.13" y="66.02" width="5.42" height="3.58"/><rect class="cls-2" x="621.82" y="47.57" width="6.13" height="6.1"/><rect class="cls-2" x="642" y="55.52" width="5.76" height="4.27"/><rect class="cls-2" x="631.54" y="62.44" width="5.05" height="5.31"/><rect class="cls-2" x="647.41" y="73.31" width="3.23" height="3.18"/><rect class="cls-2" x="655.35" y="77.84" width="4.34" height="3.18"/><rect class="cls-2" x="672.67" y="78.89" width="3.96" height="3.98"/><rect class="cls-2" x="618.92" y="105.72" width="7.58" height="3.97"/><rect class="cls-2" x="712.34" y="68" width="5.03" height="2.67"/><rect class="cls-2" x="714.49" y="39.6" width="15.5" height="10.62"/><rect class="cls-2" x="738.29" y="57.91" width="9.38" height="5.86"/><rect class="cls-2" x="758.13" y="50.75" width="6.85" height="5.31"/><rect class="cls-2" x="739.38" y="87.92" width="7.21" height="5.57"/><rect class="cls-2" x="787.35" y="96.15" width="4.69" height="4.78"/><rect class="cls-2" x="699.35" y="112.88" width="9.01" height="6.37"/><rect class="cls-2" x="821.24" y="61.37" width="17.32" height="12.22"/><rect class="cls-2" x="849.38" y="51.28" width="8.65" height="7.43"/><rect class="cls-2" x="876.79" y="63.5" width="8.65" height="6.89"/><rect class="cls-2" x="902.03" y="55" width="7.92" height="4.25"/><rect class="cls-2" x="911.76" y="73.58" width="10.82" height="9.02"/><rect class="cls-2" x="933.77" y="105.17" width="6.49" height="5.31"/><rect class="cls-2" x="955.77" y="97.48" width="6.85" height="4.25"/><rect class="cls-2" x="984.97" y="90.31" width="9.74" height="6.76"/><rect class="cls-2" x="1012.57" y="71.59" width="7.58" height="8.37"/><rect class="cls-2" x="1012.02" y="53.29" width="3.79" height="2.78"/><rect class="cls-2" x="1011.5" y="44.9" width="4.31" height="3.2"/><rect class="cls-2" x="1044.49" y="76.37" width="7.03" height="8.37"/><rect class="cls-2" x="1051.53" y="60.46" width="3.78" height="5.16"/><rect class="cls-2" x="1054.22" y="35.35" width="6.49" height="8.77"/><path class="cls-3" d="M657.52,42.34c-1.92-1.13-5.34-1.08-7.69-1.29a34.57,34.57,0,0,1-4.47-.33,7.27,7.27,0,0,1-1.38-.5l-.78-.42c-1.1-1.55-3.56-1.94-5.71-1.35a4.34,4.34,0,0,1-.6.16,62.55,62.55,0,0,0-9.17,1c-3.89.67-7.88.87-11.82,1.3-2.77.33-4.56,3.72-1.47,4h0a9.62,9.62,0,0,1,1,2.59c.23.95,1.88.32,2-.33a15.09,15.09,0,0,0,.33-2.07c2.32.05,4.68-.06,7,0,1.66.05,3.35.21,5,.36,1.42.11,3.63-.11,4.9.42,2.13.89,5.08,0,6.67-1.18l.1-.09a2.88,2.88,0,0,0,.42-.14,11.23,11.23,0,0,1,1.61-.53,18.24,18.24,0,0,1,4.79-.11c2.52.08,5.19.78,7.63.64C657,44.44,658.73,43.05,657.52,42.34Z"/><path class="cls-3" d="M772.84,27c-.89-1.62-2.79-2.88-4.49-4.07s-3.69-2.62-5.56-3.92c-3.5-2.39-5.64-5.89-8.78-8.54a11.7,11.7,0,0,0-6.34-2.54c-2.85-.38-4.18-.58-5.92-2.37C739.36,3.08,736.92.2,732.37,0s-8,2.83-10.58,5.22a5.31,5.31,0,0,1-2.91,1.71c-2.76.81-5.09,2.7-7.11,4.27-4,3.1-5.8,7-8.68,10.56s-6.27,6.94-9,10.56c-1.06,1.41.83,2.17,2.36,1.26a82.66,82.66,0,0,0,10.75-8c1.58-1.34,3-2.77,4.65-4.08s3.06-2.91,4.71-4.33c2.87-2.49,6.87-4.42,9-7.31.77-1,1.34-2,2.13-3,.52-.66,2.27-2.26,2.77-2.1,1.35.42,2.39,1.87,3.19,2.71a47.07,47.07,0,0,0,3.62,4.05,12.53,12.53,0,0,0,5.59,2.08c1.07.2,2.21.17,3.29.28a11.26,11.26,0,0,1,3.33,1.35c3.57,1.71,6.32,4.21,9.78,6.05,1.8,1,3.81,1.75,5.67,2.66,2.31,1.14,3.95,2.84,6.17,4C771.92,28.41,773.22,27.7,772.84,27Z"/><path class="cls-3" d="M898.24,28.6c-4.53-.44-9-.44-13.55-.64s-8.94-.5-13.42-.44c-2.21.05-4.4,0-6.63,0-1.85,0-4.83.44-6.56-.06s-3.52-1.4-5.33-2a11.72,11.72,0,0,0-7.13-.39c-5.76.65-11.48,1.28-17.34,1.64-3,.19-5.13.72-7.13,2.57a26.88,26.88,0,0,0-4,4.21A18.05,18.05,0,0,1,813,37.79c-2,1.51-4.17,2.88-6.31,4.28-4.14,2.71-8.2,5.53-11.14,9-1.31,1.55,1.46,2.3,2.67,1,5.71-6.33,15.27-9.84,21.81-15.59a24.89,24.89,0,0,1,3.45-3c.81.11,1.65.2.71.13,1,.07,2,.26,3,.33,2.73.22,5.48.27,8.23.25s5.36-.51,8.08-.68c4,.73,8.55-1.48,12.36-2.12,1.73-.31,4.39.49,6.11.72a58.14,58.14,0,0,0,7.36.3,110.37,110.37,0,0,0,14.1-1.22c4.73-.59,9.57-1,14.33-1.44C898.51,29.74,899.28,28.72,898.24,28.6Z"/><path class="cls-3" d="M949.25,49.32c-1-1.8-3.45-3.26-5.23-4.63a41.16,41.16,0,0,1-6-5.52c-3.19-3.58-5.14-7.57-8.79-10.92-.38-1.28-1.93-2-3.71-1.89-2.29.19-4.79.74-6,2.33-.64.82-1.22,2.52.51,2.95-.21-.19-.15-.15.25.16a4.23,4.23,0,0,0,1.32.62,7,7,0,0,0,2,.34c5,2.27,7.48,6,10.64,9.56a31.55,31.55,0,0,0,5.51,4.58,59.59,59.59,0,0,0,6.13,4.34h0C947.11,52.52,949.9,50.52,949.25,49.32Z"/><path class="cls-3" d="M1019.19,35.13c-5.31-.5-10.83.38-16,1-2.46.26-2.68,2.57-1,2.81l0,0c4.19.44,8.47.1,12.65.48a16.72,16.72,0,0,1,5.57,1.09c1.52.65,1.08,2.13,2.35,3a3.79,3.79,0,0,0,4.48-.8C1030.87,38.46,1023.86,35.59,1019.19,35.13Z"/><path class="cls-3" d="M1029.05,43.59c-.9-1.48-4.25.23-3.38,1.56a2.27,2.27,0,0,1,.4,1.34,1.34,1.34,0,0,0,.42,1.18,2,2,0,0,0,1.89.09C1030.18,46.94,1029.82,44.82,1029.05,43.59Z"/><path class="cls-3" d="M1090.88,31.23a3.17,3.17,0,0,0-2.8-.22,1.12,1.12,0,0,0-.28-1.12c-1-1-3-1.25-4.61-1.52-2-.32-4-.63-6-.8-3.86-.35-7.71-.08-11.55-.08-7,0-16-1.26-21.37,3-2,1.55.26,3.16,2.47,1.87s6.17-.92,8.83-.67c3,.25,6.14.62,9.22.72a99.17,99.17,0,0,0,10.75-.35c1.9-.12,3.82-.18,5.74-.11,1.6.08,3,.55,4.64.55h.09a10.58,10.58,0,0,0-1.25,1.5c-.62.87-.94,2.27.25,3a2.69,2.69,0,0,0,2.93-.25,4.49,4.49,0,0,0,1.07-1.06c-.13.17-.12.15,0-.06a3.13,3.13,0,0,0,.46-.68s0,0,0-.06l.28-.31a.81.81,0,0,0,.13-.12,2.88,2.88,0,0,1,.38-.28C1091.27,33.38,1092,32.07,1090.88,31.23Z"/><path class="cls-3" d="M1087.78,41.43c-.38-1.58-3.63-.32-3,1.1.26.62.3,1.29.53,1.91s.45,1.05.62,1.58c.27.72,1.42.26,1.59-.26a17.59,17.59,0,0,0,.54-2A6.33,6.33,0,0,0,1087.78,41.43Z"/><path class="cls-3" d="M1095.56,56.29c-.16-.71-.74-1.09-1.68-1.26-2.92-.58-6,.45-9-.08-2.57-.45-5.88,3.22-2.87,4a23.59,23.59,0,0,0,8.17.42C1092.33,59.11,1096.08,58.49,1095.56,56.29Z"/><path class="cls-3" d="M1121.83,55.59c-3.44-.72-6.61-1.8-10.22-1.74-4.06.06-7.39,2.56-11.55,2.37-1.32-.06-3.34,1.59-1.59,2.19,4.62,1.65,9.06,0,13.79-.43,3-.26,11,2.85,11-1.33C1123.25,56.06,1122.5,55.72,1121.83,55.59Z"/><rect class="cls-2" x="515.35" y="52.09" width="7.02" height="5.98"/><rect class="cls-2" x="509.93" y="66.02" width="5.42" height="3.58"/><rect class="cls-2" x="65.64" y="47.57" width="6.13" height="6.1"/><rect class="cls-2" x="85.83" y="55.52" width="5.76" height="4.27"/><rect class="cls-2" x="75.37" y="62.44" width="5.05" height="5.31"/><rect class="cls-2" x="91.24" y="73.31" width="3.25" height="3.18"/><rect class="cls-2" x="99.17" y="77.84" width="4.34" height="3.18"/><rect class="cls-2" x="116.47" y="78.89" width="3.98" height="3.98"/><rect class="cls-2" x="62.75" y="105.72" width="7.57" height="3.97"/><rect class="cls-2" x="156.15" y="68" width="5.04" height="2.67"/><rect class="cls-2" x="158.31" y="39.6" width="15.52" height="10.62"/><rect class="cls-2" x="182.12" y="57.91" width="9.38" height="5.86"/><rect class="cls-2" x="201.96" y="50.75" width="6.84" height="5.31"/><rect class="cls-2" x="183.19" y="87.92" width="7.22" height="5.57"/><rect class="cls-2" x="231.16" y="96.15" width="4.7" height="4.78"/><rect class="cls-2" x="143.17" y="112.88" width="9" height="6.37"/><rect class="cls-2" x="265.06" y="61.37" width="17.32" height="12.22"/><rect class="cls-2" x="293.2" y="51.28" width="8.66" height="7.43"/><rect class="cls-2" x="320.61" y="63.5" width="8.64" height="6.89"/><rect class="cls-2" x="345.85" y="55" width="7.93" height="4.25"/><rect class="cls-2" x="355.58" y="73.58" width="10.83" height="9.02"/><rect class="cls-2" x="377.6" y="105.17" width="6.48" height="5.31"/><rect class="cls-2" x="399.58" y="97.48" width="6.86" height="4.25"/><rect class="cls-2" x="428.8" y="90.31" width="9.74" height="6.76"/><rect class="cls-2" x="456.39" y="71.59" width="7.57" height="8.37"/><rect class="cls-2" x="455.85" y="53.29" width="3.79" height="2.78"/><rect class="cls-2" x="455.3" y="44.9" width="4.34" height="3.2"/><rect class="cls-2" x="488.3" y="76.37" width="7.04" height="8.37"/><rect class="cls-2" x="495.34" y="60.46" width="3.77" height="5.16"/><rect class="cls-2" x="498.04" y="35.35" width="6.49" height="8.77"/><path class="cls-3" d="M101.35,42.34c-1.92-1.13-5.33-1.08-7.72-1.29a34.81,34.81,0,0,1-4.46-.33,7.42,7.42,0,0,1-1.37-.5c-.25-.15-.52-.27-.77-.42-1.11-1.55-3.58-1.94-5.72-1.35a5.5,5.5,0,0,1-.58.16,62.23,62.23,0,0,0-9.19,1c-3.9.67-7.88.87-11.82,1.3-2.76.33-4.56,3.72-1.47,4h0a8.74,8.74,0,0,1,1,2.59c.23.95,1.89.32,2-.33a16.79,16.79,0,0,0,.33-2.07c2.32.05,4.67-.06,7,0,1.67.05,3.35.21,5,.36,1.46.11,3.64-.11,4.89.42,2.17.89,5.09,0,6.69-1.18.07,0,.08-.07.11-.09a3.33,3.33,0,0,0,.41-.14A12.12,12.12,0,0,1,87.34,44a18.25,18.25,0,0,1,4.79-.11c2.5.08,5.19.78,7.63.64C100.82,44.44,102.53,43.05,101.35,42.34Z"/><path class="cls-3" d="M216.65,27c-.9-1.62-2.79-2.88-4.46-4.07q-2.77-2-5.58-3.92c-3.51-2.39-5.63-5.89-8.78-8.54a11.8,11.8,0,0,0-6.35-2.54c-2.84-.38-4.16-.58-5.9-2.37C183.18,3.08,180.74.2,176.21,0s-8,2.83-10.6,5.22a5.39,5.39,0,0,1-2.91,1.71c-2.75.81-5.1,2.7-7.11,4.27-4,3.1-5.79,7-8.69,10.56s-6.24,6.94-9,10.56c-1.07,1.41.83,2.17,2.35,1.26a85.09,85.09,0,0,0,10.78-8c1.56-1.34,3-2.77,4.62-4.08s3.07-2.91,4.71-4.33c2.86-2.49,6.88-4.42,9-7.31.76-1,1.34-2,2.12-3,.5-.66,2.26-2.26,2.75-2.1,1.38.42,2.4,1.87,3.21,2.71a48.81,48.81,0,0,0,3.62,4.05,12.49,12.49,0,0,0,5.58,2.08c1.08.2,2.2.17,3.31.28a11.42,11.42,0,0,1,3.32,1.35c3.57,1.71,6.33,4.21,9.76,6.05,1.82,1,3.82,1.75,5.69,2.66,2.32,1.14,3.94,2.84,6.17,4C215.74,28.41,217,27.7,216.65,27Z"/><path class="cls-3" d="M342.07,28.6c-4.56-.44-9-.44-13.55-.64s-8.94-.5-13.42-.44c-2.21.05-4.4,0-6.63,0-1.84,0-4.85.44-6.56-.06-1.88-.56-3.53-1.4-5.34-2a11.72,11.72,0,0,0-7.13-.39c-5.78.65-11.5,1.28-17.34,1.64-3.05.19-5.12.72-7.13,2.57a27.27,27.27,0,0,0-4,4.21,18.5,18.5,0,0,1-4.12,4.34c-2,1.51-4.17,2.88-6.29,4.28-4.17,2.71-8.21,5.53-11.17,9-1.3,1.55,1.48,2.3,2.69,1,5.71-6.33,15.26-9.84,21.79-15.59a26.87,26.87,0,0,1,3.46-3c.82.11,1.65.2.69.13,1,.07,2,.26,3,.33,2.73.22,5.46.27,8.21.25s5.4-.51,8.11-.68c4,.73,8.54-1.48,12.36-2.12,1.73-.31,4.38.49,6.1.72a58.06,58.06,0,0,0,7.35.3,111.31,111.31,0,0,0,14.14-1.22c4.73-.59,9.55-1,14.31-1.44C342.34,29.74,343.12,28.72,342.07,28.6Z"/><path class="cls-3" d="M393.07,49.32c-1-1.8-3.45-3.26-5.23-4.63a42.31,42.31,0,0,1-6-5.52c-3.17-3.58-5.11-7.57-8.8-10.92-.37-1.28-1.89-2-3.71-1.89-2.29.19-4.77.74-6,2.33-.63.82-1.19,2.52.54,2.95-.23-.19-.15-.15.23.16a4.63,4.63,0,0,0,1.35.62,6.83,6.83,0,0,0,2,.34c5,2.27,7.48,6,10.63,9.56a33.43,33.43,0,0,0,5.5,4.58,60.56,60.56,0,0,0,6.12,4.34h0C390.91,52.52,393.72,50.52,393.07,49.32Z"/><path class="cls-3" d="M463,35.13c-5.31-.5-10.82.38-16.05,1-2.46.26-2.67,2.57-1,2.81l0,0c4.19.44,8.46.1,12.65.48a16.6,16.6,0,0,1,5.54,1.09c1.55.65,1.11,2.13,2.37,3a3.78,3.78,0,0,0,4.48-.8C474.68,38.46,467.69,35.59,463,35.13Z"/><path class="cls-3" d="M472.88,43.59c-.92-1.48-4.27.23-3.38,1.56a2.49,2.49,0,0,1,.38,1.34c0,.43,0,.86.43,1.18a2,2,0,0,0,1.91.09C474,46.94,473.65,44.82,472.88,43.59Z"/><path class="cls-3" d="M534.69,31.23A3.15,3.15,0,0,0,531.9,31a1.06,1.06,0,0,0-.29-1.12c-1.05-1-3-1.25-4.59-1.52-2-.32-4-.63-6-.8-3.84-.35-7.69-.08-11.54-.08-7,0-15.95-1.26-21.36,3-2,1.55.26,3.16,2.46,1.87s6.18-.92,8.85-.67c3,.25,6.12.62,9.21.72A98.72,98.72,0,0,0,519.35,32c1.91-.12,3.85-.18,5.75-.11,1.61.08,3,.55,4.65.55h.08a13.23,13.23,0,0,0-1.27,1.5c-.6.87-.92,2.27.27,3a2.69,2.69,0,0,0,2.93-.25,4.89,4.89,0,0,0,1.07-1.06c-.14.17-.12.15,0-.06a2.15,2.15,0,0,0,.46-.68s0,0,0-.06a3.5,3.5,0,0,0,.27-.31.63.63,0,0,0,.14-.12,3.58,3.58,0,0,1,.37-.28C535.08,33.38,535.78,32.07,534.69,31.23Z"/><path class="cls-3" d="M531.58,41.43c-.35-1.58-3.59-.32-3,1.1.25.62.33,1.29.56,1.91s.43,1.05.63,1.58c.26.72,1.39.26,1.56-.26a15.92,15.92,0,0,0,.56-2A5.75,5.75,0,0,0,531.58,41.43Z"/><path class="cls-3" d="M539.37,56.29c-.16-.71-.72-1.09-1.66-1.26-2.94-.58-6,.45-9-.08-2.57-.45-5.88,3.22-2.87,4a23.62,23.62,0,0,0,8.18.42C536.17,59.11,539.89,58.49,539.37,56.29Z"/><path class="cls-3" d="M565.66,55.59c-3.44-.72-6.61-1.8-10.23-1.74-4.06.06-7.36,2.56-11.55,2.37-1.31-.06-3.34,1.59-1.59,2.19,4.61,1.65,9.07,0,13.8-.43,3-.26,10.92,2.85,11-1.33C567.06,56.06,566.32,55.72,565.66,55.59Z"/><path class="cls-4" d="M2238.23,92.18H2211V78l-23-3.17,1.08,19.45-12.44-.33-1.31-12.64h-12l3.22,17.85-4.5-.16-1.74-6.31-6.2.16v7.91h-29.86V90.59h6.9l-14.82-15.17H2058.6L2039.49,88.7h7.07V101l-19.94-.47-1.74-20.71h7.3l-30-20.23-23.82,18.65,8.35.47L1986,101l-28.53-.47-1.73-16.92-24-.32s-1.72,17.4-3,17.71c-.13,0-27.34,3.27-35.51.64l2-22.21h-39.12l.56,46.23s-11.54.59-12.84.59c-.29,0,0-33,0-33-12.87.28-20.81.2-39.57.62,0,0-9.85,14.4-16.1,14.55l-.88-13.79L1772,95,1769.41,84l-36.51,2.53V100.4l-18,.32c1.72-13.91-5.15-27.51-5.15-27.51l-13.74-.3V101H1681.3V86.78l-23-3.17,1.08,19.44-12.46-.31-1.29-12.66h-12l3.21,17.87-4.53-.16-1.71-6.32-6.23.15v7.91h-29.83V99.42h6.87l-14.82-15.19h-57.75l-19.11,13.29h7.09v12.33l-20-.48-1.72-20.7h7.31l-30-20.23-23.84,18.65,8.38.47-.67,22.29-28.53-.48L1426,92.47l-24-.33s-1.71,17.39-3,17.71c-.13,0-27.34,3.26-35.51.64l2-22.21h-39.11l.55,46.23s-11.54.59-12.83.59c-.29,0,0-33,0-33-12.89.3-20.8.19-39.56.63,0,0-9.85,14.4-16.11,14.56l-.91-13.81-15.26.36-2.56-11.06-36.51,2.52v13.91l-18,.32C1186.85,95.63,1180,82,1180,82l-13.75-.33v26.75h-20.78V94.24l-23-3.17,1.08,19.44-12.45-.31-1.29-12.65h-12l3.21,17.86-4.5-.15-1.71-6.33-6.23.16V117h-29.82V106.87h6.86l-14.82-15.18H993L973.93,105H981v12.33l-20-.47-1.72-20.71h7.3L936.57,75.89,912.72,94.54l8.39.47-.65,22.3-28.56-.47-1.71-16.92-24-.31s-1.72,17.39-3,17.7c-.12,0-27.36,3.26-35.51.63l2-22.2H790.52l.55,46.24s-11.53.58-12.83.58c-.27,0,0-33,0-33-12.88.29-20.81.19-39.54.62,0,0-9.88,14.39-16.14,14.55L721.68,111l-15.27.35-2.59-11.06-36.48,2.53v13.91l-18,.32c1.72-13.91-5.16-27.51-5.16-27.51l-13.74-.31v26.06H617.78V101l-23-3.16,1.06,19.44L583.43,117l-1.29-12.66h-12l3.2,17.86-4.5-.15-1.73-6.31-6.21.14v7.91H531V113.67h6.88L523.1,98.49H465.34l-19.1,13.27h7.08v12.32l-20-.46-1.72-20.7h7.31L408.87,82.69l-23.82,18.66,8.38.46-.66,22.27-28.55-.46-1.72-16.93-24-.3s-1.73,17.39-3,17.69c-.12,0-27.33,3.27-35.52.65l2-22.21h-39.1l.56,46.24s-11.55.57-12.83.57c-.29,0,0-33,0-33-12.9.29-20.82.19-39.56.62,0,0-9.87,14.4-16.11,14.55l-.91-13.8-15.26.37L176.16,107l-36.53,2.51v13.92l-18,.32c1.73-13.92-5.15-27.52-5.15-27.52L102.72,96v90.72L630.4,179v.91l535.84-7.81v.35l542.27-7.9v-1.09l529.72-7.72Z"/><rect class="cls-2" x="1880.31" y="92.22" width="4.2" height="3.56"/><rect class="cls-2" x="1877.09" y="100.51" width="3.22" height="2.14"/><rect class="cls-2" x="1702.64" y="77.32" width="6.23" height="4.26"/><rect class="cls-2" x="1698.54" y="91.07" width="3.45" height="3.32"/><rect class="cls-2" x="1701.99" y="106.56" width="2.77" height="3.79"/><rect class="cls-2" x="1709.72" y="116.84" width="7.95" height="3.78"/><rect class="cls-2" x="1721.54" y="108.46" width="4.06" height="3.15"/><rect class="cls-2" x="1740.42" y="114.94" width="3.65" height="2.06"/><rect class="cls-2" x="1737.41" y="89.5" width="6.01" height="4.25"/><rect class="cls-2" x="1744.49" y="95.34" width="3.87" height="2.7"/><rect class="cls-2" x="1754.15" y="101.03" width="9.23" height="4.91"/><rect class="cls-2" x="1935.79" y="86.34" width="3.65" height="3.62"/><rect class="cls-2" x="1947.82" y="91.07" width="3.43" height="2.53"/><rect class="cls-2" x="1941.59" y="95.17" width="3" height="3.16"/><rect class="cls-2" x="1951.04" y="101.67" width="1.93" height="1.89"/><rect class="cls-2" x="1955.76" y="104.34" width="2.56" height="1.9"/><rect class="cls-2" x="1966.07" y="104.98" width="2.35" height="2.38"/><rect class="cls-2" x="1934.06" y="120.94" width="4.52" height="2.38"/><rect class="cls-2" x="1989.68" y="98.5" width="3" height="1.58"/><rect class="cls-2" x="1990.97" y="81.58" width="9.22" height="6.33"/><rect class="cls-2" x="2005.14" y="92.49" width="5.58" height="3.47"/><rect class="cls-2" x="2016.93" y="88.23" width="4.07" height="3.16"/><rect class="cls-2" x="2005.79" y="110.35" width="4.29" height="3.32"/><rect class="cls-2" x="2034.34" y="115.26" width="2.78" height="2.84"/><rect class="cls-2" x="1981.95" y="125.21" width="5.36" height="3.8"/><rect class="cls-2" x="2054.52" y="94.54" width="10.32" height="7.29"/><rect class="cls-2" x="2071.27" y="88.54" width="5.15" height="4.43"/><rect class="cls-2" x="2087.57" y="95.81" width="5.17" height="4.11"/><rect class="cls-2" x="2102.62" y="90.75" width="4.72" height="2.54"/><rect class="cls-2" x="2108.41" y="101.83" width="6.44" height="5.36"/><rect class="cls-2" x="2121.5" y="120.63" width="3.88" height="3.16"/><rect class="cls-2" x="2134.6" y="116.04" width="4.08" height="2.53"/><rect class="cls-2" x="1824.12" y="98.5" width="5.78" height="4.04"/><rect class="cls-2" x="1773.18" y="99.01" width="5.79" height="4.03"/><rect class="cls-2" x="1773.18" y="116.04" width="5.79" height="4.04"/><rect class="cls-2" x="1773.18" y="126.28" width="5.79" height="4.03"/><rect class="cls-2" x="1896.3" y="104.67" width="5.79" height="4.03"/><rect class="cls-2" x="1933.44" y="108.34" width="5.78" height="4.03"/><rect class="cls-2" x="1837.64" y="113.08" width="4.5" height="4.98"/><rect class="cls-2" x="1837.3" y="102.17" width="2.27" height="1.66"/><rect class="cls-2" x="1836.99" y="97.2" width="2.58" height="1.89"/><rect class="cls-2" x="1864.22" y="106.67" width="4.18" height="5"/><rect class="cls-2" x="1868.4" y="97.2" width="2.25" height="3.07"/><rect class="cls-2" x="1870.01" y="82.26" width="3.87" height="5.21"/><path class="cls-5" d="M1788.1,92a37,37,0,0,0-9,1.14c-1.32.28-2.65.44-4,.64-.44.07-.18-1.69-.12-2,.69-3.24,3.59-9.55-3-10.4-5.44-.71-11.32,1.22-16.67,1.72-1.38.12-3-.44-4.39-.59a15.07,15.07,0,0,0-3.91.14c-4.06.49-8.08,1.21-12.25,1.31a3.44,3.44,0,0,0-3.51,3.07c0,1.57.09,4,1.8,5.13a2.91,2.91,0,0,0,3.77-1h0a.68.68,0,0,0,.13-.4,8.4,8.4,0,0,0,.43-2.44c2.73-.22,5.49-.57,8.13-.94,3-.43,5.48.62,8.53.47,5.1-.28,10.54-2.39,15.67-1.78v0a.2.2,0,0,0,0,0,2.22,2.22,0,0,1,.14.84,14,14,0,0,1-.33,2.87,7.53,7.53,0,0,0,1.31,5.89c2.52,3.48,11.32,1.73,15.42,1.34a4.73,4.73,0,0,0,3.73-2.16A2,2,0,0,0,1788.1,92Z"/><path class="cls-5" d="M1843,91.66c-1.52-1.92-4.72-1.73-7.42-1.69-3.42,0-6.83.64-10.23,1-6.21.63-12.47.68-18.67,1.44a4.28,4.28,0,0,0-2.69,1.1c-.69.72-.77,2.39,1,2.4,5.86.08,11.76.24,17.6-.1,3.12-.16,6.21-.63,9.29-.91s6.41.45,9.12-.46C1842.18,94,1843.85,92.78,1843,91.66Z"/><path class="cls-5" d="M1896.42,77.37c-2.93-.67-6.37-.28-9.43-.25-3.33,0-6.73-.29-10-.54-6.73-.48-15.07-1.07-21.4,1.18-1.38.48-3.44,1.92-2.4,3.22a2.83,2.83,0,0,1,.54,1c.36,1.13,2.4.93,3,.05a.89.89,0,0,1,.18-.24,82.34,82.34,0,0,1,8.47-.17c3.42.23,6.82.48,10.22.74,5.25.43,12.42,1.35,17.69-.26A3.84,3.84,0,0,0,1895,82c-.24.14,0,.1.62-.15a3.52,3.52,0,0,0,.8-.55.72.72,0,0,0,.24-.21,3,3,0,0,0,.93-2A1.56,1.56,0,0,0,1896.42,77.37Z"/><path class="cls-5" d="M1955.44,81.94c-1.45-.26-3-.28-4.46-.52a34.4,34.4,0,0,0-7.39-.25c-4.14.22-8.36.41-12.11,1.81-1.61.6-2.71,3.35-.09,3.48,3.57.21,7,.27,10.58.22a38.26,38.26,0,0,0,7.18-.51c1.65-.31,3.34-.42,5-.7C1956.15,85.13,1958.57,82.5,1955.44,81.94Z"/><path class="cls-5" d="M2023.26,70.76c-.73-1.55-3.79-2.65-5.67-3.32a14.7,14.7,0,0,1-5-3.27c-2.67-2.36-5.67-5.9-10-6.58-2.13-.34-4.57.88-6.14,1.78a33.12,33.12,0,0,0-6.07,4.51c-3.9,3.55-6.8,7.63-10.3,11.38-1.24,1.32.58,2,2,1.45,0,0,0,0,0,.08,5.37-2.21,9-6.08,12.73-9.54.5-.45,2.44-1.89,3.49-2.81.76-.64,1.54-1.28,2.36-1.87l.36-.21a15,15,0,0,1,3.29,2.24c1.59,1.24,3.06,2.54,4.67,3.76a9.38,9.38,0,0,0,5.21,1.93c1.33.15,2.69.15,4,.22a13,13,0,0,1,3.94,1.07C2022.77,71.79,2023.49,71.21,2023.26,70.76Z"/><path class="cls-5" d="M2112.93,75.38c-5.9.14-12-1.38-17.85-2.07a54.12,54.12,0,0,0-10.72.09,38.53,38.53,0,0,1-5.28.23c-2.07-.07-4.09.32-6.16.38-3.25.09-6.5-.3-9.75-.12a25.91,25.91,0,0,0-9.84,2.53c-5.11,2.43-8.23,6.45-12.28,9.68-1,.81.19,1.74,1.28,1,4.07-2.84,7.62-5.94,12.94-7.54a16.82,16.82,0,0,1,8.4-.66,53.32,53.32,0,0,0,9.8.88c3.41-.05,6.66-1.39,10-1.81,3.65-.48,7.36-.92,11-1.24a76.4,76.4,0,0,1,9.56.24,74.56,74.56,0,0,0,8.59-.08C2113.76,76.79,2114.39,75.35,2112.93,75.38Z"/><path class="cls-5" d="M2215,78.24c-.73-1.27-2.41-1.5-4.1-1.87-2.36-.54-4.67-.91-7.09-1.22a120.36,120.36,0,0,0-13.83-.64c-1.74,0-3.71,2.09-1.38,2.52,4.29.75,8.55,1.79,12.88,2.43,3.79.56,8.86,2,12.48.62C2214.82,79.78,2215.38,78.88,2215,78.24Z"/><path class="cls-5" d="M2176.83,81.25a10,10,0,0,0-4.4-.3.62.62,0,0,0-.16-.19c-1-.93-2.7-.63-4.1-.48s-3.06.47-4.59.59-3.23,2.32-1.38,2.71a.68.68,0,0,0,0,.4.82.82,0,0,0-.38.9s0,0,0,0a.68.68,0,0,0,.29.75c.17.44.32.89.48,1.33.23.62.28,1.3,1.19,1.57a1.09,1.09,0,0,0,1.21-.43c.37-.71,0-1.22-.23-1.92-.15-.28-.25-.58-.4-.85a1.24,1.24,0,0,0,.41-.81c1.36,0,2.74,0,4.11-.08,2.32,0,4.7.2,6.88-.45C2177,83.64,2178.66,81.9,2176.83,81.25Z"/><rect class="cls-2" x="1350.58" y="101.03" width="4.2" height="3.56"/><rect class="cls-2" x="1347.37" y="109.34" width="3.21" height="2.12"/><rect class="cls-2" x="1172.91" y="86.14" width="6.23" height="4.27"/><rect class="cls-2" x="1168.82" y="99.89" width="3.44" height="3.32"/><rect class="cls-2" x="1172.26" y="115.37" width="2.78" height="3.8"/><rect class="cls-2" x="1179.99" y="125.66" width="7.94" height="3.79"/><rect class="cls-2" x="1191.79" y="117.29" width="4.08" height="3.15"/><rect class="cls-2" x="1210.68" y="123.75" width="3.66" height="2.07"/><rect class="cls-2" x="1207.69" y="98.32" width="6" height="4.27"/><rect class="cls-2" x="1214.78" y="104.15" width="3.86" height="2.69"/><rect class="cls-2" x="1224.42" y="109.85" width="9.25" height="4.9"/><rect class="cls-2" x="1406.06" y="95.16" width="3.65" height="3.63"/><rect class="cls-2" x="1418.07" y="99.89" width="3.46" height="2.53"/><rect class="cls-2" x="1411.86" y="104" width="3.01" height="3.16"/><rect class="cls-2" x="1421.32" y="110.49" width="1.92" height="1.9"/><rect class="cls-2" x="1426.03" y="113.16" width="2.58" height="1.9"/><rect class="cls-2" x="1436.32" y="113.81" width="2.38" height="2.36"/><rect class="cls-2" x="1404.36" y="129.76" width="4.5" height="2.39"/><rect class="cls-2" x="1459.96" y="107.32" width="3" height="1.57"/><rect class="cls-2" x="1461.25" y="90.4" width="9.22" height="6.33"/><rect class="cls-2" x="1475.4" y="101.31" width="5.58" height="3.48"/><rect class="cls-2" x="1487.23" y="97.04" width="4.07" height="3.17"/><rect class="cls-2" x="1476.07" y="119.17" width="4.29" height="3.33"/><rect class="cls-2" x="1504.61" y="124.07" width="2.78" height="2.85"/><rect class="cls-2" x="1452.22" y="134.04" width="5.38" height="3.79"/><rect class="cls-2" x="1524.79" y="103.36" width="10.32" height="7.28"/><rect class="cls-2" x="1541.54" y="97.36" width="5.15" height="4.44"/><rect class="cls-2" x="1557.86" y="104.63" width="5.15" height="4.12"/><rect class="cls-2" x="1572.89" y="99.58" width="4.73" height="2.52"/><rect class="cls-2" x="1578.68" y="110.65" width="6.44" height="5.37"/><rect class="cls-2" x="1591.78" y="129.45" width="3.87" height="3.17"/><rect class="cls-2" x="1604.86" y="124.87" width="4.11" height="2.53"/><rect class="cls-2" x="1294.4" y="107.32" width="5.77" height="4.04"/><rect class="cls-2" x="1243.47" y="107.85" width="5.79" height="4.02"/><rect class="cls-2" x="1243.47" y="124.87" width="5.79" height="4.03"/><rect class="cls-2" x="1243.47" y="135.1" width="5.79" height="4.04"/><rect class="cls-2" x="1366.56" y="113.49" width="5.78" height="4.02"/><rect class="cls-2" x="1403.7" y="117.17" width="5.79" height="4.03"/><rect class="cls-2" x="1307.91" y="121.9" width="4.52" height="4.98"/><rect class="cls-2" x="1307.6" y="110.99" width="2.25" height="1.66"/><rect class="cls-2" x="1307.26" y="106.02" width="2.58" height="1.9"/><rect class="cls-2" x="1334.48" y="115.49" width="4.19" height="4.99"/><rect class="cls-2" x="1338.67" y="106.02" width="2.25" height="3.08"/><rect class="cls-2" x="1340.27" y="91.08" width="3.88" height="5.2"/><path class="cls-5" d="M1258.37,100.81a35.66,35.66,0,0,0-9,1.16c-1.33.25-2.67.43-4,.63-.46.06-.19-1.71-.13-2,.7-3.25,3.58-9.58-3-10.42-5.42-.7-11.31,1.25-16.66,1.73-1.38.12-3-.44-4.42-.6a15.81,15.81,0,0,0-3.88.14c-4,.5-8.09,1.21-12.25,1.32a3.45,3.45,0,0,0-3.51,3.08c0,1.56.09,4,1.81,5.1a2.88,2.88,0,0,0,3.76-1h0a1.49,1.49,0,0,0,.15-.4,9.12,9.12,0,0,0,.42-2.45c2.75-.21,5.47-.57,8.13-.93,3-.42,5.47.62,8.52.47,5.1-.28,10.54-2.4,15.67-1.78a0,0,0,0,0,0,0,.23.23,0,0,0,0,0,2.89,2.89,0,0,1,.16.84,14.83,14.83,0,0,1-.36,2.88,7.38,7.38,0,0,0,1.34,5.88c2.5,3.47,11.3,1.73,15.38,1.34a4.7,4.7,0,0,0,3.75-2.18A2,2,0,0,0,1258.37,100.81Z"/><path class="cls-5" d="M1313.26,100.48c-1.52-1.94-4.71-1.74-7.42-1.69-3.43,0-6.83.64-10.23,1-6.21.64-12.47.69-18.67,1.45a4.4,4.4,0,0,0-2.71,1.09c-.64.74-.74,2.39,1,2.41,5.88.08,11.75.24,17.63-.09,3.11-.18,6.19-.64,9.28-.93,2.93-.27,6.41.44,9.12-.43C1312.43,102.83,1314.12,101.59,1313.26,100.48Z"/><path class="cls-5" d="M1366.7,86.2c-2.94-.67-6.39-.3-9.42-.25-3.36,0-6.74-.3-10.08-.54-6.73-.49-15-1.08-21.37,1.17-1.4.48-3.47,1.92-2.42,3.21a2.52,2.52,0,0,1,.54,1c.36,1.15,2.38.95,3,0,0-.08.14-.14.18-.22a82.81,82.81,0,0,1,8.5-.17c3.4.22,6.81.48,10.21.76,5.24.41,12.43,1.33,17.7-.28a3.49,3.49,0,0,0,1.65-.11c-.25.16,0,.11.61-.15a2.9,2.9,0,0,0,.83-.54,1.55,1.55,0,0,0,.23-.21,3,3,0,0,0,.91-2A1.48,1.48,0,0,0,1366.7,86.2Z"/><path class="cls-5" d="M1425.72,90.75c-1.46-.24-3-.29-4.46-.52a32.5,32.5,0,0,0-7.38-.23c-4.15.21-8.38.4-12.15,1.8-1.57.6-2.69,3.35-.06,3.47,3.56.2,7,.29,10.56.24a40.75,40.75,0,0,0,7.18-.52c1.66-.31,3.35-.41,5-.7C1426.41,94,1428.84,91.34,1425.72,90.75Z"/><path class="cls-5" d="M1493.55,79.57c-.75-1.53-3.79-2.62-5.69-3.31a14.51,14.51,0,0,1-5-3.27c-2.67-2.37-5.67-5.91-10-6.59-2.11-.34-4.56.89-6.12,1.79a33.24,33.24,0,0,0-6.07,4.51c-3.9,3.54-6.79,7.63-10.29,11.4-1.25,1.31.56,2,2,1.43a.2.2,0,0,0,0,.08c5.36-2.23,9-6.07,12.73-9.54.5-.45,2.4-1.9,3.47-2.8.76-.65,1.54-1.28,2.37-1.89a2.25,2.25,0,0,0,.35-.21,14.52,14.52,0,0,1,3.29,2.24c1.61,1.24,3.09,2.55,4.69,3.79a9.52,9.52,0,0,0,5.19,1.91c1.33.16,2.71.16,4,.22a13.29,13.29,0,0,1,3.94,1C1493,80.6,1493.78,80,1493.55,79.57Z"/><path class="cls-5" d="M1583.22,84.19c-5.94.16-12-1.37-17.86-2a54,54,0,0,0-10.71.08,40.72,40.72,0,0,1-5.29.24c-2.09-.09-4.11.3-6.17.38-3.25.09-6.48-.3-9.75-.13a26.19,26.19,0,0,0-9.84,2.53c-5.11,2.44-8.23,6.45-12.27,9.67-1,.81.18,1.75,1.27,1,4.05-2.81,7.63-5.93,12.92-7.53a16.92,16.92,0,0,1,8.42-.67,51,51,0,0,0,9.81.87c3.4,0,6.66-1.38,10-1.8,3.65-.48,7.35-.91,11-1.23a74.61,74.61,0,0,1,9.57.24,79.18,79.18,0,0,0,8.58-.08C1584,85.6,1584.68,84.17,1583.22,84.19Z"/><path class="cls-5" d="M1685.28,87.06c-.75-1.27-2.43-1.5-4.13-1.87-2.33-.53-4.65-.91-7.06-1.23a122.87,122.87,0,0,0-13.86-.64c-1.72,0-3.71,2.09-1.36,2.51,4.3.78,8.55,1.81,12.87,2.46,3.83.56,8.85,1.94,12.49.61C1685.08,88.59,1685.65,87.69,1685.28,87.06Z"/><path class="cls-5" d="M1647.1,90.06a10.3,10.3,0,0,0-4.4-.3.61.61,0,0,0-.17-.19c-1-.92-2.69-.62-4.08-.48-1.54.16-3.06.48-4.61.61s-3.21,2.31-1.35,2.7a.47.47,0,0,0,0,.4c-.31.25-.54.6-.4.91v0a.76.76,0,0,0,.29.74c.17.44.34.91.51,1.34.22.63.27,1.28,1.18,1.57a1.07,1.07,0,0,0,1.2-.45c.37-.7,0-1.2-.22-1.89a7.32,7.32,0,0,1-.37-.87,1.23,1.23,0,0,0,.37-.81c1.38,0,2.74,0,4.11-.07,2.32,0,4.73.2,6.9-.44C1647.31,92.47,1648.93,90.72,1647.1,90.06Z"/><rect class="cls-2" x="814.74" y="108.5" width="4.18" height="3.56"/><rect class="cls-2" x="811.55" y="116.8" width="3.2" height="2.13"/><rect class="cls-2" x="637.07" y="93.6" width="6.21" height="4.26"/><rect class="cls-2" x="632.99" y="107.36" width="3.42" height="3.31"/><rect class="cls-2" x="636.41" y="122.85" width="2.79" height="3.78"/><rect class="cls-2" x="644.14" y="133.12" width="7.96" height="3.79"/><rect class="cls-2" x="655.96" y="124.74" width="4.05" height="3.15"/><rect class="cls-2" x="674.86" y="131.22" width="3.65" height="2.05"/><rect class="cls-2" x="671.86" y="105.78" width="6" height="4.26"/><rect class="cls-2" x="678.94" y="111.62" width="3.86" height="2.68"/><rect class="cls-2" x="688.59" y="117.31" width="9.23" height="4.9"/><rect class="cls-2" x="870.23" y="102.62" width="3.65" height="3.63"/><rect class="cls-2" x="882.25" y="107.36" width="3.44" height="2.53"/><rect class="cls-2" x="876.03" y="111.46" width="3.01" height="3.16"/><rect class="cls-2" x="885.46" y="117.94" width="1.94" height="1.91"/><rect class="cls-2" x="890.19" y="120.63" width="2.56" height="1.89"/><rect class="cls-2" x="900.49" y="121.26" width="2.38" height="2.39"/><rect class="cls-2" x="868.5" y="137.21" width="4.52" height="2.38"/><rect class="cls-2" x="924.12" y="114.77" width="3" height="1.59"/><rect class="cls-2" x="925.39" y="97.86" width="9.25" height="6.32"/><rect class="cls-2" x="939.57" y="108.77" width="5.58" height="3.48"/><rect class="cls-2" x="951.4" y="104.51" width="4.06" height="3.17"/><rect class="cls-2" x="940.23" y="126.63" width="4.29" height="3.32"/><rect class="cls-2" x="968.78" y="131.53" width="2.77" height="2.84"/><rect class="cls-2" x="916.4" y="141.49" width="5.35" height="3.79"/><rect class="cls-2" x="988.95" y="110.83" width="10.31" height="7.27"/><rect class="cls-2" x="1005.71" y="104.82" width="5.15" height="4.43"/><rect class="cls-2" x="1022.01" y="112.09" width="5.17" height="4.12"/><rect class="cls-2" x="1037.06" y="107.04" width="4.7" height="2.53"/><rect class="cls-2" x="1042.84" y="118.1" width="6.45" height="5.37"/><rect class="cls-2" x="1055.93" y="136.91" width="3.88" height="3.16"/><rect class="cls-2" x="1069.04" y="132.33" width="4.08" height="2.53"/><rect class="cls-2" x="758.55" y="114.77" width="5.81" height="4.05"/><rect class="cls-2" x="707.62" y="115.3" width="5.79" height="4.02"/><rect class="cls-2" x="707.62" y="132.33" width="5.79" height="4.02"/><rect class="cls-2" x="707.62" y="142.56" width="5.79" height="4.03"/><rect class="cls-2" x="830.74" y="120.94" width="5.77" height="4.04"/><rect class="cls-2" x="867.88" y="124.62" width="5.79" height="4.04"/><rect class="cls-2" x="772.07" y="129.36" width="4.5" height="4.98"/><rect class="cls-2" x="771.75" y="118.46" width="2.25" height="1.65"/><rect class="cls-2" x="771.43" y="113.48" width="2.57" height="1.9"/><rect class="cls-2" x="798.65" y="122.96" width="4.19" height="4.98"/><rect class="cls-2" x="802.83" y="113.48" width="2.26" height="3.08"/><rect class="cls-2" x="804.45" y="98.54" width="3.85" height="5.21"/><path class="cls-5" d="M722.54,108.26a37.71,37.71,0,0,0-9,1.15c-1.32.28-2.66.45-4,.64-.46.07-.21-1.7-.13-2,.69-3.25,3.58-9.57-3-10.41-5.43-.7-11.34,1.22-16.68,1.71-1.36.15-3-.43-4.39-.6a16.6,16.6,0,0,0-3.92.15c-4,.5-8.09,1.23-12.23,1.33a3.46,3.46,0,0,0-3.54,3.06c0,1.56.12,4,1.83,5.13a2.91,2.91,0,0,0,3.77-1h0a3.12,3.12,0,0,0,.15-.39,8.79,8.79,0,0,0,.41-2.45c2.73-.2,5.47-.57,8.13-.93,3-.43,5.48.62,8.52.47,5.11-.28,10.53-2.39,15.68-1.79v0s0,0,0,0a3.09,3.09,0,0,1,.14.85,16.64,16.64,0,0,1-.34,2.87,7.38,7.38,0,0,0,1.33,5.87c2.51,3.49,11.3,1.74,15.39,1.36a4.78,4.78,0,0,0,3.76-2.18A2,2,0,0,0,722.54,108.26Z"/><path class="cls-5" d="M777.43,108c-1.52-1.94-4.71-1.76-7.43-1.7-3.43,0-6.85.63-10.22,1-6.21.61-12.46.67-18.67,1.43a4.24,4.24,0,0,0-2.7,1.09c-.68.74-.76,2.39,1,2.41,5.87.08,11.74.24,17.62-.09,3.11-.17,6.17-.63,9.29-.93,2.94-.27,6.41.45,9.1-.44C776.6,110.3,778.28,109.05,777.43,108Z"/><path class="cls-5" d="M830.85,93.66c-2.93-.68-6.35-.3-9.43-.26-3.33,0-6.71-.29-10-.53-6.73-.48-15.08-1.08-21.4,1.16-1.4.49-3.44,1.93-2.38,3.22a2.86,2.86,0,0,1,.52,1c.33,1.12,2.38.94,3,0a1.08,1.08,0,0,0,.21-.22,79.65,79.65,0,0,1,8.48-.16c3.4.2,6.8.47,10.19.73,5.24.43,12.43,1.35,17.72-.26a3.72,3.72,0,0,0,1.64-.11c-.25.15,0,.11.63-.16a3.43,3.43,0,0,0,.81-.53,1.73,1.73,0,0,0,.25-.21,2.92,2.92,0,0,0,.9-2A1.53,1.53,0,0,0,830.85,93.66Z"/><path class="cls-5" d="M889.86,98.22c-1.42-.27-3-.29-4.44-.53a33.07,33.07,0,0,0-7.38-.23c-4.14.2-8.35.4-12.14,1.8-1.57.6-2.71,3.35-.07,3.48,3.57.2,7,.27,10.57.22a40.78,40.78,0,0,0,7.17-.51c1.66-.31,3.33-.4,5-.7C890.57,101.42,893,98.79,889.86,98.22Z"/><path class="cls-5" d="M957.69,87c-.72-1.55-3.79-2.64-5.66-3.32a14.65,14.65,0,0,1-5-3.27c-2.64-2.36-5.67-5.9-10-6.58-2.14-.34-4.55.88-6.14,1.78a32.42,32.42,0,0,0-6.06,4.52c-3.9,3.53-6.8,7.61-10.3,11.37-1.25,1.33.54,2,2,1.45a.39.39,0,0,1,0,.09c5.37-2.23,8.95-6.09,12.75-9.56.49-.43,2.41-1.89,3.46-2.79.76-.66,1.54-1.29,2.37-1.89a2.92,2.92,0,0,0,.35-.21,15.53,15.53,0,0,1,3.3,2.24c1.6,1.24,3.07,2.55,4.69,3.78a9.49,9.49,0,0,0,5.19,1.93c1.33.15,2.69.14,4,.21a13,13,0,0,1,3.94,1.06C957.2,88.06,958,87.5,957.69,87Z"/><path class="cls-5" d="M1047.39,91.66c-5.94.14-12-1.38-17.86-2a51.81,51.81,0,0,0-10.71.07,40.81,40.81,0,0,1-5.29.24c-2.09-.09-4.11.31-6.17.37-3.25.09-6.49-.29-9.75-.13a26.3,26.3,0,0,0-9.86,2.54c-5.1,2.43-8.22,6.46-12.24,9.69-1,.79.17,1.73,1.25,1,4.07-2.82,7.65-5.92,12.92-7.54a17,17,0,0,1,8.44-.65,52.16,52.16,0,0,0,9.8.87c3.39,0,6.67-1.37,10-1.82,3.63-.47,7.34-.91,11-1.22a72.73,72.73,0,0,1,9.56.24,76.89,76.89,0,0,0,8.59-.08C1048.2,93.05,1048.83,91.63,1047.39,91.66Z"/><path class="cls-5" d="M1149.44,94.51c-.75-1.26-2.44-1.49-4.1-1.87-2.34-.53-4.67-.9-7.09-1.22a125.26,125.26,0,0,0-13.86-.63c-1.71,0-3.69,2.09-1.33,2.5,4.28.77,8.52,1.8,12.86,2.45,3.79.55,8.85,2,12.5.62C1149.24,96.05,1149.82,95.16,1149.44,94.51Z"/><path class="cls-5" d="M1111.25,97.52a9.87,9.87,0,0,0-4.38-.3c-.07-.07-.09-.15-.17-.2-1-.91-2.69-.6-4.08-.47-1.55.16-3.07.47-4.61.62s-3.21,2.29-1.37,2.69a.94.94,0,0,0,0,.41.83.83,0,0,0-.4.89s0,0,0,0a.73.73,0,0,0,.29.75l.5,1.35c.23.61.29,1.28,1.17,1.56a1.11,1.11,0,0,0,1.23-.45c.35-.7.06-1.21-.24-1.89-.12-.29-.26-.59-.37-.86a1.3,1.3,0,0,0,.38-.81c1.37,0,2.75,0,4.1-.07,2.32,0,4.72.19,6.9-.45C1111.47,99.92,1113.11,98.18,1111.25,97.52Z"/><rect class="cls-2" x="287.07" y="115.27" width="4.17" height="3.56"/><rect class="cls-2" x="283.84" y="123.58" width="3.23" height="2.13"/><rect class="cls-2" x="109.39" y="100.38" width="6.21" height="4.26"/><rect class="cls-2" x="105.29" y="114.14" width="3.43" height="3.32"/><rect class="cls-2" x="108.72" y="129.63" width="2.8" height="3.79"/><rect class="cls-2" x="116.45" y="139.89" width="7.96" height="3.79"/><rect class="cls-2" x="128.26" y="131.52" width="4.1" height="3.16"/><rect class="cls-2" x="147.17" y="138" width="3.63" height="2.06"/><rect class="cls-2" x="144.15" y="112.55" width="6.02" height="4.28"/><rect class="cls-2" x="151.23" y="118.4" width="3.86" height="2.7"/><rect class="cls-2" x="160.88" y="124.08" width="9.25" height="4.91"/><rect class="cls-2" x="342.54" y="109.39" width="3.65" height="3.64"/><rect class="cls-2" x="354.56" y="114.14" width="3.43" height="2.53"/><rect class="cls-2" x="348.34" y="118.25" width="3" height="3.15"/><rect class="cls-2" x="357.78" y="124.73" width="1.94" height="1.89"/><rect class="cls-2" x="362.5" y="127.4" width="2.57" height="1.9"/><rect class="cls-2" x="372.8" y="128.04" width="2.38" height="2.38"/><rect class="cls-2" x="340.81" y="144.01" width="4.5" height="2.38"/><rect class="cls-2" x="396.43" y="121.57" width="3.01" height="1.58"/><rect class="cls-2" x="397.71" y="104.64" width="9.23" height="6.33"/><rect class="cls-2" x="411.89" y="115.55" width="5.58" height="3.5"/><rect class="cls-2" x="423.7" y="111.28" width="4.06" height="3.18"/><rect class="cls-2" x="412.52" y="133.42" width="4.29" height="3.32"/><rect class="cls-2" x="441.08" y="138.32" width="2.79" height="2.83"/><rect class="cls-2" x="388.7" y="148.27" width="5.36" height="3.81"/><rect class="cls-2" x="461.25" y="117.61" width="10.33" height="7.27"/><rect class="cls-2" x="478.02" y="111.6" width="5.13" height="4.44"/><rect class="cls-2" x="494.32" y="118.89" width="5.17" height="4.1"/><rect class="cls-2" x="509.36" y="113.82" width="4.72" height="2.53"/><rect class="cls-2" x="515.15" y="124.89" width="6.44" height="5.38"/><rect class="cls-2" x="528.25" y="143.68" width="3.86" height="3.18"/><rect class="cls-2" x="541.36" y="139.1" width="4.06" height="2.53"/><rect class="cls-2" x="230.86" y="121.57" width="5.78" height="4.02"/><rect class="cls-2" x="179.92" y="122.08" width="5.8" height="4.02"/><rect class="cls-2" x="179.92" y="139.1" width="5.8" height="4.03"/><rect class="cls-2" x="179.92" y="149.33" width="5.8" height="4.05"/><rect class="cls-2" x="303.03" y="127.73" width="5.79" height="4.04"/><rect class="cls-2" x="340.17" y="131.4" width="5.8" height="4.02"/><rect class="cls-2" x="244.39" y="136.14" width="4.51" height="4.99"/><rect class="cls-2" x="244.07" y="125.24" width="2.26" height="1.67"/><rect class="cls-2" x="243.72" y="120.26" width="2.6" height="1.9"/><rect class="cls-2" x="270.96" y="129.74" width="4.17" height="4.97"/><rect class="cls-2" x="275.13" y="120.26" width="2.26" height="3.08"/><rect class="cls-2" x="276.75" y="105.33" width="3.86" height="5.22"/><path class="cls-5" d="M194.85,115.06a35.41,35.41,0,0,0-9,1.15c-1.3.25-2.65.43-4,.63-.46.07-.19-1.71-.13-2,.68-3.24,3.57-9.55-3.06-10.4-5.42-.7-11.32,1.23-16.67,1.72-1.36.13-3-.44-4.38-.6a16.11,16.11,0,0,0-3.92.14c-4,.51-8.08,1.22-12.23,1.33a3.45,3.45,0,0,0-3.52,3.06c0,1.58.09,4,1.81,5.12a2.91,2.91,0,0,0,3.77-1h0a1.3,1.3,0,0,0,.13-.41,8.63,8.63,0,0,0,.44-2.45c2.73-.2,5.46-.57,8.12-.94,3-.41,5.46.62,8.51.48,5.12-.27,10.56-2.4,15.69-1.77v0s0,0,0,0a2.28,2.28,0,0,1,.15.85,12.74,12.74,0,0,1-.36,2.87,7.6,7.6,0,0,0,1.34,5.9c2.52,3.45,11.31,1.72,15.41,1.34a4.78,4.78,0,0,0,3.74-2.19A2,2,0,0,0,194.85,115.06Z"/><path class="cls-5" d="M249.72,114.72c-1.51-1.93-4.7-1.72-7.41-1.69-3.44,0-6.84.64-10.24,1-6.19.63-12.46.69-18.65,1.44a4.22,4.22,0,0,0-2.71,1.1c-.67.74-.77,2.38,1,2.41,5.86.09,11.75.24,17.62-.09,3.12-.18,6.18-.65,9.28-.93,2.94-.27,6.4.45,9.11-.46C248.9,117.07,250.6,115.84,249.72,114.72Z"/><path class="cls-5" d="M303.17,100.44c-2.93-.68-6.39-.28-9.43-.26-3.34,0-6.73-.29-10.05-.53-6.75-.48-15.09-1.07-21.39,1.16-1.4.5-3.45,1.93-2.41,3.24a2.67,2.67,0,0,1,.55,1c.33,1.13,2.37.92,3,0,.07-.08.13-.16.2-.23,2.85-.1,5.58-.34,8.49-.17,3.4.23,6.8.47,10.2.75,5.23.42,12.43,1.35,17.71-.28a3.26,3.26,0,0,0,1.65-.1c-.25.16,0,.1.61-.14a3.69,3.69,0,0,0,.81-.54l.25-.22a3,3,0,0,0,.91-2A1.51,1.51,0,0,0,303.17,100.44Z"/><path class="cls-5" d="M362.18,105c-1.44-.24-3-.29-4.46-.53a32.5,32.5,0,0,0-7.38-.21c-4.14.18-8.35.38-12.11,1.77-1.6.61-2.73,3.35-.1,3.5,3.56.19,7,.26,10.58.23a40.71,40.71,0,0,0,7.17-.53c1.67-.31,3.34-.41,5-.69C362.89,108.2,365.32,105.56,362.18,105Z"/><path class="cls-5" d="M430,93.82c-.75-1.53-3.83-2.63-5.7-3.31a15,15,0,0,1-5.05-3.27c-2.66-2.36-5.65-5.91-10-6.6-2.11-.33-4.57.89-6.13,1.79a32.53,32.53,0,0,0-6.08,4.51c-3.89,3.54-6.78,7.64-10.28,11.38-1.25,1.33.54,2,2,1.44,0,0,0,.07,0,.09,5.37-2.23,9-6.07,12.73-9.54.5-.45,2.42-1.89,3.48-2.79.76-.66,1.56-1.28,2.38-1.9l.33-.21A14.51,14.51,0,0,1,411,87.68c1.61,1.21,3.1,2.52,4.69,3.75a9.55,9.55,0,0,0,5.19,1.93c1.33.16,2.71.15,4,.21a13.51,13.51,0,0,1,4,1.06C429.51,94.84,430.24,94.28,430,93.82Z"/><path class="cls-5" d="M519.68,98.45c-5.92.14-12-1.38-17.84-2.07a54.86,54.86,0,0,0-10.72.08,40.5,40.5,0,0,1-5.28.25c-2.08-.1-4.11.29-6.18.36-3.24.11-6.49-.3-9.74-.1a25.86,25.86,0,0,0-9.86,2.52c-5.11,2.42-8.2,6.45-12.27,9.67-1,.81.2,1.74,1.29,1,4-2.83,7.62-5.93,12.92-7.54a17.14,17.14,0,0,1,8.42-.67,54.19,54.19,0,0,0,9.79.9c3.4-.07,6.67-1.39,10-1.83,3.64-.46,7.33-.91,11-1.24a82.77,82.77,0,0,1,9.58.24,66.52,66.52,0,0,0,8.59-.08C520.5,99.85,521.16,98.41,519.68,98.45Z"/><path class="cls-5" d="M621.74,101.29c-.73-1.27-2.42-1.49-4.11-1.86-2.33-.53-4.66-.92-7.06-1.22a121,121,0,0,0-13.86-.64c-1.73,0-3.71,2.08-1.38,2.51,4.32.77,8.55,1.81,12.9,2.45,3.79.56,8.86,1.94,12.48.62C621.55,102.83,622.12,101.94,621.74,101.29Z"/><path class="cls-5" d="M583.57,104.3a10.15,10.15,0,0,0-4.4-.3,1.35,1.35,0,0,0-.16-.19c-1-.93-2.71-.62-4.1-.48s-3,.48-4.59.62-3.23,2.31-1.37,2.69a.71.71,0,0,0,0,.41.82.82,0,0,0-.4.9h0a.68.68,0,0,0,.29.75c.17.45.32.9.49,1.35.24.62.29,1.3,1.18,1.57a1.12,1.12,0,0,0,1.23-.45c.36-.7,0-1.21-.25-1.89-.11-.3-.25-.58-.37-.87a1.26,1.26,0,0,0,.39-.8c1.38,0,2.74-.05,4.12-.08,2.3-.05,4.68.2,6.89-.46C583.79,106.69,585.41,105,583.57,104.3Z"/><path class="cls-6" d="M2242.72,119.15H2197V95.21l-38.66-5.32,1.81,32.71-20.94-.53L2137,100.8h-20.22l5.39,30-7.58-.26-2.88-10.65-10.48.27v13.3h-50.2v-17h11.56L2037.7,91h-97.18l-32.13,22.33h11.92V134l-33.6-.81-2.89-34.82h12.29l-50.58-34-40.09,31.38,14.09.77L1818.45,134l-48-.81-2.9-28.45-40.45-.52s-2.47,24.89-4.54,29.13h-13.19c-5.27-.43-11.15-.94-15.63-1.36V109.47l-38.65-5.34,1.81,32.71-20.94-.53L1633.74,115h-20.23l5.43,30.05-7.58-.26-2.9-10.64-10.47.27v13.29h-50.2v-17h11.53l-24.9-25.53h-97.16l-32.15,22.35H1417v20.73l-33.6-.8-2.89-34.84h12.27l-50.56-34L1302.17,110l14.07.78-1.08,37.49-48-.8L1264.25,119l-40.47-.54s-2,19.8-3.85,27.09h-11.87V121.67l-38.65-5.32.92,16.77c-.94,0-1.94,0-3,.06V149l-17.06-.44-2.18-21.27h-20.23l5.42,30.05-7.58-.26-2.9-10.64-10.46.26V160h-50.22V143h11.56l-24.93-25.55H951.61l-32.14,22.35h11.91v20.73l-33.59-.79-2.89-34.83h12.29l-50.57-34-40.09,31.37,14.06.8-1.06,37.49-48-.79-2.89-28.46-40.45-.52s-2.46,24.89-4.56,29.12H720.43c-5.29-.42-11.17-.94-15.65-1.35V135.9l-38.66-5.31,1.82,32.7-21-.53-2.18-21.27H624.59l5.42,30-7.59-.26-2.87-10.64-10.49.26v13.29h-50.2v-17h11.57L545.5,131.64H448.33L416.18,154h11.93v20.74l-33.59-.79-2.91-34.85H403.9l-50.56-34-40.1,31.38,14.09.79-1.08,37.5-48-.79-2.88-28.46L234.86,145s-2.87,29.23-5.06,29.78-35.39-2.66-35.39-2.66.73-12.76-1.44-12.76c-.33,0-5.68.11-14.55.33V275.07l572.11-8.34v-6.92l503.28-7.32v-5.13l485.63-7.09v-6.9L2242.72,226Z"/><rect class="cls-2" x="2184.35" y="113.82" width="7.04" height="5.99"/><rect class="cls-2" x="2178.91" y="127.79" width="5.44" height="3.58"/><rect class="cls-2" x="1733.92" y="109.29" width="6.15" height="6.12"/><rect class="cls-2" x="1754.15" y="117.27" width="5.77" height="4.27"/><rect class="cls-2" x="1743.67" y="124.19" width="5.06" height="5.31"/><rect class="cls-2" x="1759.58" y="135.1" width="3.25" height="3.19"/><rect class="cls-2" x="1767.51" y="139.62" width="4.36" height="3.2"/><rect class="cls-2" x="1784.85" y="140.67" width="3.98" height="3.99"/><rect class="cls-2" x="1731.04" y="167.53" width="7.59" height="4"/><rect class="cls-2" x="1824.58" y="129.77" width="5.05" height="2.66"/><rect class="cls-2" x="1826.76" y="101.32" width="15.52" height="10.64"/><rect class="cls-2" x="1850.58" y="119.68" width="9.41" height="5.83"/><rect class="cls-2" x="1870.46" y="112.49" width="6.88" height="5.31"/><rect class="cls-2" x="1851.66" y="149.72" width="7.23" height="5.58"/><rect class="cls-2" x="1899.71" y="157.97" width="4.7" height="4.77"/><rect class="cls-2" x="1811.59" y="174.73" width="9.01" height="6.37"/><rect class="cls-2" x="1933.67" y="123.12" width="17.33" height="12.23"/><rect class="cls-2" x="1961.84" y="113.03" width="8.67" height="7.46"/><rect class="cls-2" x="1989.29" y="125.26" width="8.67" height="6.92"/><rect class="cls-2" x="2014.57" y="116.75" width="7.95" height="4.25"/><rect class="cls-2" x="2024.33" y="135.35" width="10.84" height="9.05"/><rect class="cls-2" x="2046.36" y="167" width="6.49" height="5.32"/><rect class="cls-2" x="2068.42" y="159.29" width="6.84" height="4.25"/><rect class="cls-2" x="2097.65" y="152.11" width="9.75" height="6.78"/><rect class="cls-2" x="2125.27" y="133.36" width="7.61" height="8.38"/><rect class="cls-2" x="2124.75" y="115.02" width="3.79" height="2.79"/><rect class="cls-2" x="2124.2" y="106.64" width="4.34" height="3.18"/><rect class="cls-2" x="2157.26" y="138.14" width="7.04" height="8.39"/><rect class="cls-2" x="2164.3" y="122.19" width="3.79" height="5.2"/><rect class="cls-2" x="2167" y="97.07" width="6.5" height="8.77"/><path class="cls-3" d="M2044.53,93.55a6.71,6.71,0,0,0-1.14-1.49c-.42-.55-.88-1.09-1.27-1.65-.8-1.06-1.32-2.27-2.87-2.81a1.54,1.54,0,0,0-.88-.07c-2.72-1.62-8.91-.56-12.3.16a79.65,79.65,0,0,1-9.46-1.2,66.82,66.82,0,0,0-9.23-1.54,82.42,82.42,0,0,0-9.94,0c-6.51.42-12.94,1.24-19.45,1.65-6.85.42-13.63,1.34-20.5,1.7-5.13.26-9.9-1.85-15-1.36a13,13,0,0,0-7.64,3.92c-.7.67-1.33,1.37-2,2.06a11.19,11.19,0,0,1-1.62,2c-2.16,1.52-3.94,3.49-6,5.12s-3.82,3.2-5.92,4.58c-3.19,2.08-8.1,3.63-9.82,6.68-.47.84,1,.88,1.57.36,1.78-1.72,5.31-2.52,7.85-3.43a44.05,44.05,0,0,0,8.88-4.51c2.79-1.8,5.27-4.09,8.23-5.71a20.54,20.54,0,0,0,3.77-2.58A20.13,20.13,0,0,1,1942,93.7a37.9,37.9,0,0,1,6.32,1.07,55.73,55.73,0,0,0,11.33.62c8.28-.12,16.68-.56,24.87-1.21,3.81-.29,7.58-.77,11.31-1.32,3-.45,6.11-.78,9.15-1.18-1,.7-1.31,2,.27,2.21a71.46,71.46,0,0,0,7.75.43q3,.29,6.11.68c2.67.34,4.94,1,7.52,1.6,4.34,1,7.13-1,8.19-3.71a5.76,5.76,0,0,0,1.92-.2,6.07,6.07,0,0,0,1.56-.71,1.59,1.59,0,0,1,.13.13c.8,1,1.62,2.08,2.54,3.1C2042.25,96.63,2045.37,95,2044.53,93.55Zm-35.35-2.48c2.07-.32,4.12-.7,6.16-1A43,43,0,0,1,2009.18,91.07Z"/><path class="cls-3" d="M1873.56,82c-.91-1.89-3.52-3.14-5.33-4.56-2.19-1.76-4.11-3.67-6.23-5.44-4.1-3.43-10-5.67-15.65-7.4v0c.35-2-2.86-1.51-3.92-.46-1.4,1.34-2.65,2.75-4,4.11a12.11,12.11,0,0,0-2.33,2.3l-.68.6c-2.64,2.26-5.62,4.4-8.49,6.5s-6.25,4.19-9.26,6.38c-1.48,1.06-4,2.37-4.56,3.9-.71,1.89-2.29,3-4.1,4.41-1.25,1,.27,2.14,1.58,1.19,1.78-1.29,3.23-2.59,5.64-3.23,2.15-.57,3.67-2.24,5.18-3.43a118.4,118.4,0,0,1,10-6.63,57.8,57.8,0,0,0,9-7,27.46,27.46,0,0,1,8.69.1c1.65.25,3.22.72,4.77.89.89.57,1.8,1.1,2.71,1.63,2.52,1.38,5.27,2.57,7.94,3.82,2.5,1.18,4.61,3.12,7.61,3.54C1873,83.32,1873.84,82.59,1873.56,82Z"/><path class="cls-3" d="M1768,104a2.11,2.11,0,0,0-2-1.49,53.89,53.89,0,0,0-8.89.19c-3.34.17-6.64-.07-10-.08a112.81,112.81,0,0,0-19.54,1.68c-1.27.22-2.23,1.88-.35,1.83,7.67-.23,15.19.55,22.76,1.28a89.23,89.23,0,0,0,10.6.06C1763.38,107.4,1768.7,107,1768,104Z"/><path class="cls-3" d="M2137.61,99.62c-1.29-1.29-5.8-1.36-7.78-1.17s-4,.67-6,.89a1.15,1.15,0,0,0-.82-.63,7.66,7.66,0,0,1-2.74-1.46c-1.6-1.08-4.42.93-3,2.17,0,0,0,0,0,0-1.05.69-1.9,2-.3,2.47a23.09,23.09,0,0,0,9.38.42,34.92,34.92,0,0,0,5.44-1.08c1.75-.46,3.44-.15,5.19-.49C2137.63,100.64,2138,100,2137.61,99.62Z"/><path class="cls-3" d="M2197.62,95.16a1,1,0,0,0-.64-1.36,4,4,0,0,0-1.88-1.57,7.87,7.87,0,0,0-3.75-.49l-.44.06c-.87-.2-1.79-.38-2.62-.55-1.28-.28-2.6-.55-3.9-.8-.06,0-.12,0-.21,0a5,5,0,0,0-2.85-1.11,2.71,2.71,0,0,0-1,.09l-.75-.19a52.56,52.56,0,0,0-17.4-.58c-1.69.18-3.57,2.54-1,2.86a119,119,0,0,0,15.72,1.26c.7,0,1.41,0,2.1,0a11.12,11.12,0,0,0,3.24,2.53,10.14,10.14,0,0,0,6.35,1.7c1.46-.14,4.37-.77,4.85.82s-.43,3.08-.43,4.64c0,1.41,2.62.74,3.23,0a7.67,7.67,0,0,0,1.75-5A8.51,8.51,0,0,0,2197.62,95.16Z"/><rect class="cls-2" x="1681.05" y="128.06" width="7.04" height="6"/><rect class="cls-2" x="1675.63" y="142.03" width="5.42" height="3.59"/><rect class="cls-2" x="1230.66" y="123.54" width="6.13" height="6.13"/><rect class="cls-2" x="1250.88" y="131.52" width="5.78" height="4.25"/><rect class="cls-2" x="1240.39" y="138.43" width="5.06" height="5.33"/><rect class="cls-2" x="1256.29" y="149.33" width="3.25" height="3.18"/><rect class="cls-2" x="1264.25" y="153.85" width="4.31" height="3.2"/><rect class="cls-2" x="1281.57" y="154.93" width="3.98" height="3.98"/><rect class="cls-2" x="1227.76" y="181.77" width="7.59" height="4"/><rect class="cls-2" x="1321.33" y="144.02" width="5.03" height="2.68"/><rect class="cls-2" x="1323.47" y="115.57" width="15.54" height="10.64"/><rect class="cls-2" x="1347.32" y="133.91" width="9.38" height="5.85"/><rect class="cls-2" x="1367.18" y="126.74" width="6.88" height="5.32"/><rect class="cls-2" x="1348.4" y="163.96" width="7.21" height="5.59"/><rect class="cls-2" x="1396.44" y="172.2" width="4.69" height="4.79"/><rect class="cls-2" x="1308.3" y="188.96" width="9.02" height="6.37"/><rect class="cls-2" x="1430.38" y="137.38" width="17.34" height="12.23"/><rect class="cls-2" x="1458.56" y="127.27" width="8.67" height="7.45"/><rect class="cls-2" x="1486.01" y="139.51" width="8.69" height="6.91"/><rect class="cls-2" x="1511.31" y="130.99" width="7.94" height="4.25"/><rect class="cls-2" x="1521.04" y="149.6" width="10.85" height="9.03"/><rect class="cls-2" x="1543.09" y="181.24" width="6.5" height="5.33"/><rect class="cls-2" x="1565.11" y="173.54" width="6.88" height="4.24"/><rect class="cls-2" x="1594.37" y="166.35" width="9.75" height="6.78"/><rect class="cls-2" x="1621.99" y="147.6" width="7.61" height="8.39"/><rect class="cls-2" x="1621.46" y="129.26" width="3.79" height="2.8"/><rect class="cls-2" x="1620.92" y="120.88" width="4.33" height="3.19"/><rect class="cls-2" x="1653.96" y="152.39" width="7.05" height="8.37"/><rect class="cls-2" x="1661.02" y="136.44" width="3.77" height="5.18"/><rect class="cls-2" x="1663.73" y="111.31" width="6.5" height="8.78"/><path class="cls-3" d="M1541.25,107.79a7.82,7.82,0,0,0-1.14-1.5l-1.29-1.63c-.78-1.07-1.28-2.27-2.84-2.83a2,2,0,0,0-.9-.06c-2.72-1.6-8.9-.55-12.27.16a73.43,73.43,0,0,1-9.46-1.2,68,68,0,0,0-9.24-1.53,77,77,0,0,0-10,0c-6.48.41-12.92,1.23-19.45,1.63-6.85.43-13.62,1.36-20.5,1.71-5.1.26-9.89-1.86-15-1.35a13,13,0,0,0-7.63,3.91c-.69.66-1.33,1.37-2,2.08a13.73,13.73,0,0,1-1.62,2c-2.18,1.52-4,3.48-6,5.12s-3.82,3.19-5.92,4.59c-3.19,2.06-8.09,3.62-9.81,6.67-.49.85,1,.88,1.55.34,1.79-1.71,5.32-2.51,7.86-3.43a42.07,42.07,0,0,0,8.88-4.51c2.8-1.78,5.29-4.08,8.25-5.68a22.09,22.09,0,0,0,3.75-2.6,27.18,27.18,0,0,1,2.17-1.66,35.3,35.3,0,0,1,6.37,1.07,52.61,52.61,0,0,0,11.3.59c8.28-.08,16.67-.55,24.91-1.19,3.77-.29,7.54-.77,11.29-1.33,3-.44,6.1-.77,9.14-1.16-1,.68-1.32,1.95.27,2.2a64.54,64.54,0,0,0,7.74.43c2,.19,4.09.42,6.11.68,2.66.34,5,1,7.52,1.6,4.34,1,7.14-1,8.17-3.69a5.78,5.78,0,0,0,2-.23,6.22,6.22,0,0,0,1.56-.71c0,.06.06.1.08.15.84,1,1.67,2.06,2.56,3.09C1539,110.87,1542.11,109.23,1541.25,107.79Zm-35.36-2.46c2.08-.33,4.12-.71,6.19-1A46.45,46.45,0,0,1,1505.89,105.33Z"/><path class="cls-3" d="M1370.28,96.26c-.89-1.89-3.52-3.14-5.33-4.58-2.17-1.72-4.11-3.66-6.21-5.42-4.11-3.42-10-5.66-15.65-7.4v0c.35-2-2.86-1.5-3.94-.46-1.4,1.35-2.63,2.74-3.94,4.12a11.35,11.35,0,0,0-2.35,2.28c-.21.21-.44.41-.67.61-2.65,2.27-5.61,4.4-8.5,6.5s-6.24,4.2-9.24,6.38c-1.49,1.07-4,2.38-4.56,3.91-.73,1.88-2.29,3-4.11,4.42-1.26,1,.25,2.12,1.57,1.17,1.77-1.28,3.25-2.6,5.64-3.22,2.16-.58,3.67-2.25,5.18-3.43a116.38,116.38,0,0,1,10-6.63,56.17,56.17,0,0,0,9-7,27.74,27.74,0,0,1,8.69.11c1.64.25,3.21.73,4.79.89.88.56,1.75,1.09,2.71,1.62,2.5,1.39,5.25,2.58,7.92,3.83,2.51,1.19,4.61,3.12,7.62,3.55C1369.76,97.57,1370.56,96.84,1370.28,96.26Z"/><path class="cls-3" d="M1264.75,118.23a2.12,2.12,0,0,0-2-1.49,53.63,53.63,0,0,0-8.87.19c-3.35.16-6.67-.08-10-.09a115.36,115.36,0,0,0-19.53,1.68c-1.27.22-2.25,1.9-.37,1.84,7.67-.23,15.19.56,22.75,1.28a91.94,91.94,0,0,0,10.63.06C1260.1,121.64,1265.42,121.2,1264.75,118.23Z"/><path class="cls-3" d="M1634.34,113.87c-1.29-1.29-5.81-1.38-7.81-1.18s-3.94.69-6,.9a1.08,1.08,0,0,0-.84-.63,8.14,8.14,0,0,1-2.73-1.46c-1.58-1.1-4.39.92-3,2.17a0,0,0,0,0,0,0c-1,.68-1.86,2-.3,2.48a23.53,23.53,0,0,0,9.39.42,39.25,39.25,0,0,0,5.45-1.1c1.77-.47,3.46-.15,5.21-.49C1634.35,114.88,1634.74,114.26,1634.34,113.87Z"/><path class="cls-3" d="M1694.32,109.38a1,1,0,0,0-.6-1.34,4.28,4.28,0,0,0-1.9-1.56,7.62,7.62,0,0,0-3.75-.49l-.43,0-2.62-.55c-1.31-.28-2.6-.55-3.91-.79a.67.67,0,0,1-.19,0,5.33,5.33,0,0,0-2.85-1.12,2.81,2.81,0,0,0-1,.12c-.24-.06-.48-.15-.73-.19a51.94,51.94,0,0,0-17.38-.6c-1.68.19-3.56,2.54-1.06,2.86a115.91,115.91,0,0,0,15.69,1.26h2.13a11.06,11.06,0,0,0,3.25,2.54,10.16,10.16,0,0,0,6.36,1.69c1.46-.14,4.36-.77,4.83.82s-.44,3.09-.45,4.65,2.62.73,3.24,0a7.78,7.78,0,0,0,1.76-5A8.12,8.12,0,0,0,1694.32,109.38Z"/><rect class="cls-2" x="1195.41" y="140.27" width="7.04" height="5.98"/><rect class="cls-2" x="1190" y="154.23" width="5.42" height="3.59"/><rect class="cls-2" x="745" y="135.76" width="6.14" height="6.11"/><rect class="cls-2" x="765.24" y="143.73" width="5.77" height="4.25"/><rect class="cls-2" x="754.76" y="150.65" width="5.06" height="5.31"/><rect class="cls-2" x="770.65" y="161.55" width="3.25" height="3.17"/><rect class="cls-2" x="778.6" y="166.08" width="4.34" height="3.17"/><rect class="cls-2" x="795.94" y="167.12" width="3.97" height="3.98"/><rect class="cls-2" x="742.13" y="193.99" width="7.57" height="3.99"/><rect class="cls-2" x="835.67" y="156.23" width="5.05" height="2.66"/><rect class="cls-2" x="837.82" y="127.77" width="15.54" height="10.64"/><rect class="cls-2" x="861.69" y="146.13" width="9.38" height="5.84"/><rect class="cls-2" x="881.55" y="138.93" width="6.85" height="5.33"/><rect class="cls-2" x="862.76" y="176.17" width="7.23" height="5.57"/><rect class="cls-2" x="910.81" y="184.42" width="4.69" height="4.78"/><rect class="cls-2" x="822.66" y="201.17" width="9.03" height="6.38"/><rect class="cls-2" x="944.75" y="149.59" width="17.34" height="12.22"/><rect class="cls-2" x="972.93" y="139.47" width="8.67" height="7.47"/><rect class="cls-2" x="1000.37" y="151.71" width="8.67" height="6.9"/><rect class="cls-2" x="1025.65" y="143.21" width="7.95" height="4.25"/><rect class="cls-2" x="1035.41" y="161.81" width="10.84" height="9.05"/><rect class="cls-2" x="1057.46" y="193.45" width="6.48" height="5.33"/><rect class="cls-2" x="1079.48" y="185.73" width="6.86" height="4.25"/><rect class="cls-2" x="1108.74" y="178.57" width="9.74" height="6.77"/><rect class="cls-2" x="1136.36" y="159.82" width="7.59" height="8.38"/><rect class="cls-2" x="1135.82" y="141.48" width="3.8" height="2.78"/><rect class="cls-2" x="1135.27" y="133.09" width="4.36" height="3.2"/><rect class="cls-2" x="1168.32" y="164.61" width="7.06" height="8.37"/><rect class="cls-2" x="1175.39" y="148.64" width="3.77" height="5.19"/><rect class="cls-2" x="1178.08" y="123.52" width="6.5" height="8.78"/><path class="cls-3" d="M1055.62,120a8.29,8.29,0,0,0-1.14-1.49c-.44-.55-.88-1.09-1.3-1.64-.78-1.07-1.29-2.28-2.84-2.82a1.59,1.59,0,0,0-.89-.06c-2.73-1.62-8.93-.56-12.3.15a76.64,76.64,0,0,1-9.43-1.18,64.05,64.05,0,0,0-9.27-1.55,82.25,82.25,0,0,0-9.93,0c-6.52.41-12.95,1.25-19.46,1.65-6.86.42-13.63,1.35-20.51,1.7-5.1.26-9.88-1.86-15-1.35a13.09,13.09,0,0,0-7.63,3.9c-.71.68-1.34,1.37-2,2.07s-1,1.54-1.65,2c-2.16,1.53-3.93,3.48-6,5.12A71.87,71.87,0,0,1,930.4,131c-3.17,2.08-8.07,3.63-9.8,6.68-.48.85,1,.88,1.54.35,1.79-1.71,5.34-2.52,7.88-3.42a44.05,44.05,0,0,0,8.88-4.51c2.79-1.79,5.27-4.1,8.21-5.7a22.39,22.39,0,0,0,3.79-2.59,25.16,25.16,0,0,1,2.17-1.67,37.31,37.31,0,0,1,6.34,1.08,56.31,56.31,0,0,0,11.34.61c8.25-.09,16.66-.55,24.86-1.21,3.81-.3,7.58-.77,11.33-1.33,3-.44,6.08-.77,9.13-1.17-1,.69-1.33,2,.27,2.2a62.61,62.61,0,0,0,7.73.44c2,.19,4.08.43,6.11.67,2.67.35,5,1,7.54,1.6,4.33,1,7.12-1,8.17-3.7a5.88,5.88,0,0,0,1.94-.19,6.87,6.87,0,0,0,1.56-.72.56.56,0,0,1,.1.14c.82,1,1.65,2.07,2.55,3.07C1053.33,123.09,1056.45,121.43,1055.62,120Zm-35.35-2.46c2.07-.35,4.11-.72,6.16-1A44.46,44.46,0,0,1,1020.27,117.54Z"/><path class="cls-3" d="M884.65,108.47c-.92-1.88-3.52-3.14-5.33-4.58-2.19-1.72-4.11-3.65-6.23-5.42-4.09-3.42-10-5.67-15.66-7.4v0c.38-2-2.86-1.51-3.93-.47-1.38,1.36-2.64,2.76-3.94,4.13A11.85,11.85,0,0,0,847.22,97l-.66.6c-2.65,2.27-5.63,4.39-8.5,6.5s-6.24,4.2-9.26,6.39c-1.48,1.06-4,2.36-4.54,3.89-.75,1.89-2.32,3-4.11,4.42-1.25,1,.25,2.12,1.54,1.18,1.8-1.29,3.25-2.58,5.65-3.22,2.17-.58,3.67-2.24,5.19-3.43,3.13-2.44,6.58-4.47,10-6.64a57.15,57.15,0,0,0,9-7,27,27,0,0,1,8.71.09c1.64.23,3.21.71,4.77.89.88.55,1.78,1.09,2.72,1.62,2.51,1.38,5.26,2.58,7.91,3.84s4.63,3.11,7.63,3.53C884.13,109.77,884.91,109.05,884.65,108.47Z"/><path class="cls-3" d="M779.1,130.44a2.07,2.07,0,0,0-2-1.48,50.68,50.68,0,0,0-8.88.19c-3.35.17-6.66-.08-10-.08a111.46,111.46,0,0,0-19.53,1.67c-1.27.21-2.23,1.88-.35,1.83a181.62,181.62,0,0,1,22.74,1.28,91.43,91.43,0,0,0,10.6.06C774.46,133.85,779.78,133.41,779.1,130.44Z"/><path class="cls-3" d="M1148.69,126.09c-1.28-1.3-5.79-1.38-7.79-1.2s-4,.7-6,.91a1.16,1.16,0,0,0-.84-.63,8.08,8.08,0,0,1-2.74-1.46c-1.59-1.1-4.4.94-3,2.17h0c-1,.7-1.86,2-.3,2.48a23.46,23.46,0,0,0,9.38.43,34.93,34.93,0,0,0,5.44-1.09c1.76-.47,3.46-.16,5.21-.49C1148.69,127.09,1149.09,126.47,1148.69,126.09Z"/><path class="cls-3" d="M1208.69,121.59a1,1,0,0,0-.63-1.34,4,4,0,0,0-1.89-1.57,7.64,7.64,0,0,0-3.71-.49,2.54,2.54,0,0,0-.44.07c-.92-.21-1.81-.38-2.65-.56-1.29-.28-2.58-.55-3.9-.8a1.46,1.46,0,0,1-.2-.05,5.15,5.15,0,0,0-2.86-1.12,4.37,4.37,0,0,0-1,.11l-.73-.19a52.62,52.62,0,0,0-17.41-.59c-1.68.18-3.55,2.54-1,2.86a119.1,119.1,0,0,0,15.69,1.26c.73,0,1.44,0,2.15,0a10.68,10.68,0,0,0,3.25,2.54,10.07,10.07,0,0,0,6.33,1.69c1.48-.13,4.38-.77,4.86.82s-.46,3.09-.46,4.65c0,1.4,2.63.73,3.23,0a7.58,7.58,0,0,0,1.77-5A8.06,8.06,0,0,0,1208.69,121.59Z"/><rect class="cls-2" x="692.13" y="154.52" width="7.04" height="5.98"/><rect class="cls-2" x="686.71" y="168.46" width="5.42" height="3.61"/><rect class="cls-2" x="241.74" y="149.99" width="6.13" height="6.11"/><rect class="cls-2" x="261.96" y="157.98" width="5.78" height="4.24"/><rect class="cls-2" x="251.5" y="164.89" width="5.04" height="5.31"/><rect class="cls-2" x="267.39" y="175.78" width="3.25" height="3.2"/><rect class="cls-2" x="275.33" y="180.31" width="4.32" height="3.2"/><rect class="cls-2" x="292.65" y="181.37" width="3.98" height="3.98"/><rect class="cls-2" x="238.82" y="208.24" width="7.61" height="3.98"/><rect class="cls-2" x="332.4" y="170.47" width="5.04" height="2.66"/><rect class="cls-2" x="334.54" y="142.01" width="15.56" height="10.64"/><rect class="cls-2" x="358.4" y="160.37" width="9.4" height="5.86"/><rect class="cls-2" x="378.26" y="153.19" width="6.86" height="5.31"/><rect class="cls-2" x="359.49" y="190.41" width="7.21" height="5.6"/><rect class="cls-2" x="407.52" y="198.66" width="4.69" height="4.78"/><rect class="cls-2" x="319.39" y="215.41" width="9.02" height="6.39"/><rect class="cls-2" x="441.47" y="163.82" width="17.34" height="12.24"/><rect class="cls-2" x="469.65" y="153.72" width="8.67" height="7.45"/><rect class="cls-2" x="497.09" y="165.95" width="8.67" height="6.91"/><rect class="cls-2" x="522.37" y="157.44" width="7.96" height="4.25"/><rect class="cls-2" x="532.12" y="176.06" width="10.86" height="9.04"/><rect class="cls-2" x="554.16" y="207.69" width="6.49" height="5.33"/><rect class="cls-2" x="576.2" y="199.99" width="6.84" height="4.25"/><rect class="cls-2" x="605.44" y="192.81" width="9.77" height="6.77"/><rect class="cls-2" x="633.08" y="174.06" width="7.58" height="8.37"/><rect class="cls-2" x="632.55" y="155.72" width="3.78" height="2.78"/><rect class="cls-2" x="632.01" y="147.34" width="4.32" height="3.19"/><rect class="cls-2" x="665.04" y="178.85" width="7.04" height="8.38"/><rect class="cls-2" x="672.09" y="162.89" width="3.81" height="5.18"/><rect class="cls-2" x="674.79" y="137.78" width="6.51" height="8.76"/><path class="cls-3" d="M552.34,134.23a7.09,7.09,0,0,0-1.16-1.47l-1.27-1.65c-.8-1.06-1.28-2.28-2.86-2.83a2.19,2.19,0,0,0-.88-.06c-2.72-1.61-8.92-.55-12.3.17a76,76,0,0,1-9.45-1.2,64.07,64.07,0,0,0-9.24-1.53,75.23,75.23,0,0,0-10,0c-6.48.39-12.92,1.22-19.42,1.63-6.86.42-13.64,1.34-20.52,1.7-5.12.27-9.87-1.87-15-1.35a13,13,0,0,0-7.63,3.91c-.7.67-1.34,1.37-2,2.08a12.51,12.51,0,0,1-1.62,2c-2.17,1.52-4,3.49-6,5.11s-3.8,3.2-5.92,4.6c-3.19,2.07-8.08,3.62-9.8,6.67-.48.85,1,.87,1.54.35,1.78-1.72,5.32-2.52,7.87-3.44a42.8,42.8,0,0,0,8.88-4.51c2.79-1.78,5.29-4.07,8.23-5.69a22.62,22.62,0,0,0,3.77-2.59c.68-.55,1.47-1.2,2.17-1.68a37.68,37.68,0,0,1,6.33,1.1,55.13,55.13,0,0,0,11.35.59c8.24-.09,16.65-.56,24.87-1.2,3.79-.29,7.57-.77,11.32-1.32,3-.44,6.08-.79,9.15-1.17-1,.69-1.34,2,.27,2.2a62,62,0,0,0,7.73.43c2,.18,4.07.42,6.08.67,2.69.35,5,1,7.55,1.61,4.33,1,7.14-1,8.19-3.69a5.73,5.73,0,0,0,1.91-.21,6.22,6.22,0,0,0,1.57-.73.65.65,0,0,1,.1.15c.82,1,1.65,2.07,2.54,3.09C550.05,137.33,553.18,135.68,552.34,134.23ZM517,131.77c2.07-.34,4.11-.71,6.17-1A40.72,40.72,0,0,1,517,131.77Z"/><path class="cls-3" d="M381.36,122.72c-.89-1.9-3.51-3.15-5.33-4.59-2.16-1.71-4.1-3.65-6.21-5.41-4.1-3.43-10-5.67-15.67-7.41h0c.36-2-2.85-1.51-3.93-.48-1.38,1.36-2.63,2.75-3.93,4.13a11.3,11.3,0,0,0-2.35,2.27c-.21.22-.44.41-.67.61-2.64,2.27-5.6,4.4-8.49,6.5s-6.24,4.2-9.26,6.38c-1.48,1.08-4,2.38-4.55,3.91-.73,1.89-2.3,3-4.1,4.41-1.25,1,.24,2.13,1.54,1.19,1.81-1.3,3.25-2.6,5.67-3.23,2.17-.57,3.67-2.24,5.17-3.43a113.2,113.2,0,0,1,10-6.63,56.42,56.42,0,0,0,9-7A28.17,28.17,0,0,1,357,114c1.64.25,3.22.72,4.79.89.87.56,1.75,1.1,2.71,1.63,2.51,1.38,5.25,2.57,7.92,3.82,2.48,1.19,4.6,3.12,7.61,3.55C380.85,124,381.64,123.28,381.36,122.72Z"/><path class="cls-3" d="M275.83,144.69a2.09,2.09,0,0,0-2-1.49,50.59,50.59,0,0,0-8.87.19c-3.37.17-6.66-.09-10-.09A115.22,115.22,0,0,0,235.47,145c-1.27.22-2.25,1.88-.39,1.82a183.59,183.59,0,0,1,22.77,1.3,93.89,93.89,0,0,0,10.61.06C271.19,148.1,276.5,147.64,275.83,144.69Z"/><path class="cls-3" d="M645.43,140.32c-1.3-1.28-5.81-1.38-7.79-1.18s-4,.69-6,.9c-.08-.27-.33-.49-.82-.62a8.09,8.09,0,0,1-2.72-1.47c-1.59-1.1-4.42.94-3,2.16l0,0c-1,.69-1.86,2-.29,2.48a23.32,23.32,0,0,0,9.39.42,38.4,38.4,0,0,0,5.45-1.1c1.75-.46,3.44-.16,5.18-.47C645.43,141.35,645.82,140.72,645.43,140.32Z"/><path class="cls-3" d="M705.39,135.84a1,1,0,0,0-.61-1.36,4.22,4.22,0,0,0-1.89-1.56,7.9,7.9,0,0,0-3.73-.49l-.44.06c-.9-.19-1.79-.36-2.63-.56-1.29-.27-2.6-.55-3.9-.79a.58.58,0,0,1-.18,0,5.28,5.28,0,0,0-2.88-1.13,3.94,3.94,0,0,0-1,.11l-.72-.19A53.18,53.18,0,0,0,670,129.3c-1.67.18-3.56,2.55-1.05,2.86a119,119,0,0,0,15.7,1.27c.72,0,1.42,0,2.13,0A11.52,11.52,0,0,0,690,136a10.15,10.15,0,0,0,6.35,1.69c1.46-.14,4.38-.75,4.86.82s-.44,3.1-.46,4.66c0,1.39,2.65.71,3.23,0a7.61,7.61,0,0,0,1.77-5A7.7,7.7,0,0,0,705.39,135.84Z"/></g></g></svg>