<svg xmlns="http://www.w3.org/2000/svg" xmlns:xlink="http://www.w3.org/1999/xlink" viewBox="0 0 1964.45 408.01"><defs><style>.cls-1{isolation:isolate;}.cls-2,.cls-3{opacity:0.5;mix-blend-mode:multiply;}.cls-2{fill:url(#linear-gradient);}.cls-3{fill:url(#linear-gradient-2);}</style><linearGradient id="linear-gradient" x1="982.23" y1="-70.48" x2="982.23" y2="607.95" gradientUnits="userSpaceOnUse"><stop offset="0" stop-color="#6196be"/><stop offset="0.49" stop-color="#56739b"/><stop offset="1" stop-color="#253e5e"/></linearGradient><linearGradient id="linear-gradient-2" x1="982.35" y1="-44.57" x2="982.35" y2="545.89" xlink:href="#linear-gradient"/></defs><title>montagnes-101</title><g class="cls-1"><g id="Calque_2" data-name="Calque 2"><g id="Calque_1-2" data-name="Calque 1"><path class="cls-2" d="M1946.76,42.23c-44.51-24.42-88.44-52.32-141.11-38.6-42.89,11.17-74.27,42.26-107.11,70.54-31.09,26.76-70.21,54.37-113.25,48.59-48-6.46-81.59-45.41-120.41-71C1409,15,1352.24,56.66,1320.19,105.29c-23.18,35.12-36,76.38-60.21,110.77-23.49,33.37-60.31,57-102,52.14-23-2.66-43.36-12.86-65-20.33-12.44-4.28-25.44-7.81-38.66-7.67-15,.18-29,4.45-43.26,8.74-52,15.6-105.26,37.08-160.37,27.11C795.73,266.12,754,234,721.21,189.32c-15.8-21.5-30.2-44-46.83-64.88-11.56-14.54-24-28.21-40.77-36.58C569.62,56,492.23,100.4,436.26,131c-34.88,19-69.14,39.34-104.8,56.9-31.41,15.49-64.79,30.16-99.76,34.46-42.89,5.26-85.09-10.92-121.11-33.91-24.2-15.46-44.23-36-67.75-52.25-11.37-7.84-24.41-15.47-38.58-15.66-.5,0-1,0-1.47,0,0,60.38,4,122.23-1.28,182.12-1.18,13.61.1,28,.1,41.63,0,14.16-7.71,53.15,10.62,55.93,20,3,43,0,63.15,0,27.2-.08,55.23.46,82.49,1.65,17.82.78,35.2,4.51,53,5.42,34.43,1.77,69.47-.09,104-.09,72.61,0,145.19-1.74,217.88-1.74,60.71,0,121.21,1.74,181.87,1.74,74.55,0,149-.37,223.45-3.88,89.36-4.22,179.14-12,268.06-22.39,38.91-4.54,78.55-2.92,117.62-4.81,39.89-1.94,80-1.45,119.85-4.22,17-1.19,34-3.43,50.92-4.85,24.65-2.08,49.13-1.66,73.94-1.84,32-.21,64.49,6.32,96.46,9.18,38.26,3.41,76.52,8.43,115,8.33,46.43-.12,92.93,1,139.15,1.8,8.4.14,14.59-.34,22.53-3.11,4-1.38,15.17-3.61,18-6.91,4.5-5.13.61-15.35-.61-21.44-2-9.78-1.18-18.81.09-28.49,2-15.5,3.41-31.46,5.24-46.73,1.26-10.43-5.53-20.49-6-31.14-.39-8.52,1.17-16.28,2.43-24.61,2.83-18.7,1.19-38.5,1.19-57.36V50.17C1956.78,47.64,1951.72,45,1946.76,42.23Z"/><path class="cls-3" d="M1864.36,105.41c-29-7.41-57.81-8-86.9-.39-28.72,7.58-55.67,20.14-82.72,32.3-24.5,11.05-49.62,22.9-76.31,27.08-67.14,10.51-134.07-18.28-200.54-6.71-68.21,11.85-102.54,70.07-152.13,111.18-26.56,22-60.11,34.84-95.21,29.38-28.44-4.43-55.38-17.93-84.51-17.6-42.82.47-79.48,26.89-117,44.16-45.1,20.76-102.6,30.52-151.76,20.57-43.53-8.8-78.27-31.26-116.45-51.9C684,284.4,667.59,275,651,265.55c-16.25-9.31-29.32-23.94-47.18-30.1-50.61-17.44-95.66-25.81-149-14.46-74,15.73-148.41,62.84-225.67,58.86-17-.88-29.72-6.69-44.62-13.7-16.18-7.59-33.3-12.16-49.16-21-27-15-49-36.19-74.69-53.08-14-9.22-28.08-16.78-44.7-19.72-4.4-.79-8.8-1.47-13.18-2.21,0,46.18.63,92.58.56,138.61,0,12.47-1.67,26.06,2.12,38.21,3,9.73,7.74,9.63,17.16,11.2,29,4.8,58.47,3.11,87.74,3.11,78.76,0,157.35.95,236-3.21,54.59-2.86,109.2,4.41,163.9,1.84,37.64-1.75,74.78.1,112.21,2.82,51.39,3.73,104.16.27,155.71.29,89.16.05,178.19,8.82,267.42,8.82,48.32,0,96.67-1.82,145-1.82,76.09,0,152-3.68,228.1-3.45,64,.19,128.12-2.6,192.09-3.63,54.15-.88,108,2,162,3.68,43.65,1.33,87,.26,130.44,3.35,13.51,1,26.66,2.62,40.47,1.4,10-.89,12,.22,14.3-8.31,6.2-23-1.41-44.46,1.39-67.24,2.71-21.88,2.49-43.44,2.49-65.5V136.17C1929.42,127.59,1897.26,113.8,1864.36,105.41Z"/></g></g></g></svg>