<svg xmlns="http://www.w3.org/2000/svg" xmlns:xlink="http://www.w3.org/1999/xlink" viewBox="0 0 627.04 627.06"><defs><style>.cls-1{isolation:isolate;}.cls-2{fill:url(#radial-gradient);}.cls-3,.cls-6{opacity:0.4;mix-blend-mode:multiply;}.cls-3{fill:url(#radial-gradient-2);}.cls-4{opacity:0.3;fill:url(#radial-gradient-3);}.cls-4,.cls-5,.cls-7{mix-blend-mode:screen;}.cls-5{opacity:0.5;fill:url(#radial-gradient-4);}.cls-6{fill:#d3d3d3;}.cls-7{opacity:0.8;fill:url(#radial-gradient-5);}</style><radialGradient id="radial-gradient" cx="292.88" cy="283.51" fx="247.6437519159229" r="263.03" gradientUnits="userSpaceOnUse"><stop offset="0" stop-color="#fff"/><stop offset="0.67" stop-color="#ededed"/><stop offset="1" stop-color="#e2e2e2"/></radialGradient><radialGradient id="radial-gradient-2" cx="315.62" cy="316.34" fx="315.6182346089772" r="228.84" xlink:href="#radial-gradient"/><radialGradient id="radial-gradient-3" cx="276.88" cy="264.92" fx="276.8845189818894" r="169.8" gradientTransform="translate(31.85 -23.12) rotate(4.58)" xlink:href="#radial-gradient"/><radialGradient id="radial-gradient-4" cx="245.33" cy="213.93" fx="245.33062433978375" r="108.51" xlink:href="#radial-gradient"/><radialGradient id="radial-gradient-5" cx="313.52" cy="313.53" r="313.53" gradientUnits="userSpaceOnUse"><stop offset="0.57"/><stop offset="0.74" stop-color="#bbcfe0"/><stop offset="0.78" stop-color="#8a99a6"/><stop offset="0.82" stop-color="#606a73"/><stop offset="0.86" stop-color="#3e444a"/><stop offset="0.9" stop-color="#23262a"/><stop offset="0.94" stop-color="#101113"/><stop offset="0.97" stop-color="#040405"/><stop offset="1"/></radialGradient></defs><title>moon-101</title><g class="cls-1"><g id="Calque_2" data-name="Calque 2"><g id="Calque_1-2" data-name="Calque 1"><path class="cls-2" d="M517.56,424C458.1,535.51,319.52,577.73,208,518.28s-153.76-198-94.3-309.56S311.71,55,423.24,114.4,577,312.44,517.56,424Z"/><path class="cls-3" d="M255.39,95.52A204,204,0,0,1,458,160.32c73.67,85.21,64.31,214-20.92,287.65s-214,64.3-287.66-20.92C76.44,342.57,85,215.3,168.22,141.34c-.75.62-1.5,1.24-2.25,1.88C70.37,225.85,59.84,370.38,142.49,466S369.65,572.1,465.27,489.46s106.12-227.15,23.47-322.75A228.85,228.85,0,0,0,255.39,95.52Z"/><path class="cls-4" d="M429.8,158.06c52.85,72,31.61,177.42-47.42,235.39S196.43,440,143.59,368,112,190.61,191,132.62,377,86,429.8,158.06Z"/><path class="cls-5" d="M339.9,132.2c32.14,37.19,15.86,103.93-36.37,149.07s-120.62,51.58-152.76,14.4S134.9,191.73,187.12,146.59,307.75,95,339.9,132.2Z"/><path class="cls-6" d="M169.12,433.88c3-11.29,26.12-11.36,45.42,2.85s13.05,34.64,0,38S161.15,463.42,169.12,433.88Z"/><path class="cls-6" d="M382.06,480.63c-1.92-10.14,8.69-23.09,25.72-26.88s32.94,1.9,35.59,17.41-16.05,30.29-30.74,26.13S384.33,492.75,382.06,480.63Z"/><path class="cls-6" d="M214.36,498c2.37-8.51,21.19-2.6,21.38,8.95S211.7,507.42,214.36,498Z"/><path class="cls-6" d="M270.29,501.45c3.62,4,14.48,8.25,16.74-3.44S258.85,488.66,270.29,501.45Z"/><path class="cls-6" d="M351.39,517c8.12,1,19.49,1.46,21.19-9.46s-22.7-10.27-28-4.57S344.2,516.11,351.39,517Z"/><path class="cls-6" d="M469.49,263c5.26,4.15,21.21,5.29,23.85-9.08s-15.15-20.83-23.85-17.8S453.21,250.08,469.49,263Z"/><path class="cls-6" d="M443.62,190.29c5.9,5.19,27.92,7.94,33.14-1.52s-8.61-22.57-26.58-23.85S422.67,171.74,443.62,190.29Z"/><path class="cls-6" d="M308,159.69c7.28,5.13,28.62,1.83,30.51-10.28s-19-14.84-30.51-10.64S294.7,150.28,308,159.69Z"/><path class="cls-6" d="M257.12,129.73c8.05,3.7,19.81,2.64,20.32-3s-7.06-9.09-15.4-8.32S247.29,125.17,257.12,129.73Z"/><path class="cls-6" d="M153.78,179.31c1.06-5.8,7.19-1.13,7.56,1.89S152.28,187.64,153.78,179.31Z"/><path class="cls-6" d="M168.07,255.77c-1.87-5,6.15-3.78,6.53,0S169.51,259.57,168.07,255.77Z"/><path class="cls-6" d="M147.34,374.63c2.65,4.56,10.38,2.29,9.73-4.15S144.71,370.09,147.34,374.63Z"/><path class="cls-6" d="M135.61,425.72c1.08,1.88,6.89,3.94,7.23-2.37S133,421.16,135.61,425.72Z"/><path class="cls-6" d="M323.28,533.25c4.05,2.09,8-1.7,6.53-6.25S315,529,323.28,533.25Z"/><path class="cls-6" d="M304.54,531.55c2.7-2.92-4.55-4.07-7.38-1.9S301.13,535.24,304.54,531.55Z"/><path class="cls-6" d="M283,521.62c3.2,2.08,5.67.84,6-2S277.3,517.91,283,521.62Z"/><path class="cls-6" d="M313.91,462c-.77-1.86,7.44-2.84,6.7,0S315.33,465.4,313.91,462Z"/><path class="cls-6" d="M443.62,358.92c0-4.25,6.85-4,7.15,0S443.6,363.19,443.62,358.92Z"/><path class="cls-6" d="M480.29,291.07c-.29-4.25,7.95-4.54,8.24,0S480.57,295.33,480.29,291.07Z"/><path class="cls-6" d="M419.82,142c-.63-4.93,5.1-4.82,5.95,0S420.11,144.42,419.82,142Z"/><path class="cls-6" d="M380.06,140.32c-4.45-3.16,2.27-5.94,5.11-3.4S384.89,143.72,380.06,140.32Z"/><path class="cls-6" d="M342.29,122.42c-2.83-1.41.86-6.91,4.55-4.16S345.13,123.85,342.29,122.42Z"/><path class="cls-6" d="M321.85,106.54c-3-3.61,3.69-2.57,6-1.43S326.69,112.21,321.85,106.54Z"/><path class="cls-6" d="M371.54,117.51c-2.84-5.88,4.56-1.54,4,0S371.54,117.51,371.54,117.51Z"/><path class="cls-6" d="M322.42,118.26c-2.55-2.07,2.2-2.24,2.39-.08S322.42,118.26,322.42,118.26Z"/><path class="cls-6" d="M278.86,120.52c-1.34-1,1.77-3.41,3.39-1.57S281.3,122.29,278.86,120.52Z"/><path class="cls-6" d="M226.47,155.27c-2.59-2.08,5.1-4.73,7.94-1.89S230.44,158.49,226.47,155.27Z"/><path class="cls-7" d="M627,313.53c0,173.14-140.37,313.53-313.53,313.53S0,486.67,0,313.53,140.36,0,313.51,0,627,140.37,627,313.53Z"/></g></g></g></svg>