<svg xmlns="http://www.w3.org/2000/svg" viewBox="0 0 392.56 146.03"><defs><style>.cls-1{fill:#5b5b5b;}</style></defs><title>text</title><g id="Calque_2" data-name="Calque 2"><g id="Calque_1-2" data-name="Calque 1"><path class="cls-1" d="M84.06,22.9l-3.5,3.35a11.64,11.64,0,0,1-.5-3.33A10.9,10.9,0,0,1,84.18,14q4.13-3.36,10.94-3.35h1.7c-.65,3.28-1,5.48-1.16,6.61L93.77,34.38q-.87,7.6-4.12,11a11.79,11.79,0,0,1-8.82,3.86q-4.85,0-7-4.77l3.44-2.62q1.06,5.51,6,5.5A5.16,5.16,0,0,0,87.86,45c1-1.56,1.74-4.2,2.15-7.93l2.63-23.82H92q-8.92,0-8.93,5.91A7.77,7.77,0,0,0,84.06,22.9Z"/><path class="cls-1" d="M104.62,40.13q-4.83,0-4.83-6.4a15.85,15.85,0,0,1,3.78-9.94Q107.35,19,111.41,19q4.91,0,4.9,6.41a15.81,15.81,0,0,1-3.78,9.94Q108.75,40.13,104.62,40.13Zm2.6-2.4q2.48,0,4.14-2.75A13.06,13.06,0,0,0,113,28.12q0-6.71-4.17-6.7-2.44,0-4.11,2.76A13,13,0,0,0,103.07,31C103.07,35.49,104.46,37.73,107.22,37.73Z"/><path class="cls-1" d="M134.47,31a32.64,32.64,0,0,1-4.55,6.53q-2.37,2.58-3.88,2.58-2.06,0-2.28-4.33l-.15-3-.28-6.07L123.27,25c-.13-2.3-.55-3.45-1.27-3.45-1.12,0-2.2,1.05-3.26,3.16a1.05,1.05,0,0,1-.56-.84c0-.77.69-1.78,2.08-3s2.53-1.85,3.4-1.85a2,2,0,0,1,1.92,1.22,14.11,14.11,0,0,1,.73,4.48l.39,7.52c.15,2.86.6,4.29,1.38,4.29,1.15,0,2.59-1.32,4.31-4a22.32,22.32,0,0,0,3.3-7.83l.83-4.39L140.35,19a37.1,37.1,0,0,0-1.5,5.71L136,39.11c-1.14,5.64-2.88,9.81-5.25,12.5q-5.3,6-12.29,6a10,10,0,0,1-3.28-.65l2.64-2.92A10.11,10.11,0,0,0,122,55q4.47,0,6.7-2.9t3.74-10.61Z"/><path class="cls-1" d="M155.62,32.74a1,1,0,0,1,.54.86,4.86,4.86,0,0,1-1.37,2.28q-3.67,4.24-7.27,4.25a4.43,4.43,0,0,1-3.6-1.74A6.78,6.78,0,0,1,142.5,34,16.7,16.7,0,0,1,146.2,24q3.7-5,7.34-5c1.75,0,2.62.94,2.62,2.82,0,2.1-1,4.16-3.06,6.16a16.44,16.44,0,0,1-7.47,4.19q.44,5.16,4.09,5.16T155.62,32.74Zm-9.9-3.18a3.36,3.36,0,0,0,1.14.22,7.15,7.15,0,0,0,4.66-1.64,4.82,4.82,0,0,0,2-3.82A2.24,2.24,0,0,0,151,21.81c-1.23,0-2.34.73-3.34,2.2A12.5,12.5,0,0,0,145.72,29.56Z"/><path class="cls-1" d="M174.48,31.13A29.28,29.28,0,0,1,169,37.51q-3.07,2.63-5,2.62c-1.42,0-2.13-.94-2.13-2.83a32.94,32.94,0,0,1,.28-3.45l.77-7c0-.1,0-.52.11-1.25l.13-1.39c0-.42.06-.79.06-1.12,0-.83-.23-1.24-.71-1.24-1.08,0-2.26,1.21-3.52,3.65a.91.91,0,0,1-.41-.69c0-.89.8-2.07,2.38-3.54S163.74,19,164.67,19c1.19,0,1.79.82,1.79,2.45a12,12,0,0,1-.09,1.36l-.19,1.65L166,26.28l-.67,6.14a28,28,0,0,0-.17,3.18c0,1,.36,1.48,1.09,1.48,1.61,0,3.44-1.33,5.47-4a17.08,17.08,0,0,0,3.61-7.91l.75-5.09,3.48-1.18c-.41,1.66-.71,3.14-.91,4.44l-1.29,9c-.08.54-.13,1-.17,1.37L177,34.87c-.08.73-.13,1.25-.13,1.55,0,.61.18.92.52.92q1.83,0,3.72-4c.38.23.58.46.58.69,0,.5-.63,1.51-1.87,3q-2.52,3.09-4.67,3.09c-1,0-1.57-.7-1.57-2.1a14.19,14.19,0,0,1,.15-1.79l.24-1.71c.14-.94.22-1.57.27-1.9Z"/><path class="cls-1" d="M192.45,30.16l-.67-1.76c-.48-1.24-.75-1.92-.79-2l-1-2.3c-.73-1.64-1.44-2.47-2.11-2.47-1,0-1.82,1-2.41,2.86-.43-.16-.64-.39-.64-.69a4.94,4.94,0,0,1,1.55-3.05A4.15,4.15,0,0,1,189.11,19c1.61,0,3.26,2.31,5,6.92l.44,1.14.5-.79Q199.61,19,202.74,19a4.9,4.9,0,0,1,1.91.48l-2.6,2.72a3.07,3.07,0,0,0-.73-.15c-1.58,0-3.46,1.82-5.64,5.44l-.62,1,.49,1.32q2.83,7.8,4.66,7.8c1.13,0,2-.8,2.57-2.4.4.25.6.52.6.79q0,1.08-1.71,2.58a4.94,4.94,0,0,1-3,1.5q-2.49,0-5.09-7l-.6-1.59-.63,1.09Q188,40.14,184,40.13a4.35,4.35,0,0,1-2.56-.74L183.94,37a2.06,2.06,0,0,0,1.5.65q2.43,0,5.46-4.91L192,30.88Z"/><path class="cls-1" d="M222.16,22.9l-3.48,3.35a11.61,11.61,0,0,1,3.49-12.17,14.62,14.62,0,0,1,10-3.53c.56,0,1.09,0,1.57.06s.89.07,1,.07H235a9.63,9.63,0,0,0-.08,1.07q0,4.42,5.72,11.26l1.61,1.89,1.41,1.7a36,36,0,0,1,3.56,4.94l1.42-11.67q1.37-10.68,5-15Q257.79,0,262.78,0a10.4,10.4,0,0,1,3.7.69L263.3,3.85a7.12,7.12,0,0,0-3.47-1.14,5.5,5.5,0,0,0-5.06,3.06q-1.74,3.06-2.7,10.67l-2.26,18.19-2.72,5.59a27.14,27.14,0,0,0-2.11-6,43.78,43.78,0,0,0-4.45-6.06l-1.66-2a36.73,36.73,0,0,1-5.4-8.25l-1.06,9.64-.26,2.32A11.72,11.72,0,0,1,231,34.08a11,11,0,0,1-3,3l4.75.43-2.56,2.5-9.34-.48,2.77-2.66,2.39.21a6.56,6.56,0,0,0,2.25-2.55,16.39,16.39,0,0,0,1-4.56l.19-1.87,1.65-14.86h-1q-8.93,0-8.93,5.91A7.77,7.77,0,0,0,222.16,22.9Z"/><path class="cls-1" d="M260.9,40.13c-3.22,0-4.84-2.13-4.84-6.4a15.81,15.81,0,0,1,3.79-9.94Q263.63,19,267.69,19c3.26,0,4.9,2.14,4.9,6.41a15.82,15.82,0,0,1-3.79,9.94Q265,40.13,260.9,40.13Zm2.6-2.4q2.46,0,4.13-2.75a13.06,13.06,0,0,0,1.67-6.86q0-6.71-4.17-6.7-2.44,0-4.11,2.76A13,13,0,0,0,259.35,31Q259.35,37.73,263.5,37.73Z"/><path class="cls-1" d="M288.05,32.74a1,1,0,0,1,.54.86,4.86,4.86,0,0,1-1.37,2.28q-3.68,4.24-7.27,4.25a4.43,4.43,0,0,1-3.6-1.74A6.78,6.78,0,0,1,274.93,34a16.7,16.7,0,0,1,3.7-9.92q3.71-5,7.34-5c1.75,0,2.62.94,2.62,2.82,0,2.1-1,4.16-3.06,6.16a16.44,16.44,0,0,1-7.47,4.19q.44,5.16,4.09,5.16T288.05,32.74Zm-9.9-3.18a3.32,3.32,0,0,0,1.14.22A7.15,7.15,0,0,0,284,28.14a4.82,4.82,0,0,0,2-3.82,2.24,2.24,0,0,0-2.56-2.51c-1.23,0-2.34.73-3.34,2.2A12.5,12.5,0,0,0,278.15,29.56Zm4-13.32a5.45,5.45,0,0,0-2-2.4l2.55-2.41a5.53,5.53,0,0,1,1.92,2.41Zm6.94,0a5.45,5.45,0,0,0-2-2.4l2.55-2.41a5.53,5.53,0,0,1,1.92,2.41Z"/><path class="cls-1" d="M300.07,33.26c.41.2.62.46.62.77q0,1.55-2.31,3.83c-1.54,1.51-2.84,2.27-3.88,2.27s-1.78-.86-1.78-2.58a27,27,0,0,1,.19-3.2l.24-1.91,1.65-14.95a20.61,20.61,0,0,1,4.7-11.41q3.92-4.57,9-4.58a8.9,8.9,0,0,1,2.1.22l-3,3.11a7.3,7.3,0,0,0-2.36-.34,5.51,5.51,0,0,0-4.82,2.27c-1.06,1.51-1.8,4.06-2.2,7.67l-2,18a29.92,29.92,0,0,0-.24,3c0,1.29.22,1.93.66,1.93s1.15-.42,1.87-1.27A8.38,8.38,0,0,0,300.07,33.26Z"/><path class="cls-1" d="M58.57,86.06c.41.2.62.46.62.77q0,1.55-2.31,3.83T53,92.93c-1.18,0-1.78-.86-1.78-2.58a29.34,29.34,0,0,1,.19-3.2l.24-1.91,1.66-14.95A20.61,20.61,0,0,1,58,58.88c2.61-3.05,5.63-4.58,9-4.58a9,9,0,0,1,2.11.22l-3,3.11a7.3,7.3,0,0,0-2.36-.34,5.53,5.53,0,0,0-4.82,2.27c-1.06,1.51-1.79,4.06-2.19,7.67l-2,18a29.11,29.11,0,0,0-.23,3c0,1.29.22,1.93.66,1.93s1.15-.42,1.86-1.27A8.38,8.38,0,0,0,58.57,86.06Z"/><path class="cls-1" d="M74.64,85.54a1,1,0,0,1,.54.86c0,.45-.46,1.2-1.38,2.28q-3.67,4.25-7.26,4.25a4.46,4.46,0,0,1-3.61-1.74,6.78,6.78,0,0,1-1.42-4.44,16.7,16.7,0,0,1,3.71-9.92q3.7-5,7.33-5c1.75,0,2.63.94,2.63,2.82,0,2.1-1,4.16-3.07,6.16A16.46,16.46,0,0,1,64.65,85c.28,3.44,1.65,5.16,4.08,5.16S73.11,88.61,74.64,85.54Zm-9.91-3.18a3.41,3.41,0,0,0,1.14.22,7.17,7.17,0,0,0,4.67-1.64,4.81,4.81,0,0,0,2-3.82A2.23,2.23,0,0,0,70,74.61c-1.24,0-2.35.73-3.34,2.2A12.5,12.5,0,0,0,64.73,82.36Z"/><path class="cls-1" d="M76.57,91.77l3-2.43a5.56,5.56,0,0,0,4.22,1.79q3.1,0,3.1-3c0-1.1-.94-2.64-2.84-4.62l-1.23-1.27C81,80.38,80.1,78.86,80.1,77.7a5.15,5.15,0,0,1,2.16-4.19,8.32,8.32,0,0,1,5.31-1.7,12.55,12.55,0,0,1,3.76.65l-2.58,2.38a5.91,5.91,0,0,0-3.63-1.22q-2.34,0-2.34,1.95,0,1.4,2.6,4.11l1.33,1.41q3,3.1,3,5a6,6,0,0,1-2.6,4.78,9.35,9.35,0,0,1-6,2.07A9.16,9.16,0,0,1,76.57,91.77Z"/><path class="cls-1" d="M115.31,90l5.65.32-2.56,2.5-9.9-.48,2.77-2.66,2.32.26q2.63-1.65,3.22-6.77l.24-2.08,1.8-16.29q-9.75,1.85-9.75,7.37a8.2,8.2,0,0,0,.92,3.93l-3.46,3.05a12.7,12.7,0,0,1-.45-3.35,11.38,11.38,0,0,1,5-9.53q5-3.67,12.84-3.68,10.58,0,10.57,6.92A9.28,9.28,0,0,1,130.56,77a17.31,17.31,0,0,1-10,3.48q-.52,5-1.35,6.54C118.67,88.06,117.37,89.06,115.31,90Zm7-25.46L120.8,78.28a12.71,12.71,0,0,0,2.11.22q8.25,0,8.25-7.2Q131.16,64.57,122.34,64.57Z"/><path class="cls-1" d="M153.17,63.48q-1,4.92-1.17,6.61l-.68,6h12l.09-.78q1.4-12.48,4.94-17,4.33-5.5,9.62-5.5a9.63,9.63,0,0,1,3.67.69l-3.18,3.11a6.37,6.37,0,0,0-3.58-1.22,5.08,5.08,0,0,0-5,3.6q-1.43,3.6-2.81,16.29l-.33,2.92q-.6,5.66-.6,8.75c0,1.22.52,1.82,1.57,1.82a6.12,6.12,0,0,0,2.88-1,3.38,3.38,0,0,1,.08.53c0,.43-.38.82-1.13,1.16l-1.25.58-6.32,2.88q0-4,1-13.51l.08-.77h-12l-.21,1.95L150.56,83a9.83,9.83,0,0,1-1.32,4.4A9.46,9.46,0,0,1,145.58,90l5.06.32-2.57,2.5-9.3-.48,2.75-2.66,2.34.26a5.79,5.79,0,0,0,2.34-2.74,26.87,26.87,0,0,0,1.12-6.11l1.67-15h-.67q-9,0-8.95,5.91a7.77,7.77,0,0,0,1,3.71l-3.5,3.35a11.63,11.63,0,0,1-.49-3.33,10.87,10.87,0,0,1,4.12-8.89q4.13-3.36,11-3.35Z"/><path class="cls-1" d="M183.07,90l5.65.32-2.56,2.5-9.9-.48L179,89.71l2.32.26c1.75-1.1,2.82-3.36,3.23-6.77l.23-2.08,1.81-16.29q-9.76,1.85-9.76,7.37a8.09,8.09,0,0,0,.93,3.93l-3.46,3.05a12.7,12.7,0,0,1-.45-3.35,11.37,11.37,0,0,1,5-9.53q5-3.67,12.85-3.68,10.56,0,10.57,6.92A9.29,9.29,0,0,1,198.32,77a17.31,17.31,0,0,1-10,3.48q-.51,5-1.35,6.54C186.43,88.06,185.13,89.06,183.07,90Zm7-25.46-1.54,13.71a12.72,12.72,0,0,0,2.12.22q8.25,0,8.25-7.2Q198.93,64.57,190.1,64.57Z"/><path class="cls-1" d="M207.22,92.93q-4.83,0-4.83-6.4a15.85,15.85,0,0,1,3.78-9.94Q210,71.82,214,71.81c3.26,0,4.9,2.14,4.9,6.41a15.81,15.81,0,0,1-3.78,9.94Q211.33,92.93,207.22,92.93Zm2.6-2.4c1.65,0,3-.92,4.13-2.75a13.06,13.06,0,0,0,1.67-6.86q0-6.7-4.17-6.7-2.44,0-4.11,2.76a13,13,0,0,0-1.67,6.84Q205.67,90.53,209.82,90.53Z"/><path class="cls-1" d="M226.06,92.87a61.09,61.09,0,0,0-.71-9.47l-.71-4.54q-.6-3.89-2.06-4c-1.09-.08-1.85,1-2.28,3.23a.84.84,0,0,1-.68-.86,5.78,5.78,0,0,1,1.53-3.53c1-1.26,2-1.89,2.83-1.89q1.89,0,3,3.12a52.76,52.76,0,0,1,1.86,10.7l.13,1.31a76.79,76.79,0,0,0,5.65-12.68l2.55-2.45c.17,1.94.33,3.43.49,4.49l.52,3.44.36,2.41.94,5.5.52-.84q5-8.11,5-10.42a2.56,2.56,0,0,0-1.31-2.13l2.59-2.45a2.64,2.64,0,0,1,1.59,2.35c0,1.17-.81,3.11-2.45,5.82l-1.31,2.17L242.45,85a31.15,31.15,0,0,0-2.54,5.39l-2.57,2.58q-.3-3.87-1.05-8.14l-.37-2-.93-5-1,1.85a72.6,72.6,0,0,0-4.63,10.29Z"/><path class="cls-1" d="M262,85.54a1,1,0,0,1,.54.86c0,.45-.46,1.2-1.38,2.28-2.44,2.83-4.87,4.25-7.26,4.25a4.46,4.46,0,0,1-3.61-1.74,6.83,6.83,0,0,1-1.41-4.44,16.68,16.68,0,0,1,3.7-9.92q3.7-5,7.34-5c1.75,0,2.62.94,2.62,2.82,0,2.1-1,4.16-3.06,6.16A16.44,16.44,0,0,1,252,85q.44,5.16,4.08,5.16T262,85.54Zm-9.9-3.18a3.32,3.32,0,0,0,1.14.22,7.15,7.15,0,0,0,4.66-1.64,4.82,4.82,0,0,0,2-3.82,2.24,2.24,0,0,0-2.56-2.51c-1.23,0-2.35.73-3.34,2.2A12.37,12.37,0,0,0,252.08,82.36Z"/><path class="cls-1" d="M272.3,80.86q4.77-9,9.38-9a5.69,5.69,0,0,1,2.41.56l-3,3.31a3.53,3.53,0,0,0-1.76-.39q-2.24,0-4.71,3.62a16.53,16.53,0,0,0-2.91,7.53l-.58,5.25-3.19,1.07.06-.64.15-1.4.17-1.4,1.13-10.22.13-1.12a18.34,18.34,0,0,0,.15-2.06c0-.88-.24-1.31-.73-1.31q-1.73,0-3.42,3.67a1,1,0,0,1-.52-.84c.05-.87.85-2,2.4-3.47s2.79-2.16,3.69-2.16c1.22,0,1.83.81,1.83,2.41a15.4,15.4,0,0,1-.1,1.57l-.15,1.5-.2,1.81Z"/><path class="cls-1" d="M282.24,91.77l3-2.43a5.56,5.56,0,0,0,4.22,1.79q3.1,0,3.1-3c0-1.1-.94-2.64-2.84-4.62l-1.23-1.27c-1.8-1.87-2.69-3.39-2.69-4.55a5.15,5.15,0,0,1,2.16-4.19,8.32,8.32,0,0,1,5.31-1.7,12.55,12.55,0,0,1,3.76.65l-2.58,2.38a5.91,5.91,0,0,0-3.63-1.22q-2.34,0-2.34,1.95,0,1.4,2.6,4.11l1.33,1.41q3,3.1,3,5a6,6,0,0,1-2.6,4.78,9.37,9.37,0,0,1-6,2.07A9.16,9.16,0,0,1,282.24,91.77Z"/><path class="cls-1" d="M314.62,93.23a7.28,7.28,0,0,0-2.51-3l3.18-3a9.21,9.21,0,0,1,2.47,3Zm2.6-11.32-2.71,2,.26-3.59q.35-4.62.34-8.11a39.55,39.55,0,0,0-.83-8.92l3.91-1.51a28.05,28.05,0,0,1,.25,3.79,90.45,90.45,0,0,1-.53,9q-.29,2.73-.33,3Z"/><path class="cls-1" d="M325.9,93.23a7.28,7.28,0,0,0-2.51-3l3.17-3a9.11,9.11,0,0,1,2.48,3Zm2.6-11.32-2.71,2,.26-3.59q.34-4.62.34-8.11a38.91,38.91,0,0,0-.84-8.92l3.92-1.51a28.05,28.05,0,0,1,.25,3.79,90.45,90.45,0,0,1-.53,9q-.29,2.73-.33,3Z"/><path class="cls-1" d="M337.18,93.23a7.23,7.23,0,0,0-2.52-3l3.18-3a9,9,0,0,1,2.47,3Zm2.6-11.32-2.71,2,.26-3.59q.35-4.62.34-8.11a38.91,38.91,0,0,0-.84-8.92l3.91-1.51a26.52,26.52,0,0,1,.26,3.79,90.45,90.45,0,0,1-.53,9q-.29,2.73-.33,3Z"/><path class="cls-1" d="M17.15,142.34,13.39,146a136.14,136.14,0,0,0-3-15.49A68.27,68.27,0,0,0,7.47,121c-.68-1.45-1.57-2.18-2.66-2.18-1.87,0-3.23,1.44-4.06,4.3-.53-.11-.78-.4-.75-.86a9.12,9.12,0,0,1,1.64-3.82,5.55,5.55,0,0,1,4.81-3,4.18,4.18,0,0,1,3.74,2.18q1.32,2.18,3.07,9,1.92,7.62,3.06,13.62,9.39-13.17,9.4-18.35a3.15,3.15,0,0,0-1.63-2.94l3.15-3.48a4,4,0,0,1,2.15,3.72q0,3.18-5.17,11.4l-2.43,3.74L20,137.05c-.1.16-.46.76-1.06,1.81l-1,1.74C17.84,140.84,17.56,141.42,17.15,142.34Z"/><path class="cls-1" d="M33.88,145.73q-4.83,0-4.83-6.4a15.85,15.85,0,0,1,3.78-9.94q3.78-4.77,7.84-4.78,4.9,0,4.9,6.41A15.81,15.81,0,0,1,41.79,141Q38,145.73,33.88,145.73Zm2.6-2.4q2.48,0,4.14-2.75a13.06,13.06,0,0,0,1.66-6.86q0-6.7-4.16-6.7-2.46,0-4.12,2.76a13,13,0,0,0-1.66,6.84Q32.34,143.32,36.48,143.33Z"/><path class="cls-1" d="M63.55,136.73A29.55,29.55,0,0,1,58,143.11q-3.08,2.63-5,2.62c-1.42,0-2.13-.94-2.13-2.83a32.94,32.94,0,0,1,.28-3.45l.77-7c0-.1,0-.52.1-1.25l.13-1.39a9.45,9.45,0,0,0,.07-1.12c0-.83-.24-1.24-.71-1.24-1.09,0-2.26,1.21-3.52,3.65a.91.91,0,0,1-.41-.69c0-.89.79-2.07,2.38-3.54s2.84-2.22,3.77-2.22c1.19,0,1.78.82,1.78,2.45,0,.39,0,.84-.08,1.36l-.2,1.65-.19,1.81L54.38,138a30.5,30.5,0,0,0-.17,3.18c0,1,.37,1.48,1.09,1.48,1.62,0,3.44-1.33,5.48-4a17.15,17.15,0,0,0,3.6-7.91l.75-5.09,3.48-1.18Q68,127,67.71,129l-1.3,9c-.07.54-.13,1-.17,1.37l-.15,1.18A14.35,14.35,0,0,0,66,142c0,.61.17.92.51.92q1.83,0,3.72-4c.39.23.58.46.58.69,0,.5-.62,1.51-1.87,3q-2.52,3.09-4.66,3.09c-1,0-1.57-.7-1.57-2.1a14.19,14.19,0,0,1,.15-1.79l.24-1.71c.13-.94.22-1.57.26-1.9Z"/><path class="cls-1" d="M71.29,144.57l3-2.42a5.57,5.57,0,0,0,4.22,1.78c2.06,0,3.1-1,3.1-3q0-1.65-2.85-4.62l-1.23-1.26q-2.69-2.82-2.69-4.56A5.15,5.15,0,0,1,77,126.31a8.35,8.35,0,0,1,5.32-1.7,12.6,12.6,0,0,1,3.76.65l-2.58,2.38a6,6,0,0,0-3.63-1.22q-2.34,0-2.34,2c0,.93.86,2.3,2.6,4.11l1.33,1.42q3,3.09,3,5a6,6,0,0,1-2.6,4.78,9.34,9.34,0,0,1-6,2.07A9.1,9.1,0,0,1,71.29,144.57Z"/><path class="cls-1" d="M113.57,138.34a1,1,0,0,1,.54.86c0,.45-.46,1.2-1.38,2.28q-3.67,4.25-7.26,4.25a4.45,4.45,0,0,1-3.61-1.74,6.78,6.78,0,0,1-1.42-4.44,16.72,16.72,0,0,1,3.71-9.92q3.7-5,7.33-5c1.75,0,2.63.94,2.63,2.82,0,2.1-1,4.16-3.07,6.16a16.46,16.46,0,0,1-7.46,4.19c.28,3.44,1.65,5.16,4.08,5.16S112,141.41,113.57,138.34Zm-9.91-3.18a3.41,3.41,0,0,0,1.14.22,7.17,7.17,0,0,0,4.67-1.64,4.81,4.81,0,0,0,2-3.82,2.23,2.23,0,0,0-2.55-2.51c-1.24,0-2.35.73-3.34,2.2A12.5,12.5,0,0,0,103.66,135.16ZM111,117l-.41.51a17.2,17.2,0,0,1-4.49,4.32l1.14-2.66a9.65,9.65,0,0,0,3.46-3.35l1.72-1.77a13.25,13.25,0,0,0,3.29,5.85l-1.81,1.93A14.86,14.86,0,0,1,111,117Z"/><path class="cls-1" d="M123.59,127.66l-1,9.5a37.69,37.69,0,0,0-.28,3.78q0,2.43,1.65,2.43t3.68-2.92a1.24,1.24,0,0,1,.32.73c0,.8-.71,1.76-2.12,2.88a6.34,6.34,0,0,1-3.64,1.67q-3,0-3-3.91a45.26,45.26,0,0,1,.37-4.66l1-9.5H116l2.5-2.49h2.28l.46-3.91,3.16-1.05-.52,5H133l-2.52,2.49Z"/><path class="cls-1" d="M145.17,138.34a1,1,0,0,1,.54.86c0,.45-.46,1.2-1.38,2.28-2.44,2.83-4.87,4.25-7.26,4.25a4.46,4.46,0,0,1-3.61-1.74,6.83,6.83,0,0,1-1.41-4.44,16.7,16.7,0,0,1,3.7-9.92q3.7-5,7.34-5c1.75,0,2.62.94,2.62,2.82,0,2.1-1,4.16-3.06,6.16a16.44,16.44,0,0,1-7.47,4.19q.44,5.16,4.08,5.16T145.17,138.34Zm-9.9-3.18a3.32,3.32,0,0,0,1.14.22,7.15,7.15,0,0,0,4.66-1.64,4.82,4.82,0,0,0,2-3.82,2.24,2.24,0,0,0-2.56-2.51c-1.23,0-2.35.73-3.34,2.2A12.37,12.37,0,0,0,135.27,135.16Z"/><path class="cls-1" d="M147.11,144.57l3-2.42a5.57,5.57,0,0,0,4.22,1.78c2.06,0,3.1-1,3.1-3q0-1.65-2.85-4.62l-1.23-1.26q-2.69-2.82-2.69-4.56a5.15,5.15,0,0,1,2.16-4.19,8.35,8.35,0,0,1,5.32-1.7,12.65,12.65,0,0,1,3.76.65l-2.58,2.38a6,6,0,0,0-3.63-1.22c-1.56,0-2.35.65-2.35,2q0,1.4,2.6,4.11l1.34,1.42q3,3.09,3,5a6,6,0,0,1-2.6,4.78,9.34,9.34,0,0,1-6,2.07A9.1,9.1,0,0,1,147.11,144.57Z"/><path class="cls-1" d="M185.05,138.86c.41.2.62.46.62.77q0,1.55-2.31,3.83t-3.88,2.27c-1.19,0-1.78-.86-1.78-2.58a27,27,0,0,1,.19-3.2l.24-1.91,1.66-14.95a20.61,20.61,0,0,1,4.69-11.41q3.92-4.58,9-4.58a9.05,9.05,0,0,1,2.11.22l-3.05,3.11a7.58,7.58,0,0,0-2.36-.34,5.51,5.51,0,0,0-4.82,2.27c-1.06,1.51-1.79,4.06-2.2,7.67l-2,18a29.92,29.92,0,0,0-.24,3c0,1.29.22,1.93.67,1.93s1.15-.42,1.86-1.27A8.38,8.38,0,0,0,185.05,138.86Z"/><path class="cls-1" d="M201.12,138.34a1,1,0,0,1,.53.86,4.77,4.77,0,0,1-1.37,2.28q-3.67,4.25-7.26,4.25a4.45,4.45,0,0,1-3.61-1.74,6.78,6.78,0,0,1-1.42-4.44,16.72,16.72,0,0,1,3.71-9.92q3.7-5,7.33-5c1.75,0,2.62.94,2.62,2.82,0,2.1-1,4.16-3.06,6.16a16.46,16.46,0,0,1-7.46,4.19q.42,5.16,4.08,5.16T201.12,138.34Zm-9.91-3.18a3.41,3.41,0,0,0,1.14.22,7.13,7.13,0,0,0,4.66-1.64,4.79,4.79,0,0,0,2-3.82,2.23,2.23,0,0,0-2.55-2.51c-1.24,0-2.35.73-3.35,2.2A12.62,12.62,0,0,0,191.21,135.16Z"/><path class="cls-1" d="M203.05,144.57l3-2.42a5.59,5.59,0,0,0,4.22,1.78q3.1,0,3.1-3,0-1.65-2.84-4.62l-1.23-1.26q-2.7-2.82-2.7-4.56a5.15,5.15,0,0,1,2.16-4.19,8.37,8.37,0,0,1,5.32-1.7,12.55,12.55,0,0,1,3.76.65l-2.58,2.38a6,6,0,0,0-3.63-1.22q-2.34,0-2.34,2,0,1.4,2.6,4.11l1.33,1.42q3,3.09,3,5a6,6,0,0,1-2.6,4.78,9.37,9.37,0,0,1-6,2.07A9.13,9.13,0,0,1,203.05,144.57Z"/><path class="cls-1" d="M249.07,144.42l-3.2,1.31.07-.6.17-1.59.15-1.5,1.08-9.65.15-1.09a16.34,16.34,0,0,0,.09-1.68c0-1.39-.42-2.08-1.27-2.08q-2,0-4.61,4a17.86,17.86,0,0,0-3,7.7l-.55,5.15-3.22,1.31.07-.6.17-1.59.17-1.5,1.1-10,.13-1.14a20.07,20.07,0,0,0,.15-2.15c0-.91-.23-1.37-.69-1.37-1.07,0-2.23,1.21-3.48,3.65-.33-.27-.5-.51-.5-.71,0-.86.79-2,2.36-3.51s2.81-2.23,3.73-2.23c1.23,0,1.85.79,1.85,2.37,0,.4,0,.94-.11,1.61l-.17,1.74-.18,1.46-.17,1.52.6-.94q4.82-7.75,9-7.76c1.33,0,2,1,2,2.88,0,.33-.06,1-.18,2.09l-.21,2-.3,2.69a24.81,24.81,0,0,1,4.74-6.89c1.82-1.82,3.45-2.74,4.88-2.74s2.13.92,2.13,2.75a18.6,18.6,0,0,1-.25,2.82l-1.14,8a27.54,27.54,0,0,0-.38,3.82q0,1.14.63,1.14c.49,0,1.1-.41,1.84-1.22a10,10,0,0,0,1.79-2.77c.39.25.58.49.58.7q0,1.37-2.4,3.64c-1.61,1.51-2.88,2.27-3.83,2.27-1.22,0-1.83-.81-1.83-2.45a36.09,36.09,0,0,1,.47-4.79l.76-5.18c0-.18.08-.59.15-1.22l.15-1.31a11.51,11.51,0,0,0,.11-1.42c0-1.22-.4-1.82-1.2-1.82q-2,0-4.68,4a17.69,17.69,0,0,0-3.07,7.7Z"/><path class="cls-1" d="M280.05,138.34a1,1,0,0,1,.54.86c0,.45-.46,1.2-1.38,2.28q-3.68,4.25-7.26,4.25a4.46,4.46,0,0,1-3.61-1.74,6.83,6.83,0,0,1-1.42-4.44,16.72,16.72,0,0,1,3.71-9.92q3.71-5,7.34-5c1.74,0,2.62.94,2.62,2.82,0,2.1-1,4.16-3.06,6.16a16.44,16.44,0,0,1-7.47,4.19q.44,5.16,4.08,5.16T280.05,138.34Zm-9.9-3.18a3.32,3.32,0,0,0,1.14.22,7.15,7.15,0,0,0,4.66-1.64,4.82,4.82,0,0,0,2-3.82,2.24,2.24,0,0,0-2.56-2.51c-1.23,0-2.35.73-3.34,2.2A12.37,12.37,0,0,0,270.15,135.16Z"/><path class="cls-1" d="M293.76,138.92c.39.23.58.45.58.67,0,.51-.62,1.53-1.87,3q-2.52,3.09-4.66,3.09c-1.05,0-1.57-.69-1.57-2.08q0-.89.64-5.41l.84-5.83.22-1.48.17-1.18a9.6,9.6,0,0,0,.11-1.27c0-.72-.21-1.07-.6-1.07-1.12,0-2.31,1.22-3.6,3.67a1,1,0,0,1-.4-.73c0-.87.8-2,2.41-3.52s2.9-2.22,3.86-2.22,1.61.75,1.61,2.24c0,.28-.06.87-.17,1.75l-.19,1.44q0,.18-.24,1.74l-.88,6.14-.22,1.37a26,26,0,0,0-.27,2.73c0,.61.17.92.53.92Q291.86,142.94,293.76,138.92Zm-4.3-17.08,1.81-4.44a10.58,10.58,0,0,0,4-2.73,1.05,1.05,0,0,1,.21.62Q295.43,118.17,289.46,121.84Z"/><path class="cls-1" d="M305.08,138.86c.42.2.62.46.62.77q0,1.55-2.31,3.83t-3.87,2.27c-1.19,0-1.79-.86-1.79-2.58a27.08,27.08,0,0,1,.2-3.2l.23-1.91,1.66-14.95a20.68,20.68,0,0,1,4.69-11.41q3.93-4.58,9-4.58a8.9,8.9,0,0,1,2.1.22l-3,3.11a7.58,7.58,0,0,0-2.36-.34,5.5,5.5,0,0,0-4.81,2.27c-1.07,1.51-1.8,4.06-2.2,7.67l-2,18c-.15,1.39-.23,2.39-.23,3,0,1.29.22,1.93.66,1.93s1.15-.42,1.86-1.27A8.21,8.21,0,0,0,305.08,138.86Z"/><path class="cls-1" d="M316.81,138.86c.42.2.62.46.62.77q0,1.55-2.31,3.83t-3.87,2.27c-1.19,0-1.79-.86-1.79-2.58a27.08,27.08,0,0,1,.2-3.2l.23-1.91,1.66-14.95a20.68,20.68,0,0,1,4.69-11.41q3.93-4.58,9-4.58a8.9,8.9,0,0,1,2.1.22l-3.05,3.11a7.54,7.54,0,0,0-2.36-.34,5.5,5.5,0,0,0-4.81,2.27c-1.07,1.51-1.8,4.06-2.2,7.67l-2,18c-.15,1.39-.23,2.39-.23,3,0,1.29.22,1.93.66,1.93s1.15-.42,1.86-1.27A8,8,0,0,0,316.81,138.86Z"/><path class="cls-1" d="M332.88,138.34a1,1,0,0,1,.54.86c0,.45-.46,1.2-1.38,2.28q-3.68,4.25-7.26,4.25a4.46,4.46,0,0,1-3.61-1.74,6.83,6.83,0,0,1-1.42-4.44,16.72,16.72,0,0,1,3.71-9.92q3.71-5,7.34-5c1.74,0,2.62.94,2.62,2.82,0,2.1-1,4.16-3.06,6.16a16.44,16.44,0,0,1-7.47,4.19q.44,5.16,4.08,5.16T332.88,138.34Zm-9.9-3.18a3.32,3.32,0,0,0,1.14.22,7.15,7.15,0,0,0,4.66-1.64,4.82,4.82,0,0,0,2-3.82,2.24,2.24,0,0,0-2.56-2.51c-1.23,0-2.35.73-3.34,2.2A12.37,12.37,0,0,0,323,135.16Z"/><path class="cls-1" d="M351.74,136.73a29.55,29.55,0,0,1-5.53,6.38q-3.07,2.63-5,2.62c-1.42,0-2.13-.94-2.13-2.83a32.94,32.94,0,0,1,.28-3.45l.77-7c0-.1.05-.52.11-1.25l.12-1.39a9.45,9.45,0,0,0,.07-1.12c0-.83-.24-1.24-.71-1.24-1.09,0-2.26,1.21-3.52,3.65a.91.91,0,0,1-.41-.69c0-.89.79-2.07,2.38-3.54s2.84-2.22,3.77-2.22c1.19,0,1.78.82,1.78,2.45,0,.39,0,.84-.08,1.36l-.2,1.65-.18,1.81-.67,6.14a28,28,0,0,0-.18,3.18c0,1,.37,1.48,1.1,1.48q2.42,0,5.47-4a17.28,17.28,0,0,0,3.61-7.91l.74-5.09,3.48-1.18q-.6,2.49-.9,4.44l-1.3,9c-.07.54-.13,1-.17,1.37l-.15,1.18a14.35,14.35,0,0,0-.13,1.55c0,.61.17.92.52.92q1.81,0,3.71-4c.39.23.58.46.58.69,0,.5-.62,1.51-1.87,3-1.67,2.06-3.23,3.09-4.66,3.09-1.05,0-1.57-.7-1.57-2.1a14.19,14.19,0,0,1,.15-1.79l.24-1.71c.13-.94.22-1.57.27-1.9Z"/><path class="cls-1" d="M367.86,133.66q4.77-9,9.39-9a5.68,5.68,0,0,1,2.4.56l-3,3.31a3.55,3.55,0,0,0-1.76-.39q-2.24,0-4.72,3.62a16.53,16.53,0,0,0-2.91,7.53l-.58,5.25-3.19,1.07.06-.64.15-1.4.18-1.4L365,131.9l.13-1.12a18.19,18.19,0,0,0,.15-2.06c0-.88-.24-1.31-.73-1.31q-1.72,0-3.42,3.67a1,1,0,0,1-.51-.84c0-.87.84-2,2.4-3.47s2.78-2.16,3.69-2.16c1.22,0,1.83.81,1.83,2.41,0,.39,0,.91-.11,1.57l-.15,1.5-.2,1.81Z"/><path class="cls-1" d="M377.8,144.57l3-2.42a5.57,5.57,0,0,0,4.22,1.78c2.06,0,3.1-1,3.1-3q0-1.65-2.85-4.62L384,135.06q-2.68-2.82-2.69-4.56a5.15,5.15,0,0,1,2.16-4.19,8.34,8.34,0,0,1,5.31-1.7,12.55,12.55,0,0,1,3.76.65L390,127.64a6,6,0,0,0-3.63-1.22c-1.57,0-2.35.65-2.35,2q0,1.4,2.6,4.11L388,133.9q3,3.09,3,5a6,6,0,0,1-2.6,4.78,9.34,9.34,0,0,1-6,2.07A9.17,9.17,0,0,1,377.8,144.57Z"/></g></g></svg>