<svg xmlns="http://www.w3.org/2000/svg" xmlns:xlink="http://www.w3.org/1999/xlink" viewBox="0 0 467.37 593.85"><defs><style>.cls-1{isolation:isolate;}.cls-2{fill:url(#linear-gradient);}.cls-3{fill:#d5dce0;}.cls-10,.cls-11,.cls-3,.cls-9{opacity:0.4;}.cls-3,.cls-4{mix-blend-mode:multiply;}.cls-4{fill:url(#linear-gradient-2);}.cls-5{fill:url(#linear-gradient-3);}.cls-6{fill:url(#linear-gradient-4);}.cls-12,.cls-7{opacity:0.5;}.cls-10,.cls-7,.cls-8,.cls-9{mix-blend-mode:screen;}.cls-7{fill:url(#linear-gradient-5);}.cls-8{opacity:0.6;fill:url(#linear-gradient-6);}.cls-9{fill:url(#linear-gradient-7);}.cls-10{fill:url(#linear-gradient-8);}.cls-11{fill:url(#linear-gradient-9);}.cls-12{fill:url(#linear-gradient-10);}.cls-13{fill:url(#linear-gradient-11);}.cls-14{fill:url(#linear-gradient-12);}.cls-15{fill:url(#linear-gradient-13);}.cls-16{fill:url(#linear-gradient-14);}.cls-17{fill:url(#linear-gradient-15);}.cls-18{fill:url(#linear-gradient-16);}.cls-19{fill:url(#linear-gradient-17);}.cls-20{fill:url(#linear-gradient-18);}.cls-21{fill:url(#linear-gradient-19);}.cls-22{fill:url(#linear-gradient-20);}.cls-23{fill:url(#linear-gradient-21);}</style><linearGradient id="linear-gradient" x1="159.69" y1="526.37" x2="159.69" y2="1656.8" gradientUnits="userSpaceOnUse"><stop offset="0" stop-color="#edf8fc"/><stop offset="1" stop-color="#caebf9"/></linearGradient><linearGradient id="linear-gradient-2" x1="286.38" y1="391.75" x2="288.46" y2="443.4" gradientTransform="translate(0.45 -1.32) rotate(0.07)" gradientUnits="userSpaceOnUse"><stop offset="0" stop-color="#dee9f6"/><stop offset="0.64" stop-color="#fff"/><stop offset="0.85" stop-color="#e7eff8"/><stop offset="1" stop-color="#d3e1f3"/></linearGradient><linearGradient id="linear-gradient-3" x1="-2037.91" y1="3760.99" x2="-1998.01" y2="3760.99" gradientTransform="translate(2316.87 -3385.74) rotate(0.42)" gradientUnits="userSpaceOnUse"><stop offset="0" stop-color="#6d6f22"/><stop offset="0.3" stop-color="#4a4117"/><stop offset="0.7" stop-color="#2f2f19"/><stop offset="1" stop-color="#062838"/></linearGradient><linearGradient id="linear-gradient-4" x1="-2016.44" y1="3778.22" x2="-2016.44" y2="3401.64" gradientTransform="translate(2316.87 -3385.74) rotate(0.42)" gradientUnits="userSpaceOnUse"><stop offset="0.01" stop-color="#185b4e"/><stop offset="1" stop-color="#1c7933"/></linearGradient><linearGradient id="linear-gradient-5" x1="-2103.36" y1="3590.57" x2="-2018.82" y2="3552.44" gradientTransform="translate(2316.87 -3385.74) rotate(0.42)" gradientUnits="userSpaceOnUse"><stop offset="0" stop-color="#e5e244"/><stop offset="0.99" stop-color="#003e31"/></linearGradient><linearGradient id="linear-gradient-6" x1="-2089.44" y1="3512.76" x2="-2011.78" y2="3458.17" xlink:href="#linear-gradient-5"/><linearGradient id="linear-gradient-7" x1="-2139.78" y1="3745.12" x2="-2008.15" y2="3649.04" xlink:href="#linear-gradient-5"/><linearGradient id="linear-gradient-8" x1="-2174.73" y1="3613.42" x2="-2067.98" y2="3613.42" xlink:href="#linear-gradient-5"/><linearGradient id="linear-gradient-9" x1="-2113.33" y1="3599.32" x2="-1793.36" y2="3752.68" gradientTransform="translate(2316.87 -3385.74) rotate(0.42)" gradientUnits="userSpaceOnUse"><stop offset="0" stop-color="#074623"/><stop offset="0.71" stop-color="#233972"/><stop offset="1" stop-color="#024063"/></linearGradient><linearGradient id="linear-gradient-10" x1="-2116.44" y1="3569.1" x2="-2149.21" y2="3621.23" xlink:href="#linear-gradient-9"/><linearGradient id="linear-gradient-11" x1="227.35" y1="72.82" x2="227.35" y2="120.92" xlink:href="#linear-gradient-2"/><linearGradient id="linear-gradient-12" x1="198.18" y1="177.14" x2="198.18" y2="222.65" xlink:href="#linear-gradient-2"/><linearGradient id="linear-gradient-13" x1="352.56" y1="223.07" x2="352.56" y2="261.33" xlink:href="#linear-gradient-2"/><linearGradient id="linear-gradient-14" x1="318.07" y1="113.89" x2="318.07" y2="150.25" xlink:href="#linear-gradient-2"/><linearGradient id="linear-gradient-15" x1="241.39" y1="149.14" x2="241.39" y2="160.69" xlink:href="#linear-gradient-2"/><linearGradient id="linear-gradient-16" x1="297.6" y1="110.55" x2="297.6" y2="117.99" xlink:href="#linear-gradient-2"/><linearGradient id="linear-gradient-17" x1="275.97" y1="6.29" x2="275.97" y2="45.03" xlink:href="#linear-gradient-2"/><linearGradient id="linear-gradient-18" x1="182.77" y1="298.22" x2="182.77" y2="357.64" xlink:href="#linear-gradient-2"/><linearGradient id="linear-gradient-19" x1="401.12" y1="283.16" x2="401.12" y2="343.55" xlink:href="#linear-gradient-2"/><linearGradient id="linear-gradient-20" x1="300.98" y1="378.86" x2="303.04" y2="430.17" xlink:href="#linear-gradient-2"/><linearGradient id="linear-gradient-21" x1="254.76" y1="380.73" x2="256.83" y2="432.03" xlink:href="#linear-gradient-2"/></defs><title>tree1-left</title><g class="cls-1"><g id="Calque_2" data-name="Calque 2"><g id="Calque_1-2" data-name="Calque 1"><path class="cls-2" d="M233.34,505.44C18.86,488.69,0,480.31,254.56,434.26,453.35,398.29,144.77,395.54,0,396V593.85C240.64,563.58,421,520.07,233.34,505.44Z"/><path class="cls-3" d="M233.34,505.44C18.86,488.69,0,480.31,254.56,434.26,453.35,398.29,144.77,395.54,0,396V593.85C240.64,563.58,421,520.07,233.34,505.44Z"/><path class="cls-4" d="M260.55,406.12s-57.15-.44-38.77,9.12,15.18,9.94,3.55,14.9-2.9,12.42,45.33,10.83,1.67-10,31.73-9.91,74-10.26,44.07-19.38S260.55,406.12,260.55,406.12Z"/><path class="cls-5" d="M256.5,305.49s-2.21,78.59-5.75,106.09c0,0,11.54,15.57,39.86,4.34,0,0-5-71.19-2-106.14C288.61,309.78,277.67,292.48,256.5,305.49Z"/><path class="cls-6" d="M464.81,313.94c.43-.42.16-1.45-.54-1.32-3,.42-6,.9-8.92,1.42-14-.78-27.63-4.41-39.45-12.39-3.08-2.09-6.48-4.4-10-7a102.62,102.62,0,0,0,36.34,1.81c.86-.12,1.23-1.48.19-1.7-6.06-1.24-12.14-2.56-18.15-4,9.82-.76,18.77-4.19,24.67-12.28.47-.66-.31-1.33-.89-1.22a94.53,94.53,0,0,1-21.74,1.27c-17.15-5.73-36.72-19.79-46.61-30.1-1.71-1.77-3.31-3.65-4.85-5.55,14.15-1.22,30.68-5.1,38.75-15.95,1.48-2,.19-5.51-2.58-4.56-1.55.55-3.07,1-4.63,1.43-1.4.17-2.8.25-4.19.3a90.6,90.6,0,0,1-34-9.52,30,30,0,0,0,13.61-3.4,15,15,0,0,0,6-2.62c.45-.32.34-1.26-.3-1.22.12-.12.32-.27.44-.39a.71.71,0,0,0-.47-1.21,51.14,51.14,0,0,1-14.39-.8,60.81,60.81,0,0,1-13.92-9.31c11.72,1.66,23.69,1.61,32.67-2.41a8.13,8.13,0,0,0,1.67.25c1.44.22,2.13-1,2.08-2.27.7-.46,1.44-.93,2.09-1.41a1,1,0,0,0-.48-1.83c-2.42-.18-5.08-.37-7.89-.51-14.35-5.07-27.12-13.92-39.63-22.63-9.48-6.67-15.71-14.24-21-22.64,15.3,3,31.9,2,42.54-1.45a.94.94,0,0,0,.49-1.43s0-.06-.06-.11a.92.92,0,0,0-.42-.26v0h0c-.1,0-.12-.11-.21-.08a2.78,2.78,0,0,0-.37-.05c-11.3-2-22.09-12.15-31-19-2.6-2-5.08-4.22-7.42-6.41,16.17,10.1,35.68,17.39,47.45,8.12.48-.41.53-1.35-.22-1.51C322,108.54,293.11,56,275.63,2.92,274.84.49,271,.1,270.48,3c-.21,1.21-.35,2.43-.52,3.6a3.72,3.72,0,0,0-4.65,2.31c-7.29,25.51-15.17,68.28-46.14,75-.66.15-.37,1.13.29,1a40,40,0,0,0,15.11-6c-12.83,13.58-31.16,29.72-49.8,30.34a1.27,1.27,0,0,0,0,2.53,83,83,0,0,0,36.83-7.1c-9.17,10.58-20.36,19.44-33,24.79-2.08.87-1.28,4.1,1,3.52a91.88,91.88,0,0,0,37.22-18.73h0c-1.08,1.67-2.17,3.41-3.4,5-1.12,1.33-2.29,2.68-3.37,4.08a71.17,71.17,0,0,1-47.69,24.54,1.6,1.6,0,0,0,0,3.19,67,67,0,0,0,19.1-.29c-11,7.16-24,12.47-35.53,10a1.21,1.21,0,0,0-.57,2.35c17.32,5.78,32.41,1.82,48-6.44-19.07,20-42.39,34.12-72.31,32.85a2,2,0,0,0-2,2.32c-2-.21-3.25,2.73-1.31,3.85,16.94,9.54,35.59,11.87,54.14,9.51-1.85,1.38-3.67,2.76-5.54,4-17.17,11.94-36.08,20.35-56.71,22.66a2,2,0,0,0-1.87,1.64c-2,0-3.94,0-5.92,0-2.94,0-3.44,4.44-.65,5.19a140.68,140.68,0,0,0,65.44,2.13c-1.58,2.17-3.21,4.26-4.9,6.38-.35.3-.71.58-1.08.86-12.15,8.72-26.9,10.81-39.68,18.18-1.11.69-.3,2.58.94,2.17,10.14-3.45,20.55-5.69,30.38-9.83-4.33,4.84-8.85,9.64-13.67,14.26-14.27,13.63-35.45,33-55,35.14a2.58,2.58,0,0,0-2.34,2.37,38.7,38.7,0,0,1-7.86-3.65,1.71,1.71,0,0,0-2.27,2.37c9.44,14.72,36.22,13.94,51.27,13a124.59,124.59,0,0,0,27.61-5c-7.29,5.31-16,8.93-24,12.44-1.49.66-.93,3.1.66,2.56q5-1.65,10-3.36a105.78,105.78,0,0,1-47.36,16.73,2.33,2.33,0,0,0-.6.2c-1.4-.41-2.82-.71-4.22-1.21s-2.18,1.7-1,2.5c32.3,21.7,78.14,15.88,111.39-6-4.59,4.86-9.51,9.23-15.88,11.15a1.37,1.37,0,0,0-.84,1.84c-5.72,1.62-11.48,3.28-17.26,5.35-2.45.89-2.17,5.26.66,4.95,21-2.45,42.59-4,61.6-14.19a114.24,114.24,0,0,0,20.63-14.42,150.75,150.75,0,0,1-13.88,18.61.49.49,0,0,0,.71.67c10-10.19,21.44-21,28-34.19-.34,3.91-.67,7.88-1.23,11.71C266,343,265.79,355.53,261.7,366a94.79,94.79,0,0,1-6.47,10.47c-.34.37,0,1.19.54,1,6.69-2.6,10.59-6.52,15.36-12.12,7.87-9.2,17.62-16.28,25.21-25.86,1.46-1.85,2.94-3.86,4.4-6a60.12,60.12,0,0,1-6.25,15.14c-.44.61.55,1.16.94.53a73.54,73.54,0,0,0,10.83-24.31c10.69,16.48,24.68,28.2,39.12,41.65.54.5,1.25-.26.79-.83-1.14-1.34-2.15-2.77-3.27-4.18,2.27,2.22,4.52,4.46,6.81,6.69.62.6,1.42-.17,1.07-.89a242.8,242.8,0,0,1-12.25-31.55c32.79,12.41,76.35,24,104.42,2.94,1.36-1,1.06-3.91-1-3.65-2.84.33-5.86.64-9,.83a68.85,68.85,0,0,1-23.34-4.66c18.71,1.45,37.09-1.31,50.85-13.07a42.43,42.43,0,0,0,4.16-2.5.74.74,0,0,0-.12-1.32A3.14,3.14,0,0,0,464.81,313.94Z"/><path class="cls-7" d="M155.36,163.05c17.32,5.78,32.41,1.82,48-6.44a124.37,124.37,0,0,1-24.1,19.95,91.85,91.85,0,0,1-13.46,6.9c2.62-.33,5.19-.72,7.61-1.11A104.29,104.29,0,0,0,196,176.24c7.13-2.91,22-12.58,28.3-17.27-4.52,12.95-19.82,30.72-18.41,29.85,16.28-10.15,21.62-16.6,30.27-28.76.16,17.4-2.87,34.8-1.21,52.18.19,1.74-1.14,5.4.14,4.15,5.54-5.25,28-49.41,31.18-54.38,4.11,12.61,17.42,35.92,17.78,34.82,3.48-9.77,1.72-20.63,1.1-31,9.05,8,34.24,18.15,32.41,16.37-16.55-16-32.26-37.4-34.45-61.49-.2-1.94-6.15,21.77-7.84,33.38-8-11.73-10.25-42.88-11.19-41.27-8.73,14.37-13.54,30.66-21.17,45.6-2.21-11.78,3.58-39.68,2.17-38.51-4.73,4-8.69,8.62-12.88,13.13a66.67,66.67,0,0,1-12.32,9.83C225.15,135.26,233.72,117,233,118c-7,9.48-18.34,15.83-30.34,19.84a70.92,70.92,0,0,1-8.46,4.41,69.85,69.85,0,0,1-21.87,5.59,1.6,1.6,0,0,0,0,3.19,67,67,0,0,0,19.1-.29c-11,7.16-24,12.47-35.53,10A1.21,1.21,0,0,0,155.36,163.05Z"/><path class="cls-8" d="M184.79,111.72c.45,0,.81,0,1.25,0,.6-.22,1.25-.35,1.87-.56a2.16,2.16,0,0,0,1,.14c18.63-1.6,35.7-13,51.79-22.68-3,3.86-7.12,7.17-10.55,10.25-1.37,1.29-.3,4.22,1.66,4,11.81-1.58,23.06-9.37,31.74-18.25-.95,4.63-2.47,9.11-2.94,13.9-.21,2,2.59,3,3.78,1.55,5.21-6.13,8-13.66,11.72-20.71,3.46,7.72,5.81,15.68,11,22.55a1.8,1.8,0,0,0,3.35-.93c.34-5.91-.2-11.78-.48-17.66a62.86,62.86,0,0,1,18.18,14.5c1.5,1.72,3.88-.82,2.41-2.55-10.71-12.08-15.36-27.86-23.15-41.83a1.63,1.63,0,0,0-3,.45A76.61,76.61,0,0,1,281.86,65c-3.38-5.95-4.27-12.06-4.36-19.21a1.79,1.79,0,0,0-3.08-1.29c-4.36,4.66-7.57,10.23-11.55,15.14,1.71-11.48,5.24-22.55,6.74-34A214.17,214.17,0,0,0,271.4,1.43,2.32,2.32,0,0,0,270.48,3c-.21,1.21-.35,2.43-.52,3.6a3.41,3.41,0,0,0-2.25.07,3.46,3.46,0,0,0-2.4,2.24c-7.29,25.51-15.17,68.28-46.14,75-.66.15-.37,1.13.29,1a40,40,0,0,0,15.11-6c-6.91,7.33-15.46,15.4-24.78,21.36-7.85,5.06-16.27,8.63-24.77,9h-.25a1.48,1.48,0,0,0-.88.48A1.26,1.26,0,0,0,184.79,111.72Z"/><path class="cls-9" d="M375.45,269.81c-7.45-2.05-14.59-3.67-21.47-5.74-7-6.32-15.06-11.2-22.09-17.52-7.36-6.61-11.69-16.15-19.13-22.27a2.06,2.06,0,0,0-3.47,1.53,35.75,35.75,0,0,0,.69,7.95c.62,3.68,2.95,15-3.36,6-2.9-4.1-4.51-8.77-8.17-12.25a1.63,1.63,0,0,0-2.6.37c-4,5.7-1.86,12.21-1.15,18.64-4.3-7.14-6-15.53-10.74-22.6a1.68,1.68,0,0,0-2.87,0c-4.73,8.12-4.25,17.6-4,26.91-2.82-8.46-4.46-17.18-7-25.85a1.56,1.56,0,0,0-2.89-.34c-6.07,10.83-8.17,23.18-12.61,34.67-.65-12.61.77-25.15,1.6-37.83a1.64,1.64,0,0,0-2.81-1.19,284.16,284.16,0,0,0-32.56,55.19,288.32,288.32,0,0,1,8.7-48.38,1.65,1.65,0,0,0-2.73-1.63c-9.15,9.8-17.55,19.88-28.28,28-8.25,6.3-16.82,12.23-25.35,18.22,4.86-5.84,10.09-11.22,14.18-17.91,6.54-10.67,15-20.6,20.22-32,.45-1-.55-2.42-1.57-1.61-9.5,7.48-18.28,15.77-28.55,22.2-1.06.64-2.17,1.23-3.25,1.8-.79,1-1.57,2.07-2.36,3-.35.3-.71.58-1.08.86s-1,.62-1.55,1c-11.83,7.84-25.91,10.19-38.13,17.21-1.11.69-.3,2.58.94,2.17,10.14-3.45,20.55-5.69,30.38-9.83-4.33,4.84-8.85,9.64-13.67,14.26-11.86,11.31-28.44,26.54-44.93,32.65A42.75,42.75,0,0,1,93.62,308a4.27,4.27,0,0,0-.57.16c21.51,6.22,47.28-.21,66.39-9.35a129.28,129.28,0,0,0,25.08-15.64c2.93-2.37,5.71-4.86,8.5-7.39a48.66,48.66,0,0,0,4.76-5l1.07,4.12a46.75,46.75,0,0,1-3.14,7.8A130.2,130.2,0,0,1,181.6,307c-6.65,8.79-15.15,15.82-22.09,24.33a1.67,1.67,0,0,0,2.33,2.39c14.82-12.6,34.16-17.19,51.1-25.76a80.66,80.66,0,0,0,32.33-30.06c-2.51,11.62-8.55,22.38-10.86,34.1-.37,1.75,1.75,3.25,3,1.8,6.75-7.56,11-16.61,15.78-25.56,4.55-8.53,8.57-19.22,15.09-26.46,4.21,12.35,4.9,27.09,14.64,36.37a1.83,1.83,0,0,0,3.06-.88c1.81-8.06-2.23-22.11,2.33-29.6,3.46,8.52,8.05,17.54,16.92,20.48a1.93,1.93,0,0,0,2.29-1.4c1.06-7.77-2.43-14.26-4.53-21.36a62.37,62.37,0,0,0,11,9.93c1.14.76,2.2-.55,2-1.64a46.94,46.94,0,0,0-3.54-11.81c-3.13-7.73-1.83-5.7,3.21-1.29,6.47,5.67,12.4,10.21,21,11.36.6.08,1.32-.55.85-1.16-3.54-5-7.06-9.66-9.67-15.1,13.82,10.41,30.07,17.26,47.45,15.91A.89.89,0,0,0,375.45,269.81Z"/><path class="cls-10" d="M221.11,188.42c-1.62,1.21-3.27,2.47-4.88,3.66a146.61,146.61,0,0,1-13.35,7.64,110.81,110.81,0,0,0,15.45-10.43.2.2,0,0,0-.24-.31c-7.35,5.25-15.42,8.73-23.52,12.64-8.49,4.08-15.45,10.29-23.45,15.33-8.56,5.41-17.93,8.92-27.61,11.56-4.42,1.24-9.28,1.75-14,2.67a136,136,0,0,1-13.94,1.14c-.43,0-.53.69-.07.85,1.6.39,3.27.65,4.9,1a1,1,0,0,0,.71,1.48,89,89,0,0,0,13.83-.29c32.79-.38,67-20.53,87.13-45.58C222.71,189.08,221.9,187.77,221.11,188.42Z"/><path class="cls-11" d="M464.81,313.94c.43-.42.16-1.45-.54-1.32-3,.42-6,.9-8.92,1.42a82.53,82.53,0,0,1-29-6.65,64.11,64.11,0,0,1-10.5-5.74c-3.08-2.09-6.48-4.4-10-7a102.62,102.62,0,0,0,36.34,1.81c.86-.12,1.23-1.48.19-1.7-6.06-1.24-12.14-2.56-18.15-4,7.44-.58,14.37-2.73,19.92-7.25a27.48,27.48,0,0,0,4.75-5c.47-.66-.31-1.33-.89-1.22a94.53,94.53,0,0,1-21.74,1.27,87.31,87.31,0,0,1-10.19-4.31c-14.17-6.81-28.42-17.49-36.42-25.79-1.71-1.77-3.31-3.65-4.85-5.55,13.49-1.18,29-4.82,37.44-14.53.44-.47.92-.91,1.31-1.42,1.48-2,.19-5.51-2.58-4.56-1.55.55-3.07,1-4.63,1.43-1.4.17-2.8.25-4.19.3a90.6,90.6,0,0,1-34-9.52c1.09,0,2.14-.09,3.19-.21a30.17,30.17,0,0,0,8.33-2.24,18.64,18.64,0,0,0,2.09-.95,15,15,0,0,0,6-2.62c.45-.32.34-1.26-.3-1.22.12-.12.32-.27.44-.39a.71.71,0,0,0-.47-1.21,51.14,51.14,0,0,1-14.39-.8,60.81,60.81,0,0,1-13.92-9.31c.54.07,1.1.12,1.61.21,11.22,1.42,22.5,1.24,31.06-2.62a8.13,8.13,0,0,0,1.67.25,1.65,1.65,0,0,0,1.69-.75,2.55,2.55,0,0,0,.39-1.52c.7-.46,1.44-.93,2.09-1.41a1,1,0,0,0-.48-1.83c-2.42-.18-5.08-.37-7.89-.51a117,117,0,0,1-22.58-11.22c-5.8-3.63-11.44-7.51-17-11.41-9.48-6.67-15.71-14.24-21-22.64a95.94,95.94,0,0,0,37.93-.2c1.62-.39,3.2-.79,4.61-1.25a.94.94,0,0,0,.49-1.43s0-.06-.06-.11a.92.92,0,0,0-.42-.26v0h0c-.1,0-.12-.11-.21-.08a2.78,2.78,0,0,0-.37-.05c-11.3-2-22.09-12.15-31-19-2.6-2-5.08-4.22-7.42-6.41,16.17,10.1,35.68,17.39,47.45,8.12.48-.41.53-1.35-.22-1.51-1.4-.29-2.66-.72-4-1a1.72,1.72,0,0,0-.42.23,34.76,34.76,0,0,1-4.64-.48c-9.64-1.7-19.6-5.77-28.33-10.22-18.46-9.41-29.22-25-42.09-40.81-.68-.85-2.27.07-1.86,1.16A89.74,89.74,0,0,0,313.77,94.3a75,75,0,0,0,11,17.21c-1.06-.68-2.13-1.35-3.17-2.08-6.06-4.3-11.77-10-18.4-13.29a1.24,1.24,0,0,0-1.42,2c2.38,2.84,4.83,5.46,7.37,8,10.08,10.89,20.64,20.28,33.06,27a76.36,76.36,0,0,1-9.37-1.35c-17.64-3.59-32.45-10.62-44.37-24.7-.73-.85-2.18.3-1.52,1.24a143.11,143.11,0,0,0,9.66,12.78c13.45,21.85,30.72,41.06,51.15,53.6a186,186,0,0,1-44.25-30.93c-1.2-1.09-2.66.52-1.67,1.75,4.24,5.46,8.15,10.61,12.51,15.26,12.65,16.8,28.2,33.59,46.47,43.06a.07.07,0,0,1,0-.06c-13.15-2.7-29.65-12.45-39.3-21.84-.73-.72-2.13.29-1.44,1.22a73.6,73.6,0,0,0,8.81,9.79c3.42,4.27,6.38,8.43,11.05,12.14a96.83,96.83,0,0,0,19.9,12.1c-24.07-5.39-48.56-21.83-65.06-40.57-1.4-1.57-3.33.48-2.63,2.09a42.94,42.94,0,0,0,8.13,11.92c3,5.19,5.84,10.44,8.83,15.57a.48.48,0,0,0-.26.7c1.91,3.21,3.87,6.34,6,9.41C309,210.82,303.47,205,298,199.19a58.4,58.4,0,0,1-3.55-7.35c-.25-.68-1.38-.63-1.26.17,1.38,10.77,5.91,22.25,12.89,30.43,1.14,1.38,3.33-.08,2.83-1.76a52.9,52.9,0,0,0-4.79-10.84A127.92,127.92,0,0,0,322.37,230a75.11,75.11,0,0,0,10.51,7.64c5,5.16,10.12,10.15,15.5,15.08,9.45,8.73,21.3,14.14,32.93,19.16A154.11,154.11,0,0,0,417,282.56c-20.27,1.58-42.45,1.67-59.69-9.27-.94-.57-2.28.69-1.56,1.64a28.62,28.62,0,0,0,8.4,7.65A130.71,130.71,0,0,0,410.32,310c4.79,1.65,9.76,3.28,14.91,4.79-28.41-3.67-59.13-4-79.77-26.66-.66-.74-2,.29-1.39,1.16,1.85,2.61,3.77,6,6,9.08,0,.14-.07.26.06.41,10.11,16.89,22.38,28.23,38,34.88-3.59-.12-7.17-.28-10.71-.61-10.63-.91-21.47-3.35-31-8.37-8-4.15-12.73-12.63-17.78-19.84a.54.54,0,0,0-1,.28,26.58,26.58,0,0,0,.6,4.76.27.27,0,0,0-.1.34c2.68,9.16,4.24,21,7.62,31.79-2-2.29-4-4.56-5.91-6.94-10.55-12.77-15.51-28.41-21.56-43.6-.1-.24-.48-.39-.62-.08a7.75,7.75,0,0,0-.25.81c-.17-.22-.53-.17-.48.1,0,.49,0,.92,0,1.37a20.26,20.26,0,0,0-.46,5.35C305,306,301,312.7,298,318.71A239.53,239.53,0,0,1,286,340.09a119,119,0,0,1-17.35,21,78.18,78.18,0,0,0,4.92-22.54c1.06-16.49,2.62-37.68-5.4-52.59-.33-.64-1.2-.15-1.06.5s.19,1.68.33,2.53c-.49-.16-1,.05-1,.73.67,10.27-7.77,21.36-12.88,29.73-5.9,9.68-14.69,17.25-24.09,23a126.81,126.81,0,0,1-32.44,13.52,84.4,84.4,0,0,0,32.71-46.81.71.71,0,0,0-1.29-.55c-1.67,2.83-3.46,5.67-5.38,8.45a2,2,0,0,0-2.91-.89c-21.34,13.24-42.16,24.72-66.63,30.74-13.42,3.33-27.3,2.54-40.78.09-2.73-.55-5.61-1.36-8.5-2.16-1.69.24-3.35.49-5,.65a2.33,2.33,0,0,0-.6.2c-1.4-.41-2.82-.71-4.22-1.21s-2.18,1.7-1,2.5c1.44,1,3,1.85,4.52,2.75,31,17.76,72.44,12.48,103.85-7-.32.32-.62.64-1,.94a57.75,57.75,0,0,1-10.74,7.9c-.39.14-.77.36-1.16.49s-.36.26-.48.43c-2.15,1.15-4.35,2.23-6.59,3.21-3.67,1.1-7.33,2.24-11,3.55a2.83,2.83,0,0,0-1.34,1.16c-.8,1.57-.13,4,2,3.79,17.85-2.14,36.1-3.6,52.85-10.24a88.62,88.62,0,0,0,8.75-3.95,114.24,114.24,0,0,0,20.63-14.42,150.75,150.75,0,0,1-13.88,18.61.49.49,0,0,0,.71.67c9.54-9.77,20.44-20.09,27.11-32.59-.29,4.64-.56,9.22-.72,13.7-.49,4.15-.84,8.58-1.43,13a72.4,72.4,0,0,1-3.88,17,94.79,94.79,0,0,1-6.47,10.47c-.34.37,0,1.19.54,1,6.69-2.6,10.59-6.52,15.36-12.12,5.73-6.69,12.45-12.28,18.6-18.5a85.79,85.79,0,0,0,6.61-7.36c1.46-1.85,2.94-3.86,4.4-6a60.12,60.12,0,0,1-6.25,15.14c-.44.61.55,1.16.94.53a73.54,73.54,0,0,0,10.83-24.31c10.69,16.48,24.68,28.2,39.12,41.65.54.5,1.25-.26.79-.83-1-1.18-2-2.48-2.9-3.73.93.9,1.9,1.82,2.86,2.71l3.58,3.53a.63.63,0,0,0,.71.12.76.76,0,0,0,.36-1,244.33,244.33,0,0,1-11.28-28.68c-.33-.95-.69-1.89-1-2.87,32.79,12.41,76.35,24,104.42,2.94,1.36-1,1.06-3.91-1-3.65-2.7.32-5.54.61-8.48.81A2.3,2.3,0,0,0,432,335c-4-.43-8.07-.65-12.15-.82a73.32,73.32,0,0,1-10.21-3c17.5,1.32,34.61-1.08,48-11,.94-.69,1.92-1.3,2.82-2.06a42.43,42.43,0,0,0,4.16-2.5.74.74,0,0,0-.12-1.32A3.14,3.14,0,0,0,464.81,313.94Z"/><path class="cls-12" d="M212.45,172.42c-3.2,2-6.16,4.1-9,6.19-11,5.48-22.79,8.56-34.81,11-17.82,3.6-35.13,1.62-53,2a.46.46,0,0,0-.21.83,48.86,48.86,0,0,0,15,5.66c27.14,14.64,71,7.19,82.51-25.33C213,172.46,212.61,172.25,212.45,172.42Z"/><path class="cls-13" d="M241.09,67.27s-13.4,14.1-21.92,16.55S207.84,90,213,92.08s-8.33,5.36-15.15,9.08-28.77,5.82-20.38,10.55,32.79-2.8,33.59,3.5S178.2,127,189.56,132.93s39.66-12.37,37.84-3.16,18,11.73,26.2,4.43,37-6.41,21.76-15.56-31.68,8.29-39.2-6.87S231.84,95,225.05,97.06s17.11-14.88,11.15-14.88S255.1,58.18,241.09,67.27Z"/><path class="cls-14" d="M183.56,175.68s5.85-9.39-8.06,0-18.9,9.07-32.1,9.06-35.12-2.13-26.36,6.81,32.78,10.17,47,6.89,3,8.2,20.76,2.24,2.12,8.51-13.63,16.28-54.68,8.11-45,14.64,60.54-8.66,57.39.06.64,9.29,11.82,4.21,29.25-16.23,29.42-8.18,7,9.67,16.56-7.89,31.86,12.67,38.35-10.86-2.54-34.23-16.71-24.45-20.74,14-35.35,9.06-2.5-21.24-15.94-17.68S216.92,160.81,183.56,175.68Z"/><path class="cls-15" d="M406.42,223.83s-24-12.38-25.05-3.87-4.22,2.74-16.61,7.25-42.74-5.5-39.65,5-12.61,7-21.52,10.63-20.36,5.35-12.79,15.29,8.13,24.53,17.25,12.29,4.67-15.83,23.51-12.65,27.18,1.72,29.19-7.39,8.14-5.48,19.18-7.86,23.19.43,25-8.07,14.57-1.8,11.79-10.09S406.13,221.6,406.42,223.83Z"/><path class="cls-16" d="M285.34,142.27c-.22-12.19,8-7,29.57-7s6-7,.78-22.4,18.83,11.25,25.65,1.73,9-2.19,13.63-2.67,23.9,4.79,21.29,10.56-13,3.11-24.6.47,7.62,5.33,18,15.64-32.26,4.88-38.24,7.63-8.88,1.89-15.28,0-11.61,5-15.19,7.67c-21.78,16-38.4,7.41-38.37,4.08,0,0-9.06-18.46,8.48-13.18S285.53,152.37,285.34,142.27Z"/><path class="cls-17" d="M247.24,151.3s-14.65-10.75-15.06,0S237,166.05,243,163.24,255.54,162.53,247.24,151.3Z"/><path class="cls-18" d="M300.07,115.73s-3.94-10.21-7.48-6.25S312.15,126.52,300.07,115.73Z"/><path class="cls-19" d="M278.14,5.62S271.36-7,266.21,5.6,253.06,49,252.29,50.78s13.08-27.36,16.25-12.88,10.93,24.45,11.67,13.28,4.17-12.12,12.57,0,10.4,9.53,3.5-3.33S278.14,5.62,278.14,5.62Z"/><path class="cls-20" d="M124.1,291.1s-11.61,8.72-22.4,12-28-2.5-24.36,6.58,18.73,15.77,40.32,15,18,.86,12.39,5,4.26,4.49,4.26,4.49-21.07,7.93-37,7.07-8.31,12.57,17.8,18.95,53.73-2.53,48.72.07.19,4.26,17.36,4.29,58.08-9,62.36-14.57-11.59,9.63-2.8,8,20-24,20-16.12-15.86,38.2-7.38,37.72,24.7-20.29,30.53-26.53,7.23-23.34,0-18.71,1.65-27.65-18.36-21.46-20.73-28.15-46-12.25S166.45,309,166.86,297s-5.58-6.64-26-.05S138.68,282.29,124.1,291.1Z"/><path class="cls-21" d="M390.25,317.51s-50.23-10.1-29.2,10.32-31.57-7.24-25.59,6.52,16.67,34.9,17.11,31.16S343,344,360.22,349.78s32.64,7.12,31.51-.15,24.68,6.46,41.76-5.35-21.72-15.19-2.11-17.6,51.17-8.63,27.6-16.54-54.62-9.69-38.83-13.19,27.65-10.4,4.88-16.23-56.73-12.9-43.95,3.26,37.28,19.78,23.94,25.27S376.51,304.82,390.25,317.51Z"/><path class="cls-22" d="M324.91,405.35s-20.22-23.15-35.68-8.8-30.38,23.19,7.2,27.31c0,0,16.72,6.43,25.27.07S338.19,415.77,324.91,405.35Z"/><path class="cls-23" d="M235.07,422.18s2.17-19.86,19.22-15.44,31.5,12.18,20.25,21.56S229.18,434.91,235.07,422.18Z"/></g></g></g></svg>