<svg xmlns="http://www.w3.org/2000/svg" xmlns:xlink="http://www.w3.org/1999/xlink" viewBox="0 0 2469.58 799"><defs><style>.cls-1{isolation:isolate;}.cls-2{fill:#d5dce0;}.cls-10,.cls-11,.cls-2,.cls-29,.cls-30,.cls-31,.cls-49,.cls-50,.cls-51,.cls-9{opacity:0.4;}.cls-2,.cls-24,.cls-4,.cls-44{mix-blend-mode:multiply;}.cls-3{fill:url(#linear-gradient);}.cls-4{fill:url(#linear-gradient-2);}.cls-5{fill:url(#linear-gradient-3);}.cls-6{fill:url(#linear-gradient-4);}.cls-12,.cls-27,.cls-32,.cls-47,.cls-52,.cls-7{opacity:0.5;}.cls-10,.cls-27,.cls-28,.cls-29,.cls-30,.cls-47,.cls-48,.cls-49,.cls-50,.cls-7,.cls-8,.cls-9{mix-blend-mode:screen;}.cls-7{fill:url(#linear-gradient-5);}.cls-28,.cls-48,.cls-8{opacity:0.6;}.cls-8{fill:url(#linear-gradient-6);}.cls-9{fill:url(#linear-gradient-7);}.cls-10{fill:url(#linear-gradient-8);}.cls-11{fill:url(#linear-gradient-9);}.cls-12{fill:url(#linear-gradient-10);}.cls-13{fill:url(#linear-gradient-11);}.cls-14{fill:url(#linear-gradient-12);}.cls-15{fill:url(#linear-gradient-13);}.cls-16{fill:url(#linear-gradient-14);}.cls-17{fill:url(#linear-gradient-15);}.cls-18{fill:url(#linear-gradient-16);}.cls-19{fill:url(#linear-gradient-17);}.cls-20{fill:url(#linear-gradient-18);}.cls-21{fill:url(#linear-gradient-19);}.cls-22{fill:url(#linear-gradient-20);}.cls-23{fill:url(#linear-gradient-21);}.cls-24{fill:url(#linear-gradient-22);}.cls-25{fill:url(#linear-gradient-23);}.cls-26{fill:url(#linear-gradient-24);}.cls-27{fill:url(#linear-gradient-25);}.cls-28{fill:url(#linear-gradient-26);}.cls-29{fill:url(#linear-gradient-27);}.cls-30{fill:url(#linear-gradient-28);}.cls-31{fill:url(#linear-gradient-29);}.cls-32{fill:url(#linear-gradient-30);}.cls-33{fill:url(#linear-gradient-31);}.cls-34{fill:url(#linear-gradient-32);}.cls-35{fill:url(#linear-gradient-33);}.cls-36{fill:url(#linear-gradient-34);}.cls-37{fill:url(#linear-gradient-35);}.cls-38{fill:url(#linear-gradient-36);}.cls-39{fill:url(#linear-gradient-37);}.cls-40{fill:url(#linear-gradient-38);}.cls-41{fill:url(#linear-gradient-39);}.cls-42{fill:url(#linear-gradient-40);}.cls-43{fill:url(#linear-gradient-41);}.cls-44{fill:url(#linear-gradient-42);}.cls-45{fill:url(#linear-gradient-43);}.cls-46{fill:url(#linear-gradient-44);}.cls-47{fill:url(#linear-gradient-45);}.cls-48{fill:url(#linear-gradient-46);}.cls-49{fill:url(#linear-gradient-47);}.cls-50{fill:url(#linear-gradient-48);}.cls-51{fill:url(#linear-gradient-49);}.cls-52{fill:url(#linear-gradient-50);}.cls-53{fill:url(#linear-gradient-51);}.cls-54{fill:url(#linear-gradient-52);}.cls-55{fill:url(#linear-gradient-53);}.cls-56{fill:url(#linear-gradient-54);}.cls-57{fill:url(#linear-gradient-55);}.cls-58{fill:url(#linear-gradient-56);}.cls-59{fill:url(#linear-gradient-57);}.cls-60{fill:url(#linear-gradient-58);}.cls-61{fill:url(#linear-gradient-59);}.cls-62{fill:url(#linear-gradient-60);}.cls-63{fill:url(#linear-gradient-61);}</style><linearGradient id="linear-gradient" x1="435.93" y1="731.51" x2="435.93" y2="1861.95" gradientUnits="userSpaceOnUse"><stop offset="0" stop-color="#edf8fc"/><stop offset="1" stop-color="#caebf9"/></linearGradient><linearGradient id="linear-gradient-2" x1="2174.61" y1="636" x2="2178.01" y2="720.17" gradientTransform="translate(0.69 -1.65) rotate(0.07)" gradientUnits="userSpaceOnUse"><stop offset="0" stop-color="#dee9f6"/><stop offset="0.64" stop-color="#fff"/><stop offset="0.85" stop-color="#e7eff8"/><stop offset="1" stop-color="#d3e1f3"/></linearGradient><linearGradient id="linear-gradient-3" x1="-171.84" y1="3976.12" x2="-106.83" y2="3976.12" gradientTransform="translate(2318.38 -3387.79) rotate(0.42)" gradientUnits="userSpaceOnUse"><stop offset="0" stop-color="#6d6f22"/><stop offset="0.3" stop-color="#4a4117"/><stop offset="0.7" stop-color="#2f2f19"/><stop offset="1" stop-color="#062838"/></linearGradient><linearGradient id="linear-gradient-4" x1="-136.86" y1="4004.2" x2="-136.86" y2="3390.4" gradientTransform="translate(2318.38 -3387.79) rotate(0.42)" gradientUnits="userSpaceOnUse"><stop offset="0.01" stop-color="#185b4e"/><stop offset="1" stop-color="#1c7933"/></linearGradient><linearGradient id="linear-gradient-5" x1="-278.54" y1="3698.34" x2="-140.74" y2="3636.19" gradientTransform="translate(2318.38 -3387.79) rotate(0.42)" gradientUnits="userSpaceOnUse"><stop offset="0" stop-color="#e5e244"/><stop offset="0.99" stop-color="#003e31"/></linearGradient><linearGradient id="linear-gradient-6" x1="-255.87" y1="3571.51" x2="-129.27" y2="3482.53" xlink:href="#linear-gradient-5"/><linearGradient id="linear-gradient-7" x1="-337.88" y1="3950.25" x2="-123.34" y2="3793.64" xlink:href="#linear-gradient-5"/><linearGradient id="linear-gradient-8" x1="-394.86" y1="3735.57" x2="-220.85" y2="3735.57" xlink:href="#linear-gradient-5"/><linearGradient id="linear-gradient-9" x1="-294.78" y1="3712.61" x2="226.76" y2="3962.57" gradientTransform="translate(2318.38 -3387.79) rotate(0.42)" gradientUnits="userSpaceOnUse"><stop offset="0" stop-color="#074623"/><stop offset="0.71" stop-color="#233972"/><stop offset="1" stop-color="#024063"/></linearGradient><linearGradient id="linear-gradient-10" x1="-299.84" y1="3663.35" x2="-353.25" y2="3748.31" xlink:href="#linear-gradient-9"/><linearGradient id="linear-gradient-11" x1="2078.39" y1="116.15" x2="2078.39" y2="194.54" xlink:href="#linear-gradient-2"/><linearGradient id="linear-gradient-12" x1="2030.84" y1="286.18" x2="2030.84" y2="360.38" xlink:href="#linear-gradient-2"/><linearGradient id="linear-gradient-13" x1="2282.5" y1="361.07" x2="2282.5" y2="423.45" xlink:href="#linear-gradient-2"/><linearGradient id="linear-gradient-14" x1="2226.27" y1="183.08" x2="2226.27" y2="242.35" xlink:href="#linear-gradient-2"/><linearGradient id="linear-gradient-15" x1="2101.27" y1="240.55" x2="2101.27" y2="259.38" xlink:href="#linear-gradient-2"/><linearGradient id="linear-gradient-16" x1="2192.88" y1="177.64" x2="2192.88" y2="189.76" xlink:href="#linear-gradient-2"/><linearGradient id="linear-gradient-17" x1="2157.63" y1="7.71" x2="2157.63" y2="70.85" xlink:href="#linear-gradient-2"/><linearGradient id="linear-gradient-18" x1="2005.71" y1="483.57" x2="2005.71" y2="580.39" xlink:href="#linear-gradient-2"/><linearGradient id="linear-gradient-19" x1="2361.64" y1="458.99" x2="2361.64" y2="557.43" xlink:href="#linear-gradient-2"/><linearGradient id="linear-gradient-20" x1="2198.39" y1="615" x2="2201.76" y2="698.62" xlink:href="#linear-gradient-2"/><linearGradient id="linear-gradient-21" x1="2123.08" y1="618.02" x2="2126.45" y2="701.67" xlink:href="#linear-gradient-2"/><linearGradient id="linear-gradient-22" x1="562.62" y1="596.9" x2="564.7" y2="648.55" xlink:href="#linear-gradient-2"/><linearGradient id="linear-gradient-23" x1="-1761.67" y1="3966.14" x2="-1721.77" y2="3966.14" xlink:href="#linear-gradient-3"/><linearGradient id="linear-gradient-24" x1="-1740.2" y1="3983.37" x2="-1740.2" y2="3606.78" xlink:href="#linear-gradient-4"/><linearGradient id="linear-gradient-25" x1="-1827.12" y1="3795.71" x2="-1742.58" y2="3757.58" xlink:href="#linear-gradient-5"/><linearGradient id="linear-gradient-26" x1="-1813.2" y1="3717.91" x2="-1735.54" y2="3663.32" xlink:href="#linear-gradient-5"/><linearGradient id="linear-gradient-27" x1="-1863.54" y1="3950.27" x2="-1731.91" y2="3854.19" xlink:href="#linear-gradient-5"/><linearGradient id="linear-gradient-28" x1="-1898.49" y1="3818.56" x2="-1791.74" y2="3818.56" xlink:href="#linear-gradient-5"/><linearGradient id="linear-gradient-29" x1="-1837.09" y1="3804.47" x2="-1517.12" y2="3957.82" xlink:href="#linear-gradient-9"/><linearGradient id="linear-gradient-30" x1="-1840.2" y1="3774.24" x2="-1872.97" y2="3826.37" xlink:href="#linear-gradient-9"/><linearGradient id="linear-gradient-31" x1="503.59" y1="277.96" x2="503.59" y2="326.06" xlink:href="#linear-gradient-2"/><linearGradient id="linear-gradient-32" x1="474.42" y1="382.28" x2="474.42" y2="427.79" xlink:href="#linear-gradient-2"/><linearGradient id="linear-gradient-33" x1="628.8" y1="428.21" x2="628.8" y2="466.48" xlink:href="#linear-gradient-2"/><linearGradient id="linear-gradient-34" x1="594.31" y1="319.04" x2="594.31" y2="355.4" xlink:href="#linear-gradient-2"/><linearGradient id="linear-gradient-35" x1="517.63" y1="354.28" x2="517.63" y2="365.84" xlink:href="#linear-gradient-2"/><linearGradient id="linear-gradient-36" x1="573.84" y1="315.69" x2="573.84" y2="323.13" xlink:href="#linear-gradient-2"/><linearGradient id="linear-gradient-37" x1="552.21" y1="211.44" x2="552.21" y2="250.17" xlink:href="#linear-gradient-2"/><linearGradient id="linear-gradient-38" x1="459.01" y1="503.37" x2="459.01" y2="562.78" xlink:href="#linear-gradient-2"/><linearGradient id="linear-gradient-39" x1="677.36" y1="488.31" x2="677.36" y2="548.7" xlink:href="#linear-gradient-2"/><linearGradient id="linear-gradient-40" x1="577.22" y1="584.01" x2="579.28" y2="635.32" xlink:href="#linear-gradient-2"/><linearGradient id="linear-gradient-41" x1="531" y1="585.87" x2="533.07" y2="637.17" xlink:href="#linear-gradient-2"/><linearGradient id="linear-gradient-42" x1="349.05" y1="676.85" x2="352.52" y2="762.86" xlink:href="#linear-gradient-2"/><linearGradient id="linear-gradient-43" x1="-1998.31" y1="4027.21" x2="-1931.88" y2="4027.21" xlink:href="#linear-gradient-3"/><linearGradient id="linear-gradient-44" x1="-1962.58" y1="4055.91" x2="-1962.58" y2="3428.76" xlink:href="#linear-gradient-4"/><linearGradient id="linear-gradient-45" x1="-2107.35" y1="3743.38" x2="-1966.55" y2="3679.88" xlink:href="#linear-gradient-5"/><linearGradient id="linear-gradient-46" x1="-2084.16" y1="3613.81" x2="-1954.83" y2="3522.9" xlink:href="#linear-gradient-5"/><linearGradient id="linear-gradient-47" x1="-2167.98" y1="4000.78" x2="-1948.77" y2="3840.76" xlink:href="#linear-gradient-5"/><linearGradient id="linear-gradient-48" x1="-2226.19" y1="3781.44" x2="-2048.42" y2="3781.44" xlink:href="#linear-gradient-5"/><linearGradient id="linear-gradient-49" x1="-2123.93" y1="3757.98" x2="-1591.06" y2="4013.37" xlink:href="#linear-gradient-9"/><linearGradient id="linear-gradient-50" x1="-2129.11" y1="3707.64" x2="-2183.7" y2="3794.47" xlink:href="#linear-gradient-9"/><linearGradient id="linear-gradient-51" x1="250.73" y1="145.7" x2="250.73" y2="225.8" xlink:href="#linear-gradient-2"/><linearGradient id="linear-gradient-52" x1="202.15" y1="319.43" x2="202.15" y2="395.23" xlink:href="#linear-gradient-2"/><linearGradient id="linear-gradient-53" x1="459.27" y1="395.93" x2="459.27" y2="459.66" xlink:href="#linear-gradient-2"/><linearGradient id="linear-gradient-54" x1="401.82" y1="214.09" x2="401.82" y2="274.64" xlink:href="#linear-gradient-2"/><linearGradient id="linear-gradient-55" x1="274.12" y1="272.81" x2="274.12" y2="292.05" xlink:href="#linear-gradient-2"/><linearGradient id="linear-gradient-56" x1="367.73" y1="208.54" x2="367.73" y2="220.92" xlink:href="#linear-gradient-2"/><linearGradient id="linear-gradient-57" x1="331.7" y1="34.92" x2="331.7" y2="99.44" xlink:href="#linear-gradient-2"/><linearGradient id="linear-gradient-58" x1="176.48" y1="521.1" x2="176.48" y2="620.03" xlink:href="#linear-gradient-2"/><linearGradient id="linear-gradient-59" x1="540.11" y1="495.98" x2="540.11" y2="596.56" xlink:href="#linear-gradient-2"/><linearGradient id="linear-gradient-60" x1="373.35" y1="655.35" x2="376.79" y2="740.83" xlink:href="#linear-gradient-2"/><linearGradient id="linear-gradient-61" x1="296.38" y1="658.47" x2="299.83" y2="743.92" xlink:href="#linear-gradient-2"/></defs><title>trees</title><g class="cls-1"><g id="Calque_2" data-name="Calque 2"><g id="Calque_1-2" data-name="Calque 1"><path class="cls-2" d="M1971.76,614.46c182.3,8.85,361.44,50.93,128.86,70.85-220.59,18.89-93.4,77.63,152.23,47.74V551.91C2128,567.38,1825.37,607.35,1971.76,614.46Z"/><path class="cls-3" d="M509.58,710.58c-214.48-16.75-233.34-25.12,21.22-71.17,198.79-36-109.79-38.73-254.56-38.24V799C516.88,768.72,697.24,725.21,509.58,710.58Z"/><path class="cls-2" d="M509.58,710.58c-214.48-16.75-233.34-25.12,21.22-71.17,198.79-36-109.79-38.73-254.56-38.24V799C516.88,768.72,697.24,725.21,509.58,710.58Z"/><path class="cls-4" d="M2132.45,662s-93.13-.71-63.17,14.85,24.74,16.25,5.8,24.3-4.74,20.22,73.89,17.65,2.69-16.2,51.69-16.15,120.68-16.69,71.85-31.61S2132.45,662,2132.45,662Z"/><path class="cls-5" d="M2125.86,497.94s-3.61,128.1-9.36,172.94c0,0,18.76,25.39,65,7,0,0-8.19-116-3.27-173C2178.19,504.92,2160.35,476.72,2125.86,497.94Z"/><path class="cls-6" d="M2465.4,511.71c.71-.71.27-2.32-.89-2.14-4.82.67-9.71,1.49-14.49,2.3-22.8-1.25-45.09-7.17-64.39-20.2-5-3.35-10.53-7.14-16.24-11.32,20.7,4.76,42.23,5.39,59.29,3,1.4-.22,2-2.42.32-2.79-9.94-2-19.82-4.18-29.62-6.56,16-1.24,30.62-6.82,40.18-20,.79-1.07-.48-2.17-1.46-2a153.24,153.24,0,0,1-35.43,2.07c-27.92-9.34-59.78-32.25-76-49-2.81-2.88-5.33-5.94-7.85-9.07,23-2,50-8.31,63.12-26,2.38-3.23.27-9-4.21-7.39-2.52.85-5,1.55-7.54,2.28-2.29.26-4.57.39-6.81.47-18.28-1.08-38-6.85-55.35-15.49a48.89,48.89,0,0,0,22.19-5.54A23.55,23.55,0,0,0,2340,340c.75-.53.58-2.06-.48-2,.21-.23.52-.39.73-.62a1.17,1.17,0,0,0-.79-2,83.22,83.22,0,0,1-23.47-1.31c-8.12-3.66-15.66-9.23-22.65-15.15,19.11,2.7,38.61,2.59,53.24-3.95a17,17,0,0,0,2.74.43c2.33.33,3.47-1.72,3.37-3.72a36.73,36.73,0,0,0,3.42-2.34,1.6,1.6,0,0,0-.82-2.91c-3.91-.31-8.25-.61-12.83-.85-23.36-8.23-44.2-22.69-64.59-36.9-15.43-10.84-25.63-23.16-34.28-36.9,25,4.94,52,3.25,69.36-2.38a1.53,1.53,0,0,0,.82-2.32c-.09,0-.09-.1-.11-.17-.17-.24-.41-.29-.66-.43l-.06,0h0c-.17-.05-.2-.15-.34-.11l-.65-.11c-18.44-3.2-36-19.76-50.49-31-4.25-3.33-8.28-6.88-12.11-10.45,26.39,16.48,58.16,28.35,77.38,13.23.74-.64.83-2.22-.37-2.47-93.64-18.66-140.76-104.22-169.24-190.8-1.32-3.9-7.51-4.58-8.4.06-.34,2-.56,4-.83,5.9a6,6,0,0,0-7.59,3.76C2128.36,56,2115.53,125.74,2065,136.64c-1.11.25-.63,1.82.48,1.7,8.19-1.24,16.54-4.72,24.63-9.81-21,22.18-50.82,48.44-81.17,49.47-2.54.13-2.49,4.07,0,4.12,21.84.58,41.59-3.31,60-11.58-15,17.22-33.2,31.68-53.82,40.38-3.39,1.44-2.1,6.67,1.56,5.74,22-5.56,43.13-15.59,60.67-30.53h0c-1.76,2.73-3.57,5.54-5.53,8.12-1.87,2.21-3.75,4.4-5.52,6.67-19.94,23-47.62,37.54-77.71,40-3.33.27-3.15,4.8.06,5.25a109.13,109.13,0,0,0,31.14-.48C2002,257.33,1980.81,266,1962,262a2,2,0,0,0-.93,3.8c28.24,9.46,52.83,3,78.21-10.46-31.07,32.56-69.1,55.57-117.85,53.52-2.13-.12-3.25,2-3.15,3.79-3.33-.38-5.31,4.45-2.12,6.24,27.58,15.56,58,19.37,88.22,15.46-3,2.32-6,4.54-9,6.61-28,19.46-58.81,33.18-92.47,37a3.25,3.25,0,0,0-3,2.65c-3.25,0-6.44,0-9.64.06-4.77-.05-5.59,7.21-1.07,8.47a228.7,228.7,0,0,0,106.66,3.44c-2.59,3.53-5.28,7-8,10.43-.55.48-1.11.93-1.74,1.38-19.77,14.2-43.86,17.62-64.67,29.64-1.83,1.1-.49,4.2,1.51,3.57,16.52-5.64,33.49-9.25,49.52-16.07-7,8-14.43,15.71-22.3,23.26-23.24,22.24-57.73,53.79-89.71,57.27a4.24,4.24,0,0,0-3.82,3.88,65.5,65.5,0,0,1-12.79-6c-2.31-1.42-5.18,1.56-3.72,3.88,15.4,24,59,22.68,83.53,21.22a201,201,0,0,0,45-8.22c-11.88,8.73-26.07,14.6-39.16,20.34-2.39,1-1.47,5,1.13,4.14,5.38-1.82,10.83-3.63,16.19-5.45-23,15.41-50,24.32-77.13,27.25a5.82,5.82,0,0,0-1.06.32c-2.27-.64-4.58-1.14-6.83-1.94-2.41-.8-3.56,2.74-1.59,4.07,52.64,35.37,127.35,25.91,181.54-9.88-7.44,7.92-15.49,15.1-25.88,18.22a2.25,2.25,0,0,0-1.36,3c-9.29,2.64-18.71,5.33-28.12,8.74-4,1.42-3.54,8.55,1.11,8,34.22-4,69.38-6.5,100.35-23.15a181.34,181.34,0,0,0,33.62-23.5,243.5,243.5,0,0,1-22.59,30.4c-.7.7.41,1.85,1.17,1.07,16.24-16.62,34.89-34.27,45.67-55.77-.56,6.42-1.11,12.85-2,19.12-2.34,17.31-2.67,37.78-9.34,54.76a155,155,0,0,1-10.54,17c-.55.61-.11,1.93.84,1.57,10.93-4.23,17.32-10.64,25-19.7,12.9-15.05,28.78-26.57,41.14-42.2,2.37-3,4.78-6.32,7.17-9.76-2.5,8.91-5.74,17.39-10.22,24.68-.66,1,.92,1.89,1.57.88,8.71-12.73,13.91-25.2,17.63-39.61,17.46,26.84,40.24,46,63.77,67.87.85.8,2.06-.43,1.29-1.35-1.9-2.19-3.5-4.54-5.31-6.78q5.46,5.4,11.1,10.88c.94,1,2.32-.3,1.72-1.46a391.91,391.91,0,0,1-19.93-51.43c53.39,20.22,124.46,39.12,170.16,4.79,2.21-1.64,1.79-6.37-1.61-5.94-4.71.56-9.58,1-14.67,1.37a114.2,114.2,0,0,1-38.12-7.59c30.54,2.33,60.5-2.19,82.93-21.35a64.32,64.32,0,0,0,6.81-4.06,1.2,1.2,0,0,0-.23-2.13A4.3,4.3,0,0,0,2465.4,511.71Z"/><path class="cls-7" d="M1961,265.77c28.24,9.46,52.83,3,78.21-10.46-12,12.51-25,23.67-39.26,32.5a151.85,151.85,0,0,1-22,11.25c4.29-.56,8.46-1.23,12.4-1.86a168.44,168.44,0,0,0,36.85-9.91c11.6-4.77,35.86-20.55,46.09-28.15-7.35,21.12-32.32,50.07-30,48.64,26.57-16.53,35.24-27,49.32-46.87.25,28.34-4.64,56.69-2,85,.27,2.81-1.87,8.76.22,6.8,9-8.61,45.57-80.61,50.86-88.65,6.67,20.52,28.34,58.5,28.95,56.74,5.65-16,2.79-33.63,1.79-50.49,14.8,13,55.84,29.58,52.82,26.69-26.94-26.12-52.6-61-56.15-100.22-.29-3.17-10,35.45-12.75,54.41-13.05-19.14-16.74-69.9-18.27-67.26-14.22,23.41-22,50-34.5,74.31-3.61-19.19,5.83-64.69,3.54-62.78-7.74,6.45-14.15,14.07-21,21.39-5.94,6.35-12.89,11.39-20,16,8.61-12.45,22.57-42.22,21.35-40.65-11.45,15.46-29.89,25.8-49.44,32.36a113.28,113.28,0,0,1-13.79,7.15,112.07,112.07,0,0,1-35.62,9.08c-3.33.27-3.15,4.8.06,5.25a109.13,109.13,0,0,0,31.14-.48C2002,257.33,1980.81,266,1962,262A2,2,0,0,0,1961,265.77Z"/><path class="cls-8" d="M2009,182.12c.71,0,1.33-.06,2-.06,1-.34,2.06-.53,3-.89a3.49,3.49,0,0,0,1.61.23c30.38-2.61,58.19-21.13,84.42-37-4.92,6.31-11.61,11.67-17.17,16.74-2.25,2.07-.48,6.85,2.68,6.4,19.26-2.55,37.58-15.23,51.77-29.71-1.58,7.54-4.05,14.81-4.83,22.64-.31,3.19,4.19,4.86,6.13,2.53,8.55-10,13.06-22.26,19.17-33.76,5.62,12.66,9.42,25.56,17.88,36.78,1.71,2.34,5.23,1.68,5.44-1.54.56-9.66-.29-19.16-.77-28.74,11.23,5.65,21.25,14.16,29.61,23.61,2.44,2.8,6.37-1.38,3.94-4.19-17.44-19.64-25-45.4-37.7-68.13a2.67,2.67,0,0,0-4.93.68c-1.14,6.16-2,12.29-4.12,18.15-5.48-9.65-6.93-19.67-7.08-31.32a2.94,2.94,0,0,0-5-2.11c-7.09,7.59-12.33,16.67-18.84,24.68,2.84-18.7,8.52-36.72,11-55.5a341.35,341.35,0,0,0,2.87-39.33,3.78,3.78,0,0,0-1.47,2.48c-.34,2-.56,4-.83,5.9a5.27,5.27,0,0,0-3.71.11,5.54,5.54,0,0,0-3.88,3.65C2128.36,56,2115.53,125.74,2065,136.64c-1.11.25-.63,1.82.48,1.7,8.19-1.24,16.54-4.72,24.63-9.81-11.31,11.92-25.22,25.11-40.4,34.85-12.8,8.21-26.52,14.07-40.38,14.59a.81.81,0,0,1-.39,0,1.94,1.94,0,0,0-1.44.77C2006.66,179.94,2007.11,182.1,2009,182.12Z"/><path class="cls-9" d="M2319.77,439.79c-12.16-3.32-23.8-6-35-9.35-11.45-10.34-24.57-18.26-36-28.57-12-10.78-19.05-26.31-31.17-36.31-2.16-1.8-5.73-.75-5.68,2.52a56.86,56.86,0,0,0,1.15,12.95c1,6,4.78,24.41-5.5,9.75-4.71-6.68-7.34-14.28-13.31-19.93-1.37-1.36-3.21-.89-4.25.61-6.47,9.28-3,19.85-1.9,30.37-7-11.68-9.76-25.36-17.45-36.83a2.71,2.71,0,0,0-4.68,0c-7.74,13.26-6.94,28.74-6.57,43.87-4.57-13.79-7.27-28-11.46-42.13a2.54,2.54,0,0,0-4.71-.55c-9.84,17.65-13.34,37.78-20.55,56.51-1-20.56,1.28-41,2.63-61.69.18-2.27-3.13-3.77-4.58-1.92-21.2,27.8-38.62,58-53.09,90a466.67,466.67,0,0,1,14.17-78.89c.75-2.63-2.62-4.65-4.46-2.66-14.9,16-28.61,32.43-46,45.59-13.53,10.28-27.46,19.93-41.36,29.67,8-9.47,16.46-18.25,23.12-29.15,10.62-17.41,24.51-33.6,32.94-52.19.74-1.52-.88-3.92-2.57-2.56C2028,371,2013.66,384.58,1996.92,395c-1.72,1-3.54,2-5.28,2.93-1.28,1.7-2.54,3.37-3.88,5-.55.48-1.11.93-1.74,1.38s-1.68,1-2.52,1.61c-19.32,12.79-42.24,16.57-62.15,28-1.83,1.1-.49,4.2,1.51,3.57,16.52-5.64,33.49-9.25,49.52-16.07-7,8-14.43,15.71-22.3,23.26-19.28,18.43-46.31,43.26-73.19,53.23a70.26,70.26,0,0,1-16.52,4,7.51,7.51,0,0,0-.91.25c35.08,10.17,77-.34,108.19-15.22a211,211,0,0,0,40.88-25.48c4.79-3.85,9.34-7.91,13.86-12.06a81.15,81.15,0,0,0,7.73-8.12l1.77,6.73a78.62,78.62,0,0,1-5.08,12.7c-6.5,13.94-13.78,27.36-23,39.54-10.85,14.34-24.73,25.8-36,39.7a2.72,2.72,0,0,0,3.81,3.89c24.16-20.6,55.67-28.07,83.29-42a132,132,0,0,0,52.73-49c-4.12,18.95-13.93,36.46-17.75,55.59-.61,2.85,2.81,5.26,5,3,11-12.34,17.92-27.13,25.7-41.69,7.41-13.87,14-31.33,24.58-43.13,6.86,20.12,8,44.16,23.9,59.28a3,3,0,0,0,5-1.43c2.9-13.15-3.66-36.06,3.77-48.27,5.65,13.91,13.13,28.62,27.56,33.38a3.11,3.11,0,0,0,3.75-2.24c1.72-12.68-4-23.28-7.38-34.84,5.45,6,11.06,11.6,17.9,16.19,1.85,1.23,3.54-.86,3.25-2.68-.94-6.91-3.16-12.86-5.77-19.23-5.13-12.63-3-9.31,5.21-2.15,10.54,9.27,20.25,16.71,34.19,18.54,1,.14,2.18-.85,1.41-1.86-5.74-8.09-11.5-15.78-15.76-24.63,22.53,17,49.06,28.14,77.35,25.92A1.44,1.44,0,0,0,2319.77,439.79Z"/><path class="cls-10" d="M2068.19,307.1c-2.68,2-5.35,4-7.93,6a244,244,0,0,1-21.79,12.45c8.66-5.09,17.18-10.31,25.17-17,.26-.21,0-.68-.4-.51-11.92,8.62-25.14,14.24-38.27,20.63-13.88,6.64-25.23,16.75-38.28,25-13.94,8.84-29.18,14.53-45,18.84-7.25,2-15.13,2.84-22.76,4.36-7.48,1-15,1.61-22.69,1.87-.73-.05-.9,1.09-.19,1.32,2.63.67,5.36,1.08,8,1.67a1.57,1.57,0,0,0,1.16,2.38,153.6,153.6,0,0,0,22.56-.45c53.44-.62,109.23-33.52,142-74.31C2070.8,308.18,2069.51,306.07,2068.19,307.1Z"/><path class="cls-11" d="M2465.4,511.71c.71-.71.27-2.32-.89-2.14-4.82.67-9.71,1.49-14.49,2.3-16.33-.91-32.38-4.25-47.26-10.82a106,106,0,0,1-17.13-9.38c-5-3.35-10.53-7.14-16.24-11.32,20.7,4.76,42.23,5.39,59.29,3,1.4-.22,2-2.42.32-2.79-9.94-2-19.82-4.18-29.62-6.56,12.09-.92,23.45-4.42,32.47-11.78a44.45,44.45,0,0,0,7.71-8.21c.79-1.07-.48-2.17-1.46-2a153.24,153.24,0,0,1-35.43,2.07,143.28,143.28,0,0,1-16.56-7c-23.13-11.1-46.35-28.51-59.4-42-2.81-2.88-5.33-5.94-7.85-9.07,21.94-1.92,47.24-7.82,61-23.71.68-.76,1.5-1.48,2.1-2.27,2.38-3.23.27-9-4.21-7.39-2.52.85-5,1.55-7.54,2.28-2.29.26-4.57.39-6.81.47-18.28-1.08-38-6.85-55.35-15.49,1.74,0,3.47-.14,5.16-.3a51,51,0,0,0,13.62-3.69,33.66,33.66,0,0,0,3.41-1.55A23.55,23.55,0,0,0,2340,340c.75-.53.58-2.06-.48-2,.21-.23.52-.39.73-.62a1.17,1.17,0,0,0-.79-2,83.22,83.22,0,0,1-23.47-1.31c-8.12-3.66-15.66-9.23-22.65-15.15.87.12,1.77.22,2.66.3,18.27,2.36,36.62,2.08,50.58-4.25a17,17,0,0,0,2.74.43,2.75,2.75,0,0,0,2.75-1.24,4.2,4.2,0,0,0,.62-2.48,36.73,36.73,0,0,0,3.42-2.34,1.6,1.6,0,0,0-.82-2.91c-3.91-.31-8.25-.61-12.83-.85-12.9-4.55-25.06-11-36.82-18.27-9.46-5.92-18.64-12.28-27.77-18.63-15.43-10.84-25.63-23.16-34.28-36.9,21.58,4.29,44.73,3.6,61.81-.32,2.68-.63,5.25-1.29,7.55-2.06a1.53,1.53,0,0,0,.82-2.32c-.09,0-.09-.1-.11-.17-.17-.24-.41-.29-.66-.43l-.06,0h0c-.17-.05-.2-.15-.34-.11l-.65-.11c-18.44-3.2-36-19.76-50.49-31-4.25-3.33-8.28-6.88-12.11-10.45,26.39,16.48,58.16,28.35,77.38,13.23.74-.64.83-2.22-.37-2.47-2.27-.45-4.35-1.15-6.61-1.65a6.38,6.38,0,0,0-.67.41,59.93,59.93,0,0,1-7.54-.82c-15.73-2.76-31.95-9.39-46.16-16.67-30.12-15.34-47.65-40.76-68.63-66.51-1.1-1.39-3.74.16-3,1.92a146.45,146.45,0,0,0,25.58,41.49,120.62,120.62,0,0,0,18,28.06c-1.75-1.08-3.5-2.21-5.19-3.43-9.86-7-19.22-16.28-30-21.63a2,2,0,0,0-2.27,3.21c3.81,4.64,7.79,8.91,12,13.09,16.39,17.78,33.64,33.09,53.88,44a126.57,126.57,0,0,1-15.31-2.2c-28.7-5.83-52.87-17.33-72.32-40.28-1.16-1.33-3.49.51-2.44,2a230.54,230.54,0,0,0,15.76,20.82c21.87,35.62,50.08,66.94,83.34,87.37a304.29,304.29,0,0,1-72.14-50.41c-1.91-1.78-4.34.84-2.73,2.83,7,9,13.33,17.3,20.42,24.9,20.62,27.4,46,54.78,75.74,70.17l-.08,0c-21.4-4.41-48.33-20.37-64-35.66-1.21-1.18-3.47.47-2.39,2a116.12,116.12,0,0,0,14.42,16c5.5,7,10.39,13.75,17.95,19.79a157.16,157.16,0,0,0,32.46,19.7c-39.24-8.71-79.15-35.53-106.1-66.12-2.21-2.55-5.39.77-4.22,3.4,3,7,7.74,13.45,13.27,19.45,4.94,8.43,9.49,17,14.33,25.39a.79.79,0,0,0-.39,1.14c3.12,5.25,6.29,10.34,9.77,15.3-9.52-8.91-18.52-18.36-27.4-27.88a105.62,105.62,0,0,1-5.8-12c-.42-1.08-2.2-1.05-2.05.21,2.26,17.59,9.68,36.33,21,49.65,1.84,2.23,5.39-.13,4.62-2.86a88.82,88.82,0,0,0-7.81-17.66c8.91,11.71,18,22.64,29.67,32.84a132.35,132.35,0,0,0,17.11,12.46c8.14,8.39,16.52,16.52,25.26,24.55,15.46,14.24,34.75,23.06,53.7,31.24,18.23,7.83,38,14.16,58.2,17.42-33,2.56-69.15,2.72-97.26-15.13-1.52-.92-3.73,1.14-2.54,2.68a46.23,46.23,0,0,0,13.67,12.48c21.26,19.88,48.37,35.48,75.17,44.66,7.84,2.72,16,5.36,24.36,7.81-46.3-5.93-96.36-6.5-130-43.45-1.1-1.22-3.21.44-2.27,1.88,3,4.28,6.17,9.74,9.68,14.79a.92.92,0,0,0,.09.69c16.49,27.51,36.49,46,61.92,56.81-5.85-.19-11.67-.44-17.48-1-17.3-1.48-35-5.44-50.45-13.65-13-6.76-20.72-20.57-29-32.34a.88.88,0,0,0-1.64.5,45.37,45.37,0,0,0,1,7.74.51.51,0,0,0-.12.54c4.37,14.92,6.91,34.29,12.39,51.79-3.23-3.71-6.5-7.4-9.62-11.27-17.22-20.82-25.28-46.32-35.16-71-.17-.43-.81-.7-1-.17s-.25.85-.41,1.32c-.28-.34-.85-.3-.77.2,0,.75,0,1.46,0,2.17a33.82,33.82,0,0,0-.77,8.72c-2.25,11.33-8.85,22.34-13.78,32.13a379.19,379.19,0,0,1-19.4,34.9,195.67,195.67,0,0,1-28.29,34.23,127.07,127.07,0,0,0,8-36.76c1.73-26.9,4.28-61.41-8.8-85.72-.53-1-1.93-.26-1.74.81.25,1.33.33,2.75.54,4.15-.81-.26-1.67.05-1.57,1.17,1.09,16.71-12.67,34.82-21,48.48-9.57,15.75-23.92,28.08-39.27,37.4-16.2,9.86-34.26,17-52.86,22,25.16-17.8,44.17-43.72,53.3-76.3a1.15,1.15,0,0,0-2.09-.92c-2.73,4.62-5.64,9.25-8.77,13.83a3.16,3.16,0,0,0-4.73-1.48c-34.8,21.58-68.75,40.27-108.58,50.1-21.89,5.41-44.54,4.13-66.48.12-4.48-.9-9.14-2.22-13.83-3.49-2.82.37-5.51.8-8.24,1a5.82,5.82,0,0,0-1.06.32c-2.27-.64-4.58-1.14-6.83-1.94-2.41-.8-3.56,2.74-1.59,4.07,2.38,1.64,4.9,3,7.36,4.46,50.46,29,118.06,20.33,169.26-11.37-.5.53-1,1-1.54,1.53a97.18,97.18,0,0,1-17.5,12.9c-.65.25-1.26.59-1.92.82-.44.08-.58.43-.78.68-3.47,1.85-7.06,3.66-10.71,5.22-6,1.78-12,3.65-18,5.83a4.08,4.08,0,0,0-2.16,1.87c-1.34,2.57-.25,6.56,3.27,6.14,29.07-3.41,58.79-5.8,86.11-16.68a125.16,125.16,0,0,0,14.24-6.47,181.34,181.34,0,0,0,33.62-23.5,243.5,243.5,0,0,1-22.59,30.4c-.7.7.41,1.85,1.17,1.07,15.55-15.95,33.27-32.77,44.15-53.13-.46,7.58-.88,15-1.15,22.36-.78,6.73-1.42,14-2.35,21.13-1.19,9.55-2.94,19.08-6.32,27.75a155,155,0,0,1-10.54,17c-.55.61-.11,1.93.84,1.57,10.93-4.23,17.32-10.64,25-19.7,9.38-11,20.32-20.06,30.34-30.2a152.7,152.7,0,0,0,10.8-12c2.37-3,4.78-6.32,7.17-9.76-2.5,8.91-5.74,17.39-10.22,24.68-.66,1,.92,1.89,1.57.88,8.71-12.73,13.91-25.2,17.63-39.61,17.46,26.84,40.24,46,63.77,67.87.85.8,2.06-.43,1.29-1.35-1.73-1.94-3.17-4-4.75-6.09,1.52,1.49,3.08,3,4.7,4.39,1.93,1.94,3.86,3.83,5.84,5.8a1,1,0,0,0,1.17.16,1.19,1.19,0,0,0,.55-1.62,396,396,0,0,1-18.38-46.76c-.56-1.55-1.1-3.07-1.55-4.67,53.39,20.22,124.46,39.12,170.16,4.79,2.21-1.64,1.79-6.37-1.61-5.94-4.42.53-9.08,1-13.86,1.35a3.74,3.74,0,0,0-2.39-1.29c-6.61-.73-13.19-1.11-19.86-1.35a130.69,130.69,0,0,1-16.68-4.93c28.58,2.17,56.48-1.8,78.36-17.94,1.54-1.14,3.11-2.12,4.57-3.41a64.32,64.32,0,0,0,6.81-4.06,1.2,1.2,0,0,0-.23-2.13A4.3,4.3,0,0,0,2465.4,511.71Z"/><path class="cls-12" d="M2054.06,281c-5.21,3.28-10,6.67-14.74,10.08-17.91,9-37.17,14-56.76,17.92-29,5.89-57.22,2.65-86.46,3.19a.74.74,0,0,0-.34,1.34,78.2,78.2,0,0,0,24.49,9.25c44.25,23.88,115.69,11.76,134.53-41.27C2054.94,281.12,2054.34,280.78,2054.06,281Z"/><path class="cls-13" d="M2100.71,109.65s-21.84,23-35.68,27-18.51,10.07-10.07,13.44-13.59,8.78-24.65,14.83-46.92,9.45-33.26,17.19,53.45-4.55,54.72,5.69-53.51,19.22-35,28.87,64.65-20.14,61.67-5.14,29.38,19.12,42.7,7.24,60.23-10.47,35.51-25.37-51.68,13.53-63.94-11.17-7-27.39-18.09-24,27.86-24.27,18.16-24.29S2123.55,94.84,2100.71,109.65Z"/><path class="cls-14" d="M2007,286.34s9.52-15.26-13.13,0-30.82,14.8-52.31,14.78-57.27-3.43-43,11.1,53.46,16.56,76.54,11.23,4.82,13.36,33.84,3.65,3.49,13.85-22.23,26.54-89.11,13.22-73.37,23.89,98.67-14.16,93.57.11,1,15.11,19.24,6.84S2073.77,358,2074,371.12s11.39,15.78,27-12.84,51.94,20.66,62.5-17.76-4.13-55.76-27.25-39.85-33.77,22.92-57.59,14.8-4.06-34.64-26-28.83S2061.34,262.11,2007,286.34Z"/><path class="cls-15" d="M2370.23,364.84s-39.16-20.16-40.83-6.27-6.85,4.41-27.05,11.82-69.71-9-64.64,8.2-20.57,11.4-35.08,17.31-33.18,8.76-20.84,25,13.22,40,28.1,20.05,7.6-25.82,38.33-20.66,44.28,2.79,47.54-12.05,13.33-9,31.3-12.79,37.77.65,40.73-13.16,23.76-3,19.26-16.48S2369.75,361.22,2370.23,364.84Z"/><path class="cls-16" d="M2172.87,231.88c-.35-19.84,13-11.43,48.22-11.38s9.76-11.47,1.27-36.54,30.67,18.33,41.75,2.85,14.74-3.61,22.24-4.35,39,7.77,34.74,17.19-21.17,5.06-40.1.78,12.42,8.68,29.27,25.48-52.59,8-62.36,12.43-14.47,3.08-24.87,0-18.93,8.22-24.77,12.48c-35.49,26.18-62.54,12.13-62.54,6.71,0,0-14.75-30.11,13.81-21.44S2173.19,248.38,2172.87,231.88Z"/><path class="cls-17" d="M2110.81,246.65s-23.92-17.56-24.59,0,7.78,24,17.56,19.49S2124.27,264.92,2110.81,246.65Z"/><path class="cls-18" d="M2196.86,188.65s-6.4-16.67-12.17-10.21S2216.55,206.2,2196.86,188.65Z"/><path class="cls-19" d="M2161.14,9.16s-11-20.58-19.46,0S2120.23,79.79,2119,82.76s21.34-44.61,26.51-21,17.8,39.82,19,21.62,6.8-19.71,20.5,0,16.93,15.54,5.69-5.38S2161.14,9.16,2161.14,9.16Z"/><path class="cls-20" d="M1910.08,474.53s-18.92,14.15-36.53,19.51-45.6-4.08-39.72,10.78,30.59,25.65,65.75,24.33,29.3,1.39,20.19,8.12,7,7.31,7,7.31-34.37,12.93-60.4,11.54-13.53,20.5,29,30.89,87.57-4.14,79.4.1.29,6.94,28.3,7,94.7-14.7,101.65-23.75-18.89,15.76-4.6,13.08,32.64-39.12,32.62-26.3-25.83,62.28-12,61.51,40.25-33.08,49.76-43.24,11.76-38,0-30.5,2.65-45.06-29.93-35-33.82-45.86-74.89-20-86.66,13.72-86-5.88-9.11-10.8-42.32,0S1933.82,460.13,1910.08,474.53Z"/><path class="cls-21" d="M2343.85,517.59s-81.81-16.52-47.56,16.79-51.46-11.84-41.7,10.61,27.17,56.88,27.88,50.79-15.55-35.12,12.46-25.64,53.21,11.6,51.33-.26,40.26,10.52,68.11-8.73-35.43-24.74-3.46-28.67,83.42-14.06,45-26.9-89-15.86-63.31-21.57,45.1-16.93,8-26.46-92.49-21-71.67,5.33,60.75,32.26,39,41.24S2321.49,496.83,2343.85,517.59Z"/><path class="cls-22" d="M2237.37,660.69s-32.95-37.72-58.16-14.3-49.5,37.75,11.71,44.53c0,0,27.28,10.44,41.22,0S2259,677.68,2237.37,660.69Z"/><path class="cls-23" d="M2091,688.13s3.5-32.37,31.3-25.14,51.4,19.87,33,35.12S2081.35,708.93,2091,688.13Z"/><path class="cls-24" d="M536.79,611.27s-57.15-.44-38.77,9.12,15.18,9.94,3.55,14.89-2.9,12.43,45.33,10.84,1.67-10,31.73-9.91,74-10.26,44.07-19.39S536.79,611.27,536.79,611.27Z"/><path class="cls-25" d="M532.74,510.64s-2.21,78.58-5.76,106.09c0,0,11.55,15.57,39.87,4.34,0,0-5-71.19-2-106.15C564.85,514.92,553.91,497.63,532.74,510.64Z"/><path class="cls-26" d="M741.05,519.09c.43-.43.16-1.45-.54-1.32-3,.42-6,.9-8.92,1.41-14-.78-27.63-4.41-39.45-12.38-3.08-2.1-6.48-4.41-10-7a102.84,102.84,0,0,0,36.34,1.8c.86-.11,1.23-1.47.19-1.7-6.06-1.24-12.14-2.55-18.15-4,9.82-.76,18.77-4.19,24.67-12.27.47-.67-.31-1.33-.89-1.22a95.09,95.09,0,0,1-21.74,1.27c-17.15-5.73-36.72-19.8-46.61-30.1-1.71-1.77-3.31-3.65-4.85-5.55,14.15-1.22,30.68-5.1,38.75-15.95,1.48-2,.19-5.51-2.58-4.56-1.55.55-3.07,1-4.63,1.43-1.4.17-2.8.25-4.19.29a90.58,90.58,0,0,1-34-9.51,30,30,0,0,0,13.61-3.4,15,15,0,0,0,6-2.62c.45-.32.34-1.26-.3-1.23.12-.12.32-.26.44-.38a.72.72,0,0,0-.47-1.22,51.15,51.15,0,0,1-14.39-.79,61.13,61.13,0,0,1-13.92-9.31c11.72,1.66,23.69,1.61,32.67-2.42a7.5,7.5,0,0,0,1.67.25c1.44.23,2.13-1,2.08-2.26.7-.46,1.44-.93,2.09-1.42a1,1,0,0,0-.48-1.82c-2.42-.18-5.08-.37-7.89-.52C651.25,387.56,638.48,378.71,626,370c-9.48-6.67-15.71-14.23-21-22.63,15.3,3,31.9,2,42.54-1.46a.94.94,0,0,0,.49-1.43s0-.06-.06-.1a.92.92,0,0,0-.42-.26v0h0c-.1,0-.12-.12-.21-.08a1.27,1.27,0,0,0-.37-.05c-11.3-2-22.09-12.15-31-19-2.6-2-5.08-4.22-7.42-6.41,16.17,10.1,35.68,17.38,47.45,8.12.48-.42.53-1.35-.22-1.51-57.44-11.43-86.35-63.93-103.83-117-.79-2.42-4.61-2.81-5.15,0-.21,1.21-.35,2.44-.52,3.6a3.73,3.73,0,0,0-4.65,2.32c-7.29,25.51-15.17,68.27-46.14,75-.66.15-.37,1.13.29,1a40.32,40.32,0,0,0,15.11-6C498,297.58,479.65,313.72,461,314.34a1.27,1.27,0,0,0,0,2.53,83,83,0,0,0,36.83-7.1c-9.17,10.57-20.36,19.43-33,24.79-2.08.87-1.28,4.09,1,3.52A92,92,0,0,0,503,319.34h0c-1.08,1.68-2.17,3.41-3.4,5-1.12,1.34-2.29,2.69-3.37,4.08A71.14,71.14,0,0,1,448.56,353a1.6,1.6,0,0,0,0,3.19,67.34,67.34,0,0,0,19.1-.3c-11,7.17-23.95,12.48-35.53,10a1.21,1.21,0,0,0-.57,2.35c17.32,5.77,32.41,1.82,48-6.44-19.07,20-42.39,34.12-72.31,32.85a2,2,0,0,0-2,2.32c-2-.22-3.25,2.72-1.31,3.84,16.94,9.55,35.59,11.88,54.14,9.51-1.85,1.39-3.67,2.77-5.54,4-17.17,11.93-36.08,20.34-56.71,22.65a2,2,0,0,0-1.87,1.65c-2,0-3.94,0-5.92,0-2.94,0-3.44,4.44-.65,5.2A140.54,140.54,0,0,0,452.92,446c-1.58,2.17-3.21,4.27-4.9,6.39-.35.3-.71.58-1.08.86-12.15,8.71-26.9,10.81-39.68,18.17a1.21,1.21,0,0,0,.94,2.18c10.14-3.46,20.55-5.69,30.38-9.83-4.33,4.84-8.85,9.64-13.67,14.25-14.27,13.63-35.45,33-55.05,35.15a2.57,2.57,0,0,0-2.34,2.37,38.21,38.21,0,0,1-7.86-3.66,1.72,1.72,0,0,0-2.27,2.38c9.44,14.71,36.22,13.93,51.27,13a125.24,125.24,0,0,0,27.61-5c-7.29,5.32-16,8.94-24,12.44-1.49.67-.93,3.1.66,2.56q5-1.65,10-3.35a106,106,0,0,1-47.36,16.73,2.84,2.84,0,0,0-.6.19c-1.4-.4-2.82-.7-4.22-1.2s-2.18,1.7-1,2.49c32.3,21.71,78.14,15.89,111.39-6-4.59,4.85-9.51,9.23-15.88,11.14a1.38,1.38,0,0,0-.84,1.85c-5.72,1.62-11.48,3.27-17.26,5.35-2.45.88-2.17,5.25.66,4.94,21-2.45,42.59-4,61.6-14.19A113.74,113.74,0,0,0,530,540.72a150,150,0,0,1-13.88,18.61.49.49,0,0,0,.71.68c10-10.19,21.44-21,28-34.2-.34,3.92-.67,7.89-1.23,11.72-1.42,10.6-1.63,23.15-5.72,33.58a93.74,93.74,0,0,1-6.47,10.46c-.34.38-.05,1.19.54,1,6.69-2.59,10.59-6.51,15.36-12.11,7.87-9.21,17.62-16.28,25.21-25.87,1.46-1.84,2.94-3.85,4.4-6a59.89,59.89,0,0,1-6.25,15.13c-.44.62.55,1.16.94.54A73.54,73.54,0,0,0,582.5,530c10.69,16.47,24.68,28.2,39.12,41.64.54.51,1.25-.26.79-.82-1.14-1.35-2.15-2.78-3.27-4.18,2.27,2.22,4.52,4.46,6.81,6.69.62.59,1.42-.17,1.07-.9a241.69,241.69,0,0,1-12.25-31.55c32.79,12.42,76.35,24,104.42,2.95,1.36-1,1.06-3.92-1-3.65-2.84.33-5.86.64-9,.83a69.09,69.09,0,0,1-23.34-4.66c18.71,1.45,37.09-1.32,50.85-13.08a42.33,42.33,0,0,0,4.16-2.49.74.74,0,0,0-.12-1.32C740.84,519.29,741,519.21,741.05,519.09Z"/><path class="cls-27" d="M431.6,368.2c17.32,5.77,32.41,1.82,48-6.44a124.37,124.37,0,0,1-24.1,19.95,92.84,92.84,0,0,1-13.46,6.9c2.62-.34,5.19-.73,7.61-1.11a104.29,104.29,0,0,0,22.59-6.11c7.13-2.91,22-12.58,28.3-17.27C496,377.06,480.72,394.84,482.13,394c16.28-10.16,21.62-16.6,30.27-28.76.16,17.39-2.87,34.79-1.21,52.18.19,1.73-1.14,5.4.14,4.15,5.54-5.26,27.95-49.41,31.18-54.38,4.11,12.61,17.42,35.92,17.78,34.82,3.48-9.77,1.72-20.63,1.1-31,9.05,8,34.24,18.15,32.41,16.36-16.55-16-32.26-37.39-34.45-61.48-.2-1.95-6.15,21.77-7.84,33.38-8-11.73-10.25-42.88-11.19-41.27-8.73,14.37-13.54,30.66-21.17,45.6-2.21-11.78,3.58-39.69,2.17-38.51-4.73,3.95-8.69,8.62-12.88,13.13a66.61,66.61,0,0,1-12.32,9.82c5.27-7.64,13.84-25.9,13.11-24.94-7,9.49-18.34,15.83-30.34,19.85a70.92,70.92,0,0,1-8.46,4.41A69.85,69.85,0,0,1,448.56,353a1.6,1.6,0,0,0,0,3.19,67.34,67.34,0,0,0,19.1-.3c-11,7.17-23.95,12.48-35.53,10A1.21,1.21,0,0,0,431.6,368.2Z"/><path class="cls-28" d="M461,316.87c.45,0,.81,0,1.25,0,.6-.21,1.25-.34,1.87-.56a1.92,1.92,0,0,0,1,.14c18.63-1.59,35.7-13,51.79-22.67-3,3.86-7.12,7.17-10.55,10.25-1.37,1.29-.3,4.21,1.66,4,11.81-1.57,23.06-9.36,31.74-18.24-.95,4.63-2.47,9.11-2.94,13.89-.21,2,2.59,3,3.78,1.56,5.21-6.13,8-13.66,11.72-20.71,3.46,7.72,5.81,15.67,11,22.55a1.8,1.8,0,0,0,3.35-.94c.34-5.91-.2-11.77-.48-17.65a62.69,62.69,0,0,1,18.18,14.5c1.5,1.72,3.88-.82,2.41-2.56-10.71-12.07-15.36-27.85-23.15-41.82a1.63,1.63,0,0,0-3,.44,76.31,76.31,0,0,1-2.52,11.12c-3.38-5.95-4.27-12.05-4.36-19.2a1.8,1.8,0,0,0-3.08-1.3c-4.36,4.66-7.57,10.23-11.55,15.15,1.71-11.48,5.24-22.55,6.74-34a214.17,214.17,0,0,0,1.79-24.15,2.37,2.37,0,0,0-.92,1.52c-.21,1.21-.35,2.44-.52,3.6a4,4,0,0,0-4.65,2.32c-7.29,25.51-15.17,68.27-46.14,75-.66.15-.37,1.13.29,1a40.32,40.32,0,0,0,15.11-6c-6.91,7.33-15.46,15.39-24.78,21.35-7.85,5.07-16.27,8.64-24.77,9H461a1.53,1.53,0,0,0-.88.47A1.27,1.27,0,0,0,461,316.87Z"/><path class="cls-29" d="M651.69,475c-7.45-2.05-14.59-3.66-21.47-5.73-7-6.33-15.06-11.2-22.1-17.52-7.35-6.61-11.68-16.15-19.12-22.28a2.06,2.06,0,0,0-3.47,1.53,35.65,35.65,0,0,0,.69,7.95c.62,3.69,2.95,15-3.36,6-2.9-4.1-4.52-8.76-8.17-12.24a1.63,1.63,0,0,0-2.6.37c-4,5.7-1.86,12.21-1.15,18.64-4.3-7.14-6-15.54-10.74-22.61a1.68,1.68,0,0,0-2.87.05c-4.73,8.12-4.25,17.59-4,26.91-2.82-8.47-4.46-17.19-7-25.86a1.57,1.57,0,0,0-2.89-.34c-6.07,10.84-8.17,23.18-12.61,34.67-.65-12.61.77-25.15,1.6-37.82a1.65,1.65,0,0,0-2.81-1.2A284.24,284.24,0,0,0,497,480.67a288.62,288.62,0,0,1,8.7-48.39,1.64,1.64,0,0,0-2.73-1.62c-9.15,9.8-17.55,19.88-28.28,27.95-8.25,6.3-16.82,12.23-25.35,18.21,4.86-5.84,10.09-11.21,14.18-17.9,6.54-10.67,15-20.6,20.22-32,.45-1-.55-2.43-1.57-1.61-9.5,7.47-18.28,15.76-28.55,22.2-1.06.64-2.17,1.23-3.25,1.79-.79,1-1.57,2.07-2.36,3.05-.35.3-.71.58-1.08.86s-1,.62-1.55,1c-11.83,7.84-25.91,10.19-38.13,17.2a1.21,1.21,0,0,0,.94,2.18c10.14-3.46,20.55-5.69,30.38-9.83-4.33,4.84-8.85,9.64-13.67,14.25-11.86,11.32-28.44,26.54-44.93,32.66a42.75,42.75,0,0,1-10.12,2.49,4.29,4.29,0,0,0-.57.15c21.51,6.22,47.28-.2,66.39-9.34a129.76,129.76,0,0,0,25.08-15.64c2.93-2.37,5.71-4.86,8.5-7.39a50.81,50.81,0,0,0,4.76-5l1.07,4.11a46.41,46.41,0,0,1-3.14,7.8,130,130,0,0,1-14.11,24.26c-6.65,8.79-15.15,15.82-22.09,24.33a1.67,1.67,0,0,0,2.33,2.39c14.82-12.61,34.16-17.19,51.1-25.77A80.6,80.6,0,0,0,521.51,483C519,494.62,513,505.37,510.65,517.1c-.37,1.75,1.75,3.24,3,1.8,6.75-7.56,11-16.61,15.78-25.57,4.55-8.52,8.57-19.22,15.09-26.46,4.21,12.35,4.9,27.1,14.64,36.38a1.83,1.83,0,0,0,3.06-.89c1.81-8.06-2.23-22.1,2.33-29.59,3.46,8.51,8,17.54,16.92,20.48a1.93,1.93,0,0,0,2.29-1.4c1.06-7.77-2.43-14.27-4.53-21.37a62,62,0,0,0,11,9.93c1.14.77,2.2-.54,2-1.63A46.81,46.81,0,0,0,588.69,467c-3.13-7.74-1.83-5.7,3.21-1.29,6.47,5.67,12.4,10.21,21,11.36.6.08,1.32-.56.85-1.16-3.54-4.95-7.06-9.66-9.67-15.1,13.82,10.41,30.07,17.25,47.45,15.9A.89.89,0,0,0,651.69,475Z"/><path class="cls-30" d="M497.35,393.57c-1.62,1.21-3.27,2.47-4.88,3.66a149,149,0,0,1-13.35,7.64,111.77,111.77,0,0,0,15.45-10.44.19.19,0,0,0-.24-.3c-7.35,5.25-15.42,8.73-23.52,12.64-8.49,4.07-15.45,10.28-23.45,15.32-8.56,5.42-17.93,8.93-27.61,11.56-4.42,1.25-9.28,1.75-14,2.68a138.86,138.86,0,0,1-13.94,1.14c-.43,0-.53.68-.07.84,1.6.39,3.27.66,4.9,1a1,1,0,0,0,.71,1.48,90.2,90.2,0,0,0,13.83-.29c32.79-.38,67-20.54,87.13-45.58C499,394.22,498.14,392.91,497.35,393.57Z"/><path class="cls-31" d="M741.05,519.09c.43-.43.16-1.45-.54-1.32-3,.42-6,.9-8.92,1.41a82.51,82.51,0,0,1-29-6.64,64.11,64.11,0,0,1-10.5-5.74c-3.08-2.1-6.48-4.41-10-7a102.84,102.84,0,0,0,36.34,1.8c.86-.11,1.23-1.47.19-1.7-6.06-1.24-12.14-2.55-18.15-4,7.44-.57,14.37-2.73,19.92-7.24a27.48,27.48,0,0,0,4.75-5c.47-.67-.31-1.33-.89-1.22a95.09,95.09,0,0,1-21.74,1.27,87.42,87.42,0,0,1-10.19-4.32c-14.17-6.8-28.42-17.48-36.42-25.78-1.71-1.77-3.31-3.65-4.85-5.55,13.49-1.18,29-4.82,37.44-14.54.44-.47.92-.9,1.31-1.41,1.48-2,.19-5.51-2.58-4.56-1.55.55-3.07,1-4.63,1.43-1.4.17-2.8.25-4.19.29a90.58,90.58,0,0,1-34-9.51c1.09,0,2.14-.09,3.19-.21a30.17,30.17,0,0,0,8.33-2.24,20.63,20.63,0,0,0,2.09-.95,15,15,0,0,0,6-2.62c.45-.32.34-1.26-.3-1.23.12-.12.32-.26.44-.38a.72.72,0,0,0-.47-1.22,51.15,51.15,0,0,1-14.39-.79,61.13,61.13,0,0,1-13.92-9.31c.54.06,1.1.12,1.61.2,11.22,1.43,22.5,1.25,31.06-2.62a7.5,7.5,0,0,0,1.67.25,1.62,1.62,0,0,0,1.69-.75,2.52,2.52,0,0,0,.39-1.51c.7-.46,1.44-.93,2.09-1.42a1,1,0,0,0-.48-1.82c-2.42-.18-5.08-.37-7.89-.52A116.42,116.42,0,0,1,643,381.41c-5.8-3.63-11.44-7.51-17-11.42-9.48-6.67-15.71-14.23-21-22.63a95.74,95.74,0,0,0,37.93-.21c1.62-.39,3.2-.78,4.61-1.25a.94.94,0,0,0,.49-1.43s0-.06-.06-.1a.92.92,0,0,0-.42-.26v0h0c-.1,0-.12-.12-.21-.08a1.27,1.27,0,0,0-.37-.05c-11.3-2-22.09-12.15-31-19-2.6-2-5.08-4.22-7.42-6.41,16.17,10.1,35.68,17.38,47.45,8.12.48-.42.53-1.35-.22-1.51-1.4-.3-2.67-.72-4-1a2.13,2.13,0,0,0-.42.23,31.75,31.75,0,0,1-4.64-.48c-9.64-1.69-19.6-5.76-28.33-10.21-18.46-9.42-29.22-25-42.09-40.82-.68-.85-2.27.08-1.86,1.17A89.69,89.69,0,0,0,590,299.44a75.24,75.24,0,0,0,11,17.22c-1.06-.68-2.13-1.36-3.17-2.09-6.06-4.29-11.77-10-18.4-13.28a1.24,1.24,0,0,0-1.42,2c2.38,2.83,4.83,5.45,7.37,8,10.08,10.89,20.64,20.28,33.06,27a78.34,78.34,0,0,1-9.37-1.35c-17.64-3.59-32.45-10.63-44.37-24.7-.73-.85-2.18.3-1.52,1.24a146.05,146.05,0,0,0,9.66,12.78c13.45,21.85,30.72,41.06,51.15,53.6a186,186,0,0,1-44.25-30.93c-1.2-1.1-2.66.51-1.67,1.75,4.24,5.46,8.15,10.61,12.51,15.25,12.65,16.81,28.2,33.59,46.47,43.07a.08.08,0,0,1,0-.06c-13.15-2.7-29.65-12.45-39.3-21.84-.73-.73-2.13.28-1.44,1.21a73.69,73.69,0,0,0,8.81,9.8c3.42,4.26,6.38,8.43,11,12.14a96.78,96.78,0,0,0,19.9,12.09C612,417,587.52,400.52,571,381.78c-1.4-1.56-3.33.48-2.63,2.1a42.75,42.75,0,0,0,8.13,11.91c3,5.2,5.84,10.44,8.83,15.58a.48.48,0,0,0-.26.7c1.91,3.21,3.87,6.34,6,9.4-5.81-5.5-11.37-11.29-16.8-17.13a58.4,58.4,0,0,1-3.55-7.35c-.25-.68-1.38-.63-1.26.16,1.38,10.78,5.91,22.26,12.89,30.43,1.14,1.38,3.33-.07,2.83-1.76A53.07,53.07,0,0,0,580.4,415a128.37,128.37,0,0,0,18.21,20.15,75.11,75.11,0,0,0,10.51,7.64c5,5.15,10.12,10.15,15.5,15.08,9.45,8.73,21.3,14.13,32.93,19.16a153.61,153.61,0,0,0,35.72,10.68c-20.27,1.59-42.45,1.68-59.69-9.27-.94-.56-2.28.7-1.56,1.65a28.58,28.58,0,0,0,8.4,7.64,130.73,130.73,0,0,0,46.14,27.41c4.79,1.64,9.76,3.27,14.91,4.79-28.41-3.67-59.13-4-79.77-26.66-.66-.74-2,.29-1.39,1.15,1.85,2.61,3.77,6,6,9.08,0,.15-.07.26.06.42,10.11,16.88,22.38,28.22,38,34.88-3.59-.12-7.17-.28-10.71-.61-10.63-.92-21.47-3.35-31-8.37-8-4.15-12.73-12.64-17.78-19.85a.54.54,0,0,0-1,.29,26.69,26.69,0,0,0,.6,4.76.27.27,0,0,0-.1.34c2.68,9.16,4.24,21,7.62,31.78-2-2.28-4-4.56-5.91-6.93-10.55-12.78-15.51-28.42-21.56-43.6-.1-.24-.48-.4-.62-.08a7.07,7.07,0,0,0-.25.81c-.17-.22-.53-.18-.48.09,0,.49,0,.93,0,1.38a20.26,20.26,0,0,0-.46,5.35c-1.41,6.94-5.44,13.7-8.45,19.71a239.53,239.53,0,0,1-11.92,21.38,118.6,118.6,0,0,1-17.35,21,78.11,78.11,0,0,0,4.92-22.54c1.06-16.48,2.62-37.67-5.4-52.58-.33-.65-1.2-.15-1.06.49.14.81.19,1.68.33,2.54-.49-.17-1,0-1,.73.67,10.26-7.77,21.36-12.88,29.73-5.9,9.67-14.69,17.24-24.09,22.95a126.43,126.43,0,0,1-32.44,13.51,84.41,84.41,0,0,0,32.71-46.8.71.71,0,0,0-1.29-.55c-1.67,2.82-3.46,5.66-5.38,8.45a2,2,0,0,0-2.91-.89C475.14,534.52,454.32,546,429.85,552c-13.42,3.34-27.3,2.55-40.78.09-2.73-.55-5.61-1.35-8.5-2.15-1.69.23-3.35.49-5.05.65a2.84,2.84,0,0,0-.6.19c-1.4-.4-2.82-.7-4.22-1.2s-2.18,1.7-1,2.49c1.44,1,3,1.86,4.52,2.75,30.95,17.76,72.44,12.49,103.84-7-.31.31-.61.63-.95.93a57.75,57.75,0,0,1-10.74,7.9c-.39.15-.77.37-1.16.49s-.36.26-.48.44q-3.22,1.73-6.59,3.21c-3.67,1.09-7.33,2.23-11,3.55a2.83,2.83,0,0,0-1.34,1.16c-.8,1.57-.13,4,2,3.78,17.85-2.13,36.1-3.59,52.85-10.24a84.2,84.2,0,0,0,8.75-4A113.74,113.74,0,0,0,530,540.72a150,150,0,0,1-13.88,18.61.49.49,0,0,0,.71.68c9.54-9.78,20.44-20.09,27.11-32.59-.29,4.64-.56,9.22-.72,13.7-.49,4.15-.84,8.58-1.43,13a72.48,72.48,0,0,1-3.88,17,93.74,93.74,0,0,1-6.47,10.46c-.34.38-.05,1.19.54,1,6.69-2.59,10.59-6.51,15.36-12.11,5.73-6.69,12.45-12.28,18.6-18.51a84.32,84.32,0,0,0,6.61-7.36c1.46-1.84,2.94-3.85,4.4-6a59.89,59.89,0,0,1-6.25,15.13c-.44.62.55,1.16.94.54A73.54,73.54,0,0,0,582.5,530c10.69,16.47,24.68,28.2,39.12,41.64.54.51,1.25-.26.79-.82-1-1.19-2-2.48-2.9-3.73.93.9,1.9,1.82,2.86,2.7l3.58,3.54a.64.64,0,0,0,.71.12.77.77,0,0,0,.36-1,243.65,243.65,0,0,1-11.28-28.68c-.33-.94-.69-1.89-1-2.87,32.79,12.42,76.35,24,104.42,2.95,1.36-1,1.06-3.92-1-3.65-2.7.32-5.54.6-8.48.8a2.34,2.34,0,0,0-1.48-.78c-4-.44-8.07-.65-12.15-.82a73.32,73.32,0,0,1-10.21-3c17.5,1.32,34.61-1.08,48-11,.94-.7,1.92-1.31,2.82-2.07a42.33,42.33,0,0,0,4.16-2.49.74.74,0,0,0-.12-1.32C740.84,519.29,741,519.21,741.05,519.09Z"/><path class="cls-32" d="M488.69,377.57c-3.2,2-6.16,4.09-9.05,6.19-11,5.48-22.79,8.55-34.81,11-17.82,3.6-35.13,1.62-53.05,2a.45.45,0,0,0-.21.82,48.64,48.64,0,0,0,15,5.67c27.14,14.64,71,7.19,82.51-25.33C489.22,377.61,488.85,377.4,488.69,377.57Z"/><path class="cls-33" d="M517.33,272.42s-13.4,14.09-21.92,16.55-11.33,6.18-6.17,8.26-8.33,5.36-15.15,9.08-28.77,5.82-20.38,10.54,32.79-2.8,33.59,3.5-32.86,11.79-21.5,17.73,39.66-12.38,37.84-3.17,18.05,11.73,26.2,4.44,36.95-6.41,21.76-15.56-31.68,8.29-39.2-6.87-4.32-16.78-11.11-14.71,17.11-14.88,11.15-14.88S531.34,263.32,517.33,272.42Z"/><path class="cls-34" d="M459.8,380.83s5.85-9.39-8.06,0-18.9,9.06-32.1,9.05-35.12-2.12-26.36,6.82,32.78,10.16,47,6.89,3,8.19,20.76,2.24,2.12,8.5-13.63,16.27-54.68,8.11-45,14.65,60.54-8.67,57.39.06.64,9.29,11.82,4.2,29.25-16.22,29.42-8.17,7,9.67,16.56-7.89,31.86,12.67,38.35-10.87-2.54-34.22-16.71-24.45-20.74,14-35.35,9.07-2.5-21.25-15.94-17.68S493.16,366,459.8,380.83Z"/><path class="cls-35" d="M682.66,429s-24-12.38-25-3.88-4.22,2.74-16.61,7.26-42.74-5.5-39.65,5.05-12.61,7-21.52,10.62-20.36,5.36-12.79,15.3,8.13,24.52,17.25,12.28S589,459.78,607.8,463,635,464.68,637,455.58s8.14-5.48,19.18-7.86,23.19.42,25-8.07,14.57-1.81,11.79-10.1S682.37,426.75,682.66,429Z"/><path class="cls-36" d="M561.58,347.41c-.22-12.18,8-7,29.57-7s6-7,.78-22.4,18.83,11.25,25.65,1.72,9-2.19,13.63-2.66,23.9,4.78,21.29,10.56-13,3.11-24.6.47,7.62,5.33,18,15.63-32.26,4.89-38.24,7.64-8.88,1.88-15.28,0-11.61,5-15.19,7.68c-21.78,16-38.4,7.4-38.37,4.08,0,0-9.06-18.47,8.48-13.18S561.77,357.52,561.58,347.41Z"/><path class="cls-37" d="M523.48,356.45s-14.65-10.75-15.06,0,4.77,14.76,10.77,11.95S531.78,367.68,523.48,356.45Z"/><path class="cls-38" d="M576.31,320.88s-3.94-10.21-7.48-6.26S588.39,331.66,576.31,320.88Z"/><path class="cls-39" d="M554.38,210.77s-6.78-12.64-11.93,0-13.15,43.36-13.92,45.18,13.08-27.36,16.25-12.88,10.93,24.45,11.67,13.27,4.17-12.11,12.57,0,10.4,9.54,3.5-3.32S554.38,210.77,554.38,210.77Z"/><path class="cls-40" d="M400.34,496.25s-11.61,8.71-22.4,12-28-2.5-24.36,6.59,18.73,15.77,40.32,15,18,.85,12.39,5,4.26,4.49,4.26,4.49-21.07,7.92-37,7.07-8.31,12.57,17.8,18.94,53.73-2.52,48.72.08.19,4.25,17.36,4.28,58.08-9,62.36-14.57-11.59,9.63-2.8,8,20-24,20-16.12-15.86,38.2-7.38,37.73,24.7-20.29,30.53-26.53,7.23-23.35,0-18.71,1.65-27.66-18.36-21.46-20.73-28.15-45.95-12.26-53.14,8.39-52.73-3.6-5.58-6.63-26,0S414.92,487.44,400.34,496.25Z"/><path class="cls-41" d="M666.49,522.66s-50.23-10.1-29.2,10.32-31.57-7.25-25.59,6.52,16.67,34.9,17.11,31.16-9.53-21.55,7.65-15.73S669.1,562,668,554.77s24.68,6.47,41.76-5.34-21.72-15.2-2.11-17.6,51.17-8.64,27.6-16.55-54.62-9.69-38.83-13.18,27.65-10.4,4.88-16.24-56.73-12.89-43.95,3.27,37.28,19.78,23.94,25.26S652.75,510,666.49,522.66Z"/><path class="cls-42" d="M601.15,610.5s-20.22-23.16-35.68-8.8-30.38,23.19,7.2,27.31c0,0,16.72,6.43,25.27.06S614.43,620.92,601.15,610.5Z"/><path class="cls-43" d="M511.31,627.32s2.17-19.85,19.22-15.43,31.5,12.18,20.25,21.55S505.42,640.05,511.31,627.32Z"/><path class="cls-44" d="M305.93,701.17s-95.15-.75-64.56,15.15,25.26,16.6,6,24.83-4.85,20.68,75.42,18.06,2.8-16.56,52.85-16.5S498.93,725.6,449,710.36,305.93,701.17,305.93,701.17Z"/><path class="cls-45" d="M299.21,533.58s-3.72,130.87-9.57,176.69c0,0,19.17,25.91,66.38,7.22,0,0-8.38-118.55-3.38-176.77C352.64,540.72,334.4,511.9,299.21,533.58Z"/><path class="cls-46" d="M646.11,547.65c.72-.74.29-2.41-.9-2.2-5,.7-10,1.5-14.83,2.37-23.31-1.31-46.06-7.35-65.76-20.64-5.12-3.44-10.79-7.31-16.59-11.57,21.12,4.86,43.12,5.51,60.54,3,1.41-.19,2-2.42.34-2.8q-15.25-3.1-30.25-6.69c16.35-1.28,31.25-7,41.06-20.45.79-1.09-.52-2.21-1.5-2a157.74,157.74,0,0,1-36.2,2.11c-28.53-9.52-61.1-33-77.6-50.11-2.88-2.93-5.49-6.06-8.07-9.25,23.57-2.05,51.1-8.53,64.54-26.6,2.4-3.24.29-9.13-4.32-7.5-2.58.87-5.11,1.6-7.7,2.33-2.33.27-4.67.41-7,.47-18.67-1.12-38.81-7-56.52-15.83A49.71,49.71,0,0,0,508,376.56a24.28,24.28,0,0,0,9.91-4.34c.79-.56.6-2.14-.48-2.06a9.06,9.06,0,0,1,.75-.64,1.19,1.19,0,0,0-.84-2,84,84,0,0,1-23.95-1.36c-8.29-3.76-16-9.43-23.16-15.47,19.55,2.74,39.48,2.67,54.43-4a16.43,16.43,0,0,0,2.76.41c2.39.36,3.58-1.7,3.45-3.76a38.22,38.22,0,0,0,3.5-2.39,1.64,1.64,0,0,0-.83-3c-4-.31-8.44-.64-13.1-.85-23.91-8.42-45.2-23.19-66-37.74-15.77-11-26.19-23.64-35-37.67,25.49,5,53.1,3.32,70.88-2.42a1.56,1.56,0,0,0,.8-2.35c-.07,0-.07-.15-.09-.22a1.37,1.37,0,0,0-.71-.39l0-.06h-.05c-.12,0-.18-.16-.33-.12l-.64-.12c-18.84-3.28-36.79-20.18-51.62-31.71-4.34-3.38-8.44-7-12.34-10.65,27,16.81,59.41,28.94,79,13.51.79-.67.89-2.26-.33-2.51-95.7-19.07-143.82-106.48-172.94-195-1.32-4-7.68-4.66-8.55.09-.36,2-.58,4-.86,6a6.22,6.22,0,0,0-7.77,3.9c-12.13,42.43-25.24,113.7-76.82,124.79-1.15.27-.67,1.88.44,1.73,8.36-1.24,16.91-4.8,25.19-10-21.38,22.61-51.91,49.48-82.94,50.55-2.58.1-2.55,4.14,0,4.18,22.32.61,42.5-3.4,61.33-11.83-15.29,17.61-33.92,32.41-55,41.28-3.45,1.49-2.17,6.81,1.58,5.85,22.49-5.7,44.08-15.92,62-31.2h0c-1.81,2.8-3.63,5.67-5.65,8.31-1.87,2.25-3.84,4.49-5.64,6.82C218,253.57,189.74,268.48,159,270.94c-3.43.29-3.24,4.93,0,5.38a110.91,110.91,0,0,0,31.82-.51c-18.28,11.93-39.9,20.78-59.14,16.67a2,2,0,0,0-1,3.9c28.88,9.66,54,3,79.94-10.7-31.78,33.26-70.62,56.78-120.43,54.67-2.15-.09-3.31,2-3.2,3.89-3.41-.41-5.43,4.54-2.2,6.35,28.19,15.93,59.25,19.81,90.13,15.81-3.06,2.38-6.09,4.65-9.19,6.77-28.59,19.86-60.12,33.9-94.49,37.74a3.34,3.34,0,0,0-3.08,2.71c-3.29,0-6.57,0-9.84.06-4.87-.06-5.73,7.39-1.08,8.67a233.33,233.33,0,0,0,109,3.53c-2.66,3.6-5.41,7.11-8.2,10.64-.54.49-1.14,1-1.76,1.41-20.25,14.52-44.84,18-66.1,30.27-1.87,1.14-.53,4.29,1.53,3.62,16.9-5.75,34.24-9.45,50.64-16.36-7.23,8.1-14.77,16-22.82,23.74-23.76,22.72-59,54.95-91.62,58.52a4.34,4.34,0,0,0-3.93,4A65.94,65.94,0,0,1,11,535.59c-2.36-1.47-5.29,1.61-3.79,4C22.89,564,67.5,562.75,92.55,561.26c12.78-.69,29.45-3.52,46-8.4-12.14,8.91-26.65,14.9-40,20.73-2.45,1.1-1.51,5.17,1.13,4.26,5.52-1.83,11.09-3.72,16.57-5.58C92.7,588,65.11,597.15,37.39,600.12a6.13,6.13,0,0,0-1,.33c-2.33-.65-4.71-1.17-7-2-2.48-.83-3.66,2.79-1.65,4.11,53.79,36.17,130.13,26.5,185.49-10.07-7.64,8.11-15.81,15.41-26.46,18.64a2.25,2.25,0,0,0-1.35,3.05c-9.55,2.69-19.11,5.41-28.74,8.88-4.08,1.45-3.63,8.77,1.11,8.18,35-4,70.91-6.64,102.57-23.6a187.68,187.68,0,0,0,34.32-24,244.17,244.17,0,0,1-23.11,31c-.67.76.44,1.93,1.21,1.15,16.61-17,35.68-35,46.66-57-.54,6.56-1.11,13.15-2,19.55-2.37,17.66-2.71,38.59-9.56,56a157.85,157.85,0,0,1-10.75,17.4c-.54.63-.08,2,.88,1.61,11.16-4.32,17.67-10.87,25.59-20.16,13.13-15.35,29.38-27.14,42-43.09,2.44-3.05,4.88-6.45,7.31-10-2.54,9.07-5.87,17.76-10.42,25.21-.7,1,.94,1.93,1.59.9,8.92-13,14.23-25.79,18-40.52,17.88,27.47,41.14,47,65.17,69.38.91.84,2.09-.44,1.33-1.39-1.91-2.21-3.58-4.62-5.42-7q5.61,5.58,11.36,11.15c1,1,2.34-.28,1.75-1.52a396.6,396.6,0,0,1-20.37-52.51c54.57,20.68,127.13,40,173.86,4.93,2.25-1.68,1.81-6.52-1.67-6.09-4.75.57-9.79,1.07-15,1.4a116.3,116.3,0,0,1-38.93-7.77c31.18,2.41,61.79-2.23,84.73-21.83a67.42,67.42,0,0,0,7-4.11,1.26,1.26,0,0,0-.25-2.2A6.69,6.69,0,0,0,646.11,547.65Z"/><path class="cls-47" d="M130.76,296.38c28.88,9.66,54,3,79.94-10.7-12.26,12.79-25.57,24.17-40.13,33.19a154.39,154.39,0,0,1-22.41,11.52c4.4-.6,8.63-1.24,12.67-1.88a175.29,175.29,0,0,0,37.63-10.16c11.84-4.87,36.64-21,47.13-28.75-7.55,21.56-33.05,51.13-30.66,49.68,27.13-16.89,36-27.63,50.39-47.87.25,29-4.78,57.91-2,86.9.31,2.88-1.9,8.95.19,6.92,9.27-8.78,46.57-82.35,52-90.57,6.79,21,29,59.79,29.55,58,5.8-16.27,2.86-34.35,1.84-51.57,15.09,13.24,57,30.19,53.95,27.23-27.51-26.65-53.72-62.25-57.35-102.36-.29-3.25-10.23,36.22-13,55.59-13.38-19.55-17.11-71.41-18.68-68.73-14.52,23.92-22.52,51-35.28,75.91-3.67-19.59,6-66.08,3.65-64.13-7.92,6.58-14.46,14.36-21.48,21.87-6.1,6.5-13.18,11.63-20.47,16.37,8.77-12.71,23-43.14,21.8-41.53-11.69,15.81-30.55,26.36-50.52,33.09a120.76,120.76,0,0,1-14.11,7.3A114.1,114.1,0,0,1,159,270.94c-3.43.29-3.24,4.93,0,5.38a110.91,110.91,0,0,0,31.82-.51c-18.28,11.93-39.9,20.78-59.14,16.67A2,2,0,0,0,130.76,296.38Z"/><path class="cls-48" d="M179.79,210.89c.71,0,1.34,0,2.07,0,1-.34,2.08-.55,3.08-.92a3.87,3.87,0,0,0,1.65.24c31-2.68,59.45-21.63,86.27-37.77-5,6.44-11.87,11.95-17.57,17.09-2.27,2.15-.47,7,2.75,6.56,19.66-2.6,38.41-15.6,52.88-30.37-1.6,7.73-4.11,15.17-4.91,23.15-.34,3.26,4.28,5,6.26,2.57,8.76-10.19,13.35-22.75,19.57-34.47,5.75,12.88,9.64,26.1,18.26,37.54,1.79,2.44,5.35,1.74,5.6-1.55.54-9.87-.31-19.58-.81-29.38,11.46,5.79,21.69,14.47,30.26,24.12,2.48,2.88,6.5-1.37,4-4.26-17.84-20.05-25.56-46.38-38.53-69.64a2.73,2.73,0,0,0-5,.74c-1.17,6.29-2.09,12.51-4.19,18.54-5.62-9.89-7.12-20.09-7.26-32a3,3,0,0,0-5.12-2.13c-7.25,7.74-12.61,17-19.24,25.19C312.71,105,318.52,86.57,321,67.4A347.84,347.84,0,0,0,324,27.19a3.73,3.73,0,0,0-1.47,2.56c-.36,2-.58,4-.86,6a5.77,5.77,0,0,0-3.82.16,5.6,5.6,0,0,0-3.95,3.74c-12.13,42.43-25.24,113.7-76.82,124.79-1.15.27-.67,1.88.44,1.73,8.36-1.24,16.91-4.8,25.19-10-11.54,12.16-25.75,25.64-41.28,35.57-13.09,8.42-27.07,14.36-41.26,15a.76.76,0,0,1-.4,0,2,2,0,0,0-1.44.74C177.42,208.67,177.87,210.86,179.79,210.89Z"/><path class="cls-49" d="M497.33,474.16c-12.46-3.42-24.34-6.1-35.79-9.52-11.7-10.58-25.1-18.7-36.83-29.22-12.22-11-19.41-26.9-31.81-37.08-2.23-1.84-5.85-.8-5.79,2.54,0,6.69.09,6.69,1.16,13.24,1,6.1,4.91,24.91-5.6,10-4.81-6.84-7.52-14.58-13.61-20.41-1.4-1.36-3.27-.88-4.33.66-6.61,9.47-3.09,20.31-2,31.07-7.13-12-10-25.94-17.84-37.68a2.78,2.78,0,0,0-4.77.08c-7.88,13.5-7.1,29.33-6.71,44.81C328.8,428.54,326,414,321.73,399.57a2.58,2.58,0,0,0-4.79-.56c-10.1,18-13.65,38.6-21,57.73-1.05-21,1.32-41.91,2.69-63,.19-2.33-3.22-3.88-4.69-2-21.65,28.37-39.45,59.28-54.24,91.91a480.46,480.46,0,0,1,14.48-80.59c.79-2.72-2.67-4.73-4.54-2.72-15.24,16.34-29.24,33.15-47.06,46.58-13.8,10.46-28,20.31-42.26,30.31,8.15-9.7,16.86-18.65,23.63-29.78,10.88-17.79,25.05-34.31,33.68-53.33.73-1.6-.9-4-2.63-2.65-15.82,12.42-30.42,26.23-47.53,36.93-1.75,1.08-3.63,2-5.4,3-1.31,1.71-2.61,3.42-4,5.08-.54.49-1.14,1-1.76,1.41-.82.57-1.76,1.05-2.6,1.65-19.73,13.05-43.13,17-63.5,28.62-1.87,1.14-.53,4.29,1.53,3.62,16.9-5.75,34.24-9.45,50.64-16.36-7.23,8.1-14.77,16-22.82,23.74-19.7,18.83-47.33,44.21-74.8,54.36A69.32,69.32,0,0,1,28,537.72a5.66,5.66,0,0,0-1,.26c35.81,10.38,78.73-.33,110.57-15.54a216.42,216.42,0,0,0,41.74-26.09c4.92-3.93,9.54-8.07,14.16-12.29a80.48,80.48,0,0,0,7.91-8.29l1.82,6.88a78.64,78.64,0,0,1-5.23,13c-6.61,14.26-14.05,28-23.49,40.42-11.06,14.62-25.24,26.35-36.79,40.54a2.79,2.79,0,0,0,3.86,4c24.71-21.05,56.87-28.69,85.09-43a134.05,134.05,0,0,0,53.87-50c-4.19,19.36-14.23,37.26-18.13,56.79-.58,2.92,2.92,5.4,5.1,3,11.22-12.59,18.29-27.69,26.27-42.57,7.54-14.22,14.23-32,25.12-44.11,7,20.6,8.14,45.18,24.37,60.63a3.08,3.08,0,0,0,5.13-1.49c3-13.43-3.72-36.82,3.85-49.32,5.76,14.23,13.41,29.25,28.2,34.1a3.13,3.13,0,0,0,3.78-2.29c1.76-12.94-4-23.77-7.51-35.59,5.56,6.13,11.27,11.84,18.28,16.52,1.88,1.31,3.62-.87,3.33-2.73-1-7.06-3.23-13.14-5.9-19.66-5.24-12.87-3.08-9.48,5.32-2.16,10.79,9.47,20.68,17,34.95,18.91,1,.15,2.2-.87,1.41-1.88-5.89-8.26-11.75-16.14-16.09-25.17,23,17.35,50.1,28.74,79,26.5A1.48,1.48,0,0,0,497.33,474.16Z"/><path class="cls-50" d="M240.25,338.6c-2.71,2.09-5.44,4.09-8.1,6.13a248.88,248.88,0,0,1-22.24,12.71c8.85-5.19,17.56-10.55,25.71-17.39a.32.32,0,0,0-.39-.51c-12.2,8.82-25.7,14.55-39.12,21-14.17,6.83-25.8,17.12-39.12,25.57-14.24,9-29.83,14.84-45.93,19.21-7.41,2.05-15.48,2.92-23.26,4.48-7.66,1-15.34,1.65-23.21,1.9-.73-.05-.9,1.12-.17,1.37,2.69.68,5.44,1.12,8.2,1.68a1.61,1.61,0,0,0,1.2,2.44,151.78,151.78,0,0,0,23-.47c54.6-.64,111.61-34.24,145.09-75.91C242.92,339.68,241.58,337.55,240.25,338.6Z"/><path class="cls-51" d="M646.11,547.65c.72-.74.29-2.41-.9-2.2-5,.7-10,1.5-14.83,2.37-16.68-.93-33.1-4.34-48.27-11.1a105.49,105.49,0,0,1-17.49-9.54c-5.12-3.44-10.79-7.31-16.59-11.57,21.12,4.86,43.12,5.51,60.54,3,1.41-.19,2-2.42.34-2.8q-15.25-3.1-30.25-6.69c12.34-1,23.93-4.53,33.18-12.08a45,45,0,0,0,7.88-8.37c.79-1.09-.52-2.21-1.5-2a157.74,157.74,0,0,1-36.2,2.11,146.2,146.2,0,0,1-16.92-7.14c-23.66-11.39-47.37-29.14-60.68-43-2.88-2.93-5.49-6.06-8.07-9.25,22.47-2,48.31-8,62.33-24.23a30.84,30.84,0,0,0,2.21-2.37c2.4-3.24.29-9.13-4.32-7.5-2.58.87-5.11,1.6-7.7,2.33-2.33.27-4.67.41-7,.47-18.67-1.12-38.81-7-56.52-15.83,1.77,0,3.54-.13,5.27-.31a49.24,49.24,0,0,0,13.9-3.78,27.27,27.27,0,0,0,3.49-1.58,24.28,24.28,0,0,0,9.91-4.34c.79-.56.6-2.14-.48-2.06a9.06,9.06,0,0,1,.75-.64,1.19,1.19,0,0,0-.84-2,84,84,0,0,1-23.95-1.36c-8.29-3.76-16-9.43-23.16-15.47.92.1,1.81.22,2.71.3,18.67,2.43,37.45,2.13,51.72-4.33a16.43,16.43,0,0,0,2.76.41,2.7,2.7,0,0,0,2.81-1.25,3.84,3.84,0,0,0,.64-2.51,38.22,38.22,0,0,0,3.5-2.39,1.64,1.64,0,0,0-.83-3c-4-.31-8.44-.64-13.1-.85-13.2-4.68-25.61-11.28-37.6-18.7-9.67-6-19.07-12.5-28.39-19-15.77-11-26.19-23.64-35-37.67,22,4.39,45.68,3.67,63.15-.32,2.72-.65,5.36-1.32,7.73-2.1a1.56,1.56,0,0,0,.8-2.35c-.07,0-.07-.15-.09-.22a1.37,1.37,0,0,0-.71-.39l0-.06h-.05c-.12,0-.18-.16-.33-.12l-.64-.12c-18.84-3.28-36.79-20.18-51.62-31.71-4.34-3.38-8.44-7-12.34-10.65,27,16.81,59.41,28.94,79,13.51.79-.67.89-2.26-.33-2.51-2.36-.47-4.46-1.16-6.74-1.7-.26.13-.48.25-.72.4a60.74,60.74,0,0,1-7.71-.82c-16.07-2.81-32.62-9.59-47.16-17-30.76-15.69-48.71-41.68-70.13-68-1.1-1.42-3.79.17-3.1,1.95a150.42,150.42,0,0,0,26.14,42.4A124.14,124.14,0,0,0,413,210.53c-1.8-1.1-3.56-2.26-5.3-3.48C397.58,199.89,388.05,190.4,377,185a2,2,0,0,0-2.32,3.27c3.89,4.72,8,9.08,12.24,13.37,16.76,18.16,34.36,33.79,55.08,45a128.4,128.4,0,0,1-15.66-2.29c-29.32-5.95-54.05-17.68-73.9-41.13-1.2-1.35-3.59.51-2.51,2.07a244.62,244.62,0,0,0,16.11,21.3c22.38,36.37,51.16,68.33,85.13,89.22a310.89,310.89,0,0,1-73.69-51.49c-2-1.85-4.4.86-2.77,2.91,7.11,9.12,13.59,17.67,20.86,25.4,21.05,28,46.95,56,77.37,71.72-.07,0-.07-.07-.07-.07-21.87-4.51-49.4-20.78-65.42-36.38-1.23-1.21-3.54.44-2.42,2a119,119,0,0,0,14.71,16.31c5.65,7.16,10.63,14.07,18.38,20.23a159.24,159.24,0,0,0,33.13,20.14c-40.09-9-80.85-36.34-108.38-67.55-2.28-2.61-5.5.77-4.35,3.45,3.08,7.15,7.91,13.76,13.56,19.86,5.05,8.66,9.69,17.4,14.7,26a.78.78,0,0,0-.44,1.15c3.21,5.34,6.45,10.57,10,15.65-9.71-9.11-18.94-18.8-28-28.52a110.69,110.69,0,0,1-5.91-12.23c-.43-1.1-2.27-1.06-2.1.25,2.29,17.92,9.86,37.09,21.49,50.7,1.87,2.28,5.53-.14,4.73-2.93a90.45,90.45,0,0,0-8-18c9.07,12,18.34,23.17,30.3,33.53a133.83,133.83,0,0,0,17.51,12.74c8.31,8.58,16.86,16.89,25.8,25.13C468,460.22,487.68,469.25,507,477.59c18.65,8,38.88,14.48,59.48,17.81-33.74,2.63-70.69,2.75-99.39-15.44-1.54-1-3.79,1.16-2.59,2.7a47.73,47.73,0,0,0,13.95,12.78c21.72,20.3,49.43,36.23,76.85,45.63,7.95,2.73,16.29,5.47,24.83,7.95-47.31-6.09-98.45-6.62-132.81-44.39-1.13-1.23-3.26.47-2.32,1.93,3.08,4.35,6.32,9.95,9.89,15.11a1.08,1.08,0,0,0,.07.72c16.89,28.11,37.31,47,63.3,58-6-.19-11.95-.44-17.87-1-17.67-1.52-35.74-5.57-51.57-13.93-13.24-6.94-21.16-21-29.61-33.06a.88.88,0,0,0-1.65.52,48.1,48.1,0,0,0,1,7.89.53.53,0,0,0-.11.56c4.43,15.25,7.05,35,12.67,52.93-3.31-3.78-6.65-7.58-9.86-11.5-17.56-21.29-25.82-47.36-35.89-72.64-.2-.38-.85-.68-1.05-.15a12,12,0,0,0-.4,1.37c-.3-.34-.89-.3-.81.18,0,.8,0,1.51,0,2.25a34.85,34.85,0,0,0-.78,8.92c-2.32,11.57-9.06,22.81-14.07,32.8a397.26,397.26,0,0,1-19.84,35.62,194.62,194.62,0,0,1-28.92,35,127.84,127.84,0,0,0,8.23-37.51c1.77-27.48,4.38-62.74-9-87.58-.52-1.07-2-.27-1.75.83.23,1.35.33,2.8.53,4.22-.8-.25-1.7.07-1.59,1.2,1.14,17.07-12.94,35.57-21.48,49.55-9.74,16.08-24.4,28.66-40.08,38.2-16.57,10-35,17.39-54,22.5,25.7-18.16,45.11-44.63,54.44-77.94a1.17,1.17,0,0,0-2.12-.94c-2.79,4.73-5.77,9.46-9,14.1a3.27,3.27,0,0,0-4.84-1.49c-35.56,22.06-70.23,41.15-111,51.19-22.34,5.54-45.48,4.23-67.92.14-4.56-.92-9.33-2.28-14.13-3.6-2.83.41-5.59.86-8.42,1.09a6.13,6.13,0,0,0-1,.33c-2.33-.65-4.71-1.17-7-2-2.48-.83-3.66,2.79-1.65,4.11,2.44,1.71,5,3.09,7.54,4.59C86.81,636.76,155.89,628,208.2,595.56c-.52.55-1,1.06-1.59,1.56a98.51,98.51,0,0,1-17.89,13.2c-.67.22-1.28.61-2,.84-.41.07-.56.39-.78.65-3.53,1.93-7.22,3.76-10.91,5.38-6.15,1.81-12.25,3.69-18.4,5.9a4.29,4.29,0,0,0-2.22,1.94c-1.38,2.61-.26,6.72,3.33,6.24,29.69-3.44,60.09-5.87,88-17a134.34,134.34,0,0,0,14.57-6.61,187.68,187.68,0,0,0,34.32-24,244.17,244.17,0,0,1-23.11,31c-.67.76.44,1.93,1.21,1.15,15.88-16.31,34-33.51,45.14-54.31-.48,7.75-.9,15.36-1.19,22.82-.8,6.92-1.44,14.29-2.38,21.6-1.25,9.76-3,19.48-6.5,28.38a157.85,157.85,0,0,1-10.75,17.4c-.54.63-.08,2,.88,1.61,11.16-4.32,17.67-10.87,25.59-20.16,9.56-11.17,20.74-20.47,31-30.86a153.16,153.16,0,0,0,11-12.23c2.44-3.05,4.88-6.45,7.31-10-2.54,9.07-5.87,17.76-10.42,25.21-.7,1,.94,1.93,1.59.9,8.92-13,14.23-25.79,18-40.52,17.88,27.47,41.14,47,65.17,69.38.91.84,2.09-.44,1.33-1.39-1.75-2-3.24-4.07-4.83-6.19,1.54,1.49,3.15,3.08,4.78,4.5,2,2,3.93,3.89,6,5.88a1,1,0,0,0,1.17.2,1.3,1.3,0,0,0,.58-1.72,398.38,398.38,0,0,1-18.79-47.74c-.55-1.56-1.12-3.12-1.58-4.77,54.57,20.68,127.13,40,173.86,4.93,2.25-1.68,1.81-6.52-1.67-6.09-4.52.53-9.27,1-14.17,1.34a3.86,3.86,0,0,0-2.44-1.3c-6.71-.74-13.46-1.1-20.26-1.35a135.91,135.91,0,0,1-17-5.06c29.18,2.22,57.7-1.86,80-18.31,1.61-1.17,3.19-2.19,4.71-3.52a67.42,67.42,0,0,0,7-4.11,1.26,1.26,0,0,0-.25-2.2A6.69,6.69,0,0,0,646.11,547.65Z"/><path class="cls-52" d="M225.83,312c-5.32,3.35-10.23,6.82-15.05,10.32-18.34,9.19-37.95,14.29-58,18.31-29.68,6-58.47,2.69-88.36,3.23a.78.78,0,0,0-.33,1.41,81,81,0,0,0,25,9.41c45.19,24.39,118.17,12,137.45-42.16A.5.5,0,0,0,225.83,312Z"/><path class="cls-53" d="M273.5,136.85s-22.31,23.54-36.44,27.56-18.92,10.3-10.29,13.75-13.87,9-25.22,15.17-47.93,9.65-34,17.53,54.63-4.62,55.91,5.81-54.67,19.64-35.79,29.52,66.06-20.56,63-5.26,30.06,19.54,43.67,7.39,61.51-10.7,36.24-25.91S277.87,236.23,265.34,211s-7.21-28-18.5-24.52,28.46-24.79,18.56-24.8S296.83,121.7,273.5,136.85Z"/><path class="cls-54" d="M177.75,317.4s9.71-15.64-13.42,0-31.51,15.12-53.45,15.1S52.37,329,67,343.82s54.6,16.91,78.2,11.45,4.93,13.65,34.56,3.75,3.54,14.16-22.72,27.13-91,13.49-75,24.38,100.82-14.48,95.6.13,1,15.44,19.67,6.94,48.68-27,49-13.61,11.58,16.13,27.6-13.11,53.07,21.12,63.85-18.14-4.24-56.95-27.83-40.72-34.52,23.4-58.86,15.13-4.14-35.36-26.56-29.46S233.27,292.62,177.75,317.4Z"/><path class="cls-55" d="M548.87,397.59s-40-20.62-41.71-6.42-7,4.53-27.65,12.09-71.21-9.2-66,8.4-21,11.62-35.83,17.66-33.91,8.93-21.32,25.49,13.5,40.86,28.69,20.45,7.81-26.37,39.16-21.06,45.27,2.84,48.6-12.35,13.6-9.09,32-13,38.59.63,41.62-13.45,24.27-3,19.65-16.83S548.37,393.89,548.87,397.59Z"/><path class="cls-56" d="M347.22,261.75c-.36-20.3,13.34-11.7,49.25-11.65s10-11.72,1.29-37.34,31.36,18.76,42.7,2.91,15-3.65,22.71-4.45,39.85,8,35.47,17.57S477,234,457.69,229.6s12.68,8.86,29.89,26.06-53.75,8.1-63.71,12.71-14.77,3.11-25.43,0-19.33,8.34-25.3,12.74c-36.25,26.73-63.91,12.37-63.89,6.83,0,0-15.05-30.77,14.13-21.9S347.54,278.61,347.22,261.75Z"/><path class="cls-57" d="M283.83,276.82s-24.45-17.94-25.16,0,7.95,24.56,18,19.9S297.6,295.47,283.83,276.82Z"/><path class="cls-58" d="M371.73,217.59s-6.52-17-12.4-10.43S391.88,235.48,371.73,217.59Z"/><path class="cls-59" d="M335.24,34.19s-11.28-21-19.88,0-21.91,72.2-23.18,75.24S314,63.82,319.28,88s18.17,40.71,19.4,22.11,6.93-20.13,20.92,0,17.33,15.87,5.82-5.53S335.24,34.19,335.24,34.19Z"/><path class="cls-60" d="M78.72,509.66s-19.32,14.45-37.3,19.93-46.6-4.22-40.61,11S32.06,566.83,68,565.48s30,1.41,20.63,8.29,7.13,7.47,7.13,7.47S60.65,594.43,34,593,20.2,614,63.69,624.58s89.49-4.23,81.13.1.3,7.06,28.93,7.09,96.75-15,103.85-24.21-19.34,16.1-4.69,13.34,33.32-40,33.31-26.85S279.83,657.66,294,656.88s41.08-33.79,50.83-44.18,12-38.86.06-31.17,2.69-46-30.63-35.75-34.51-46.89-76.48-20.39-88.51,14-87.82-6-9.32-11-43.28,0S103,494.94,78.72,509.66Z"/><path class="cls-61" d="M521.91,553.61s-83.59-16.84-48.59,17.21-52.56-12.1-42.64,10.82,27.78,58.09,28.51,51.89-15.86-35.89,12.74-26.18,54.35,11.82,52.47-.25,41.12,10.75,69.52-8.92-36.15-25.3-3.5-29.32,85.22-14.36,46-27.51-90.92-16.17-64.64-22,46.07-17.3,8.15-27-94.47-21.5-73.23,5.44,62.1,32.94,39.9,42.08S499.06,532.43,521.91,553.61Z"/><path class="cls-62" d="M413.12,699.83s-33.68-38.51-59.43-14.62-50.55,38.62,12,45.54c0,0,27.89,10.66,42.1.06S435.23,717.23,413.12,699.83Z"/><path class="cls-63" d="M263.51,727.9s3.59-33.08,32-25.7,52.5,20.31,33.76,35.9S253.69,749.11,263.51,727.9Z"/></g></g></g></svg>