<svg xmlns="http://www.w3.org/2000/svg" xmlns:xlink="http://www.w3.org/1999/xlink" viewBox="0 0 636.55 741.38"><defs><style>.cls-1{isolation:isolate;}.cls-2{fill:#d5dce0;}.cls-10,.cls-2,.cls-8,.cls-9{opacity:0.4;}.cls-2,.cls-3{mix-blend-mode:multiply;}.cls-3{fill:url(#linear-gradient);}.cls-4{fill:url(#linear-gradient-2);}.cls-5{fill:url(#linear-gradient-3);}.cls-11,.cls-6{opacity:0.5;}.cls-6,.cls-7,.cls-8,.cls-9{mix-blend-mode:screen;}.cls-6{fill:url(#linear-gradient-4);}.cls-7{opacity:0.6;fill:url(#linear-gradient-5);}.cls-8{fill:url(#linear-gradient-6);}.cls-9{fill:url(#linear-gradient-7);}.cls-10{fill:url(#linear-gradient-8);}.cls-11{fill:url(#linear-gradient-9);}.cls-12{fill:url(#linear-gradient-10);}.cls-13{fill:url(#linear-gradient-11);}.cls-14{fill:url(#linear-gradient-12);}.cls-15{fill:url(#linear-gradient-13);}.cls-16{fill:url(#linear-gradient-14);}.cls-17{fill:url(#linear-gradient-15);}.cls-18{fill:url(#linear-gradient-16);}.cls-19{fill:url(#linear-gradient-17);}.cls-20{fill:url(#linear-gradient-18);}.cls-21{fill:url(#linear-gradient-19);}.cls-22{fill:url(#linear-gradient-20);}</style><linearGradient id="linear-gradient" x1="341.58" y1="636" x2="344.97" y2="720.17" gradientTransform="translate(0.69 0.55) rotate(0.07)" gradientUnits="userSpaceOnUse"><stop offset="0" stop-color="#dee9f6"/><stop offset="0.64" stop-color="#fff"/><stop offset="0.85" stop-color="#e7eff8"/><stop offset="1" stop-color="#d3e1f3"/></linearGradient><linearGradient id="linear-gradient-2" x1="-2004.87" y1="3976.12" x2="-1939.87" y2="3976.12" gradientTransform="translate(2318.38 -3374.22) rotate(0.42)" gradientUnits="userSpaceOnUse"><stop offset="0" stop-color="#6d6f22"/><stop offset="0.3" stop-color="#4a4117"/><stop offset="0.7" stop-color="#2f2f19"/><stop offset="1" stop-color="#062838"/></linearGradient><linearGradient id="linear-gradient-3" x1="-1969.9" y1="4004.2" x2="-1969.9" y2="3390.4" gradientTransform="translate(2318.38 -3374.22) rotate(0.42)" gradientUnits="userSpaceOnUse"><stop offset="0.01" stop-color="#185b4e"/><stop offset="1" stop-color="#1c7933"/></linearGradient><linearGradient id="linear-gradient-4" x1="-2111.58" y1="3698.34" x2="-1973.77" y2="3636.19" gradientTransform="translate(2318.38 -3374.22) rotate(0.42)" gradientUnits="userSpaceOnUse"><stop offset="0" stop-color="#e5e244"/><stop offset="0.99" stop-color="#003e31"/></linearGradient><linearGradient id="linear-gradient-5" x1="-2088.9" y1="3571.51" x2="-1962.31" y2="3482.53" xlink:href="#linear-gradient-4"/><linearGradient id="linear-gradient-6" x1="-2170.91" y1="3950.25" x2="-1956.37" y2="3793.64" xlink:href="#linear-gradient-4"/><linearGradient id="linear-gradient-7" x1="-2227.9" y1="3735.57" x2="-2053.89" y2="3735.57" xlink:href="#linear-gradient-4"/><linearGradient id="linear-gradient-8" x1="-2127.81" y1="3712.61" x2="-1606.27" y2="3962.57" gradientTransform="translate(2318.38 -3374.22) rotate(0.42)" gradientUnits="userSpaceOnUse"><stop offset="0" stop-color="#074623"/><stop offset="0.71" stop-color="#233972"/><stop offset="1" stop-color="#024063"/></linearGradient><linearGradient id="linear-gradient-9" x1="-2132.88" y1="3663.35" x2="-2186.29" y2="3748.31" xlink:href="#linear-gradient-8"/><linearGradient id="linear-gradient-10" x1="245.35" y1="116.15" x2="245.35" y2="194.54" xlink:href="#linear-gradient"/><linearGradient id="linear-gradient-11" x1="197.81" y1="286.18" x2="197.81" y2="360.38" xlink:href="#linear-gradient"/><linearGradient id="linear-gradient-12" x1="449.46" y1="361.07" x2="449.46" y2="423.45" xlink:href="#linear-gradient"/><linearGradient id="linear-gradient-13" x1="393.24" y1="183.08" x2="393.24" y2="242.35" xlink:href="#linear-gradient"/><linearGradient id="linear-gradient-14" x1="268.24" y1="240.55" x2="268.24" y2="259.38" xlink:href="#linear-gradient"/><linearGradient id="linear-gradient-15" x1="359.84" y1="177.64" x2="359.84" y2="189.76" xlink:href="#linear-gradient"/><linearGradient id="linear-gradient-16" x1="324.6" y1="7.71" x2="324.6" y2="70.85" xlink:href="#linear-gradient"/><linearGradient id="linear-gradient-17" x1="172.68" y1="483.57" x2="172.68" y2="580.39" xlink:href="#linear-gradient"/><linearGradient id="linear-gradient-18" x1="528.6" y1="458.99" x2="528.6" y2="557.43" xlink:href="#linear-gradient"/><linearGradient id="linear-gradient-19" x1="365.36" y1="615" x2="368.73" y2="698.62" xlink:href="#linear-gradient"/><linearGradient id="linear-gradient-20" x1="290.05" y1="618.02" x2="293.42" y2="701.67" xlink:href="#linear-gradient"/></defs><title>Fichier 11</title><g class="cls-1"><g id="Calque_2" data-name="Calque 2"><g id="Calque_1-2" data-name="Calque 1"><path class="cls-2" d="M138.72,614.46c182.3,8.85,361.44,50.93,128.87,70.85C47,704.2,174.18,762.94,419.81,733.05V551.91C295,567.38-7.66,607.35,138.72,614.46Z"/><path class="cls-3" d="M299.41,662s-93.12-.71-63.17,14.85,24.74,16.25,5.81,24.3-4.74,20.22,73.89,17.65,2.68-16.2,51.69-16.15S488.3,685.92,439.47,671,299.41,662,299.41,662Z"/><path class="cls-4" d="M292.83,497.94s-3.61,128.1-9.36,172.94c0,0,18.75,25.39,65,7,0,0-8.19-116-3.28-173C345.15,504.92,327.31,476.72,292.83,497.94Z"/><path class="cls-5" d="M632.37,511.71c.71-.71.27-2.32-.9-2.14-4.81.67-9.71,1.49-14.48,2.3-22.8-1.25-45.1-7.17-64.4-20.2-5-3.35-10.52-7.14-16.23-11.32,20.69,4.76,42.22,5.39,59.29,3,1.39-.22,2-2.42.31-2.79-9.94-2-19.82-4.18-29.61-6.56,16-1.24,30.61-6.82,40.18-20,.79-1.07-.48-2.17-1.46-2A153.3,153.3,0,0,1,569.64,454c-27.93-9.34-59.79-32.25-76-49-2.81-2.88-5.34-5.94-7.86-9.07,23.05-2,50-8.31,63.13-26,2.37-3.23.27-9-4.21-7.39-2.52.85-5,1.55-7.55,2.28-2.29.26-4.56.39-6.8.47-18.29-1.08-38-6.85-55.35-15.49a48.85,48.85,0,0,0,22.18-5.54,23.44,23.44,0,0,0,9.71-4.29c.75-.53.59-2.06-.48-2,.21-.23.53-.39.73-.62a1.17,1.17,0,0,0-.79-2,83.15,83.15,0,0,1-23.46-1.31c-8.12-3.66-15.67-9.23-22.66-15.15,19.11,2.7,38.62,2.59,53.25-3.95a16.64,16.64,0,0,0,2.74.43c2.32.33,3.47-1.72,3.36-3.72a36.73,36.73,0,0,0,3.42-2.34,1.6,1.6,0,0,0-.81-2.91c-3.92-.31-8.25-.61-12.84-.85-23.36-8.23-44.2-22.69-64.58-36.9-15.43-10.84-25.63-23.16-34.28-36.9,25,4.94,52,3.25,69.35-2.38a1.54,1.54,0,0,0,.83-2.32c-.1,0-.1-.1-.12-.17-.16-.24-.41-.29-.65-.43l-.07,0h0c-.17-.05-.2-.15-.33-.11l-.66-.11c-18.43-3.2-36-19.76-50.48-31-4.25-3.33-8.29-6.88-12.11-10.45,26.38,16.48,58.15,28.35,77.38,13.23.74-.64.82-2.22-.38-2.47C399.63,176.88,352.51,91.32,324,4.74c-1.31-3.9-7.5-4.58-8.4.06-.33,2-.56,4-.82,5.9a6,6,0,0,0-7.6,3.76C295.33,56,282.5,125.74,232,136.64c-1.1.25-.62,1.82.48,1.7,8.19-1.24,16.55-4.72,24.64-9.81-21,22.18-50.82,48.44-81.18,49.47-2.54.13-2.49,4.07,0,4.12,21.84.58,41.59-3.31,60-11.58-15,17.22-33.19,31.68-53.81,40.38-3.39,1.44-2.11,6.67,1.56,5.74,22-5.56,43.13-15.59,60.66-30.53h0c-1.76,2.73-3.56,5.54-5.53,8.12-1.86,2.21-3.74,4.4-5.51,6.67-19.95,23-47.62,37.54-77.71,40-3.34.27-3.15,4.8.06,5.25a109.05,109.05,0,0,0,31.13-.48C168.93,257.33,147.78,266,128.92,262a2,2,0,0,0-.94,3.8c28.25,9.46,52.83,3,78.21-10.46-31.07,32.56-69.09,55.57-117.85,53.52-2.12-.12-3.25,2-3.14,3.79-3.34-.38-5.32,4.45-2.13,6.24,27.58,15.56,58,19.37,88.23,15.46-3,2.32-6,4.54-9,6.61-28,19.46-58.81,33.18-92.46,37a3.25,3.25,0,0,0-3,2.65c-3.26,0-6.44,0-9.64.06-4.77-.05-5.6,7.21-1.08,8.47a228.7,228.7,0,0,0,106.66,3.44c-2.58,3.53-5.27,7-8,10.43-.55.48-1.12.93-1.74,1.38-19.78,14.2-43.87,17.62-64.68,29.64-1.82,1.1-.49,4.2,1.51,3.57,16.53-5.64,33.49-9.25,49.53-16.07-7,8-14.43,15.71-22.31,23.26C93.8,467,59.31,498.51,27.34,502a4.25,4.25,0,0,0-3.83,3.88,65.42,65.42,0,0,1-12.78-6c-2.32-1.42-5.18,1.56-3.72,3.88,15.4,24,59.05,22.68,83.52,21.22a201,201,0,0,0,45.06-8.22c-11.88,8.73-26.07,14.6-39.16,20.34-2.4,1-1.48,5,1.13,4.14,5.37-1.82,10.82-3.63,16.19-5.45-23,15.41-50,24.32-77.13,27.25a5.59,5.59,0,0,0-1.06.32c-2.27-.64-4.59-1.14-6.84-1.94-2.41-.8-3.55,2.74-1.58,4.07,52.64,35.37,127.35,25.91,181.53-9.88-7.44,7.92-15.48,15.1-25.88,18.22a2.23,2.23,0,0,0-1.35,3c-9.3,2.64-18.72,5.33-28.13,8.74-4,1.42-3.53,8.55,1.12,8,34.22-4,69.37-6.5,100.34-23.15A181.41,181.41,0,0,0,288.4,547a245.5,245.5,0,0,1-22.59,30.4.79.79,0,0,0,1.16,1.07c16.25-16.62,34.9-34.27,45.67-55.77-.56,6.42-1.1,12.85-2,19.12-2.33,17.31-2.66,37.78-9.33,54.76a155.12,155.12,0,0,1-10.55,17c-.54.61-.1,1.93.85,1.57,10.93-4.23,17.31-10.64,25-19.7,12.9-15.05,28.79-26.57,41.14-42.2,2.38-3,4.79-6.32,7.17-9.76-2.5,8.91-5.74,17.39-10.21,24.68-.67,1,.92,1.89,1.56.88,8.71-12.73,13.91-25.2,17.63-39.61,17.47,26.84,40.25,46,63.77,67.87.86.8,2.07-.43,1.3-1.35-1.9-2.19-3.51-4.54-5.32-6.78q5.47,5.4,11.11,10.88c.94,1,2.31-.3,1.72-1.46a393.39,393.39,0,0,1-19.94-51.43C480,567.38,551,586.28,596.73,552c2.21-1.64,1.79-6.37-1.6-5.94-4.71.56-9.59,1-14.67,1.37a114.15,114.15,0,0,1-38.12-7.59c30.53,2.33,60.5-2.19,82.92-21.35a63.45,63.45,0,0,0,6.82-4.06,1.2,1.2,0,0,0-.23-2.13A5.16,5.16,0,0,0,632.37,511.71Z"/><path class="cls-6" d="M128,265.77c28.25,9.46,52.83,3,78.21-10.46-12,12.51-25,23.67-39.26,32.5A151.74,151.74,0,0,1,145,299.06c4.29-.56,8.46-1.23,12.4-1.86a168.2,168.2,0,0,0,36.84-9.91c11.61-4.77,35.87-20.55,46.1-28.15-7.36,21.12-32.32,50.07-30,48.64,26.57-16.53,35.24-27,49.33-46.87.25,28.34-4.65,56.69-2,85,.27,2.81-1.88,8.76.22,6.8,9-8.61,45.57-80.61,50.86-88.65,6.67,20.52,28.34,58.5,28.95,56.74,5.64-16,2.79-33.63,1.79-50.49,14.79,13,55.84,29.58,52.82,26.69-26.94-26.12-52.6-61-56.16-100.22-.29-3.17-10,35.45-12.74,54.41-13.06-19.14-16.75-69.9-18.28-67.26-14.21,23.41-22,50-34.5,74.31-3.6-19.19,5.84-64.69,3.54-62.78-7.74,6.45-14.14,14.07-21,21.39-5.94,6.35-12.89,11.39-20.05,16,8.61-12.45,22.57-42.22,21.35-40.65-11.45,15.46-29.9,25.8-49.44,32.36a113.4,113.4,0,0,1-13.8,7.15,111.94,111.94,0,0,1-35.61,9.08c-3.34.27-3.15,4.8.06,5.25a109.05,109.05,0,0,0,31.13-.48C168.93,257.33,147.78,266,128.92,262A2,2,0,0,0,128,265.77Z"/><path class="cls-7" d="M176,182.12c.71,0,1.34-.06,2-.06,1-.34,2.06-.53,3-.89a3.46,3.46,0,0,0,1.6.23c30.39-2.61,58.2-21.13,84.43-37-4.92,6.31-11.61,11.67-17.18,16.74-2.25,2.07-.47,6.85,2.68,6.4,19.27-2.55,37.59-15.23,51.78-29.71-1.58,7.54-4.06,14.81-4.84,22.64-.31,3.19,4.19,4.86,6.13,2.53,8.55-10,13.07-22.26,19.17-33.76,5.63,12.66,9.42,25.56,17.88,36.78,1.71,2.34,5.23,1.68,5.44-1.54.57-9.66-.29-19.16-.77-28.74,11.23,5.65,21.26,14.16,29.61,23.61,2.44,2.8,6.37-1.38,3.94-4.19-17.44-19.64-25-45.4-37.69-68.13a2.67,2.67,0,0,0-4.93.68c-1.14,6.16-2,12.29-4.12,18.15-5.48-9.65-6.94-19.67-7.08-31.32a2.94,2.94,0,0,0-5-2.11C315,80.06,309.72,89.14,303.2,97.15c2.85-18.7,8.53-36.72,11-55.5a341.34,341.34,0,0,0,2.86-39.33,3.82,3.82,0,0,0-1.47,2.48c-.33,2-.56,4-.82,5.9a5.3,5.3,0,0,0-3.72.11,5.58,5.58,0,0,0-3.88,3.65C295.33,56,282.5,125.74,232,136.64c-1.1.25-.62,1.82.48,1.7,8.19-1.24,16.55-4.72,24.64-9.81-11.31,11.92-25.22,25.11-40.4,34.85-12.81,8.21-26.52,14.07-40.38,14.59a.86.86,0,0,1-.4,0,1.94,1.94,0,0,0-1.43.77C173.62,179.94,174.08,182.1,176,182.12Z"/><path class="cls-8" d="M486.74,439.79c-12.16-3.32-23.8-6-35-9.35-11.45-10.34-24.57-18.26-36-28.57-12-10.78-19.05-26.31-31.18-36.31-2.16-1.8-5.73-.75-5.68,2.52A56.87,56.87,0,0,0,380,381c1,6,4.77,24.41-5.5,9.75-4.71-6.68-7.35-14.28-13.32-19.93-1.37-1.36-3.21-.89-4.24.61-6.47,9.28-3,19.85-1.91,30.37-7-11.68-9.75-25.36-17.44-36.83a2.72,2.72,0,0,0-4.69,0c-7.73,13.26-6.94,28.74-6.56,43.87-4.58-13.79-7.28-28-11.47-42.13a2.54,2.54,0,0,0-4.71-.55c-9.83,17.65-13.33,37.78-20.54,56.51-1.05-20.56,1.28-41,2.62-61.69.19-2.27-3.12-3.77-4.57-1.92-21.21,27.8-38.63,58-53.09,90a464.69,464.69,0,0,1,14.17-78.89c.75-2.63-2.63-4.65-4.46-2.66-14.9,16-28.61,32.43-46,45.59-13.52,10.28-27.45,19.93-41.35,29.67,8-9.47,16.45-18.25,23.12-29.15,10.62-17.41,24.51-33.6,32.94-52.19.74-1.52-.89-3.92-2.58-2.56C194.94,371,180.62,384.58,163.89,395c-1.72,1-3.54,2-5.28,2.93-1.29,1.7-2.55,3.37-3.88,5-.55.48-1.12.93-1.74,1.38-.77.57-1.69,1-2.52,1.61-19.32,12.79-42.24,16.57-62.16,28-1.82,1.1-.49,4.2,1.51,3.57,16.53-5.64,33.49-9.25,49.53-16.07-7,8-14.43,15.71-22.31,23.26C97.76,463.15,70.73,488,43.85,498a70.18,70.18,0,0,1-16.51,4,6.62,6.62,0,0,0-.91.25c35.07,10.17,77-.34,108.19-15.22a211.34,211.34,0,0,0,40.88-25.48c4.79-3.85,9.33-7.91,13.85-12.06a80.13,80.13,0,0,0,7.74-8.12l1.77,6.73a78.66,78.66,0,0,1-5.09,12.7c-6.5,13.94-13.77,27.36-23,39.54-10.85,14.34-24.73,25.8-36.05,39.7a2.73,2.73,0,0,0,3.82,3.89c24.15-20.6,55.66-28.07,83.28-42a131.91,131.91,0,0,0,52.74-49c-4.13,18.95-13.93,36.46-17.76,55.59-.6,2.85,2.82,5.26,5,3,11-12.34,17.93-27.13,25.71-41.69,7.41-13.87,14-31.33,24.58-43.13,6.86,20.12,8,44.16,23.89,59.28a3,3,0,0,0,5-1.43c2.9-13.15-3.65-36.06,3.78-48.27,5.64,13.91,13.13,28.62,27.56,33.38a3.11,3.11,0,0,0,3.75-2.24c1.72-12.68-4-23.28-7.39-34.84,5.45,6,11.07,11.6,17.9,16.19,1.86,1.23,3.55-.86,3.25-2.68-.93-6.91-3.15-12.86-5.77-19.23-5.13-12.63-3-9.31,5.21-2.15,10.55,9.27,20.26,16.71,34.2,18.54,1,.14,2.18-.85,1.41-1.86-5.75-8.09-11.51-15.78-15.77-24.63,22.54,17,49.07,28.14,77.36,25.92A1.44,1.44,0,0,0,486.74,439.79Z"/><path class="cls-9" d="M235.15,307.1c-2.68,2-5.35,4-7.93,6a244,244,0,0,1-21.79,12.45c8.66-5.09,17.19-10.31,25.18-17,.26-.21,0-.68-.41-.51-11.92,8.62-25.13,14.24-38.26,20.63-13.88,6.64-25.24,16.75-38.28,25-13.95,8.84-29.19,14.53-45,18.84-7.25,2-15.13,2.84-22.75,4.36-7.48,1-15,1.61-22.7,1.87-.73-.05-.89,1.09-.19,1.32,2.63.67,5.36,1.08,8,1.67a1.56,1.56,0,0,0,1.16,2.38,153.46,153.46,0,0,0,22.55-.45c53.45-.62,109.24-33.52,142-74.31C237.77,308.18,236.47,306.07,235.15,307.1Z"/><path class="cls-10" d="M632.37,511.71c.71-.71.27-2.32-.9-2.14-4.81.67-9.71,1.49-14.48,2.3-16.34-.91-32.39-4.25-47.27-10.82a106.38,106.38,0,0,1-17.13-9.38c-5-3.35-10.52-7.14-16.23-11.32,20.69,4.76,42.22,5.39,59.29,3,1.39-.22,2-2.42.31-2.79-9.94-2-19.82-4.18-29.61-6.56,12.09-.92,23.44-4.42,32.47-11.78a44.45,44.45,0,0,0,7.71-8.21c.79-1.07-.48-2.17-1.46-2A153.3,153.3,0,0,1,569.64,454a143.4,143.4,0,0,1-16.57-7c-23.13-11.1-46.35-28.51-59.39-42-2.81-2.88-5.34-5.94-7.86-9.07,21.95-1.92,47.25-7.82,61-23.71.69-.76,1.5-1.48,2.11-2.27,2.37-3.23.27-9-4.21-7.39-2.52.85-5,1.55-7.55,2.28-2.29.26-4.56.39-6.8.47-18.29-1.08-38-6.85-55.35-15.49,1.74,0,3.47-.14,5.16-.3a50.89,50.89,0,0,0,13.61-3.69,32.69,32.69,0,0,0,3.41-1.55,23.44,23.44,0,0,0,9.71-4.29c.75-.53.59-2.06-.48-2,.21-.23.53-.39.73-.62a1.17,1.17,0,0,0-.79-2,83.15,83.15,0,0,1-23.46-1.31c-8.12-3.66-15.67-9.23-22.66-15.15q1.32.18,2.67.3c18.27,2.36,36.62,2.08,50.58-4.25a16.64,16.64,0,0,0,2.74.43,2.75,2.75,0,0,0,2.75-1.24,4.12,4.12,0,0,0,.61-2.48,36.73,36.73,0,0,0,3.42-2.34,1.6,1.6,0,0,0-.81-2.91c-3.92-.31-8.25-.61-12.84-.85-12.9-4.55-25.06-11-36.81-18.27-9.46-5.92-18.64-12.28-27.77-18.63-15.43-10.84-25.63-23.16-34.28-36.9,21.58,4.29,44.72,3.6,61.81-.32,2.68-.63,5.24-1.29,7.54-2.06a1.54,1.54,0,0,0,.83-2.32c-.1,0-.1-.1-.12-.17-.16-.24-.41-.29-.65-.43l-.07,0h0c-.17-.05-.2-.15-.33-.11l-.66-.11c-18.43-3.2-36-19.76-50.48-31-4.25-3.33-8.29-6.88-12.11-10.45,26.38,16.48,58.15,28.35,77.38,13.23.74-.64.82-2.22-.38-2.47-2.27-.45-4.34-1.15-6.6-1.65a6.38,6.38,0,0,0-.67.41,59.93,59.93,0,0,1-7.54-.82c-15.74-2.76-31.95-9.39-46.16-16.67-30.13-15.34-47.65-40.76-68.63-66.51-1.11-1.39-3.74.16-3,1.92a146.45,146.45,0,0,0,25.58,41.49,120.59,120.59,0,0,0,18,28.06c-1.75-1.08-3.5-2.21-5.19-3.43-9.85-7-19.21-16.28-30-21.63a2,2,0,0,0-2.27,3.21c3.81,4.64,7.79,8.91,12,13.09,16.39,17.78,33.63,33.09,53.88,44a126.72,126.72,0,0,1-15.32-2.2C388.6,209,364.43,197.52,345,174.57c-1.17-1.33-3.49.51-2.44,2a228.6,228.6,0,0,0,15.75,20.82c21.88,35.62,50.08,66.94,83.34,87.37a304,304,0,0,1-72.13-50.41c-1.91-1.78-4.35.84-2.74,2.83,7,9,13.33,17.3,20.43,24.9,20.62,27.4,46,54.78,75.74,70.17l-.08,0c-21.4-4.41-48.33-20.37-64-35.66-1.21-1.18-3.47.47-2.4,2a116.76,116.76,0,0,0,14.42,16c5.5,7,10.39,13.75,18,19.79A157.1,157.1,0,0,0,461.27,354c-39.24-8.71-79.15-35.53-106.09-66.12-2.21-2.55-5.4.77-4.22,3.4,3,7,7.74,13.45,13.26,19.45,4.94,8.43,9.49,17,14.34,25.39a.79.79,0,0,0-.4,1.14c3.13,5.25,6.3,10.34,9.78,15.3-9.53-8.91-18.53-18.36-27.41-27.88a105.53,105.53,0,0,1-5.79-12c-.43-1.08-2.21-1.05-2.05.21,2.26,17.59,9.68,36.33,21,49.65,1.85,2.23,5.39-.13,4.62-2.86a88.78,88.78,0,0,0-7.8-17.66c8.91,11.71,18,22.64,29.66,32.84a133,133,0,0,0,17.11,12.46c8.15,8.39,16.53,16.52,25.27,24.55C458,426.15,477.32,435,496.26,443.15c18.24,7.83,38,14.16,58.21,17.42-33,2.56-69.16,2.72-97.26-15.13-1.52-.92-3.73,1.14-2.54,2.68a46.1,46.1,0,0,0,13.67,12.48c21.25,19.88,48.37,35.48,75.17,44.66,7.83,2.72,16,5.36,24.36,7.81-46.31-5.93-96.36-6.5-130-43.45-1.1-1.22-3.21.44-2.27,1.88,3,4.28,6.17,9.74,9.68,14.79a.92.92,0,0,0,.08.69c16.5,27.51,36.49,46,61.93,56.81-5.86-.19-11.67-.44-17.49-1-17.29-1.48-35-5.44-50.44-13.65-13-6.76-20.73-20.57-29-32.34a.88.88,0,0,0-1.63.5,45.38,45.38,0,0,0,.95,7.74.53.53,0,0,0-.11.54c4.37,14.92,6.91,34.29,12.39,51.79-3.23-3.71-6.5-7.4-9.63-11.27-17.21-20.82-25.28-46.32-35.16-71-.16-.43-.81-.7-1-.17s-.25.85-.4,1.32c-.29-.34-.86-.3-.78.2,0,.75,0,1.46,0,2.17a34.73,34.73,0,0,0-.77,8.72c-2.25,11.33-8.84,22.34-13.77,32.13a379.19,379.19,0,0,1-19.4,34.9A196.11,196.11,0,0,1,312.7,588.6a127.73,127.73,0,0,0,8-36.76c1.73-26.9,4.27-61.41-8.81-85.72-.53-1-1.92-.26-1.74.81.25,1.33.34,2.75.55,4.15-.82-.26-1.67.05-1.58,1.17,1.1,16.71-12.67,34.82-21,48.48-9.58,15.75-23.93,28.08-39.28,37.4-16.2,9.86-34.26,17-52.86,22,25.17-17.8,44.17-43.72,53.3-76.3a1.14,1.14,0,0,0-2.08-.92c-2.73,4.62-5.65,9.25-8.78,13.83a3.16,3.16,0,0,0-4.73-1.48c-34.8,21.58-68.75,40.27-108.57,50.1-21.89,5.41-44.55,4.13-66.48.12-4.48-.9-9.15-2.22-13.84-3.49-2.81.37-5.5.8-8.23,1a5.59,5.59,0,0,0-1.06.32c-2.27-.64-4.59-1.14-6.84-1.94-2.41-.8-3.55,2.74-1.58,4.07,2.37,1.64,4.9,3,7.35,4.46,50.47,29,118.06,20.33,169.27-11.37-.51.53-1,1-1.55,1.53A97.12,97.12,0,0,1,184.72,573c-.66.25-1.26.59-1.93.82-.44.08-.57.43-.77.68-3.47,1.85-7.07,3.66-10.71,5.22-6,1.78-12,3.65-18,5.83a4.06,4.06,0,0,0-2.15,1.87c-1.35,2.57-.25,6.56,3.27,6.14,29.07-3.41,58.79-5.8,86.11-16.68a125,125,0,0,0,14.23-6.47A181.41,181.41,0,0,0,288.4,547a245.5,245.5,0,0,1-22.59,30.4.79.79,0,0,0,1.16,1.07c15.56-15.95,33.27-32.77,44.15-53.13-.46,7.58-.87,15-1.14,22.36-.78,6.73-1.42,14-2.36,21.13-1.19,9.55-2.94,19.08-6.31,27.75a155.12,155.12,0,0,1-10.55,17c-.54.61-.1,1.93.85,1.57,10.93-4.23,17.31-10.64,25-19.7,9.38-11,20.32-20.06,30.35-30.2a150.62,150.62,0,0,0,10.79-12c2.38-3,4.79-6.32,7.17-9.76-2.5,8.91-5.74,17.39-10.21,24.68-.67,1,.92,1.89,1.56.88,8.71-12.73,13.91-25.2,17.63-39.61,17.47,26.84,40.25,46,63.77,67.87.86.8,2.07-.43,1.3-1.35-1.73-1.94-3.17-4-4.76-6.09,1.53,1.49,3.09,3,4.7,4.39,1.93,1.94,3.87,3.83,5.85,5.8a1,1,0,0,0,1.17.16,1.2,1.2,0,0,0,.55-1.62,396,396,0,0,1-18.38-46.76c-.57-1.55-1.11-3.07-1.56-4.67C480,567.38,551,586.28,596.73,552c2.21-1.64,1.79-6.37-1.6-5.94-4.42.53-9.09,1-13.86,1.35a3.78,3.78,0,0,0-2.4-1.29c-6.6-.73-13.19-1.11-19.86-1.35a130.55,130.55,0,0,1-16.67-4.93c28.57,2.17,56.48-1.8,78.36-17.94,1.54-1.14,3.1-2.12,4.56-3.41a63.45,63.45,0,0,0,6.82-4.06,1.2,1.2,0,0,0-.23-2.13A5.16,5.16,0,0,0,632.37,511.71Z"/><path class="cls-11" d="M221,281c-5.21,3.28-10,6.67-14.73,10.08-17.91,9-37.17,14-56.76,17.92-29,5.89-57.23,2.65-86.46,3.19a.74.74,0,0,0-.35,1.34,78.35,78.35,0,0,0,24.5,9.25c44.24,23.88,115.68,11.76,134.52-41.27C221.91,281.12,221.3,280.78,221,281Z"/><path class="cls-12" d="M267.67,109.65s-21.84,23-35.68,27-18.5,10.07-10.06,13.44-13.59,8.78-24.66,14.83S150.35,174.36,164,182.1s53.46-4.55,54.73,5.69-53.52,19.22-35,28.87,64.64-20.14,61.66-5.14,29.39,19.12,42.7,7.24,60.23-10.47,35.51-25.37-51.68,13.53-63.93-11.17-7-27.39-18.09-24,27.85-24.27,18.15-24.29S290.51,94.84,267.67,109.65Z"/><path class="cls-13" d="M174,286.34s9.53-15.26-13.12,0-30.83,14.8-52.31,14.78-57.27-3.43-43,11.1,53.47,16.56,76.55,11.23,4.81,13.36,33.83,3.65,3.49,13.85-22.22,26.54-89.11,13.22-73.37,23.89,98.67-14.16,93.56.11,1,15.11,19.25,6.84S240.74,358,241,371.12s11.39,15.78,27-12.84,51.94,20.66,62.49-17.76-4.12-55.76-27.24-39.85-33.78,22.92-57.59,14.8-4.07-34.64-26-28.83S228.3,262.11,174,286.34Z"/><path class="cls-14" d="M537.19,364.84s-39.16-20.16-40.82-6.27-6.86,4.41-27.05,11.82-69.71-9-64.65,8.2S384.1,390,369.6,395.9s-33.19,8.76-20.84,25,13.21,40,28.09,20.05,7.61-25.82,38.34-20.66,44.27,2.79,47.53-12.05,13.34-9,31.3-12.79,37.78.65,40.73-13.16,23.76-3,19.26-16.48S536.71,361.22,537.19,364.84Z"/><path class="cls-15" d="M339.84,231.88c-.35-19.84,13-11.43,48.21-11.38S397.82,209,389.32,184s30.68,18.33,41.76,2.85,14.74-3.61,22.23-4.35,39,7.77,34.74,17.19-21.16,5.06-40.09.78,12.42,8.68,29.27,25.48-52.59,8-62.37,12.43-14.46,3.08-24.87,0-18.92,8.22-24.77,12.48c-35.49,26.18-62.54,12.13-62.54,6.71,0,0-14.74-30.11,13.82-21.44S340.15,248.38,339.84,231.88Z"/><path class="cls-16" d="M277.78,246.65s-23.93-17.56-24.59,0,7.77,24,17.55,19.49S291.23,264.92,277.78,246.65Z"/><path class="cls-17" d="M363.83,188.65s-6.4-16.67-12.17-10.21S383.52,206.2,363.83,188.65Z"/><path class="cls-18" d="M328.11,9.16s-11.05-20.58-19.47,0S287.2,79.79,286,82.76s21.34-44.61,26.51-21,17.79,39.82,19,21.62,6.81-19.71,20.51,0,16.92,15.54,5.69-5.38S328.11,9.16,328.11,9.16Z"/><path class="cls-19" d="M77.05,474.53S58.13,488.68,40.52,494-5.08,490,.8,504.82s30.59,25.65,65.75,24.33,29.3,1.39,20.19,8.12,7,7.31,7,7.31-34.36,12.93-60.39,11.54-13.54,20.5,29,30.89,87.56-4.14,79.4.1.29,6.94,28.3,7,94.69-14.7,101.64-23.75-18.89,15.76-4.59,13.08,32.63-39.12,32.61-26.3-25.83,62.28-12,61.51,40.24-33.08,49.75-43.24,11.77-38,.06-30.5,2.64-45.06-29.93-35-33.82-45.86-74.9-20-86.65,13.72-86-5.88-9.11-10.8-42.33,0S100.79,460.13,77.05,474.53Z"/><path class="cls-20" d="M510.82,517.59S429,501.07,463.25,534.38,411.8,522.54,421.55,545s27.18,56.88,27.89,50.79-15.55-35.12,12.46-25.64,53.2,11.6,51.33-.26,40.26,10.52,68.1-8.73-35.43-24.74-3.46-28.67,83.42-14.06,45-26.9-89-15.86-63.32-21.57,45.1-16.93,8-26.46-92.49-21-71.67,5.33,60.75,32.26,39,41.24S488.46,496.83,510.82,517.59Z"/><path class="cls-21" d="M404.34,660.69s-33-37.72-58.16-14.3-49.5,37.75,11.71,44.53c0,0,27.28,10.44,41.22,0S426,677.68,404.34,660.69Z"/><path class="cls-22" d="M257.92,688.13s3.5-32.37,31.3-25.14,51.39,19.87,33,35.12S248.31,708.93,257.92,688.13Z"/></g></g></g></svg>