<svg xmlns="http://www.w3.org/2000/svg" xmlns:xlink="http://www.w3.org/1999/xlink" viewBox="0 0 536.17 276.74"><defs><style>.cls-1{fill:#064984;}.cls-2{fill:#042d52;}.cls-3{fill:#0b417c;}.cls-4{fill:#d0e2eb;}.cls-5{fill:#e1f5fe;}.cls-6{fill:#b6c7cf;}.cls-7{fill:#e75735;}.cls-8{fill:#f5a13e;}.cls-9{fill:#0c5ba7;}.cls-10{fill:#f0faff;}.cls-11{fill:#1274b7;}.cls-12{fill:#0f639c;}.cls-13,.cls-33{fill:none;}.cls-13{stroke:#fff;stroke-miterlimit:10;}.cls-14{fill:#fff;}.cls-15{fill:#393737;}.cls-16{fill:#a9a9a9;}.cls-17{fill:#e6e6e6;}.cls-18{fill:#ccc;}.cls-19{fill:#117ec5;}.cls-20{fill:#c2482c;}.cls-21{fill:red;}.cls-22{fill:#f7b045;}.cls-23{fill:#ffc773;}.cls-24{fill:#6bd5ed;}.cls-25{fill:#a3eeff;}.cls-26{fill:#c2f4ff;}.cls-27{fill:url(#linear-gradient);}.cls-28{fill:#a9b8bf;}.cls-29{fill:#93a0a6;}.cls-30{fill:#240d08;}.cls-31{fill:#36130c;}.cls-32{fill:#1d2933;}.cls-34{fill:#50718c;}.cls-35{fill:#c0d0d9;}.cls-36{fill:#64b5f6;}.cls-37{fill:#90caf9;}.cls-38{fill:#81d4fa;}.cls-39{fill:#e57373;}.cls-40{fill:#b3e5fc;}.cls-41{fill:#e53935;}.cls-42{fill:#bbdefb;}.cls-43{fill:#d7841c;}.cls-44{fill:#fbf0ee;}.cls-45{fill:#fac41a;}.cls-46{fill:#e0231d;}.cls-47{fill:#72d1ff;}.cls-48{fill:#2bbaff;}.cls-49{fill:#ff2821;}.cls-50{fill:#e3b218;}.cls-51{fill:#ff8e0c;}.cls-52{fill:#fff6b9;}.cls-53{fill:#ffebee;}.cls-54{fill:#ff7043;}.cls-55{fill:#f4511e;}.cls-56{fill:#ffcdd2;}.cls-57{fill:#ef9a9a;}.cls-58{fill:#66bb6a;}.cls-59{fill:#d4e157;}.cls-60{fill:#c0ca33;}.cls-61{fill:#43a047;}.cls-62{fill:#2e7d32;}.cls-63{fill:#031d36;}.cls-64{fill:#ef5350;}.cls-65{fill:#c62828;}</style><linearGradient id="linear-gradient" x1="494.72" y1="203.17" x2="536.17" y2="203.17" gradientUnits="userSpaceOnUse"><stop offset="0" stop-color="#38d7f2"/><stop offset="0.09" stop-color="#3dd7f2" stop-opacity="0.95"/><stop offset="0.25" stop-color="#49d9f1" stop-opacity="0.83"/><stop offset="0.46" stop-color="#5ddbf0" stop-opacity="0.62"/><stop offset="0.72" stop-color="#79deef" stop-opacity="0.34"/><stop offset="1" stop-color="#9be1ed" stop-opacity="0"/></linearGradient></defs><title>truck</title><g id="Calque_2" data-name="Calque 2"><g id="Calque_1-2" data-name="Calque 1"><rect class="cls-1" x="30.53" y="235.28" width="450.76" height="14"/><rect class="cls-2" x="30.53" y="235.28" width="450.76" height="6.07"/><polygon class="cls-1" points="30.53 249.28 30.53 240.49 12.87 240.49 12.87 252.04 40.62 252.04 40.62 249.28 30.53 249.28"/><polygon class="cls-2" points="30.53 243.86 30.53 240.49 12.87 240.49 12.87 246.07 30.53 246.07 30.53 243.86"/><rect class="cls-3" x="12.86" y="175.48" width="475.36" height="61.31"/><polygon class="cls-4" points="426.08 65.72 12.86 65.72 12.86 57.91 423.64 57.91 426.08 65.72"/><polygon class="cls-5" points="488.22 174.47 488.22 175.47 12.86 175.47 12.86 65.72 426.08 65.72 436.89 100.41 437.36 101.93 454.16 155.88 454.92 158.32 455.67 158.68 488.22 174.47"/><polygon class="cls-6" points="436.89 100.3 336.08 100.3 336.08 101.81 437.36 101.81 436.89 100.3"/><path class="cls-7" d="M488.22,175.48v61.31h-10.7a44.16,44.16,0,0,0-9.63-19.92,37.22,37.22,0,0,0-28.32-13.46c-18.58,0-34.1,14.29-38,33.38H156.14c-3.86-19.09-19.38-33.38-38-33.38S84.09,217.7,80.23,236.79H12.86V175.48Z"/><rect class="cls-8" x="488.23" y="193.71" width="6.5" height="18.92"/><path class="cls-9" d="M483.56,205.26a5.11,5.11,0,1,1-5.11-5.11A5.11,5.11,0,0,1,483.56,205.26Z"/><rect class="cls-10" x="6.88" y="46.87" width="426.73" height="11.04"/><rect class="cls-11" x="34.69" y="83.65" width="68.76" height="104.46"/><path class="cls-12" d="M103.45,84.25V188.1H34.69v-.6C46.06,170.47,79.22,120.84,103.45,84.25Z"/><rect class="cls-13" x="42.26" y="91.21" width="53.62" height="89.32"/><rect class="cls-14" x="47.56" y="95.19" width="22.58" height="3.03"/><rect class="cls-14" x="47.56" y="174.29" width="34.69" height="1.51"/><rect class="cls-14" x="47.56" y="103.78" width="43.02" height="1.51"/><rect class="cls-14" x="47.56" y="111.61" width="43.02" height="1.51"/><rect class="cls-14" x="47.56" y="119.44" width="43.02" height="1.51"/><rect class="cls-14" x="47.56" y="127.28" width="43.02" height="1.51"/><rect class="cls-14" x="47.56" y="135.11" width="43.02" height="1.51"/><rect class="cls-14" x="47.56" y="142.95" width="43.02" height="1.51"/><rect class="cls-14" x="47.56" y="150.78" width="43.02" height="1.51"/><rect class="cls-14" x="47.56" y="158.62" width="43.02" height="1.51"/><rect class="cls-14" x="47.56" y="166.45" width="43.02" height="1.51"/><path class="cls-9" d="M39.8,205.26a5.11,5.11,0,1,1-5.11-5.11A5.11,5.11,0,0,1,39.8,205.26Z"/><path class="cls-6" d="M342.85,171.07a.85.85,0,0,1,1.08-.54.86.86,0,1,1-1.08.54Z"/><path class="cls-6" d="M348,171.07a.85.85,0,0,1,1.08-.54.86.86,0,1,1-1.08.54Z"/><path class="cls-6" d="M353.17,171.07a.85.85,0,0,1,1.08-.54.86.86,0,1,1-1.08.54Z"/><path class="cls-6" d="M358.32,171.07a.86.86,0,1,1,.55,1.09A.87.87,0,0,1,358.32,171.07Z"/><path class="cls-6" d="M363.48,171.07a.86.86,0,0,1,1.64.54.86.86,0,1,1-1.64-.54Z"/><path class="cls-6" d="M368.64,171.07a.86.86,0,0,1,1.09-.54.85.85,0,0,1,.54,1.08.86.86,0,0,1-1.08.55A.87.87,0,0,1,368.64,171.07Z"/><path class="cls-6" d="M373.8,171.07a.86.86,0,1,1,.55,1.09A.86.86,0,0,1,373.8,171.07Z"/><path class="cls-6" d="M379,171.07a.86.86,0,1,1,.55,1.09A.86.86,0,0,1,379,171.07Z"/><path class="cls-6" d="M384.12,171.07a.86.86,0,1,1,.55,1.09A.86.86,0,0,1,384.12,171.07Z"/><path class="cls-6" d="M389.28,171.07a.86.86,0,1,1,.55,1.09A.86.86,0,0,1,389.28,171.07Z"/><path class="cls-6" d="M394.44,171.07a.86.86,0,1,1,.54,1.09A.86.86,0,0,1,394.44,171.07Z"/><path class="cls-6" d="M399.6,171.07a.86.86,0,1,1,.54,1.09A.86.86,0,0,1,399.6,171.07Z"/><circle class="cls-15" cx="118.02" cy="246.07" r="30.67" transform="translate(-148.7 303.85) rotate(-76.6)"/><path class="cls-16" d="M118,270.54a24,24,0,0,1-9.46-1.63,24.44,24.44,0,0,1-15.51-22.84v-1.19l.83.84c4.1,4.16,8.26,8.33,12.26,12.51Zm0,0-12.6-12.16c-4.16-4-8.16-8-12.22-12l.84-.35a24.27,24.27,0,0,0,6.95,17,24.06,24.06,0,0,0,7.76,5.35A24.93,24.93,0,0,0,118,270.54Z"/><circle class="cls-16" cx="118.02" cy="246.07" r="18.48" transform="translate(-148.65 304.07) rotate(-76.65)"/><circle class="cls-17" cx="118.02" cy="246.07" r="10.79"/><path class="cls-18" d="M123.16,249.63a.92.92,0,0,1-.38,1.3.79.79,0,0,1-1.16-.42.88.88,0,0,1,.36-1.11A.92.92,0,0,1,123.16,249.63Z"/><path class="cls-18" d="M118.44,252.31a.92.92,0,0,1-1.25.51.79.79,0,0,1-.4-1.17.89.89,0,0,1,1.09-.41A.93.93,0,0,1,118.44,252.31Z"/><path class="cls-18" d="M113.4,250.29a.92.92,0,0,1-1.17-.66.78.78,0,0,1,.66-1,.9.9,0,0,1,1,.59A.94.94,0,0,1,113.4,250.29Z"/><path class="cls-18" d="M111.84,245.09a.91.91,0,0,1-.22-1.33.79.79,0,0,1,1.23-.13.89.89,0,0,1,.16,1.15A.94.94,0,0,1,111.84,245.09Z"/><path class="cls-18" d="M114.93,240.62a.91.91,0,0,1,.91-1,.78.78,0,0,1,.86.88.88.88,0,0,1-.8.84A.94.94,0,0,1,114.93,240.62Z"/><path class="cls-18" d="M120.35,240.26a.92.92,0,0,1,1.35.09.79.79,0,0,1-.15,1.22.9.9,0,0,1-1.16-.1A.94.94,0,0,1,120.35,240.26Z"/><path class="cls-18" d="M124,244.27a.93.93,0,0,1,.77,1.1.79.79,0,0,1-1.05.65.86.86,0,0,1-.64-1A.92.92,0,0,1,124,244.27Z"/><circle class="cls-15" cx="440.41" cy="246.07" r="30.67" transform="translate(98.97 617.46) rotate(-76.6)"/><circle class="cls-16" cx="440.41" cy="246.07" r="18.48" transform="translate(-60.46 185.73) rotate(-22.32)"/><circle class="cls-17" cx="440.41" cy="246.07" r="10.79"/><path class="cls-18" d="M445.56,249.63a.93.93,0,0,1-.39,1.3.79.79,0,0,1-1.16-.42.89.89,0,0,1,.36-1.11A.93.93,0,0,1,445.56,249.63Z"/><path class="cls-18" d="M440.83,252.31a.92.92,0,0,1-1.25.51.79.79,0,0,1-.4-1.17.89.89,0,0,1,1.09-.41A.92.92,0,0,1,440.83,252.31Z"/><path class="cls-18" d="M435.79,250.29a.92.92,0,0,1-1.17-.66.78.78,0,0,1,.66-1,.9.9,0,0,1,1,.59A.93.93,0,0,1,435.79,250.29Z"/><path class="cls-18" d="M434.23,245.09a.9.9,0,0,1-.21-1.33.78.78,0,0,1,1.22-.13.89.89,0,0,1,.16,1.15A.94.94,0,0,1,434.23,245.09Z"/><path class="cls-18" d="M437.32,240.62a.91.91,0,0,1,.91-1,.79.79,0,0,1,.87.88.9.9,0,0,1-.8.84A1,1,0,0,1,437.32,240.62Z"/><path class="cls-18" d="M442.74,240.26a.92.92,0,0,1,1.35.09.79.79,0,0,1-.15,1.22.9.9,0,0,1-1.16-.1A.94.94,0,0,1,442.74,240.26Z"/><path class="cls-18" d="M446.41,244.27a.93.93,0,0,1,.77,1.1.79.79,0,0,1-1.05.65.87.87,0,0,1-.64-1A.92.92,0,0,1,446.41,244.27Z"/><path class="cls-16" d="M439.75,270.54a24,24,0,0,1-9.46-1.63,24.44,24.44,0,0,1-15.51-22.84v-1.19l.83.84c4.1,4.16,8.26,8.33,12.26,12.51Zm0,0-12.6-12.16c-4.16-4-8.16-8-12.22-12l.84-.35a24.27,24.27,0,0,0,7,17,24.06,24.06,0,0,0,7.76,5.35A24.93,24.93,0,0,0,439.75,270.54Z"/><path class="cls-19" d="M499.83,216.87v7.66a12.28,12.28,0,0,1-11.61,12.25h-10.7a44.16,44.16,0,0,0-9.63-19.92Z"/><rect class="cls-20" x="22.2" y="175.48" width="1.51" height="61.31"/><rect class="cls-6" x="22.2" y="57.91" width="1.51" height="117.57"/><path class="cls-19" d="M0,216.86H34.69a0,0,0,0,1,0,0V236.8a0,0,0,0,1,0,0H8.11A8.11,8.11,0,0,1,0,228.69V216.86A0,0,0,0,1,0,216.86Z"/><rect class="cls-20" x="335.32" y="175.48" width="1.51" height="61.31"/><path class="cls-20" d="M385.92,236.79h1.74l22.73-40.24a.69.69,0,0,0,.11-.38c0-6.24-.07-13.24-.11-20.69h-1.51c0,6.48.07,13.29.11,20.5Z"/><polygon class="cls-6" points="455.67 158.69 454.92 158.33 454.16 155.89 454.16 175.48 455.67 175.48 455.67 158.69"/><path class="cls-21" d="M455.47,207.14l-.51-.24Z"/><path class="cls-20" d="M455.67,175.48h-1.51v31l.8.39.51.24.2.1Z"/><path class="cls-22" d="M34.69,67.66V72.9a2,2,0,0,1-2,2H19.46a2.06,2.06,0,0,1-2.06-2V67.66a2.06,2.06,0,0,1,2.06-2.06H32.65A2.05,2.05,0,0,1,34.69,67.66Z"/><path class="cls-7" d="M20.36,67.47a.92.92,0,1,1-.92-.92A.92.92,0,0,1,20.36,67.47Z"/><circle class="cls-7" cx="19.44" cy="73.08" r="0.91"/><path class="cls-7" d="M33.57,67.47a.92.92,0,1,1-.91-.92A.91.91,0,0,1,33.57,67.47Z"/><path class="cls-7" d="M33.57,73.08a.92.92,0,1,1-.91-.91A.92.92,0,0,1,33.57,73.08Z"/><polygon class="cls-23" points="28.09 65.6 23.17 74.94 22.32 74.94 27.25 65.6 28.09 65.6"/><polygon class="cls-23" points="32.09 65.6 27.17 74.94 26.32 74.94 31.24 65.6 32.09 65.6"/><path class="cls-24" d="M404.72,113.09v41.56a4.73,4.73,0,0,1-4.05,4.66,3.11,3.11,0,0,1-.69.06H346.87a4.73,4.73,0,0,1-4.74-4.72V113.09a4.73,4.73,0,0,1,4.74-4.72H400a4.67,4.67,0,0,1,3.19,1.25A4.61,4.61,0,0,1,404.72,113.09Z"/><path class="cls-25" d="M400.67,118.39v40.92a3.11,3.11,0,0,1-.69.06H346.87a4.73,4.73,0,0,1-4.74-4.72V113.73a3.26,3.26,0,0,1,.7-.06H396A4.73,4.73,0,0,1,400.67,118.39Z"/><polygon class="cls-26" points="378.96 108.37 342.13 152.38 342.13 123.66 354.94 108.37 378.96 108.37"/><polygon class="cls-26" points="399.25 108.37 356.55 159.37 350 159.37 392.7 108.37 399.25 108.37"/><path class="cls-26" d="M404.72,113.09v2.5l-36.65,43.78h-6.54l41.64-49.75A4.61,4.61,0,0,1,404.72,113.09Z"/><path class="cls-24" d="M434,159.37h-12a4.37,4.37,0,0,1-1.15-.14,4.68,4.68,0,0,1-3-2.36,4.52,4.52,0,0,1-.56-2.22V113.09a4.72,4.72,0,0,1,4.72-4.72h4.8a3.85,3.85,0,0,1,3.81,3.22l3.09,18.53,1.09,6.51.83,5,1.08,6.51,1.13,6.76A3.86,3.86,0,0,1,434,159.37Z"/><path class="cls-25" d="M433.6,159.37H421.93a4.72,4.72,0,0,1-4.72-4.72V113.73a3.07,3.07,0,0,1,.68-.06h4.81a3.85,3.85,0,0,1,3.8,3.22Z"/><path class="cls-26" d="M434.72,136.63l-17,20.24a4.52,4.52,0,0,1-.56-2.22v-4.91l16.42-19.62Z"/><path class="cls-26" d="M436.63,148.11l-9.43,11.26h-5.27a4.37,4.37,0,0,1-1.15-.14l14.77-17.63Z"/><polygon class="cls-27" points="494.72 193.71 494.72 203.18 494.72 212.64 536.17 235.01 536.17 203.18 536.17 171.34 494.72 193.71"/><path class="cls-6" d="M408.88,175.48h1.51c-.23-47.74-.42-114,.05-117.28a.68.68,0,0,0,.06-.29h-1.45C408.75,60.41,408.37,75.64,408.88,175.48Z"/><path class="cls-22" d="M420,67.66V72.9a2,2,0,0,1-2,2H404.75a2.05,2.05,0,0,1-2.06-2V67.66a2.06,2.06,0,0,1,2.06-2.06h13.19A2.05,2.05,0,0,1,420,67.66Z"/><path class="cls-7" d="M405.64,67.47a.92.92,0,1,1-.91-.92A.91.91,0,0,1,405.64,67.47Z"/><circle class="cls-7" cx="404.73" cy="73.08" r="0.91"/><path class="cls-7" d="M418.86,67.47a.92.92,0,1,1-.92-.92A.92.92,0,0,1,418.86,67.47Z"/><path class="cls-7" d="M418.86,73.08a.92.92,0,1,1-.92-.91A.92.92,0,0,1,418.86,73.08Z"/><polygon class="cls-23" points="413.38 65.6 408.46 74.94 407.61 74.94 412.53 65.6 413.38 65.6"/><polygon class="cls-23" points="417.38 65.6 412.45 74.94 411.61 74.94 416.53 65.6 417.38 65.6"/><path class="cls-14" d="M43.36,229.46a.88.88,0,0,1,1.11-.54A.85.85,0,0,1,45,230a.88.88,0,0,1-1.11.54A.85.85,0,0,1,43.36,229.46Z"/><path class="cls-14" d="M48.63,229.46a.88.88,0,0,1,1.11-.54A.85.85,0,0,1,50.3,230a.88.88,0,0,1-1.11.54A.85.85,0,0,1,48.63,229.46Z"/><path class="cls-14" d="M53.9,229.46a.88.88,0,0,1,1.11-.54.85.85,0,0,1,.56,1.08.88.88,0,0,1-1.11.54A.85.85,0,0,1,53.9,229.46Z"/><path class="cls-14" d="M59.17,229.46a.88.88,0,0,1,1.11-.54.85.85,0,0,1,.56,1.08.88.88,0,0,1-1.11.54A.85.85,0,0,1,59.17,229.46Z"/><path class="cls-14" d="M64.44,229.46a.88.88,0,0,1,1.11-.54.85.85,0,0,1,.56,1.08.88.88,0,0,1-1.11.54A.85.85,0,0,1,64.44,229.46Z"/><path class="cls-14" d="M69.71,229.46a.88.88,0,0,1,1.11-.54.85.85,0,0,1,.56,1.08.88.88,0,0,1-1.11.54A.85.85,0,0,1,69.71,229.46Z"/><path class="cls-14" d="M160.67,229.46a.86.86,0,1,1,.54,1.08A.85.85,0,0,1,160.67,229.46Z"/><path class="cls-14" d="M165.82,229.46a.86.86,0,0,1,1.09-.54.85.85,0,0,1,.54,1.08.86.86,0,0,1-1.09.54A.85.85,0,0,1,165.82,229.46Z"/><path class="cls-14" d="M171,229.46a.86.86,0,0,1,1.09-.54.85.85,0,0,1,.54,1.08.86.86,0,0,1-1.09.54A.85.85,0,0,1,171,229.46Z"/><path class="cls-14" d="M176.12,229.46a.86.86,0,0,1,1.09-.54.85.85,0,0,1,.54,1.08.86.86,0,0,1-1.09.54A.85.85,0,0,1,176.12,229.46Z"/><path class="cls-14" d="M181.27,229.46a.86.86,0,0,1,1.09-.54.85.85,0,0,1,.54,1.08.86.86,0,0,1-1.09.54A.85.85,0,0,1,181.27,229.46Z"/><path class="cls-14" d="M186.42,229.46a.86.86,0,0,1,1.09-.54.85.85,0,0,1,.54,1.08.86.86,0,0,1-1.09.54A.85.85,0,0,1,186.42,229.46Z"/><path class="cls-14" d="M191.57,229.46a.86.86,0,0,1,1.09-.54.85.85,0,0,1,.54,1.08.86.86,0,0,1-1.09.54A.85.85,0,0,1,191.57,229.46Z"/><path class="cls-14" d="M196.72,229.46a.86.86,0,0,1,1.09-.54.85.85,0,0,1,.54,1.08.86.86,0,0,1-1.09.54A.85.85,0,0,1,196.72,229.46Z"/><path class="cls-14" d="M201.87,229.46a.86.86,0,0,1,1.09-.54.85.85,0,0,1,.54,1.08.86.86,0,0,1-1.63-.54Z"/><path class="cls-14" d="M207,229.46a.86.86,0,0,1,1.09-.54.85.85,0,0,1,.54,1.08.86.86,0,0,1-1.63-.54Z"/><path class="cls-14" d="M212.17,229.46a.86.86,0,0,1,1.09-.54.85.85,0,1,1-1.09.54Z"/><path class="cls-14" d="M217.32,229.46a.86.86,0,0,1,1.09-.54.85.85,0,1,1-1.09.54Z"/><path class="cls-14" d="M222.47,229.46a.86.86,0,0,1,1.09-.54.85.85,0,1,1-1.09.54Z"/><path class="cls-14" d="M227.62,229.46a.86.86,0,0,1,1.09-.54.85.85,0,1,1-1.09.54Z"/><path class="cls-14" d="M232.77,229.46a.86.86,0,0,1,1.09-.54.85.85,0,1,1-1.09.54Z"/><path class="cls-14" d="M237.93,229.46a.85.85,0,1,1,.54,1.08A.85.85,0,0,1,237.93,229.46Z"/><path class="cls-14" d="M243.08,229.46a.85.85,0,1,1,.54,1.08A.85.85,0,0,1,243.08,229.46Z"/><path class="cls-14" d="M248.23,229.46a.85.85,0,1,1,.54,1.08A.85.85,0,0,1,248.23,229.46Z"/><path class="cls-14" d="M253.38,229.46a.85.85,0,1,1,.54,1.08A.85.85,0,0,1,253.38,229.46Z"/><path class="cls-14" d="M258.53,229.46a.85.85,0,1,1,.54,1.08A.85.85,0,0,1,258.53,229.46Z"/><path class="cls-14" d="M263.68,229.46a.85.85,0,1,1,.54,1.08A.85.85,0,0,1,263.68,229.46Z"/><path class="cls-14" d="M268.83,229.46a.86.86,0,0,1,1.63.54.86.86,0,0,1-1.09.54A.85.85,0,0,1,268.83,229.46Z"/><path class="cls-14" d="M274,229.46a.86.86,0,0,1,1.63.54.86.86,0,0,1-1.09.54A.85.85,0,0,1,274,229.46Z"/><path class="cls-14" d="M279.13,229.46a.86.86,0,0,1,1.63.54.86.86,0,0,1-1.09.54A.85.85,0,0,1,279.13,229.46Z"/><path class="cls-14" d="M284.28,229.46a.86.86,0,0,1,1.63.54.86.86,0,0,1-1.09.54A.85.85,0,0,1,284.28,229.46Z"/><path class="cls-14" d="M289.43,229.46a.86.86,0,1,1,.54,1.08A.85.85,0,0,1,289.43,229.46Z"/><path class="cls-14" d="M294.58,229.46a.86.86,0,1,1,.54,1.08A.85.85,0,0,1,294.58,229.46Z"/><path class="cls-14" d="M299.73,229.46a.86.86,0,0,1,1.09-.54.85.85,0,0,1,.54,1.08.86.86,0,0,1-1.09.54A.85.85,0,0,1,299.73,229.46Z"/><path class="cls-14" d="M304.88,229.46a.86.86,0,0,1,1.09-.54.85.85,0,0,1,.54,1.08.86.86,0,0,1-1.09.54A.85.85,0,0,1,304.88,229.46Z"/><path class="cls-14" d="M310,229.46a.86.86,0,0,1,1.09-.54.85.85,0,0,1,.54,1.08.86.86,0,0,1-1.09.54A.85.85,0,0,1,310,229.46Z"/><path class="cls-14" d="M315.18,229.46a.86.86,0,0,1,1.09-.54.85.85,0,0,1,.54,1.08.86.86,0,0,1-1.09.54A.85.85,0,0,1,315.18,229.46Z"/><path class="cls-14" d="M320.33,229.46a.86.86,0,0,1,1.09-.54A.85.85,0,0,1,322,230a.86.86,0,0,1-1.09.54A.85.85,0,0,1,320.33,229.46Z"/><path class="cls-14" d="M325.48,229.46a.86.86,0,0,1,1.09-.54.85.85,0,0,1,.54,1.08.86.86,0,0,1-1.09.54A.85.85,0,0,1,325.48,229.46Z"/><path class="cls-14" d="M330.63,229.46a.86.86,0,0,1,1.09-.54.85.85,0,0,1,.54,1.08.86.86,0,0,1-1.09.54A.85.85,0,0,1,330.63,229.46Z"/><path class="cls-14" d="M335.78,229.46a.86.86,0,0,1,1.09-.54.85.85,0,0,1,.54,1.08.86.86,0,0,1-1.09.54A.85.85,0,0,1,335.78,229.46Z"/><path class="cls-14" d="M340.93,229.46a.86.86,0,0,1,1.09-.54.85.85,0,0,1,.54,1.08.86.86,0,0,1-1.63-.54Z"/><path class="cls-14" d="M346.08,229.46a.86.86,0,0,1,1.09-.54.85.85,0,1,1-1.09.54Z"/><path class="cls-14" d="M351.23,229.46a.86.86,0,0,1,1.09-.54.85.85,0,1,1-1.09.54Z"/><path class="cls-14" d="M356.38,229.46a.86.86,0,0,1,1.09-.54.85.85,0,1,1-1.09.54Z"/><path class="cls-14" d="M361.53,229.46a.86.86,0,0,1,1.09-.54.85.85,0,1,1-1.09.54Z"/><path class="cls-14" d="M366.68,229.46a.86.86,0,0,1,1.09-.54.85.85,0,1,1-1.09.54Z"/><path class="cls-14" d="M371.83,229.46a.87.87,0,0,1,1.09-.54.85.85,0,1,1-1.09.54Z"/><path class="cls-14" d="M377,229.46a.85.85,0,1,1,.54,1.08A.85.85,0,0,1,377,229.46Z"/><path class="cls-14" d="M382.14,229.46a.85.85,0,1,1,.54,1.08A.85.85,0,0,1,382.14,229.46Z"/><path class="cls-14" d="M387.29,229.46a.85.85,0,1,1,.54,1.08A.85.85,0,0,1,387.29,229.46Z"/><path class="cls-14" d="M392.44,229.46a.85.85,0,1,1,.54,1.08A.85.85,0,0,1,392.44,229.46Z"/><path class="cls-14" d="M397.59,229.46a.85.85,0,1,1,.54,1.08A.85.85,0,0,1,397.59,229.46Z"/><path class="cls-6" d="M19.61,61.54a.86.86,0,1,1,.54,1.09A.86.86,0,0,1,19.61,61.54Z"/><path class="cls-6" d="M24.73,61.54a.86.86,0,1,1,1.62.55.85.85,0,0,1-1.08.54A.88.88,0,0,1,24.73,61.54Z"/><path class="cls-6" d="M29.86,61.54a.86.86,0,1,1,.54,1.09A.86.86,0,0,1,29.86,61.54Z"/><path class="cls-6" d="M35,61.54A.85.85,0,0,1,36.07,61a.88.88,0,0,1,.54,1.09A.86.86,0,1,1,35,61.54Z"/><path class="cls-6" d="M40.11,61.54a.86.86,0,1,1,.54,1.09A.86.86,0,0,1,40.11,61.54Z"/><path class="cls-6" d="M45.24,61.54A.86.86,0,0,1,46.32,61a.87.87,0,0,1,.54,1.09.86.86,0,1,1-1.62-.55Z"/><path class="cls-6" d="M50.36,61.54a.86.86,0,1,1,.54,1.09A.86.86,0,0,1,50.36,61.54Z"/><path class="cls-6" d="M55.49,61.54A.86.86,0,1,1,56,62.63.86.86,0,0,1,55.49,61.54Z"/><path class="cls-6" d="M60.61,61.54a.86.86,0,1,1,1.62.55.85.85,0,0,1-1.08.54A.86.86,0,0,1,60.61,61.54Z"/><path class="cls-6" d="M65.74,61.54a.86.86,0,1,1,.54,1.09A.86.86,0,0,1,65.74,61.54Z"/><path class="cls-6" d="M70.86,61.54a.86.86,0,1,1,1.62.55.85.85,0,0,1-1.08.54A.87.87,0,0,1,70.86,61.54Z"/><path class="cls-6" d="M76,61.54a.86.86,0,1,1,.54,1.09A.86.86,0,0,1,76,61.54Z"/><path class="cls-6" d="M81.11,61.54a.86.86,0,1,1,1.62.55.85.85,0,0,1-1.08.54A.87.87,0,0,1,81.11,61.54Z"/><path class="cls-6" d="M86.24,61.54a.86.86,0,1,1,.54,1.09A.86.86,0,0,1,86.24,61.54Z"/><path class="cls-6" d="M91.36,61.54a.86.86,0,1,1,1.62.55.85.85,0,0,1-1.08.54A.88.88,0,0,1,91.36,61.54Z"/><path class="cls-6" d="M96.49,61.54A.86.86,0,1,1,97,62.63.86.86,0,0,1,96.49,61.54Z"/><path class="cls-6" d="M101.62,61.54A.85.85,0,0,1,102.7,61a.88.88,0,0,1,.54,1.09.86.86,0,1,1-1.62-.55Z"/><path class="cls-6" d="M106.74,61.54a.86.86,0,1,1,.54,1.09A.86.86,0,0,1,106.74,61.54Z"/><path class="cls-6" d="M111.87,61.54A.86.86,0,0,1,113,61a.87.87,0,0,1,.54,1.09.86.86,0,1,1-1.62-.55Z"/><path class="cls-6" d="M117,61.54a.86.86,0,1,1,.54,1.09A.86.86,0,0,1,117,61.54Z"/><path class="cls-6" d="M122.12,61.54A.86.86,0,0,1,123.2,61a.87.87,0,0,1,.54,1.09.86.86,0,1,1-1.62-.55Z"/><path class="cls-6" d="M127.24,61.54a.86.86,0,1,1,1.62.55.85.85,0,0,1-1.08.54A.86.86,0,0,1,127.24,61.54Z"/><path class="cls-6" d="M132.37,61.54a.86.86,0,1,1,.54,1.09A.86.86,0,0,1,132.37,61.54Z"/><path class="cls-6" d="M137.49,61.54a.86.86,0,1,1,1.62.55.85.85,0,0,1-1.08.54A.87.87,0,0,1,137.49,61.54Z"/><path class="cls-6" d="M142.62,61.54a.86.86,0,1,1,.54,1.09A.86.86,0,0,1,142.62,61.54Z"/><path class="cls-6" d="M147.74,61.54a.86.86,0,1,1,1.62.55.85.85,0,0,1-1.08.54A.87.87,0,0,1,147.74,61.54Z"/><path class="cls-6" d="M152.87,61.54a.86.86,0,1,1,.54,1.09A.86.86,0,0,1,152.87,61.54Z"/><path class="cls-6" d="M158,61.54a.86.86,0,1,1,1.62.55.85.85,0,0,1-1.08.54A.88.88,0,0,1,158,61.54Z"/><path class="cls-6" d="M163.12,61.54a.86.86,0,1,1,.54,1.09A.86.86,0,0,1,163.12,61.54Z"/><path class="cls-6" d="M168.25,61.54a.85.85,0,0,1,1.08-.54.87.87,0,0,1,.54,1.09.86.86,0,1,1-1.62-.55Z"/><path class="cls-6" d="M173.37,61.54a.86.86,0,1,1,.54,1.09A.86.86,0,0,1,173.37,61.54Z"/><path class="cls-6" d="M178.5,61.54a.86.86,0,0,1,1.08-.54.87.87,0,0,1,.54,1.09.86.86,0,1,1-1.62-.55Z"/><path class="cls-6" d="M183.62,61.54a.86.86,0,1,1,.54,1.09A.86.86,0,0,1,183.62,61.54Z"/><path class="cls-6" d="M188.75,61.54a.86.86,0,1,1,.54,1.09A.86.86,0,0,1,188.75,61.54Z"/><path class="cls-6" d="M193.87,61.54a.86.86,0,1,1,1.62.55.85.85,0,0,1-1.08.54A.86.86,0,0,1,193.87,61.54Z"/><path class="cls-6" d="M199,61.54a.86.86,0,1,1,.54,1.09A.86.86,0,0,1,199,61.54Z"/><path class="cls-6" d="M204.12,61.54a.86.86,0,1,1,1.62.55.85.85,0,0,1-1.08.54A.87.87,0,0,1,204.12,61.54Z"/><path class="cls-6" d="M209.25,61.54a.86.86,0,1,1,.54,1.09A.86.86,0,0,1,209.25,61.54Z"/><path class="cls-6" d="M214.37,61.54a.86.86,0,1,1,1.62.55.85.85,0,0,1-1.08.54A.87.87,0,0,1,214.37,61.54Z"/><path class="cls-6" d="M219.5,61.54a.86.86,0,1,1,.54,1.09A.86.86,0,0,1,219.5,61.54Z"/><path class="cls-6" d="M224.62,61.54a.86.86,0,1,1,.54,1.09A.87.87,0,0,1,224.62,61.54Z"/><path class="cls-6" d="M229.75,61.54a.86.86,0,1,1,.54,1.09A.86.86,0,0,1,229.75,61.54Z"/><path class="cls-6" d="M234.88,61.54A.85.85,0,0,1,236,61a.87.87,0,0,1,.54,1.09.86.86,0,1,1-1.62-.55Z"/><path class="cls-6" d="M240,61.54a.86.86,0,1,1,.54,1.09A.86.86,0,0,1,240,61.54Z"/><path class="cls-6" d="M245.13,61.54a.86.86,0,0,1,1.08-.54.87.87,0,0,1,.54,1.09.86.86,0,1,1-1.62-.55Z"/><path class="cls-6" d="M250.25,61.54a.86.86,0,1,1,1.62.55.85.85,0,0,1-1.08.54A.86.86,0,0,1,250.25,61.54Z"/><path class="cls-6" d="M255.38,61.54a.86.86,0,1,1,.54,1.09A.86.86,0,0,1,255.38,61.54Z"/><path class="cls-6" d="M260.5,61.54a.86.86,0,1,1,1.62.55.85.85,0,0,1-1.08.54A.86.86,0,0,1,260.5,61.54Z"/><path class="cls-6" d="M265.63,61.54a.86.86,0,1,1,.54,1.09A.86.86,0,0,1,265.63,61.54Z"/><path class="cls-6" d="M270.75,61.54a.86.86,0,1,1,1.62.55.85.85,0,0,1-1.08.54A.87.87,0,0,1,270.75,61.54Z"/><path class="cls-6" d="M275.88,61.54a.86.86,0,1,1,.54,1.09A.86.86,0,0,1,275.88,61.54Z"/><path class="cls-6" d="M281,61.54a.86.86,0,1,1,1.62.55.85.85,0,0,1-1.08.54A.87.87,0,0,1,281,61.54Z"/><path class="cls-6" d="M286.13,61.54a.86.86,0,1,1,.54,1.09A.86.86,0,0,1,286.13,61.54Z"/><path class="cls-6" d="M291.25,61.54a.86.86,0,1,1,1.62.55.85.85,0,0,1-1.08.54A.88.88,0,0,1,291.25,61.54Z"/><path class="cls-6" d="M296.38,61.54a.86.86,0,1,1,.54,1.09A.86.86,0,0,1,296.38,61.54Z"/><path class="cls-6" d="M301.51,61.54a.86.86,0,0,1,1.08-.54.87.87,0,0,1,.54,1.09.86.86,0,1,1-1.62-.55Z"/><path class="cls-6" d="M306.63,61.54a.86.86,0,1,1,.54,1.09A.86.86,0,0,1,306.63,61.54Z"/><path class="cls-6" d="M311.76,61.54a.86.86,0,0,1,1.08-.54.87.87,0,0,1,.54,1.09.86.86,0,1,1-1.62-.55Z"/><path class="cls-6" d="M316.88,61.54a.86.86,0,1,1,1.62.55.85.85,0,0,1-1.08.54A.86.86,0,0,1,316.88,61.54Z"/><path class="cls-6" d="M322,61.54a.86.86,0,1,1,.54,1.09A.86.86,0,0,1,322,61.54Z"/><path class="cls-6" d="M327.13,61.54a.86.86,0,1,1,1.62.55.85.85,0,0,1-1.08.54A.86.86,0,0,1,327.13,61.54Z"/><path class="cls-6" d="M332.26,61.54a.86.86,0,1,1,.54,1.09A.86.86,0,0,1,332.26,61.54Z"/><path class="cls-6" d="M337.38,61.54a.86.86,0,1,1,1.62.55.85.85,0,0,1-1.08.54A.87.87,0,0,1,337.38,61.54Z"/><path class="cls-6" d="M342.51,61.54a.86.86,0,1,1,.54,1.09A.86.86,0,0,1,342.51,61.54Z"/><path class="cls-6" d="M347.63,61.54a.86.86,0,1,1,1.62.55.85.85,0,0,1-1.08.54A.87.87,0,0,1,347.63,61.54Z"/><path class="cls-6" d="M352.76,61.54a.86.86,0,1,1,.54,1.09A.86.86,0,0,1,352.76,61.54Z"/><path class="cls-6" d="M357.89,61.54A.85.85,0,0,1,359,61a.86.86,0,0,1,.53,1.09.85.85,0,0,1-1.08.54A.86.86,0,0,1,357.89,61.54Z"/><path class="cls-6" d="M363,61.54a.86.86,0,1,1,.54,1.09A.86.86,0,0,1,363,61.54Z"/><path class="cls-6" d="M368.14,61.54a.86.86,0,0,1,1.08-.54.87.87,0,0,1,.54,1.09.86.86,0,1,1-1.62-.55Z"/><path class="cls-6" d="M373.26,61.54a.86.86,0,1,1,.54,1.09A.86.86,0,0,1,373.26,61.54Z"/><path class="cls-6" d="M378.39,61.54a.86.86,0,0,1,1.08-.54.87.87,0,0,1,.54,1.09.86.86,0,1,1-1.62-.55Z"/><path class="cls-6" d="M383.51,61.54a.86.86,0,1,1,1.62.55.85.85,0,0,1-1.08.54A.86.86,0,0,1,383.51,61.54Z"/><path class="cls-6" d="M388.64,61.54a.86.86,0,1,1,.54,1.09A.86.86,0,0,1,388.64,61.54Z"/><path class="cls-6" d="M393.76,61.54a.86.86,0,1,1,1.62.55.85.85,0,0,1-1.08.54A.86.86,0,0,1,393.76,61.54Z"/><path class="cls-6" d="M398.89,61.54a.86.86,0,1,1,.54,1.09A.86.86,0,0,1,398.89,61.54Z"/><path class="cls-6" d="M404,61.54a.86.86,0,1,1,1.62.55.85.85,0,0,1-1.08.54A.87.87,0,0,1,404,61.54Z"/><path class="cls-6" d="M409.14,61.54a.86.86,0,1,1,.54,1.09A.86.86,0,0,1,409.14,61.54Z"/><path class="cls-6" d="M414.26,61.54a.86.86,0,1,1,1.62.55.85.85,0,0,1-1.08.54A.87.87,0,0,1,414.26,61.54Z"/><rect class="cls-4" x="28.45" y="21.89" width="102.57" height="8.7"/><rect class="cls-28" x="36.11" y="30.59" width="87.24" height="16.27"/><rect class="cls-29" x="36.11" y="35.47" width="87.24" height="6.52"/><path class="cls-4" d="M307.31,46.87H203.37V29.46H289.9a17.42,17.42,0,0,1,17,13.59A17.81,17.81,0,0,1,307.31,46.87Z"/><rect class="cls-28" x="212.95" y="29.45" width="3.41" height="13.6"/><rect class="cls-28" x="220.24" y="29.45" width="3.41" height="13.6"/><rect class="cls-28" x="227.52" y="29.45" width="3.41" height="13.6"/><rect class="cls-28" x="234.81" y="29.45" width="3.41" height="13.6"/><path class="cls-28" d="M306.89,43.05H238.22v3.81h-3.41V43.05h-3.88v3.81h-3.41V43.05h-3.88v3.81h-3.4V43.05h-3.88v3.81H213V43.05h-9.58v3.82H307.31A17.81,17.81,0,0,0,306.89,43.05Z"/><rect class="cls-29" x="212.95" y="43.05" width="3.41" height="3.81"/><rect class="cls-29" x="220.24" y="43.05" width="3.41" height="3.81"/><rect class="cls-29" x="227.52" y="43.05" width="3.41" height="3.81"/><rect class="cls-29" x="234.81" y="43.05" width="3.41" height="3.81"/><rect class="cls-6" x="335.32" y="57.91" width="1.51" height="117.57"/><rect class="cls-30" x="127.04" y="104.54" width="188.48" height="54.83"/><polygon class="cls-31" points="315.52 104.54 315.52 159.37 127.04 159.37 315.52 104.54"/><rect class="cls-32" x="223.22" y="104.54" width="92.3" height="54.83"/><polygon class="cls-33" points="286.32 155.19 310.57 126.24 310.57 115.5 286.32 144.46 286.32 155.19"/><polygon class="cls-34" points="257.11 104.54 257.11 135.57 281.37 106.6 281.37 104.54 257.11 104.54"/><polygon class="cls-34" points="239.66 104.54 228.17 118.26 228.17 159.37 237.19 159.37 252.16 141.49 252.16 104.54 239.66 104.54"/><polygon class="cls-34" points="310.57 115.5 310.57 104.54 307.9 104.54 286.32 130.33 286.32 144.46 310.57 115.5"/><polygon class="cls-34" points="262 159.37 273.83 159.37 281.37 150.37 281.37 136.24 262 159.37"/><polygon class="cls-34" points="286.32 155.19 286.32 159.37 294.64 159.37 310.57 140.35 310.57 126.24 286.32 155.19"/><polygon class="cls-4" points="228.17 104.54 223.22 104.54 223.22 124.17 228.17 118.26 228.17 104.54"/><polygon class="cls-35" points="223.22 124.17 223.22 159.37 228.17 159.37 228.17 118.26 223.22 124.17"/><polygon class="cls-4" points="252.16 159.37 257.11 159.37 257.11 135.57 252.16 141.49 252.16 159.37"/><polygon class="cls-35" points="252.16 104.54 252.16 141.49 257.11 135.57 257.11 104.54 252.16 104.54"/><polygon class="cls-4" points="286.32 144.46 281.37 150.37 281.37 159.37 282.82 159.37 286.32 155.19 286.32 144.46"/><polygon class="cls-4" points="286.32 104.54 283.09 104.54 281.37 106.6 281.37 136.24 286.32 130.33 286.32 104.54"/><polygon class="cls-4" points="281.37 104.54 281.37 106.6 283.09 104.54 281.37 104.54"/><polygon class="cls-35" points="286.32 130.33 281.37 136.24 281.37 150.37 286.32 144.46 286.32 130.33"/><polygon class="cls-4" points="282.82 159.37 286.32 159.37 286.32 155.19 282.82 159.37"/><polygon class="cls-4" points="310.57 159.37 315.52 159.37 315.52 134.44 310.57 140.35 310.57 159.37"/><polygon class="cls-4" points="310.57 126.24 315.52 120.33 315.52 109.59 310.57 115.5 310.57 126.24"/><polygon class="cls-35" points="310.57 104.54 310.57 115.5 315.52 109.59 315.52 104.54 310.57 104.54"/><polygon class="cls-35" points="310.57 140.35 315.52 134.44 315.52 120.33 310.57 126.24 310.57 140.35"/><polygon class="cls-36" points="315.52 159.37 127.04 159.37 117.7 167.21 324.22 167.21 315.52 159.37"/><rect class="cls-37" x="117.7" y="167.21" width="206.52" height="8.27"/><path class="cls-38" d="M118,99.66h13.77a0,0,0,0,1,0,0v11.91a4.43,4.43,0,0,1-4.43,4.43h-4.92a4.43,4.43,0,0,1-4.43-4.43V99.66A0,0,0,0,1,118,99.66Z"/><path class="cls-39" d="M131.79,99.66h13.77a0,0,0,0,1,0,0v11.91a4.43,4.43,0,0,1-4.43,4.43h-4.92a4.43,4.43,0,0,1-4.43-4.43V99.66A0,0,0,0,1,131.79,99.66Z"/><path class="cls-38" d="M145.56,99.66h13.77a0,0,0,0,1,0,0v11.91A4.43,4.43,0,0,1,154.9,116H150a4.43,4.43,0,0,1-4.43-4.43V99.66a0,0,0,0,1,0,0Z"/><path class="cls-39" d="M159.32,99.66h13.77a0,0,0,0,1,0,0v11.91a4.43,4.43,0,0,1-4.43,4.43h-4.92a4.43,4.43,0,0,1-4.43-4.43V99.66A0,0,0,0,1,159.32,99.66Z"/><path class="cls-38" d="M173.09,99.66h13.77a0,0,0,0,1,0,0v11.91a4.43,4.43,0,0,1-4.43,4.43h-4.92a4.43,4.43,0,0,1-4.43-4.43V99.66A0,0,0,0,1,173.09,99.66Z"/><path class="cls-39" d="M186.86,99.66h13.77a0,0,0,0,1,0,0v11.91A4.43,4.43,0,0,1,196.2,116h-4.92a4.43,4.43,0,0,1-4.43-4.43V99.66A0,0,0,0,1,186.86,99.66Z"/><path class="cls-38" d="M200.63,99.66H214.4a0,0,0,0,1,0,0v11.91A4.43,4.43,0,0,1,210,116h-4.92a4.43,4.43,0,0,1-4.43-4.43V99.66A0,0,0,0,1,200.63,99.66Z"/><path class="cls-39" d="M214.4,99.66h13.77a0,0,0,0,1,0,0v11.91a4.43,4.43,0,0,1-4.43,4.43h-4.92a4.43,4.43,0,0,1-4.43-4.43V99.66A0,0,0,0,1,214.4,99.66Z"/><path class="cls-38" d="M228.16,99.66h13.77a0,0,0,0,1,0,0v11.91a4.43,4.43,0,0,1-4.43,4.43h-4.92a4.43,4.43,0,0,1-4.43-4.43V99.66A0,0,0,0,1,228.16,99.66Z"/><path class="cls-39" d="M241.93,99.66H255.7a0,0,0,0,1,0,0v11.91a4.43,4.43,0,0,1-4.43,4.43h-4.92a4.43,4.43,0,0,1-4.43-4.43V99.66A0,0,0,0,1,241.93,99.66Z"/><path class="cls-38" d="M255.7,99.66h13.77a0,0,0,0,1,0,0v11.91A4.43,4.43,0,0,1,265,116h-4.92a4.43,4.43,0,0,1-4.43-4.43V99.66A0,0,0,0,1,255.7,99.66Z"/><path class="cls-39" d="M269.47,99.66h13.77a0,0,0,0,1,0,0v11.91a4.43,4.43,0,0,1-4.43,4.43h-4.92a4.43,4.43,0,0,1-4.43-4.43V99.66A0,0,0,0,1,269.47,99.66Z"/><path class="cls-38" d="M283.23,99.66H297a0,0,0,0,1,0,0v11.91a4.43,4.43,0,0,1-4.43,4.43h-4.92a4.43,4.43,0,0,1-4.43-4.43V99.66A0,0,0,0,1,283.23,99.66Z"/><path class="cls-39" d="M297,99.66h13.77a0,0,0,0,1,0,0v11.91a4.43,4.43,0,0,1-4.43,4.43h-4.92a4.43,4.43,0,0,1-4.43-4.43V99.66A0,0,0,0,1,297,99.66Z"/><path class="cls-38" d="M310.77,99.66h13.77a0,0,0,0,1,0,0v11.91a4.43,4.43,0,0,1-4.43,4.43H315.2a4.43,4.43,0,0,1-4.43-4.43V99.66A0,0,0,0,1,310.77,99.66Z"/><polygon class="cls-40" points="324.54 99.66 118.02 99.66 127.36 83.65 315.84 83.65 324.54 99.66"/><polygon class="cls-41" points="145.7 99.64 131.91 99.77 137.8 83.67 151.2 83.67 145.7 99.64"/><polygon class="cls-41" points="173.12 99.64 159.31 99.77 163.08 83.7 176.5 83.7 173.12 99.64"/><polygon class="cls-41" points="202.54 83.65 200.66 99.65 198.93 99.66 186.85 99.77 186.87 99.66 189.06 83.65 202.54 83.65"/><polygon class="cls-41" points="296.98 99.64 310.77 99.77 304.88 83.67 291.48 83.67 296.98 99.64"/><polygon class="cls-41" points="283.36 99.77 271.3 99.66 269.57 99.65 266.18 83.65 279.61 83.65 283.33 99.66 283.36 99.77"/><polygon class="cls-41" points="255.83 99.77 243.75 99.66 242.02 99.65 240.17 83.65 253.63 83.65 255.81 99.66 255.83 99.77"/><rect class="cls-41" x="214.39" y="83.65" width="13.78" height="16.02"/><polygon class="cls-42" points="315.52 159.37 117.7 167.21 324.22 167.21 315.52 159.37"/><rect class="cls-43" x="132.11" y="145.77" width="7.57" height="13.6" rx="0.42"/><rect class="cls-4" x="132.77" y="144.33" width="6.26" height="1.44"/><path class="cls-5" d="M137.59,142.89h-3.38a1.43,1.43,0,0,0-1.44,1.44H139A1.44,1.44,0,0,0,137.59,142.89Z"/><rect class="cls-5" x="135.36" y="139.65" width="1.08" height="3.69"/><rect class="cls-28" x="133.2" y="144.33" width="0.32" height="1.44"/><rect class="cls-28" x="134.04" y="144.33" width="0.32" height="1.44"/><rect class="cls-28" x="134.89" y="144.33" width="0.32" height="1.44"/><rect class="cls-28" x="135.74" y="144.33" width="0.32" height="1.44"/><rect class="cls-28" x="136.58" y="144.33" width="0.32" height="1.44"/><rect class="cls-28" x="137.43" y="144.33" width="0.32" height="1.44"/><rect class="cls-28" x="138.28" y="144.33" width="0.32" height="1.44"/><rect class="cls-44" x="133.2" y="149.49" width="5.62" height="6.54" rx="0.2"/><path class="cls-43" d="M137.19,153.16a1.18,1.18,0,0,1-2.36,0c0-.65,1.18-2,1.18-2S137.19,152.51,137.19,153.16Z"/><rect class="cls-7" x="142.34" y="145.77" width="7.57" height="13.6" rx="0.42"/><rect class="cls-4" x="143" y="144.33" width="6.26" height="1.44"/><path class="cls-5" d="M147.82,142.89h-3.38a1.43,1.43,0,0,0-1.44,1.44h6.26A1.44,1.44,0,0,0,147.82,142.89Z"/><rect class="cls-5" x="145.59" y="139.65" width="1.08" height="3.69"/><rect class="cls-28" x="143.43" y="144.33" width="0.32" height="1.44"/><rect class="cls-28" x="144.27" y="144.33" width="0.32" height="1.44"/><rect class="cls-28" x="145.12" y="144.33" width="0.32" height="1.44"/><rect class="cls-28" x="145.97" y="144.33" width="0.32" height="1.44"/><rect class="cls-28" x="146.81" y="144.33" width="0.32" height="1.44"/><rect class="cls-28" x="147.66" y="144.33" width="0.32" height="1.44"/><rect class="cls-28" x="148.51" y="144.33" width="0.32" height="1.44"/><rect class="cls-44" x="143.43" y="149.49" width="5.62" height="6.54" rx="0.2"/><path class="cls-7" d="M147.42,153.16a1.18,1.18,0,1,1-2.36,0c0-.65,1.18-2,1.18-2S147.42,152.51,147.42,153.16Z"/><path class="cls-45" d="M218.3,140.69a3.33,3.33,0,1,1-3.33-3.33A3.33,3.33,0,0,1,218.3,140.69Z"/><path class="cls-45" d="M218.3,147.39v11.27a.37.37,0,0,1-.16.29v.1a.32.32,0,0,1-.33.32h-1.13a.32.32,0,0,1-.33-.32v0h-.49v0a.32.32,0,0,1-.32.32H214.4a.32.32,0,0,1-.32-.32v0h-.49v0a.32.32,0,0,1-.32.32h-1.14a.32.32,0,0,1-.32-.32V159a.36.36,0,0,1-.17-.29V147.39a1.59,1.59,0,0,1,1.06-1.49v-2.69h4.54v2.69A1.58,1.58,0,0,1,218.3,147.39Z"/><rect class="cls-46" x="213.59" y="136.18" width="2.76" height="1.94" rx="0.27"/><rect class="cls-47" x="211.64" y="148.48" width="6.66" height="5.47"/><rect class="cls-48" x="212.56" y="149.39" width="4.83" height="3.64"/><rect class="cls-49" x="213.99" y="136.18" width="1.14" height="1.94"/><rect class="cls-50" x="212.7" y="143.1" width="4.54" height="1.12"/><path class="cls-51" d="M218.3,157.45v1.21a.37.37,0,0,1-.16.29v.1a.32.32,0,0,1-.33.32h-1.13a.32.32,0,0,1-.33-.32v0h-.49v0a.32.32,0,0,1-.32.32H214.4a.32.32,0,0,1-.32-.32v0h-.49v0a.32.32,0,0,1-.32.32h-1.14a.32.32,0,0,1-.32-.32V159a.36.36,0,0,1-.17-.29v-1.21Z"/><path class="cls-52" d="M213.23,139.34a.42.42,0,0,1-.42.42.41.41,0,0,1-.41-.42.41.41,0,0,1,.41-.41A.41.41,0,0,1,213.23,139.34Z"/><rect class="cls-50" x="211.64" y="155.17" width="6.66" height="1.26"/><path class="cls-53" d="M208.71,140.69a3.33,3.33,0,1,1-3.33-3.33A3.33,3.33,0,0,1,208.71,140.69Z"/><path class="cls-53" d="M208.71,147.39v11.27a.36.36,0,0,1-.17.29v.1a.32.32,0,0,1-.32.32h-1.14a.32.32,0,0,1-.32-.32v0h-.49v0a.32.32,0,0,1-.32.32h-1.14a.32.32,0,0,1-.32-.32v0H204v0a.32.32,0,0,1-.32.32h-1.14a.32.32,0,0,1-.32-.32V159a.36.36,0,0,1-.17-.29V147.39a1.59,1.59,0,0,1,1.06-1.49v-2.69h4.54v2.69A1.58,1.58,0,0,1,208.71,147.39Z"/><rect class="cls-46" x="204" y="136.18" width="2.76" height="1.94" rx="0.27"/><rect class="cls-54" x="202.05" y="148.48" width="6.66" height="5.47"/><rect class="cls-55" x="202.96" y="149.39" width="4.83" height="3.64"/><rect class="cls-49" x="204.4" y="136.18" width="1.14" height="1.94"/><rect class="cls-56" x="203.11" y="143.1" width="4.54" height="1.12"/><path class="cls-57" d="M208.71,157.45v1.21a.36.36,0,0,1-.17.29v.1a.32.32,0,0,1-.32.32h-1.14a.32.32,0,0,1-.32-.32v0h-.49v0a.32.32,0,0,1-.32.32h-1.14a.32.32,0,0,1-.32-.32v0H204v0a.32.32,0,0,1-.32.32h-1.14a.32.32,0,0,1-.32-.32V159a.36.36,0,0,1-.17-.29v-1.21Z"/><circle class="cls-56" cx="203.22" cy="139.34" r="0.42"/><rect class="cls-56" x="202.05" y="155.17" width="6.66" height="1.26"/><path class="cls-58" d="M199.12,140.69a3.33,3.33,0,1,1-3.33-3.33A3.33,3.33,0,0,1,199.12,140.69Z"/><path class="cls-58" d="M199.12,147.39v11.27a.36.36,0,0,1-.17.29v.1a.32.32,0,0,1-.32.32h-1.14a.32.32,0,0,1-.32-.32v0h-.49v0a.32.32,0,0,1-.32.32h-1.14a.32.32,0,0,1-.32-.32v0h-.49v0a.32.32,0,0,1-.32.32H193a.32.32,0,0,1-.32-.32V159a.36.36,0,0,1-.17-.29V147.39a1.58,1.58,0,0,1,1.06-1.49v-2.69h4.54v2.69A1.59,1.59,0,0,1,199.12,147.39Z"/><rect class="cls-46" x="194.41" y="136.18" width="2.76" height="1.94" rx="0.27"/><rect class="cls-59" x="192.46" y="148.48" width="6.66" height="5.47"/><rect class="cls-60" x="193.37" y="149.39" width="4.83" height="3.64"/><rect class="cls-49" x="194.81" y="136.18" width="1.14" height="1.94"/><rect class="cls-61" x="193.52" y="143.1" width="4.54" height="1.12"/><path class="cls-62" d="M199.12,157.45v1.21a.36.36,0,0,1-.17.29v.1a.32.32,0,0,1-.32.32h-1.14a.32.32,0,0,1-.32-.32v0h-.49v0a.32.32,0,0,1-.32.32h-1.14a.32.32,0,0,1-.32-.32v0h-.49v0a.32.32,0,0,1-.32.32H193a.32.32,0,0,1-.32-.32V159a.36.36,0,0,1-.17-.29v-1.21Z"/><circle class="cls-52" cx="193.63" cy="139.34" r="0.42"/><rect class="cls-61" x="192.46" y="155.17" width="6.66" height="1.26"/><rect class="cls-5" x="231.46" y="120.47" width="17.4" height="22.41"/><rect class="cls-41" x="233.42" y="123.01" width="13.5" height="2.01"/><rect class="cls-14" x="233.42" y="127.42" width="13.24" height="0.76"/><rect class="cls-14" x="233.42" y="130.56" width="13.24" height="0.76"/><rect class="cls-14" x="233.42" y="133.69" width="13.24" height="0.76"/><rect class="cls-14" x="233.42" y="136.83" width="13.24" height="0.76"/><rect class="cls-14" x="233.42" y="139.97" width="13.24" height="0.76"/><path class="cls-2" d="M394.48,30.76V44.65h-4.39a2.37,2.37,0,0,1-2.36-2.37V33.14a2.37,2.37,0,0,1,2.36-2.38Z"/><rect class="cls-63" x="391.59" y="30.76" width="0.87" height="13.88"/><path class="cls-41" d="M418.13,7.74c-6,2.66-14,3.21-17.41,3.29V24.65c5.92.07,11.37.62,17.41,3.28a39,39,0,0,1,10.73,7,2.64,2.64,0,0,0,4.41-2V2.66a2.64,2.64,0,0,0-4.41-2A38.58,38.58,0,0,1,418.13,7.74Z"/><path class="cls-64" d="M420.07,22.68a1,1,0,0,1-1.51.83,26.94,26.94,0,0,0-3.81-2.07c-2.36-1-8.95-1.72-11.5-2V16.27c2.55-.32,9.14-1,11.5-2a25.91,25.91,0,0,0,3.81-2.06,1,1,0,0,1,1.51.83Z"/><rect class="cls-2" x="392.46" y="25.6" width="4.04" height="21.27"/><path class="cls-65" d="M401.38,25.6H389.59a1.86,1.86,0,0,1-1.86-1.86V11.94a1.86,1.86,0,0,1,1.86-1.86h11.79a1.87,1.87,0,0,1,1.87,1.86v11.8A1.87,1.87,0,0,1,401.38,25.6Z"/><rect class="cls-10" x="399.71" y="11.59" width="2.02" height="12.49"/></g></g></svg>